<svg width="554" height="419" viewBox="0 0 554 419" fill="none" xmlns="http://www.w3.org/2000/svg">
<g clip-path="url(#clip0)">
<path d="M553.05 280.115H186.791V280.298H553.05V280.115Z" fill="#EBEBEB"/>
<path d="M516.351 291.901H492.09V292.084H516.351V291.901Z" fill="#EBEBEB"/>
<path d="M429.415 293.893H423.05V294.077H429.415V293.893Z" fill="#EBEBEB"/>
<path d="M491.358 285.103H477.301V285.286H491.358V285.103Z" fill="#EBEBEB"/>
<path d="M256.856 286.334H225.219V286.517H256.856V286.334Z" fill="#EBEBEB"/>
<path d="M268.02 286.334H263.383V286.517H268.02V286.334Z" fill="#EBEBEB"/>
<path d="M351.717 289.425H283.095V289.608H351.717V289.425Z" fill="#EBEBEB"/>
<path d="M360.397 247.445H218.956C217.848 247.443 216.786 247.001 216.003 246.217C215.22 245.433 214.78 244.37 214.78 243.262V44.4346C214.79 43.3329 215.234 42.2795 216.016 41.5032C216.797 40.727 217.854 40.2905 218.956 40.2886H360.397C361.507 40.2886 362.571 40.7292 363.355 41.5137C364.139 42.2981 364.58 43.3619 364.58 44.4712V243.262C364.58 244.371 364.139 245.435 363.355 246.219C362.571 247.004 361.507 247.445 360.397 247.445ZM218.956 40.4351C217.896 40.437 216.881 40.8593 216.132 41.6091C215.384 42.359 214.963 43.3751 214.963 44.4346V243.262C214.963 244.321 215.384 245.338 216.132 246.087C216.881 246.837 217.896 247.259 218.956 247.261H360.397C361.458 247.259 362.474 246.837 363.223 246.088C363.973 245.338 364.395 244.322 364.397 243.262V44.4346C364.395 43.3745 363.973 42.3583 363.223 41.6087C362.474 40.859 361.458 40.437 360.397 40.4351H218.956Z" fill="#EBEBEB"/>
<path d="M518.849 247.445H377.399C376.291 247.443 375.228 247.001 374.444 246.217C373.66 245.433 373.219 244.371 373.217 243.262V44.4346C373.228 43.3323 373.674 42.2789 374.457 41.5028C375.24 40.7267 376.297 40.2904 377.399 40.2886H518.849C519.949 40.2924 521.004 40.7297 521.784 41.5058C522.564 42.2819 523.007 43.3342 523.017 44.4346V243.262C523.017 244.369 522.578 245.43 521.797 246.214C521.015 246.998 519.955 247.441 518.849 247.445ZM377.399 40.4351C376.339 40.437 375.323 40.859 374.574 41.6087C373.824 42.3583 373.402 43.3745 373.4 44.4346V243.262C373.402 244.322 373.824 245.338 374.574 246.088C375.323 246.837 376.339 247.259 377.399 247.261H518.849C519.909 247.259 520.925 246.837 521.675 246.088C522.424 245.338 522.846 244.322 522.848 243.262V44.4346C522.846 43.3745 522.424 42.3583 521.675 41.6087C520.925 40.859 519.909 40.437 518.849 40.4351H377.399Z" fill="#EBEBEB"/>
<path d="M247.59 280.115H472.912L360.251 93.6378L247.59 280.115Z" fill="#F0F0F0"/>
<path d="M331.684 280.115H537.668L434.676 133.501L331.684 280.115Z" fill="#F5F5F5"/>
<path d="M212.106 280.115H390.137L280.143 176.698L212.106 280.115Z" fill="#FAFAFA"/>
<path d="M351.718 280.115H469.28L410.495 229.776L351.718 280.115Z" fill="white"/>
<path d="M274.745 77.1634H424.86C424.86 77.1634 417.996 65.1209 404.972 65.1209C391.948 65.1209 404.159 71.7868 394.094 71.7868C384.029 71.7868 373.583 50.1335 341.514 50.1335C309.444 50.1335 335.954 66.4247 319.377 66.4247C302.8 66.4247 249.597 52.0088 274.745 77.1634Z" fill="#FAFAFA"/>
<path d="M240.902 143.852H315.941C315.941 143.852 312.527 137.823 306.015 137.823C299.503 137.823 305.605 141.164 300.558 141.164C295.511 141.164 290.303 130.337 274.275 130.337C258.248 130.337 271.506 138.446 263.2 138.446C254.893 138.446 228.325 131.275 240.902 143.852Z" fill="#FAFAFA"/>
<path d="M491.174 118.91C484.838 118.91 490.778 122.155 485.87 122.155C480.963 122.155 475.886 111.621 460.284 111.621C444.937 111.621 456.518 120.58 449.245 120.887H448.849C441.568 120.887 434.052 105.27 410.927 105.27C387.801 105.27 406.934 116.99 394.958 116.99C382.981 116.99 344.641 106.603 362.786 124.74H500.843C500.843 124.74 497.518 118.91 491.174 118.91Z" fill="#FAFAFA"/>
<path d="M369.92 313.195C448.36 313.195 511.948 309.483 511.948 304.903C511.948 300.323 448.36 296.611 369.92 296.611C291.481 296.611 227.893 300.323 227.893 304.903C227.893 309.483 291.481 313.195 369.92 313.195Z" fill="#F5F5F5"/>
<path d="M443.905 299.395C443.978 299.389 444.048 299.363 444.106 299.319C444.165 299.274 444.209 299.214 444.234 299.146C444.28 299.042 444.288 298.926 444.259 298.817C444.23 298.708 444.164 298.612 444.073 298.545C404.232 274.013 386.607 203.493 386.439 202.783C386.431 202.731 386.413 202.682 386.385 202.638C386.357 202.594 386.32 202.557 386.276 202.528C386.232 202.5 386.183 202.481 386.132 202.473C386.08 202.465 386.027 202.468 385.977 202.483C385.876 202.53 385.796 202.613 385.75 202.715C385.704 202.817 385.697 202.932 385.728 203.039C385.904 203.772 403.616 274.635 443.736 299.343C443.788 299.374 443.845 299.391 443.905 299.395Z" fill="#0D3344"/>
<path d="M402.635 301.695H369.518L386.08 202.907L402.635 301.695Z" fill="white"/>
<path d="M355.072 301.695L386.079 202.907H300.309L261.397 301.695H355.072Z" fill="#0D3344"/>
<path d="M334.467 200.409H322.52V201.127H334.467V200.409Z" fill="#0D3344"/>
<path d="M317.795 200.409H313.393V201.127H317.795V200.409Z" fill="#0D3344"/>
<path opacity="0.2" d="M355.072 301.695L386.079 202.907H300.309L261.397 301.695H355.072Z" fill="black"/>
<path d="M380.85 301.695L386.08 202.907L355.072 301.695H380.85Z" fill="#0D3344"/>
<path d="M391.302 301.695L386.079 202.907L417.079 301.695H391.302Z" fill="#0D3344"/>
<path d="M302.601 302.142C330.943 302.142 352.23 275.178 365.1 252.557C373.879 236.83 381.024 220.245 386.423 203.061C386.459 202.954 386.456 202.838 386.415 202.734C386.373 202.629 386.296 202.543 386.196 202.49C386.148 202.472 386.096 202.465 386.045 202.469C385.993 202.474 385.943 202.489 385.898 202.515C385.854 202.541 385.815 202.576 385.785 202.619C385.756 202.661 385.736 202.71 385.728 202.761C380.35 219.876 373.232 236.396 364.485 252.059C351.717 274.496 330.62 301.248 302.601 301.248C302.494 301.259 302.395 301.312 302.326 301.396C302.258 301.48 302.225 301.587 302.235 301.695C302.225 301.802 302.258 301.91 302.326 301.993C302.395 302.077 302.494 302.13 302.601 302.142Z" fill="white"/>
<path d="M246.586 267.457H311.172V263.86H246.586V267.457Z" fill="#49A0EB"/>
<path opacity="0.2" d="M246.587 267.457H269.808V263.86H246.587V267.457Z" fill="black"/>
<path d="M290.06 301.695H293.232L267.711 267.457H264.532L290.06 301.695Z" fill="#49A0EB"/>
<path d="M267.711 301.695H264.532L290.06 267.457H293.232L267.711 301.695Z" fill="#49A0EB"/>
<path d="M301.064 253.59C301.064 259.267 295.299 263.845 288.187 263.845C281.074 263.845 275.316 259.245 275.316 253.59H301.064Z" fill="#49A0EB"/>
</g>
<path d="M183.129 365.936C261.569 365.936 325.157 362.224 325.157 357.644C325.157 353.065 261.569 349.352 183.129 349.352C104.69 349.352 41.1016 353.065 41.1016 357.644C41.1016 362.224 104.69 365.936 183.129 365.936Z" fill="#F5F5F5"/>
<path d="M158.427 186.323C162.979 186.323 166.668 182.634 166.668 178.082C166.668 173.531 162.979 169.842 158.427 169.842C153.876 169.842 150.187 173.531 150.187 178.082C150.187 182.634 153.876 186.323 158.427 186.323Z" fill="#263238"/>
<path d="M159.292 179.101C157.095 181.115 153.923 181.24 152.216 179.372C150.51 177.504 150.898 174.339 153.095 172.354C155.293 170.369 158.465 170.215 160.171 172.083C161.878 173.951 161.49 177.086 159.292 179.101Z" fill="#407BFF"/>
<path d="M150.966 181.645C153.955 178.656 153.955 173.809 150.966 170.82C147.976 167.83 143.13 167.83 140.14 170.82C137.151 173.809 137.151 178.656 140.14 181.645C143.13 184.635 147.976 184.635 150.966 181.645Z" fill="#263238"/>
<path d="M137.237 194.776C136.416 196.974 135.493 198.886 134.512 200.886C133.53 202.885 132.417 204.79 131.237 206.68C130.056 208.598 128.749 210.435 127.326 212.181C126.608 213.06 125.849 213.917 125.048 214.752C124.652 215.177 124.235 215.58 123.81 215.983C123.605 216.188 123.378 216.378 123.165 216.576L122.835 216.876C122.618 217.062 122.387 217.234 122.147 217.389C121.6 217.74 120.987 217.972 120.345 218.07C119.772 218.156 119.189 218.136 118.623 218.012C117.798 217.83 117.016 217.487 116.323 217.001C115.306 216.271 114.385 215.415 113.584 214.452C112.168 212.762 110.894 210.959 109.775 209.06C107.61 205.395 105.722 201.573 104.127 197.626L106.815 196.256C107.877 197.992 108.969 199.758 110.097 201.464C111.225 203.171 112.353 204.878 113.554 206.489C114.688 208.085 115.939 209.593 117.298 211.002C117.87 211.603 118.517 212.127 119.224 212.562C119.391 212.674 119.582 212.747 119.781 212.774C119.781 212.774 119.744 212.774 119.627 212.774C119.514 212.786 119.404 212.821 119.305 212.877H119.253C119.253 212.877 119.209 212.914 119.253 212.877L119.51 212.621C119.678 212.452 119.854 212.291 120.015 212.108C120.352 211.761 120.682 211.402 121.004 211.031C121.649 210.298 122.271 209.522 122.857 208.716C124.044 207.112 125.143 205.413 126.19 203.669C127.238 201.926 128.183 200.102 129.12 198.271C130.058 196.439 130.9 194.52 131.64 192.74L137.237 194.776Z" fill="#FF8B7B"/>
<path d="M141.309 196.718C140.445 198.439 137.896 201.413 135.896 203.611C134.431 205.185 133.31 206.365 133.31 206.365L132.424 205.632L125.099 199.318C127.208 194.85 129.853 190.096 135.647 189.312C139.266 188.792 142.84 193.656 141.309 196.718Z" fill="#EA377D"/>
<path opacity="0.3" d="M135.896 203.64C134.431 205.215 133.31 206.394 133.31 206.394L132.424 205.662C133.156 203.86 134.409 201.069 135.808 200.051C136.094 201.227 136.124 202.451 135.896 203.64Z" fill="black"/>
<path d="M107.188 197.597L108.104 192.55L101.943 192.784C101.943 192.784 103.145 196.849 104.742 198.644L107.188 197.597Z" fill="#FF8B7B"/>
<path d="M106.419 190.235L101.848 191.26L101.943 192.784L108.103 192.549L106.419 190.235Z" fill="#FF8B7B"/>
<path d="M145.345 351.953L139.404 352.509L139.507 338.958L145.448 338.401L145.345 351.953Z" fill="#FF8B7B"/>
<path d="M176.799 349.125L170.946 350.019L167.364 336.819L173.217 335.918L176.799 349.125Z" fill="#FF8B7B"/>
<path d="M169.943 347.851L176.47 346.517C176.579 346.49 176.695 346.506 176.793 346.562C176.892 346.618 176.965 346.71 176.997 346.818L178.652 351.799C178.688 351.927 178.698 352.061 178.68 352.193C178.662 352.325 178.618 352.451 178.549 352.565C178.48 352.679 178.389 352.778 178.281 352.855C178.173 352.933 178.05 352.987 177.92 353.015C175.635 353.44 174.521 353.528 171.65 354.114C169.884 354.48 166.024 355.535 163.592 356.033C161.16 356.531 160.603 354.158 161.577 353.733C165.973 351.828 167.753 349.997 169.056 348.4C169.28 348.121 169.593 347.927 169.943 347.851Z" fill="#263238"/>
<path d="M138.76 350.751H145.77C145.895 350.751 146.017 350.793 146.115 350.87C146.213 350.947 146.283 351.055 146.312 351.176L147.675 356.707C147.709 356.839 147.712 356.978 147.683 357.112C147.655 357.246 147.595 357.371 147.51 357.478C147.425 357.585 147.316 357.671 147.192 357.729C147.068 357.787 146.933 357.816 146.796 357.813C144.327 357.813 143.133 357.644 140.086 357.644C138.196 357.644 133.296 357.827 130.688 357.827C128.08 357.827 127.67 355.242 128.732 355.007C133.501 353.96 136.277 352.517 137.779 351.132C138.047 350.888 138.397 350.752 138.76 350.751Z" fill="#263238"/>
<path opacity="0.2" d="M139.508 338.958L139.449 345.946H145.39L145.449 338.401L139.508 338.958Z" fill="black"/>
<path opacity="0.2" d="M173.224 335.925L167.364 336.819L169.21 343.624L175.07 342.73L173.224 335.925Z" fill="black"/>
<path d="M160.918 224.385L136.972 225.051C131.347 190.623 133.998 189.656 133.998 189.656C133.998 189.656 138.108 188.66 142.247 188.037C142.877 187.942 143.507 187.854 144.122 187.781C147.736 187.419 151.371 187.316 155 187.473C155.534 187.473 156.069 187.473 156.604 187.525C159.478 187.689 162.34 188.025 165.174 188.528C164.193 192.784 163.409 196.403 162.801 199.567C162.01 203.691 161.497 207.024 161.189 209.947C160.712 214.745 160.621 219.573 160.918 224.385Z" fill="#EA377D"/>
<path opacity="0.3" d="M161.19 209.947C160.033 206.35 160.209 198.857 161.542 196.403L162.802 199.567C162.011 203.691 161.498 207.024 161.19 209.947Z" fill="black"/>
<path d="M153.323 180.067C153.169 182.998 153.477 186.059 155.008 187.473C155.008 187.473 153.469 194.732 144.752 199.003C139.149 192.044 144.144 187.774 144.144 187.774C148.049 186.733 148.122 184.111 147.074 179.862L150.166 178.588C150.441 178.334 150.785 178.168 151.155 178.111C151.524 178.053 151.903 178.108 152.242 178.266C152.58 178.425 152.864 178.681 153.057 179.002C153.249 179.323 153.342 179.694 153.323 180.067Z" fill="#FF8B7B"/>
<path opacity="0.2" d="M150.165 178.588C150.422 178.347 150.742 178.184 151.087 178.116C151.433 178.049 151.79 178.08 152.119 178.206C152.447 178.332 152.734 178.548 152.945 178.829C153.157 179.111 153.285 179.446 153.315 179.796C151.931 181.923 149.922 183.568 147.565 184.506C147.686 182.94 147.515 181.365 147.06 179.862L150.165 178.588Z" fill="black"/>
<path d="M159.014 171.365C156.816 176.859 156.047 179.225 152.311 181.254C146.686 184.309 140.481 180.639 140.979 174.662C141.426 169.278 144.891 161.198 151.051 160.597C152.397 160.454 153.757 160.665 154.996 161.21C156.235 161.755 157.31 162.614 158.115 163.702C158.92 164.79 159.426 166.07 159.584 167.414C159.741 168.758 159.545 170.12 159.014 171.365Z" fill="#FF8B7B"/>
<path d="M155.916 166.457C150.268 167.373 142.071 163.666 143.653 159.447C144.745 156.517 148.539 158.597 148.539 158.597C148.539 158.597 154.612 156.905 158.912 160.238C163.211 163.571 164.339 171.226 156.348 176.229C153.828 173.402 153.601 168.596 155.916 166.457Z" fill="#263238"/>
<path d="M158.575 176.947C157.975 177.92 157.022 178.623 155.916 178.91C154.451 179.276 153.799 177.965 154.275 176.617C154.7 175.401 155.982 173.746 157.417 173.98C158.853 174.215 159.3 175.746 158.575 176.947Z" fill="#FF8B7B"/>
<path d="M136.98 225.051C136.98 225.051 134.387 260.732 134.387 283.799C134.387 302.112 138.357 343.206 138.357 343.206L146.935 342.357C146.935 342.357 148.349 298.274 146.686 285.22C151.982 259.421 161.666 234.882 156.208 224.421L136.98 225.051Z" fill="#263238"/>
<path d="M148.327 340.269L137.017 340.613L137.632 344.474L148.209 344.313L148.327 340.269Z" fill="#0D3344"/>
<path opacity="0.3" d="M150.524 238.266L147.711 241.401C145.023 249.4 146.803 260.505 150.011 270.812C153.286 257.824 156.743 245.84 157.615 236.684C157.615 236.149 157.615 235.871 157.615 235.871L150.524 238.266Z" fill="black"/>
<path d="M142.203 224.978C142.203 224.978 150.883 264.322 154.429 287.022C160.128 305.335 167.263 340.643 167.263 340.643L175.181 338.753C175.181 338.753 171.518 296.875 167.057 283.814C166.801 258.007 168.596 234.867 160.919 224.399L142.203 224.978Z" fill="#263238"/>
<path d="M166.581 342.511L176.631 340.496L176.499 336.416L165.284 339.002L166.581 342.511Z" fill="#0D3344"/>
<path d="M161.278 222.971L162.362 225.081C162.442 225.249 162.245 225.425 161.974 225.432L136.848 226.128C136.636 226.128 136.453 226.033 136.445 225.901L136.226 223.762C136.226 223.616 136.401 223.484 136.636 223.476L160.889 222.802C160.963 222.793 161.039 222.803 161.107 222.833C161.175 222.862 161.234 222.91 161.278 222.971Z" fill="#407BFF"/>
<path d="M158.025 225.769H158.669C158.801 225.769 158.897 225.696 158.889 225.615L158.589 222.839C158.589 222.759 158.464 222.693 158.333 222.7H157.688C157.556 222.7 157.461 222.773 157.468 222.854L157.769 225.63C157.783 225.711 157.893 225.776 158.025 225.769Z" fill="#263238"/>
<path d="M138.679 226.348H139.324C139.456 226.348 139.551 226.275 139.544 226.194L139.243 223.418C139.243 223.337 139.119 223.279 138.987 223.279H138.342C138.21 223.279 138.115 223.352 138.122 223.433L138.423 226.209C138.445 226.253 138.547 226.348 138.679 226.348Z" fill="#263238"/>
<path d="M148.349 226.04H149.001C149.126 226.04 149.228 225.967 149.221 225.879L148.913 223.11C148.913 223.03 148.796 222.964 148.664 222.964H148.012C147.888 222.964 147.785 223.037 147.792 223.118L148.1 225.894C148.107 225.982 148.217 226.048 148.349 226.04Z" fill="#263238"/>
<path d="M150.326 170.501C150.18 170.955 149.821 171.233 149.521 171.167C149.22 171.101 149.11 170.633 149.257 170.178C149.403 169.724 149.762 169.446 150.063 169.512C150.363 169.578 150.473 170.047 150.326 170.501Z" fill="#263238"/>
<path d="M145.221 168.962C145.067 169.424 144.708 169.695 144.415 169.629C144.122 169.563 143.997 169.102 144.151 168.64C144.305 168.179 144.657 167.908 144.95 167.981C145.243 168.054 145.367 168.479 145.221 168.962Z" fill="#263238"/>
<path d="M145.074 168.047L144.093 167.402C144.093 167.402 144.371 168.428 145.074 168.047Z" fill="#263238"/>
<path d="M145.558 169.805C144.815 170.724 143.953 171.539 142.994 172.23C143.173 172.465 143.401 172.657 143.664 172.793C143.926 172.928 144.215 173.004 144.51 173.013L145.558 169.805Z" fill="#FF5652"/>
<path d="M145.983 175.511C145.963 175.494 145.947 175.47 145.939 175.444C145.932 175.418 145.932 175.391 145.939 175.365C145.953 175.329 145.979 175.299 146.013 175.282C146.046 175.264 146.086 175.26 146.123 175.269C146.688 175.448 147.288 175.493 147.874 175.4C148.46 175.308 149.017 175.08 149.499 174.735C149.513 174.72 149.529 174.708 149.548 174.701C149.566 174.693 149.586 174.689 149.606 174.69C149.625 174.69 149.645 174.695 149.663 174.704C149.681 174.712 149.697 174.725 149.709 174.74C149.722 174.755 149.731 174.773 149.736 174.792C149.742 174.812 149.743 174.832 149.739 174.851C149.736 174.871 149.729 174.89 149.718 174.906C149.707 174.923 149.692 174.937 149.675 174.947C149.156 175.33 148.553 175.584 147.916 175.687C147.279 175.79 146.626 175.74 146.013 175.54L145.983 175.511Z" fill="#263238"/>
<path d="M151.395 168.904C151.359 168.872 151.331 168.832 151.315 168.787C151.212 168.457 151.03 168.157 150.785 167.913C150.54 167.669 150.239 167.489 149.908 167.388C149.873 167.379 149.839 167.363 149.81 167.342C149.78 167.32 149.755 167.293 149.736 167.262C149.717 167.23 149.704 167.196 149.699 167.159C149.693 167.123 149.695 167.086 149.703 167.051C149.722 166.978 149.769 166.915 149.833 166.875C149.897 166.836 149.974 166.823 150.048 166.838C150.469 166.962 150.853 167.187 151.167 167.493C151.481 167.8 151.716 168.178 151.85 168.596C151.871 168.667 151.865 168.744 151.832 168.81C151.8 168.877 151.743 168.929 151.674 168.955C151.627 168.973 151.577 168.978 151.527 168.969C151.478 168.96 151.433 168.937 151.395 168.904Z" fill="#263238"/>
<path d="M142.84 165.703C142.84 165.703 142.84 165.666 142.84 165.652C142.827 165.578 142.844 165.502 142.886 165.44C142.929 165.379 142.994 165.336 143.067 165.322C143.499 165.226 143.947 165.237 144.373 165.353C144.799 165.469 145.191 165.687 145.514 165.989C145.54 166.014 145.561 166.045 145.575 166.079C145.589 166.113 145.596 166.149 145.596 166.186C145.596 166.223 145.589 166.259 145.575 166.293C145.561 166.327 145.54 166.358 145.514 166.384C145.461 166.435 145.39 166.464 145.316 166.464C145.242 166.464 145.172 166.435 145.118 166.384C144.86 166.148 144.549 165.979 144.21 165.891C143.872 165.803 143.517 165.798 143.177 165.879C143.109 165.896 143.037 165.887 142.975 165.855C142.913 165.822 142.865 165.768 142.84 165.703Z" fill="#263238"/>
<path d="M167.087 349.235L167.006 349.191C166.889 349.122 166.793 349.022 166.73 348.901C166.667 348.781 166.638 348.645 166.647 348.51C166.638 348.425 166.652 348.339 166.689 348.261C166.725 348.184 166.781 348.118 166.852 348.07C167.475 347.623 169.438 348.4 169.658 348.488C169.684 348.497 169.706 348.514 169.722 348.536C169.737 348.558 169.746 348.585 169.746 348.612C169.745 348.64 169.737 348.668 169.721 348.691C169.706 348.715 169.684 348.733 169.658 348.744C168.969 349.059 167.746 349.528 167.087 349.235ZM169.233 348.627C168.442 348.341 167.336 348.063 167.035 348.29C167.006 348.313 166.983 348.343 166.968 348.378C166.954 348.413 166.95 348.451 166.955 348.488C166.949 348.578 166.966 348.668 167.006 348.749C167.046 348.83 167.107 348.899 167.182 348.949C167.49 349.154 168.259 349.037 169.211 348.627H169.233Z" fill="#49A0EB"/>
<path d="M169.416 348.678C168.772 348.385 167.673 347.455 167.688 346.825C167.691 346.713 167.732 346.606 167.804 346.519C167.876 346.433 167.974 346.373 168.083 346.349C168.184 346.314 168.292 346.302 168.398 346.314C168.504 346.325 168.607 346.36 168.699 346.415C169.431 346.84 169.731 348.503 169.746 348.576C169.748 348.6 169.745 348.625 169.736 348.648C169.727 348.671 169.713 348.691 169.695 348.708C169.673 348.719 169.649 348.724 169.625 348.724C169.601 348.724 169.577 348.719 169.556 348.708L169.416 348.678ZM168.501 346.627C168.392 346.587 168.272 346.587 168.164 346.627C167.995 346.686 167.966 346.774 167.966 346.84C167.966 347.25 168.779 348.056 169.431 348.378C169.333 347.733 169.033 347.135 168.574 346.671L168.501 346.627Z" fill="#49A0EB"/>
<path d="M135.632 351.909C135.155 351.943 134.679 351.828 134.27 351.579C134.167 351.5 134.083 351.397 134.026 351.28C133.969 351.164 133.94 351.035 133.94 350.905C133.934 350.831 133.948 350.757 133.98 350.69C134.012 350.623 134.061 350.566 134.123 350.524C134.768 350.099 137.119 351.176 137.588 351.403C137.612 351.417 137.632 351.438 137.644 351.463C137.656 351.488 137.661 351.516 137.657 351.544C137.653 351.572 137.641 351.597 137.622 351.618C137.603 351.639 137.578 351.653 137.551 351.66C136.922 351.811 136.279 351.894 135.632 351.909ZM134.548 350.7C134.451 350.693 134.355 350.713 134.27 350.759C134.249 350.773 134.233 350.793 134.223 350.817C134.214 350.84 134.212 350.866 134.218 350.891C134.218 350.981 134.238 351.07 134.278 351.151C134.317 351.232 134.374 351.304 134.445 351.359C134.848 351.667 135.815 351.704 137.075 351.477C136.278 351.087 135.426 350.825 134.548 350.7Z" fill="#49A0EB"/>
<path d="M137.522 351.667H137.463C136.687 351.345 135.126 350.07 135.266 349.411C135.266 349.264 135.397 349.089 135.756 349.045C137.148 348.876 137.668 351.403 137.69 351.513C137.694 351.538 137.692 351.563 137.683 351.586C137.674 351.609 137.658 351.63 137.639 351.645C137.622 351.656 137.603 351.664 137.583 351.668C137.562 351.672 137.542 351.671 137.522 351.667ZM135.844 349.301H135.749C135.603 349.301 135.522 349.36 135.515 349.425C135.449 349.806 136.525 350.817 137.317 351.257C137.148 350.656 136.679 349.301 135.844 349.301Z" fill="#49A0EB"/>
<path d="M150.166 169.578L149.185 168.94C149.185 168.94 149.478 169.944 150.166 169.578Z" fill="#263238"/>
<path d="M166.068 192.352C166.698 193.304 167.204 194.161 167.716 195.077C168.229 195.992 168.713 196.901 169.181 197.831C170.097 199.692 170.932 201.596 171.672 203.552C172.424 205.52 173.053 207.534 173.554 209.581C173.694 210.086 173.782 210.621 173.899 211.141C174.016 211.661 174.118 212.181 174.199 212.716C174.28 213.251 174.375 213.741 174.448 214.335L174.536 215.28V216.21C174.439 218.53 173.956 220.817 173.108 222.978C172.321 225.01 171.363 226.97 170.243 228.839C169.157 230.655 167.978 232.416 166.713 234.113C165.441 235.797 164.081 237.413 162.64 238.955L160.369 237.079C161.461 235.468 162.567 233.768 163.556 232.054C164.544 230.34 165.511 228.604 166.332 226.839C167.155 225.12 167.848 223.343 168.405 221.521C168.659 220.656 168.865 219.778 169.02 218.891C169.148 218.067 169.202 217.234 169.181 216.4V215.822L169.093 215.272C169.028 214.869 168.903 214.371 168.815 213.932C168.727 213.492 168.603 213.023 168.478 212.569C168.354 212.115 168.244 211.668 168.097 211.214C167.562 209.412 166.867 207.647 166.163 205.881C165.46 204.116 164.625 202.395 163.746 200.695C163.321 199.845 162.874 199.003 162.413 198.168C161.951 197.333 161.453 196.491 161.014 195.765L166.068 192.352Z" fill="#FF8B7B"/>
<path d="M165.175 188.528C168.046 189.217 171.401 197.831 171.401 197.831L163.043 204.424C163.043 204.424 158.194 197.355 158.831 193.568C159.373 190.33 161.52 187.656 165.175 188.528Z" fill="#EA377D"/>
<path d="M100.048 209.001L99.8711 219.665L100.604 219.677L100.78 209.013L100.048 209.001Z" fill="#407BFF"/>
<path d="M99.8238 222.677L99.7637 226.302L100.496 226.314L100.556 222.689L99.8238 222.677Z" fill="#407BFF"/>
<path d="M102.874 192.784L101.79 259.531L127.487 270.526L154.788 264.483L166.09 198.695L102.874 192.784Z" fill="#FF8A32"/>
<path opacity="0.2" d="M133.932 201.574L128.064 264.395L149.674 259.612L159.24 203.94L133.932 201.574Z" fill="white"/>
<path d="M153.205 212.32L113.012 208.562L112.221 233.651L142.642 236.493L141.155 246.016L129.669 247.21L118.608 243.906H118.601L118.813 237.343L112.126 236.72L111.693 250.389L128.893 255.524L146.744 253.663L150.619 228.853L119.172 225.916L119.436 217.55L151.916 220.59L153.205 212.32Z" fill="white"/>
<path d="M153.763 241.489L157.462 244.214L160.883 241.635L156.759 237.174L153.763 241.489Z" fill="#FF8B7B"/>
<path d="M161.82 235.578L156.758 237.175L160.889 241.636C160.889 241.636 163.394 239.438 163.731 236.991L161.82 235.578Z" fill="#FF8B7B"/>
<path d="M245.409 349.909L250.573 348.231L247.364 336.05L242.2 337.727L245.409 349.909Z" fill="#FFB573"/>
<path d="M250.652 347.543L244.843 349.411C244.746 349.44 244.663 349.506 244.614 349.595C244.565 349.684 244.552 349.789 244.58 349.887L245.788 354.575C245.866 354.817 246.035 355.018 246.26 355.134C246.486 355.251 246.748 355.274 246.99 355.198C248.997 354.509 249.92 354.077 252.476 353.249C254.044 352.737 257.838 351.587 260.006 350.883C262.175 350.18 261.42 348.056 260.439 348.158C256.043 348.627 253.472 348.232 251.648 347.558C251.327 347.446 250.977 347.441 250.652 347.543Z" fill="#263238"/>
<path opacity="0.2" d="M242.2 337.734L247.364 336.05L249.02 342.335L243.848 344.012L242.2 337.734Z" fill="black"/>
<path d="M229.608 214.422C229.608 214.422 236.933 258.63 239.13 274.049C241.511 290.934 250.851 340.32 250.851 340.32L241.262 342.972C241.262 342.972 227.564 295.117 223.681 278.701C219.469 260.879 210.203 214.422 210.203 214.422H229.608Z" fill="#263238"/>
<path opacity="0.3" d="M217.836 232.552C221.587 241.921 222.011 257.846 220.488 264.373C218.188 253.656 215.551 240.837 213.521 230.868C214.247 228.311 215.558 226.853 217.836 232.552Z" fill="black"/>
<path d="M241.021 343.162L251.291 340.335L251.085 336.152L239.526 340.144L241.021 343.162Z" fill="#0D3344"/>
<path d="M252.778 347.851C252.3 347.989 251.809 348.078 251.313 348.114C251.289 348.115 251.266 348.109 251.245 348.097C251.224 348.086 251.207 348.069 251.195 348.048C251.183 348.027 251.177 348.003 251.177 347.979C251.177 347.954 251.183 347.93 251.195 347.909C251.327 347.741 252.463 346.268 253.173 346.312C253.254 346.315 253.333 346.34 253.401 346.384C253.47 346.428 253.525 346.489 253.561 346.561C253.641 346.665 253.689 346.788 253.7 346.918C253.712 347.048 253.687 347.178 253.627 347.294C253.42 347.575 253.118 347.772 252.778 347.851ZM251.613 347.851C252.595 347.733 253.268 347.484 253.43 347.169C253.462 347.095 253.474 347.013 253.465 346.932C253.456 346.851 253.426 346.774 253.378 346.708C253.36 346.673 253.333 346.643 253.299 346.621C253.266 346.599 253.228 346.586 253.188 346.583C252.807 346.539 252.089 347.257 251.613 347.829V347.851Z" fill="#49A0EB"/>
<path d="M251.363 348.107H251.304C251.283 348.104 251.262 348.095 251.245 348.08C251.228 348.066 251.216 348.047 251.209 348.026C251.209 347.968 250.587 346.517 250.945 345.829C250.99 345.742 251.054 345.667 251.133 345.61C251.212 345.553 251.303 345.515 251.4 345.499C251.504 345.468 251.615 345.473 251.716 345.513C251.817 345.552 251.902 345.625 251.956 345.719C252.257 346.246 251.839 347.572 251.422 348.048L251.363 348.107ZM251.363 345.785C251.314 345.799 251.268 345.823 251.229 345.856C251.19 345.889 251.158 345.929 251.136 345.975C251.013 346.565 251.083 347.179 251.334 347.726C251.688 347.178 251.822 346.516 251.707 345.873C251.671 345.807 251.605 345.734 251.422 345.77L251.363 345.785Z" fill="#49A0EB"/>
<path d="M228.472 169.893C228.64 170.252 228.897 170.764 229.124 171.211L229.856 172.596C230.34 173.526 230.845 174.442 231.365 175.343C232.405 177.159 233.504 178.925 234.654 180.609C235.782 182.257 237.018 183.828 238.353 185.312C239.568 186.675 240.949 187.881 242.463 188.902L241.349 188.469C241.687 188.593 242.051 188.623 242.404 188.557C243.033 188.453 243.641 188.25 244.206 187.957C245.73 187.165 247.146 186.18 248.418 185.027C249.854 183.766 251.219 182.426 252.506 181.012C253.824 179.591 255.135 178.038 256.344 176.566L256.417 176.478C256.782 176.038 257.292 175.745 257.856 175.651C258.419 175.558 258.997 175.67 259.484 175.969C259.971 176.267 260.334 176.731 260.507 177.275C260.68 177.819 260.65 178.408 260.424 178.932C259.547 180.916 258.534 182.838 257.392 184.682C256.243 186.561 254.955 188.351 253.538 190.037C252.008 191.882 250.222 193.501 248.235 194.842C247.047 195.622 245.751 196.224 244.389 196.63C242.753 197.107 241.025 197.175 239.357 196.827C239.038 196.762 238.729 196.651 238.441 196.498L238.244 196.395C235.914 195.134 233.773 193.551 231.885 191.692C230.109 189.978 228.48 188.119 227.014 186.133C225.576 184.216 224.252 182.215 223.051 180.141C222.458 179.108 221.894 178.075 221.344 177.013C221.073 176.485 220.802 175.958 220.546 175.416C220.29 174.874 220.055 174.361 219.777 173.702C219.306 172.56 219.298 171.28 219.754 170.132C220.209 168.984 221.093 168.058 222.219 167.55C223.344 167.041 224.623 166.99 225.786 167.406C226.948 167.823 227.904 168.675 228.45 169.783L228.472 169.893Z" fill="#49A0EB"/>
<path opacity="0.3" d="M231.717 183.65C229.417 177.54 224.531 177.438 222.414 179.057C222.568 179.342 222.729 179.628 222.89 179.914C224.039 181.914 225.299 183.848 226.663 185.708C228.058 187.621 229.593 189.428 231.256 191.114C231.783 191.634 232.325 192.147 232.889 192.645C233.088 189.599 232.69 186.543 231.717 183.65Z" fill="black"/>
<path d="M260.461 179.862L265.164 180.595L264.6 175.401C264.6 175.401 257.912 174.852 257.546 176.676L258.322 178.266C258.527 178.682 258.828 179.044 259.199 179.322C259.571 179.599 260.004 179.785 260.461 179.862Z" fill="#FFB573"/>
<path d="M269.062 177.577L268.168 173.856L264.601 175.423L265.165 180.61L269.062 177.577Z" fill="#FFB573"/>
<path d="M204.746 352.282H210.174L210.877 339.705H205.449L204.746 352.282Z" fill="#FFB573"/>
<path d="M210.459 351.652H204.372C204.321 351.65 204.27 351.659 204.222 351.676C204.174 351.694 204.13 351.721 204.093 351.756C204.055 351.79 204.025 351.832 204.004 351.878C203.983 351.925 203.971 351.975 203.969 352.026L203.676 356.853C203.674 357.107 203.772 357.35 203.949 357.531C204.126 357.713 204.368 357.816 204.621 357.82C206.745 357.784 207.763 357.659 210.444 357.659C212.092 357.659 217.616 357.828 219.894 357.828C222.172 357.828 222.091 355.571 221.139 355.366C216.81 354.458 212.942 353.169 211.404 351.989C211.138 351.769 210.804 351.65 210.459 351.652Z" fill="#263238"/>
<path opacity="0.2" d="M205.449 339.712H210.877L210.511 346.195H205.083L205.449 339.712Z" fill="black"/>
<path d="M219.022 214.144C219.022 214.144 218.553 261.604 217.674 277.141C216.707 294.164 212.861 344.613 212.861 344.613H202.907C202.907 344.613 202.225 295.534 201.625 278.686C200.973 260.373 200.27 214.13 200.27 214.13L219.022 214.144Z" fill="#263238"/>
<path d="M202.497 344.627H213.243L213.843 340.855L201.977 341.441L202.497 344.627Z" fill="#0D3344"/>
<path d="M212.385 352.597C211.892 352.586 211.401 352.522 210.92 352.407C210.896 352.401 210.874 352.389 210.857 352.37C210.84 352.352 210.829 352.329 210.825 352.304C210.822 352.281 210.826 352.257 210.835 352.235C210.844 352.214 210.858 352.195 210.876 352.18C211.052 352.055 212.59 351.008 213.25 351.272C213.325 351.3 213.391 351.348 213.442 351.409C213.493 351.471 213.528 351.544 213.543 351.623C213.577 351.742 213.581 351.867 213.554 351.987C213.527 352.108 213.47 352.219 213.389 352.312C213.101 352.527 212.744 352.629 212.385 352.597ZM211.287 352.224C212.254 352.414 212.971 352.385 213.22 352.136C213.276 352.076 213.314 352.002 213.33 351.922C213.347 351.842 213.342 351.759 213.316 351.682C213.31 351.643 213.295 351.606 213.27 351.575C213.246 351.544 213.213 351.52 213.177 351.506C212.818 351.367 211.917 351.821 211.287 352.224Z" fill="#49A0EB"/>
<path d="M210.965 352.407C210.946 352.414 210.925 352.414 210.906 352.407C210.887 352.397 210.87 352.383 210.859 352.365C210.847 352.347 210.841 352.326 210.84 352.304C210.84 352.238 210.708 350.678 211.258 350.151C211.328 350.083 211.412 350.033 211.505 350.002C211.598 349.972 211.696 349.962 211.792 349.975C211.901 349.977 212.005 350.016 212.089 350.085C212.173 350.154 212.231 350.25 212.254 350.356C212.378 350.949 211.573 352.085 211.03 352.407C211.009 352.414 210.986 352.414 210.965 352.407ZM211.697 350.209C211.596 350.209 211.499 350.249 211.426 350.319C211.125 350.839 210.999 351.443 211.067 352.041C211.543 351.645 212.078 350.781 211.997 350.392C211.997 350.319 211.939 350.231 211.756 350.209H211.697Z" fill="#49A0EB"/>
<path d="M197.838 170.633C197.758 170.175 197.771 169.705 197.876 169.253C197.98 168.8 198.175 168.373 198.449 167.997C198.722 167.621 199.068 167.304 199.467 167.065C199.865 166.825 200.308 166.669 200.768 166.604H200.834C202.585 166.347 204.782 166.084 206.936 165.981C211.047 165.747 215.168 165.747 219.279 165.981C221.176 166.157 223.029 166.472 224.509 166.758H224.568C225.492 166.946 226.348 167.382 227.043 168.02C227.739 168.657 228.248 169.472 228.516 170.376C230.289 176.346 232.398 188.535 229.637 214.415H200.563C200.358 211.822 200.937 203.383 200.512 192.637C200.099 185.252 199.206 177.902 197.838 170.633Z" fill="#49A0EB"/>
<path opacity="0.3" d="M198.117 172.23C198.725 175.702 199.465 180.426 199.978 185.415C199.978 185.415 202.629 180.214 203.113 175.768C203.596 171.321 199.802 170.984 198.117 172.23Z" fill="black"/>
<path d="M206.431 166.003C206.431 166.003 208.738 170.069 214.796 171.797C220.143 168.867 218.664 165.937 218.664 165.937" fill="#F5F5F5"/>
<path d="M218.664 165.93C215.075 165.08 214.445 162.861 214.687 160.421C214.744 159.81 214.839 159.204 214.972 158.605L210.475 154.869L207.171 152.129C208.087 156.107 209.119 163.351 206.438 166.003C206.438 166.003 208.636 169.666 214.804 169.343C219.99 169.058 218.664 165.93 218.664 165.93Z" fill="#FFB573"/>
<path d="M214.524 169.365L213.499 168.054L211.118 169.929L214.524 169.365Z" fill="#F5F5F5"/>
<path d="M212.431 172.237C212.49 170.786 212.847 169.362 213.478 168.054C211.661 167.541 207.047 164.882 207.047 164.882L205.325 165.93C206.004 167.419 206.986 168.749 208.21 169.836C209.434 170.922 210.872 171.74 212.431 172.237Z" fill="white"/>
<path d="M214.525 169.365L215.712 168.054L217.924 169.929L214.525 169.365Z" fill="#F5F5F5"/>
<path d="M217.36 171.797C216.923 170.503 216.372 169.25 215.712 168.054C217.529 167.541 216.921 164.985 216.921 164.985L218.854 165.798C218.854 165.798 221.902 170.332 217.36 171.797Z" fill="white"/>
<path d="M215 170.574C215.081 170.889 215 171.175 214.817 171.219C214.634 171.262 214.429 171.05 214.348 170.735C214.268 170.42 214.348 170.134 214.539 170.09C214.729 170.047 214.927 170.259 215 170.574Z" fill="#49A0EB"/>
<path opacity="0.2" d="M214.972 158.605C214.839 159.204 214.744 159.81 214.687 160.421C213.009 160.084 210.768 158.297 210.533 156.583C210.451 156.016 210.431 155.441 210.475 154.869L214.972 158.605Z" fill="black"/>
<path d="M219.359 148.782C221.593 149.309 221.989 143.998 220.612 141.369C219.505 139.252 216.444 140.021 215.645 140.907C214.847 141.793 217.396 147.778 217.396 147.778L219.359 148.782Z" fill="#263238"/>
<path d="M205.838 146.408C206.988 151.69 207.39 154.832 210.511 157.242C211.516 158.035 212.72 158.539 213.99 158.698C215.261 158.857 216.551 158.665 217.721 158.144C218.891 157.623 219.896 156.792 220.628 155.741C221.359 154.69 221.79 153.458 221.872 152.18C222.283 147.265 220.334 139.457 214.782 137.962C213.587 137.606 212.32 137.571 211.108 137.859C209.895 138.148 208.78 138.75 207.874 139.606C206.967 140.461 206.302 141.54 205.945 142.734C205.587 143.928 205.55 145.195 205.838 146.408Z" fill="#FFB573"/>
<path d="M207.596 151.023C209.259 150.884 211.259 147.397 208.849 143.61C207.56 141.596 204.688 142.27 203.882 143.149C201.685 145.537 205.633 150.012 205.633 150.012L207.596 151.023Z" fill="#263238"/>
<path d="M207.017 144.548C210.306 144.387 217.178 142.013 218.166 138.812C220.093 132.6 213.229 132.425 209.479 135.765C207.01 137.962 204.703 141.141 200.22 141.947C200.82 143.075 203.362 144.731 207.017 144.548Z" fill="#263238"/>
<path d="M205.837 145.427C208.151 145.031 210.737 142.87 211.162 140.519C212.004 135.97 208.884 137.098 206.144 139.786C204.445 141.427 203.947 143.244 200.812 144.181C201.302 144.899 203.236 145.859 205.837 145.427Z" fill="#263238"/>
<path d="M215.082 139.178C217.162 141.376 220.466 143.456 221.469 142.108C222.473 140.761 220.539 135.831 217.983 135.618C215.426 135.406 213.573 137.574 215.082 139.178Z" fill="#263238"/>
<path d="M204.592 151.924C205.448 152.951 206.629 153.654 207.94 153.917C209.61 154.195 209.983 152.657 209.134 151.162C208.401 149.822 206.592 148.057 205.105 148.452C203.618 148.848 203.515 150.62 204.592 151.924Z" fill="#FFB573"/>
<path d="M214.795 147.648C215.078 147.597 215.244 147.207 215.166 146.777C215.089 146.347 214.796 146.039 214.514 146.091C214.231 146.142 214.065 146.532 214.143 146.962C214.22 147.391 214.512 147.699 214.795 147.648Z" fill="#263238"/>
<path d="M219.059 146.35C219.125 146.782 219.411 147.082 219.689 147.082C219.968 147.082 220.151 146.665 220.085 146.232C220.019 145.8 219.733 145.5 219.448 145.5C219.162 145.5 219.023 145.917 219.059 146.35Z" fill="#263238"/>
<path d="M217.558 146.753C218.281 148.018 219.17 149.181 220.202 150.21C219.933 150.457 219.614 150.642 219.265 150.75C218.917 150.859 218.549 150.89 218.188 150.84L217.558 146.753Z" fill="#ED893E"/>
<path d="M216.561 152.224C216.053 152.231 215.549 152.135 215.079 151.941C214.609 151.747 214.184 151.46 213.829 151.096C213.806 151.071 213.795 151.038 213.797 151.004C213.799 150.971 213.815 150.939 213.84 150.917C213.865 150.895 213.898 150.883 213.932 150.885C213.965 150.887 213.997 150.903 214.019 150.928C214.414 151.313 214.89 151.603 215.413 151.778C215.935 151.953 216.491 152.008 217.037 151.939C217.054 151.936 217.072 151.936 217.088 151.94C217.105 151.944 217.121 151.951 217.135 151.962C217.148 151.972 217.16 151.985 217.168 152C217.177 152.015 217.182 152.032 217.184 152.049C217.186 152.066 217.184 152.083 217.179 152.099C217.175 152.115 217.166 152.131 217.155 152.144C217.144 152.157 217.131 152.167 217.116 152.175C217.1 152.183 217.084 152.187 217.067 152.188C216.899 152.21 216.73 152.223 216.561 152.224Z" fill="#263238"/>
<path d="M212.379 145.537C212.335 145.536 212.292 145.523 212.255 145.5C212.224 145.484 212.198 145.462 212.176 145.435C212.155 145.409 212.139 145.378 212.129 145.346C212.12 145.313 212.117 145.279 212.121 145.245C212.125 145.211 212.135 145.178 212.152 145.148C212.342 144.791 212.617 144.485 212.953 144.259C213.289 144.033 213.676 143.893 214.079 143.852C214.112 143.85 214.145 143.855 214.177 143.866C214.208 143.877 214.237 143.894 214.262 143.917C214.286 143.939 214.306 143.967 214.32 143.997C214.334 144.027 214.341 144.06 214.342 144.093C214.344 144.127 214.339 144.161 214.328 144.193C214.317 144.225 214.3 144.254 214.278 144.279C214.255 144.304 214.228 144.325 214.198 144.34C214.167 144.354 214.134 144.363 214.1 144.365C213.791 144.408 213.496 144.525 213.241 144.706C212.986 144.887 212.778 145.126 212.635 145.405C212.611 145.45 212.573 145.487 212.528 145.51C212.482 145.534 212.43 145.543 212.379 145.537Z" fill="#263238"/>
<path d="M221.096 144.416C221.054 144.415 221.012 144.404 220.975 144.383C220.939 144.363 220.907 144.334 220.884 144.299C220.706 144.022 220.466 143.789 220.185 143.619C219.903 143.449 219.585 143.345 219.257 143.317C219.189 143.317 219.124 143.29 219.076 143.242C219.028 143.194 219.001 143.129 219.001 143.061C219.001 142.993 219.028 142.927 219.076 142.879C219.124 142.831 219.189 142.804 219.257 142.804C219.67 142.833 220.069 142.957 220.425 143.167C220.781 143.377 221.084 143.666 221.308 144.013C221.328 144.041 221.342 144.072 221.349 144.105C221.356 144.139 221.357 144.173 221.35 144.206C221.344 144.24 221.332 144.271 221.313 144.3C221.295 144.328 221.271 144.353 221.242 144.372C221.199 144.4 221.148 144.415 221.096 144.416Z" fill="#263238"/>
<path d="M204.24 175.189C204.292 175.189 204.24 175.189 204.24 175.189L204.167 175.255L203.991 175.416L203.64 175.804C203.383 176.068 203.112 176.354 202.856 176.639C202.336 177.225 201.816 177.841 201.332 178.493C200.348 179.807 199.471 181.198 198.71 182.653C197.154 185.652 196.036 188.859 195.392 192.176C195.23 192.869 195.13 193.575 195.091 194.286C195.054 195.008 195.089 195.731 195.194 196.447C195.438 198.077 195.85 199.678 196.424 201.223C197.681 204.602 199.238 207.863 201.076 210.965L201.142 211.082C201.424 211.574 201.52 212.149 201.415 212.706C201.309 213.262 201.008 213.762 200.566 214.116C200.123 214.47 199.569 214.654 199.003 214.635C198.437 214.616 197.897 214.395 197.479 214.012C195.966 212.61 194.567 211.089 193.297 209.463C192.004 207.825 190.841 206.088 189.817 204.27C188.724 202.338 187.872 200.279 187.283 198.139C186.958 196.973 186.747 195.778 186.653 194.571C186.58 193.349 186.619 192.123 186.77 190.909C186.982 188.767 187.377 186.647 187.949 184.572C188.517 182.466 189.273 180.414 190.205 178.441C191.148 176.438 192.282 174.529 193.59 172.742C194.256 171.832 194.975 170.961 195.743 170.135C196.131 169.717 196.527 169.299 196.959 168.897L197.64 168.281L198.007 167.974L198.498 167.585C198.994 167.182 199.566 166.883 200.18 166.705C200.794 166.528 201.437 166.476 202.072 166.553C202.707 166.629 203.319 166.833 203.874 167.152C204.428 167.47 204.912 167.897 205.298 168.407C205.684 168.916 205.963 169.498 206.119 170.118C206.275 170.738 206.304 171.383 206.205 172.015C206.107 172.646 205.882 173.252 205.544 173.794C205.207 174.337 204.763 174.806 204.24 175.174V175.189Z" fill="#49A0EB"/>
<path d="M201.852 209.61L204.833 209.09L202.057 215.36C202.057 215.36 197.127 215.36 197.354 212.789L197.94 212.005C198.894 210.74 200.292 209.884 201.852 209.61Z" fill="#FFB573"/>
<path d="M208.198 211.709C208.589 212.013 208.71 212.551 208.487 212.993L206.776 216.396C206.526 216.893 205.927 217.104 205.42 216.874L202.058 215.345L204.834 209.09L208.198 211.709Z" fill="#FFB573"/>
<path d="M239.717 116.28L249.965 164.641L270.336 168.333L289.037 159.462L286.327 110.097L239.717 116.28Z" fill="#FFD72A"/>
<path opacity="0.2" d="M263.589 117.496L269.735 163.813L284.546 156.788L282.246 115.02L263.589 117.496Z" fill="white"/>
<path d="M279.272 122.067L249.635 126L250.829 132.073L274.782 128.901L276.145 148.379L268.05 151.14L259.516 150.584L258.586 145.815L253.649 146.467L255.597 156.407L268.863 157.271L281.448 152.979L279.272 122.067Z" fill="white"/>
<defs>
<clipPath id="clip0">
<rect width="366.259" height="366.259" fill="white" transform="translate(186.792)"/>
</clipPath>
</defs>
</svg>
