<svg width="26" height="16" viewBox="0 0 26 16" fill="none" xmlns="http://www.w3.org/2000/svg">
<path fill-rule="evenodd" clip-rule="evenodd" d="M17.5595 0.321628C17.6612 0.219677 17.782 0.138789 17.9151 0.0835983C18.0481 0.0284079 18.1906 0 18.3346 0C18.4786 0 18.6212 0.0284079 18.7542 0.0835983C18.8872 0.138789 19.008 0.219677 19.1097 0.321628L25.6783 6.89023C25.7803 6.99193 25.8612 7.11274 25.9164 7.24574C25.9716 7.37874 26 7.52133 26 7.66533C26 7.80933 25.9716 7.95191 25.9164 8.08492C25.8612 8.21792 25.7803 8.33873 25.6783 8.44042L19.1097 15.009C18.9042 15.2146 18.6254 15.3301 18.3346 15.3301C18.0439 15.3301 17.7651 15.2146 17.5595 15.009C17.354 14.8035 17.2385 14.5247 17.2385 14.2339C17.2385 13.9432 17.354 13.6644 17.5595 13.4588L23.3552 7.66533L17.5595 1.87182C17.4576 1.77013 17.3767 1.64932 17.3215 1.51631C17.2663 1.38331 17.2379 1.24072 17.2379 1.09672C17.2379 0.952724 17.2663 0.810139 17.3215 0.677135C17.3767 0.544132 17.4576 0.423323 17.5595 0.321628Z" fill="#0D3344"/>
<path fill-rule="evenodd" clip-rule="evenodd" d="M0 7.6652C0 7.37485 0.115341 7.09639 0.32065 6.89108C0.525959 6.68578 0.804417 6.57043 1.09477 6.57043H24.0849C24.3752 6.57043 24.6537 6.68578 24.859 6.89108C25.0643 7.09639 25.1797 7.37485 25.1797 7.6652C25.1797 7.95555 25.0643 8.23401 24.859 8.43932C24.6537 8.64463 24.3752 8.75997 24.0849 8.75997H1.09477C0.804417 8.75997 0.525959 8.64463 0.32065 8.43932C0.115341 8.23401 0 7.95555 0 7.6652Z" fill="#0D3344"/>
</svg>
