<svg width="552" height="386" viewBox="0 0 552 386" fill="none" xmlns="http://www.w3.org/2000/svg">
<circle cx="226" cy="203" r="50" fill="#C4C4C4"/>
<path d="M45.2262 286.845C45.2262 286.845 44.7182 290.357 44.4722 293.683C38.2119 293.056 35.3067 287.091 34.1758 283.817L45.2262 286.845Z" fill="#ED985F"/>
<path d="M49.8772 284.822C49.8772 284.822 48.4725 284.266 44.5195 284.588C44.5195 284.588 44.7295 286.131 47.6448 286.283C49.296 286.37 49.8772 284.822 49.8772 284.822Z" fill="white"/>
<path d="M38.2006 305.096C38.2006 305.096 35.2779 314.356 25.2406 316.464C25.2406 316.464 8.66477 311.352 16.918 300.052C16.918 300.052 25.0781 293.983 38.2006 305.096Z" fill="#F9DDBF"/>
<path d="M121.702 210.531C121.508 210.531 121.312 210.466 121.151 210.333C120.786 210.028 120.736 209.484 121.04 209.117C125.012 204.335 127.2 198.269 127.2 192.038C127.2 189.054 126.712 186.124 125.751 183.329C125.596 182.879 125.835 182.388 126.285 182.234C126.735 182.079 127.225 182.317 127.38 182.767C128.404 185.744 128.923 188.863 128.923 192.038C128.923 198.671 126.594 205.129 122.365 210.221C122.194 210.426 121.949 210.531 121.702 210.531Z" fill="white"/>
<path d="M119.391 172.809C119.179 172.809 118.967 172.731 118.801 172.574C116.131 170.057 113.039 168.15 109.611 166.904C109.164 166.74 108.933 166.247 109.095 165.799C109.257 165.35 109.751 165.119 110.198 165.283C113.849 166.608 117.14 168.639 119.981 171.317C120.328 171.644 120.344 172.189 120.018 172.536C119.849 172.717 119.62 172.809 119.391 172.809Z" fill="white"/>
<path d="M93.7407 166.147C93.3557 166.147 93.0049 165.887 92.9062 165.495C92.79 165.033 93.0694 164.564 93.5305 164.448C95.7985 163.876 98.1457 163.584 100.507 163.584C100.982 163.584 101.368 163.971 101.368 164.447C101.368 164.923 100.982 165.309 100.507 165.309C98.2878 165.309 96.0824 165.582 93.9523 166.12C93.8816 166.139 93.8105 166.147 93.7407 166.147Z" fill="white"/>
<path d="M134.556 329.695L133.36 329.039C132.083 328.341 131.613 326.732 132.313 325.454L137.805 315.413C138.505 314.134 140.112 313.664 141.389 314.365L143.102 315.302C143.351 315.44 143.444 315.755 143.307 316.005C143.17 316.255 142.855 316.348 142.605 316.211L140.893 315.271C140.115 314.845 139.139 315.131 138.713 315.91L133.218 325.951C132.792 326.727 133.078 327.707 133.856 328.133L135.053 328.789C135.828 329.215 136.807 328.928 137.233 328.15L140.878 321.485C141.015 321.235 141.331 321.142 141.58 321.279C141.83 321.416 141.923 321.73 141.786 321.982L138.138 328.647C137.438 329.925 135.833 330.395 134.556 329.695Z" fill="#AFCDFB"/>
<path d="M129.456 340.238L127.313 339.066C125.324 337.974 124.654 335.351 125.821 333.216L134.08 318.121C134.217 317.871 134.533 317.778 134.783 317.915C135.032 318.052 135.125 318.366 134.988 318.618L126.728 333.713C125.833 335.346 126.32 337.342 127.81 338.157L129.953 339.332C131.443 340.15 133.383 339.484 134.279 337.851L143.685 320.655C144.581 319.022 144.094 317.027 142.604 316.211C142.355 316.074 142.262 315.758 142.399 315.508C142.536 315.259 142.851 315.166 143.101 315.303C145.09 316.395 145.76 319.017 144.593 321.152L135.184 338.348C134.017 340.481 131.448 341.33 129.456 340.238Z" fill="#AFCDFB"/>
<path d="M332.034 273.332H68.9111C62.4424 273.332 57.1982 268.085 57.1982 261.611V40.5884C57.1982 34.1145 62.4424 28.8674 68.9111 28.8674H332.034C338.502 28.8674 343.748 34.1145 343.748 40.5884V261.611C343.748 268.085 338.502 273.332 332.034 273.332ZM219.138 154.829C218.039 154.829 217.149 155.72 217.149 156.819C217.149 157.919 218.039 158.81 219.138 158.81H259.711C260.812 158.81 261.703 157.919 261.703 156.819C261.703 155.72 260.812 154.829 259.711 154.829H219.138ZM182.141 154.829C181.04 154.829 180.15 155.72 180.15 156.819C180.15 157.919 181.04 158.81 182.141 158.81H211.752C212.85 158.81 213.741 157.919 213.741 156.819C213.741 155.72 212.85 154.829 211.752 154.829H182.141ZM79.907 77.5169V158.81H161.135V77.5169H79.907ZM269.737 142.478C268.639 142.478 267.748 143.37 267.748 144.469C267.748 145.569 268.639 146.462 269.737 146.462H290.455C291.553 146.462 292.444 145.569 292.444 144.469C292.444 143.37 291.553 142.478 290.455 142.478H269.737ZM182.141 142.478C181.04 142.478 180.15 143.37 180.15 144.469C180.15 145.569 181.04 146.462 182.141 146.462H260.619C261.718 146.462 262.608 145.569 262.608 144.469C262.608 143.37 261.718 142.478 260.619 142.478H182.141ZM233.33 126.274C232.232 126.274 231.341 127.165 231.341 128.265C231.341 129.364 232.232 130.255 233.33 130.255H299.044C300.143 130.255 301.033 129.364 301.033 128.265C301.033 127.165 300.143 126.274 299.044 126.274H233.33ZM182.141 126.274C181.04 126.274 180.15 127.165 180.15 128.265C180.15 129.364 181.04 130.255 182.141 130.255H222.318C223.419 130.255 224.31 129.364 224.31 128.265C224.31 127.165 223.419 126.274 222.318 126.274H182.141ZM269.737 115.596C268.639 115.596 267.748 116.487 267.748 117.587C267.748 118.686 268.639 119.578 269.737 119.578H290.455C291.553 119.578 292.444 118.686 292.444 117.587C292.444 116.487 291.553 115.596 290.455 115.596H269.737ZM219.138 115.596C218.039 115.596 217.149 116.487 217.149 117.587C217.149 118.686 218.039 119.578 219.138 119.578H259.711C260.812 119.578 261.703 118.686 261.703 117.587C261.703 116.487 260.812 115.596 259.711 115.596H219.138ZM182.141 115.596C181.04 115.596 180.15 116.487 180.15 117.587C180.15 118.686 181.04 119.578 182.141 119.578H211.752C212.85 119.578 213.741 118.686 213.741 117.587C213.741 116.487 212.85 115.596 211.752 115.596H182.141ZM269.737 103.246C268.639 103.246 267.748 104.137 267.748 105.237C267.748 106.336 268.639 107.227 269.737 107.227H290.455C291.553 107.227 292.444 106.336 292.444 105.237C292.444 104.137 291.553 103.246 290.455 103.246H269.737ZM182.141 103.246C181.04 103.246 180.15 104.137 180.15 105.237C180.15 106.336 181.04 107.227 182.141 107.227H260.619C261.718 107.227 262.608 106.336 262.608 105.237C262.608 104.137 261.718 103.246 260.619 103.246H182.141ZM183.22 77.4337C181.525 77.4337 180.15 78.8097 180.15 80.5041C180.15 82.2009 181.525 83.577 183.22 83.577H247.831C249.526 83.577 250.899 82.2009 250.899 80.5041C250.899 78.8097 249.526 77.4337 247.831 77.4337H183.22ZM260.482 73.3128C258.787 73.3128 257.412 74.6889 257.412 76.3857C257.412 78.0826 258.787 79.4561 260.482 79.4561H325.09C326.786 79.4561 328.161 78.0826 328.161 76.3857C328.161 74.6889 326.786 73.3128 325.09 73.3128H260.482Z" fill="#F7FAFD"/>
<path d="M347.67 56.5117H61.1211V38.1356C61.1211 33.3022 65.0361 29.3846 69.8653 29.3846H338.926C343.756 29.3846 347.67 33.3022 347.67 38.1356V56.5117Z" fill="#699DEE"/>
<path d="M72.71 42.7833C72.71 40.9934 74.1607 39.5414 75.9504 39.5414C77.74 39.5414 79.1908 40.9934 79.1908 42.7833C79.1908 44.5756 77.74 46.0276 75.9504 46.0276C74.1607 46.0276 72.71 44.5756 72.71 42.7833Z" fill="#DDE7FE"/>
<path d="M86.3115 42.7833C86.3115 40.9934 87.7626 39.5414 89.5522 39.5414C91.3419 39.5414 92.7927 40.9934 92.7927 42.7833C92.7927 44.5756 91.3419 46.0276 89.5522 46.0276C87.7626 46.0276 86.3115 44.5756 86.3115 42.7833Z" fill="#DDE7FE"/>
<path d="M99.9131 42.7833C99.9131 40.9934 101.364 39.5414 103.152 39.5414C104.943 39.5414 106.394 40.9934 106.394 42.7833C106.394 44.5756 104.943 46.0276 103.152 46.0276C101.364 46.0276 99.9131 44.5756 99.9131 42.7833Z" fill="#DDE7FE"/>
<path d="M83.8311 159.327H165.059V78.0342H83.8311V159.327Z" fill="#E2EDFC"/>
<path d="M251.755 84.0942H187.145C185.449 84.0942 184.074 82.7182 184.074 81.0214C184.074 79.327 185.449 77.9509 187.145 77.9509H251.755C253.451 77.9509 254.823 79.327 254.823 81.0214C254.823 82.7182 253.451 84.0942 251.755 84.0942Z" fill="#B9CAF7"/>
<path d="M329.016 79.9736H264.407C262.712 79.9736 261.337 78.6 261.337 76.9032C261.337 75.2064 262.712 73.8303 264.407 73.8303H329.016C330.711 73.8303 332.086 75.2064 332.086 76.9032C332.086 78.6 330.711 79.9736 329.016 79.9736Z" fill="#B9CAF7"/>
<path d="M264.543 107.745H186.066C184.965 107.745 184.074 106.853 184.074 105.754C184.074 104.655 184.965 103.763 186.066 103.763H264.543C265.642 103.763 266.532 104.655 266.532 105.754C266.532 106.853 265.642 107.745 264.543 107.745Z" fill="#E5EEFC"/>
<path d="M294.379 107.745H273.662C272.563 107.745 271.673 106.853 271.673 105.754C271.673 104.655 272.563 103.763 273.662 103.763H294.379C295.478 103.763 296.368 104.655 296.368 105.754C296.368 106.853 295.478 107.745 294.379 107.745Z" fill="#E5EEFC"/>
<path d="M215.676 120.095H186.066C184.965 120.095 184.074 119.203 184.074 118.104C184.074 117.005 184.965 116.113 186.066 116.113H215.676C216.775 116.113 217.665 117.005 217.665 118.104C217.665 119.203 216.775 120.095 215.676 120.095Z" fill="#E5EEFC"/>
<path d="M263.636 120.095H223.062C221.964 120.095 221.073 119.203 221.073 118.104C221.073 117.005 221.964 116.113 223.062 116.113H263.636C264.737 116.113 265.627 117.005 265.627 118.104C265.627 119.203 264.737 120.095 263.636 120.095Z" fill="#E5EEFC"/>
<path d="M294.379 120.095H273.662C272.563 120.095 271.673 119.203 271.673 118.104C271.673 117.005 272.563 116.113 273.662 116.113H294.379C295.478 116.113 296.368 117.005 296.368 118.104C296.368 119.203 295.478 120.095 294.379 120.095Z" fill="#E5EEFC"/>
<path d="M226.243 130.772H186.066C184.965 130.772 184.074 129.881 184.074 128.782C184.074 127.682 184.965 126.791 186.066 126.791H226.243C227.344 126.791 228.234 127.682 228.234 128.782C228.234 129.881 227.344 130.772 226.243 130.772Z" fill="#E5EEFC"/>
<path d="M302.969 130.772H237.255C236.156 130.772 235.266 129.881 235.266 128.782C235.266 127.682 236.156 126.791 237.255 126.791H302.969C304.067 126.791 304.958 127.682 304.958 128.782C304.958 129.881 304.067 130.772 302.969 130.772Z" fill="#E5EEFC"/>
<path d="M264.543 146.979H186.066C184.965 146.979 184.074 146.086 184.074 144.986C184.074 143.887 184.965 142.996 186.066 142.996H264.543C265.642 142.996 266.532 143.887 266.532 144.986C266.532 146.086 265.642 146.979 264.543 146.979Z" fill="#E5EEFC"/>
<path d="M294.379 146.979H273.662C272.563 146.979 271.673 146.086 271.673 144.986C271.673 143.887 272.563 142.996 273.662 142.996H294.379C295.478 142.996 296.368 143.887 296.368 144.986C296.368 146.086 295.478 146.979 294.379 146.979Z" fill="#E5EEFC"/>
<path d="M215.676 159.327H186.066C184.965 159.327 184.074 158.436 184.074 157.336C184.074 156.237 184.965 155.346 186.066 155.346H215.676C216.775 155.346 217.665 156.237 217.665 157.336C217.665 158.436 216.775 159.327 215.676 159.327Z" fill="#E5EEFC"/>
<path d="M263.636 159.327H223.062C221.964 159.327 221.073 158.436 221.073 157.336C221.073 156.237 221.964 155.346 223.062 155.346H263.636C264.737 155.346 265.627 156.237 265.627 157.336C265.627 158.436 264.737 159.327 263.636 159.327Z" fill="#E5EEFC"/>
<path d="M133.201 121.598L124.298 100.979L115.469 121.598H133.201ZM120.252 90.1545H128.641L151.303 142.073H141.737L136.514 129.627H112.156L106.859 142.073H97.5869L120.252 90.1545Z" fill="#BDD1F9"/>
<path d="M129.205 184.471H83.8311V175.703H129.205V184.471Z" fill="#E2EDFC"/>
<path d="M129.205 193.237H83.8311V184.471H129.205V193.237Z" fill="#548EE2"/>
<path d="M129.205 202.002H83.8311V193.237H129.205V202.002Z" fill="#474FEA"/>
<path d="M162.637 180.666H137.672C136.627 180.666 135.778 179.819 135.778 178.773C135.778 177.728 136.627 176.881 137.672 176.881H162.637C163.681 176.881 164.528 177.728 164.528 178.773C164.528 179.819 163.681 180.666 162.637 180.666Z" fill="#BDD1F9"/>
<path d="M154.225 187.338H137.672C136.627 187.338 135.778 186.491 135.778 185.446C135.778 184.4 136.627 183.553 137.672 183.553H154.225C155.27 183.553 156.116 184.4 156.116 185.446C156.116 186.491 155.27 187.338 154.225 187.338Z" fill="#BDD1F9"/>
<path d="M129.205 238.943H83.8311V221.03H129.205V238.943Z" fill="#AFCDFB"/>
<path d="M129.205 247.332H83.8311V234.521H129.205V247.332Z" fill="#2B478B"/>
<path d="M83.8311 221.03L100.109 234.714L83.8311 247.332V221.03Z" fill="#474FEA"/>
<path d="M162.637 225.993H137.672C136.627 225.993 135.778 225.146 135.778 224.1C135.778 223.055 136.627 222.208 137.672 222.208H162.637C163.681 222.208 164.528 223.055 164.528 224.1C164.528 225.146 163.681 225.993 162.637 225.993Z" fill="#BDD1F9"/>
<path d="M154.225 232.668H137.672C136.627 232.668 135.778 231.821 135.778 230.775C135.778 229.73 136.627 228.88 137.672 228.88H154.225C155.27 228.88 156.116 229.73 156.116 230.775C156.116 231.821 155.27 232.668 154.225 232.668Z" fill="#BDD1F9"/>
<path d="M350.563 51.5242C350.563 51.5242 351.744 65.6179 348.537 65.4048C345.327 65.1918 338.991 58.9873 326.208 59.9961C313.422 61.0049 297.779 63.8035 288.323 47.0581C278.867 30.3103 300.416 25.4916 300.416 25.4916L350.563 51.5242Z" fill="#233862"/>
<path d="M323.386 50.4907L387.81 55.7917L389.149 52.9245L327.386 7.29645L264.997 -0.000125885L263.798 2.56837L323.386 50.4907Z" fill="#2B478B"/>
<path d="M367.23 99.0473C366.848 97.7202 365.466 96.9513 364.14 97.3309C362.814 97.7128 362.048 99.0963 362.427 100.423C362.806 101.75 364.189 102.517 365.515 102.14C366.841 101.758 367.609 100.374 367.23 99.0473Z" fill="#F99746"/>
<path d="M365.081 99.7406C367.664 99.5398 368.268 123.07 368.268 123.07C368.268 123.07 366.583 123.863 365.756 123.677C364.927 123.491 364.503 120.313 364.503 120.313L364.425 123.645C364.425 123.645 361.589 123.743 360.608 123.053C360.608 123.053 360.992 100.061 365.081 99.7406Z" fill="#F99746"/>
<path d="M365.922 100.272L365.455 48.863L365.122 48.6132L331.472 23.702L330.264 25.3376L363.578 50.0015L364.332 100.184L365.922 100.272Z" fill="#F99746"/>
<path d="M409.339 342.809H267.812V288.993H409.811C421.288 288.993 430.592 298.305 430.592 309.791V321.539C430.592 333.287 421.077 342.809 409.339 342.809Z" fill="#FCECDB"/>
<path d="M552 311.135V319.23C552 323.556 550.914 327.609 549.015 331.09C545.201 338.098 538.108 342.807 529.988 342.807H263.452C261.689 342.807 260.26 341.276 260.26 339.391V338.179C260.26 336.291 261.689 334.761 263.452 334.761H425.93C426.798 333.627 427.564 332.398 428.21 331.09C429.732 328.02 430.593 324.519 430.593 320.802V310.511C430.593 308.618 430.365 306.779 429.935 305.033C429.206 302.071 427.904 299.358 426.167 297.041H263.452C261.689 297.041 260.26 295.511 260.26 293.621V292.411C260.26 290.523 261.689 288.993 263.452 288.993H531.331C540.77 288.993 548.731 295.771 551.202 305.033C551.723 306.973 552 309.02 552 311.135Z" fill="#699DEE"/>
<path d="M551.202 305.034H429.935C429.206 302.071 427.904 299.358 426.167 297.042H263.452C261.689 297.042 260.26 295.511 260.26 293.621V292.412C260.26 290.524 261.689 288.993 263.452 288.993H531.331C540.77 288.993 548.731 295.771 551.202 305.034Z" fill="#548EE2"/>
<path d="M267.812 315.9L287.545 316.806L267.812 317.35V315.9Z" fill="#F4D2B8"/>
<path d="M267.812 324.345L314.763 325.248L267.812 325.794V324.345Z" fill="#F4D2B8"/>
<path d="M247.131 384.554H386.063V342.696H245.905C235.498 342.696 227.06 351.141 227.06 361.557V364.469C227.06 375.56 236.046 384.554 247.131 384.554Z" fill="#49A0EB"/>
<path d="M379.369 384.554H537.712V342.696H378.934C368.35 342.696 359.772 351.281 359.772 361.873V364.941C359.772 375.773 368.546 384.554 379.369 384.554Z" fill="#FCECDB"/>
<path d="M349.312 384.554H543.056C544.663 384.554 545.967 383.251 545.967 381.642V381.207C545.967 379.598 544.663 378.295 543.056 378.295H349.312C347.704 378.295 346.4 379.598 346.4 381.207V381.642C346.4 383.251 347.704 384.554 349.312 384.554Z" fill="#49A0EB"/>
<path d="M349.312 348.955H543.056C544.663 348.955 545.967 347.652 545.967 346.044V345.608C545.967 343.999 544.663 342.697 543.056 342.697H349.312C347.704 342.697 346.4 343.999 346.4 345.608V346.044C346.4 347.652 347.704 348.955 349.312 348.955Z" fill="#49A0EB"/>
<path d="M537.712 363.627L516.139 364.329L537.712 364.753V363.627Z" fill="#F4D2B8"/>
<path d="M537.712 353.991L486.389 354.697L537.712 355.12V353.991Z" fill="#F4D2B8"/>
<path d="M486.917 354.555C486.917 354.555 489.116 356.354 489.846 359.31C489.973 359.826 490.056 360.382 490.073 360.965C490.195 364.892 490.073 373.783 490.073 373.783L496.566 369.336L503.042 373.783V361.734C503.042 359.454 502.487 357.238 501.454 355.789C500.955 355.083 500.349 354.555 499.661 354.555H486.917Z" fill="#699DEE"/>
<path d="M486.917 354.555C486.917 354.555 489.116 356.354 489.846 359.31L502.859 359.486C502.859 359.486 502.347 355.252 499.661 354.555H486.917Z" fill="#568CDB"/>
<path d="M368.843 289.106H232.101V227.607H369.342C381.474 227.607 391.312 237.45 391.312 249.594V266.619C391.312 279.038 381.251 289.106 368.843 289.106Z" fill="#FCECDB"/>
<path d="M391.389 251.467V264.704C391.355 270.358 388.737 275.262 384.891 277.884C382.998 279.17 380.808 279.907 378.481 279.907H227.909C226.145 279.907 224.714 281.616 224.714 283.727V285.289C224.714 287.397 226.145 289.106 227.909 289.106H488.025C495.49 289.106 502.085 284.672 506.068 277.884C508.581 273.607 510.056 268.399 510.056 262.775V252.332C510.056 248.478 509.317 244.829 508.001 241.578C504.657 233.309 497.572 227.607 489.371 227.607H227.909C226.145 227.607 224.714 229.313 224.714 231.424V232.984C224.714 235.094 226.145 236.803 227.909 236.803H378.941C382.552 236.803 385.819 238.64 388.101 241.578C390.122 244.183 391.37 247.65 391.389 251.467Z" fill="#AFCDFB"/>
<path d="M224.714 283.727V285.289C224.714 287.397 226.145 289.106 227.909 289.106H488.025C495.49 289.106 502.086 284.672 506.068 277.884H384.891C382.998 279.17 380.808 279.907 378.481 279.907H227.909C226.145 279.907 224.714 281.616 224.714 283.727Z" fill="#A4C4F4"/>
<path d="M232.101 258.355L251.404 259.388L232.101 260.013V258.355Z" fill="#F4D2B8"/>
<path d="M232.101 244.203L278.022 245.236L232.101 245.858V244.203Z" fill="#F4D2B8"/>
<path d="M277.548 245.03C277.548 245.03 274.517 246.982 273.514 250.187C273.335 250.748 273.223 251.347 273.198 251.979C273.032 256.24 273.198 265.877 273.198 265.877L264.251 261.058L255.326 265.877V252.814C255.326 250.344 256.092 247.939 257.513 246.367C258.203 245.603 259.04 245.03 259.987 245.03H277.548Z" fill="#F99746"/>
<path d="M277.548 245.03C277.548 245.03 274.517 246.982 273.514 250.187L255.583 250.378C255.583 250.378 256.285 245.787 259.987 245.03H277.548Z" fill="#ED7D2B"/>
<path d="M48.9785 283.665C48.9785 283.665 77.008 295.888 82.0959 295.666C87.1837 295.443 118.536 286.109 118.536 286.109L117.736 291.506C117.736 291.506 93.5422 305.433 85.0833 306.224C76.7556 307 48.2798 298.743 45.5306 297C42.7814 295.257 40.9891 285.431 48.9785 283.665Z" fill="#ED985F"/>
<path d="M44.7671 238.706C44.7671 238.706 34.4267 236.74 29.277 240.503C19.9481 247.322 19.4471 270.828 15.9507 274.329C12.4543 277.831 4.02626 276.337 3.27591 294.456C2.5258 312.573 6.63134 314.088 1.74168 322.176C-3.14798 330.263 3.81048 338.358 3.81048 338.358C3.81048 338.358 0.960249 333.894 2.18181 330.672C2.18181 330.672 3.36814 337.782 7.88274 339.45C12.3973 341.117 13.0653 342.339 13.7863 344.785C13.7863 344.785 52.3012 325.033 52.343 311.023C52.3851 297.015 59.9222 283.136 56.221 277.067C56.221 277.067 57.8695 279.662 58.0716 282.551C58.0716 282.551 60.2923 278.293 56.4429 274.329C52.5938 270.365 60.9585 262.16 59.7201 252.66C58.8696 246.137 54.2963 238.99 44.7671 238.706Z" fill="#233862"/>
<path d="M52.3849 297.015C49.9232 298.724 46.8364 300.132 42.9616 301.028C28.4362 304.387 22.8699 292.101 20.7793 283.665C22.7603 282.532 24.624 282.282 25.7005 282.152C26.7503 282.03 27.8544 281.947 28.7687 281.902C30.3998 280.651 32.8302 275.534 33.3677 267.588L34.051 267.772L45.4984 270.909C45.4984 270.909 44.9741 274.55 44.717 277.992C44.5183 280.686 44.487 283.261 44.9968 283.891C45.8901 284.084 46.4264 284.211 46.4264 284.211L46.432 284.221C46.5856 284.473 49.9068 289.941 52.3849 297.015Z" fill="#FFB27D"/>
<path d="M47.4356 274.329C47.4356 274.329 32.0415 273.479 32.7179 263.894C33.3944 254.308 31.8634 247.741 41.7205 247.878C51.5778 248.015 53.227 251.808 53.7789 255.064C54.3309 258.318 51.4572 274.302 47.4356 274.329Z" fill="#FFB27D"/>
<path d="M53.7043 249.702C51.5342 246.646 49.6927 247.151 48.6243 247.947C40.5515 242.719 34.6463 249.166 34.6463 249.166C33.1248 255.97 27.8867 259.555 27.8867 259.555C27.8867 259.555 30.5649 261.487 37.1449 260.29C39.1547 259.922 41.0175 258.644 42.6371 257.05C39.7081 261.249 35.9226 264.153 35.9226 264.153C43.8959 261.137 47.7651 250.618 48.1551 249.504C49.0334 250.415 50.7521 252.381 51.1875 254.217C51.7789 256.712 54.3309 260.615 55.8064 260.549C55.8064 260.549 56.9587 254.281 53.7043 249.702Z" fill="#233862"/>
<path d="M16.3947 328.338C15.0046 321.225 10.4718 292.81 15.0045 283.665C16.6325 280.382 23.0202 280.085 30.0285 280.372C32.2094 281.782 40.5193 287.105 43.9324 286.442C43.9691 286.434 44.0354 286.42 44.1235 286.398C45.7309 285.994 46.3376 284.865 44.9969 283.89C44.9942 283.888 48.4681 283.555 52.7786 284.368C55.2134 284.826 61.7802 288.227 61.7802 288.227C61.7802 288.227 58.4732 294.206 53.597 296.27C54.4261 303.694 53.1931 306.968 45.4982 324.115C38.9956 338.607 46.3753 351.655 46.3753 351.655C46.3753 351.655 8.09772 382.458 7.88463 366.775C7.72487 354.968 18.1714 337.427 16.3947 328.338Z" fill="#F9DDBF"/>
<path d="M48.273 385.149C50.3547 384.914 52.2288 383.773 53.3926 382.029C53.5773 381.753 53.7748 381.454 53.9844 381.138C58.3415 374.537 60.0367 354.32 69.8373 332.782C72.2243 327.54 80.7931 326.597 83.1296 320.67C83.1296 320.67 88.8804 301.459 72.1223 300.891C55.3643 300.325 27.2415 354.347 26.7975 360.012C26.3671 365.5 15.7181 388.824 48.273 385.149Z" fill="#49A0EB"/>
<path d="M114.879 384.706H91.0273C91.0273 384.706 90.1355 380.898 91.7015 378.308C93.0877 376.016 92.5563 374.711 91.5298 372.813C92.6104 373.256 94.0071 373.658 95.546 373.57C96.735 373.501 97.9925 372.962 99.0935 372.321C100.121 373.494 104.517 378.479 105.89 379.466C107.448 380.587 114.399 380.188 114.879 384.706Z" fill="#233862"/>
<path d="M83.6736 306.446C85.1099 317.222 90.7184 351.235 100.612 367.828C103.802 373.178 92.5758 376.178 92.5154 376.161C91.0095 375.766 88.5013 373.364 87.3451 372.321C79.3129 365.076 63.0071 344.562 63.0071 328.116C63.0071 320.097 62.8665 304.779 68.6934 300.888C72.2817 298.491 83.1033 302.164 83.6736 306.446Z" fill="#49A0EB"/>
<path d="M34.0499 384.706C34.0499 384.706 34.9339 383.474 36.4752 381.138C38.3096 378.357 40.3393 372.884 42.8022 365.869C45.3894 358.507 48.4586 349.447 52.2938 340.023C53.4774 337.111 54.7345 334.166 56.0713 331.228C58.4586 325.983 65.0256 326.708 67.3618 320.78C67.3618 320.78 76.4781 300.232 59.72 299.666C42.9619 299.098 11.1183 354.633 9.28826 360.012C7.28503 365.899 -2.48866 390.347 34.0499 384.706Z" fill="#49A0EB"/>
<path d="M97.3704 384.706H73.5174C73.5174 384.706 72.6259 380.898 74.1916 378.308C75.5779 376.016 75.0465 374.711 74.0201 372.813C75.1005 373.256 76.4983 373.658 78.0374 373.57C79.2257 373.501 80.4824 372.962 81.5846 372.321C82.6109 373.494 87.0069 378.479 88.3804 379.466C89.939 380.587 96.8884 380.188 97.3704 384.706Z" fill="#2B478B"/>
<path d="M42.8021 365.869C45.3893 358.506 48.4585 349.447 52.2937 340.023C51.2921 332.88 49.1313 326.632 45.4982 324.115C45.4982 324.115 36.6838 351.442 42.8021 365.869Z" fill="#699DEE"/>
<path d="M69.7514 305.683C71.1877 316.458 73.2105 351.235 83.1043 367.828C86.2941 373.178 75.0679 376.178 75.0073 376.161C73.5017 375.766 70.9932 373.364 69.8372 372.321C61.8047 365.076 45.499 344.562 45.499 328.116C45.499 320.097 54.9031 305.423 60.7295 301.53C64.3181 299.133 69.1808 301.4 69.7514 305.683Z" fill="#49A0EB"/>
<path d="M121.525 274.817L116.581 265.887L105.885 295.764L112.194 302.543L121.525 274.817Z" fill="#163560"/>
<path d="M95.7077 280.046L85.7627 308.479L112.195 302.543L121.526 274.816L95.7077 280.046Z" fill="#1C468A"/>
<path d="M86.2893 307.043L85.8262 306.233L95.235 279.326L95.7072 280.046L86.2893 307.043Z" fill="#EFDECE"/>
<path d="M95.2344 279.327L120.294 274.447L121.525 274.816L95.7066 280.046L95.2344 279.327Z" fill="#FCECDB"/>
<path d="M121.526 274.817L116.18 266.323L112.77 275.914L120.295 274.447L121.526 274.817Z" fill="#EFDECE"/>
<path d="M103.337 284.165C102.478 283.999 100.634 283.303 98.767 282.789C99.3248 282.356 99.9438 281.824 100.117 281.278C100.45 280.225 100.673 279.885 99.5621 280.218C98.4514 280.553 94.5663 282.336 94.5663 282.336L94.576 282.341C92.3693 282.985 90.3354 286.109 90.3354 286.109C90.3354 286.109 63.0068 295.722 59.7189 295.888C54.6326 296.143 20.7783 283.665 20.7783 283.665C12.7889 285.431 14.5812 295.257 17.3304 297C20.0796 298.743 44.4401 307.612 58.8771 307.778C66.1896 307.864 92.7886 290.754 92.7886 290.754C92.7886 290.754 95.8972 289.331 98.3413 289.777C100.783 290.22 106.447 289.777 107.668 287.777C108.888 285.776 104.781 284.442 103.337 284.165Z" fill="#FFB27D"/>
<path d="M121.083 284.887H121.08C121.088 284.623 121.061 284.361 120.99 284.108C120.99 284.108 118.538 280.23 117.736 280.071C115.294 279.588 115.294 282.808 115.813 284.887C116.172 286.332 117.09 287.722 117.834 288.472L117.736 291.505C121.866 289.236 121.083 284.887 121.083 284.887Z" fill="#FFB27D"/>
<path d="M386.463 278.316C390.955 286.268 396.653 289.368 396.653 289.368L420.45 289.535C420.45 289.535 383.036 272.248 386.463 278.316Z" fill="#233862"/>
<path d="M404.31 339.734C404.924 340.449 404.997 341.245 404.684 342.092L404.679 342.104C404.1 343.669 402.213 345.41 400.021 347.143C399.742 347.366 399.493 347.569 399.277 347.758C399.219 347.807 399.162 347.856 399.109 347.905C399.065 347.944 399.023 347.983 398.979 348.02C396.936 349.881 397.697 350.314 394.022 354.092C389.829 358.394 386.964 358.453 386.152 358.051C385.467 357.711 386.883 355.422 388.454 352.851C388.53 352.726 388.603 352.601 388.681 352.476C388.892 352.133 389.097 351.786 389.305 351.443C391.148 348.348 390.69 346.886 390.291 342.256C389.968 338.495 384.596 321.216 384.596 321.216L392.579 319.896C392.579 319.896 394.883 333.642 397.513 335.777C398.92 336.913 400.506 336.938 401.859 337.783C401.954 337.841 402.047 337.903 402.14 337.964C402.908 338.483 403.693 339.017 404.31 339.734Z" fill="#FFB27D"/>
<path d="M404.309 339.734C404.923 340.449 404.996 341.245 404.683 342.092L404.678 342.104C403.971 343.666 402.132 345.397 400.013 347.129C399.736 347.354 399.492 347.562 399.276 347.758C399.218 347.807 399.161 347.856 399.108 347.905C399.064 347.944 399.022 347.983 398.978 348.02C396.935 349.881 397.696 350.314 394.021 354.092C389.828 358.394 386.963 358.453 386.151 358.051C385.466 357.711 386.882 355.422 388.453 352.851C389.265 352.559 393.038 351.056 395.907 347.435C398.435 344.252 400.135 340.153 401.858 337.783C401.953 337.841 402.046 337.903 402.139 337.964C402.907 338.483 403.692 339.017 404.309 339.734Z" fill="#233862"/>
<path d="M340.05 334.296C339.541 336.756 336.035 336.321 332.123 335.334C328.211 334.347 329.134 335.493 323.56 334.837C317.987 334.178 316.311 332.085 316.147 331.255C316 330.518 318.758 330.275 321.716 329.957C322.09 329.918 322.462 329.874 322.836 329.83C326.178 329.435 328.637 327.295 331.68 325.547C334.565 323.892 338.9 317.09 338.9 317.09L346.546 317.749C346.546 317.749 342.487 323.823 340.916 326.465C339.991 328.02 340.026 330.084 340.128 331.678C340.182 332.545 340.231 333.429 340.05 334.296Z" fill="#FFB27D"/>
<path d="M332.123 335.334C328.211 334.347 329.133 335.493 323.56 334.837C317.987 334.178 316.311 332.085 316.147 331.255C316 330.518 318.758 330.275 321.716 329.957L321.745 330.013C321.745 330.013 325.072 332.41 329.716 332.555C333.498 332.675 337.515 331.617 340.128 331.678C340.182 332.545 340.231 333.429 340.05 334.296C339.541 336.756 336.035 336.321 332.123 335.334Z" fill="#233862"/>
<path d="M369.715 285.548L376.729 304.857L385.889 330.07C385.889 330.07 388.421 330.332 390.853 329.651C393.092 329.022 395.665 327.349 395.665 327.349C395.665 327.349 393.263 300.33 388.536 284.796C387.325 280.808 385.96 277.581 384.438 275.759C377.003 266.839 369.715 285.548 369.715 285.548Z" fill="#233862"/>
<path d="M377.202 255.013C381.896 253.534 395.245 255.568 408.649 258.294L411.495 253.676L440.503 251.614C440.503 251.614 449.92 272.914 444.589 286.407C443.804 288.391 441.893 289.216 439.285 289.24L439.283 289.243C439.283 289.243 421.978 289.544 416.373 289.505C401.956 289.402 385.928 279.37 383.849 278.937C380.446 278.232 379.034 285.044 375.575 292.183C372.118 299.323 343.315 323.679 343.315 323.679C343.315 323.679 338.913 323.693 337.1 322.998C335.15 322.249 334.443 321.291 334.443 321.291C334.443 321.291 366.61 258.35 377.202 255.013Z" fill="#2B478B"/>
<path d="M411.944 213.716C422.23 219.478 443.091 231.419 443.201 231.346C443.201 231.346 450.879 234.303 455.268 231.431C462.58 226.645 466.576 213.65 453.342 202.35C446.742 196.714 442.034 195.321 441.381 186.391C441.026 181.548 434.526 165.522 423.529 166.923C422.611 167.04 421.684 167.124 420.759 167.087C419.477 167.035 417.356 167.207 415.174 168.487C408.93 172.148 396.482 211.405 411.944 213.716Z" fill="#233862"/>
<path d="M420.632 208.935C420.588 208.964 425.702 210.751 429.139 209.255C432.373 207.852 434.852 202.561 434.805 202.559C433.337 202.48 431.737 201.185 430.558 192.755L429.932 192.975L419.404 196.682C419.404 196.682 420.141 200.061 420.61 203.274C421.004 205.972 421.21 208.558 420.632 208.935Z" fill="#FFB27D"/>
<path d="M419.404 196.682C419.404 196.682 419.852 199.05 420.476 202.434C426.514 201.388 429.058 196.234 429.932 192.975L419.404 196.682Z" fill="#ED975D"/>
<path d="M417.816 200.019C417.816 200.019 432.197 198.19 430.92 189.246C429.646 180.299 430.641 174.041 421.408 174.829C412.172 175.618 410.878 179.285 410.577 182.375C410.279 185.465 414.041 200.264 417.816 200.019Z" fill="#FFB27D"/>
<path d="M411.137 177.481C411.137 177.481 420.277 185.477 426.528 186.161C432.779 186.844 435.162 184.851 435.162 184.851C435.162 184.851 431.497 181.761 429.312 176.802C428.669 175.338 427.294 174.329 425.703 174.18C421.238 173.764 412.773 173.526 411.137 177.481Z" fill="#233862"/>
<path d="M416.892 176.81C416.892 176.81 413.793 179.765 412.809 181.969C411.86 184.092 411.542 189.187 412.273 191.217C412.273 191.217 407.544 181.854 410.292 177.341C413.203 172.554 416.892 176.81 416.892 176.81Z" fill="#233862"/>
<path d="M408.388 230.028C408.615 259.136 408.343 253.054 411.504 255.838C412.268 256.509 414.418 256.92 417.254 257.126C426.167 257.782 441.854 256.423 442.46 254.778C444.56 249.085 443.119 247.302 444.897 238.576C445.081 237.648 445.311 236.644 445.577 235.552C447.05 229.56 448.459 227.528 443.449 217.852C438.908 209.086 434.176 201.966 433.743 202.218C421.547 209.348 420.61 203.276 420.61 203.276C420.61 203.276 408.273 215.832 408.388 230.028Z" fill="#FFD72A"/>
<path d="M376.73 304.857L385.89 330.07C385.89 330.07 388.422 330.332 390.854 329.651C393.093 329.022 395.667 327.349 395.667 327.349C395.667 327.349 393.264 300.33 388.537 284.797L376.73 304.857Z" fill="#2B478B"/>
<path d="M420.611 203.274C420.611 203.274 408.099 205.306 406.592 210.68C405.087 216.057 396.229 247.653 396.229 247.653C396.229 247.653 402.572 248.84 405.528 245.924C408.486 243.008 415.933 218.743 415.933 218.743L420.611 203.274Z" fill="#FFD72A"/>
<path d="M417.254 257.126C426.167 257.782 441.854 256.423 442.461 254.778C444.56 249.085 443.119 247.302 444.897 238.576L440.682 226.424C440.682 226.424 441.296 239.927 437.294 243.451C433.296 246.972 420.96 250.189 419.008 253.142C418.064 254.557 417.44 255.982 417.254 257.126Z" fill="#FFCF00"/>
<path d="M427.512 251.521C427.512 251.521 418.726 249.499 417.302 250.27C415.876 251.041 412.387 253.862 411.947 254.851C411.504 255.838 415.112 254.121 416.282 253.815C417.043 253.617 419.029 254.325 420.015 254.66C424.157 256.075 426.707 255.38 426.707 255.38L427.512 251.521Z" fill="#FFB27D"/>
<path d="M433.752 202.211C433.752 202.211 445.559 203.023 449.608 208.76C455.308 216.835 466.487 251.161 459.91 255.681C452.505 260.774 426.356 256.79 426.356 256.79C426.356 256.79 425.514 252.711 426.74 250.747C427.966 248.786 447.682 245.74 448.597 244.837C449.512 243.936 437.361 227.019 437.38 224.291C437.4 221.561 433.752 202.211 433.752 202.211Z" fill="#FFD72A"/>
<path d="M416.86 252.718C416.86 252.718 414.998 255.084 414.394 255.365C413.787 255.644 413.396 255.571 413.396 255.571L414.655 253.343L416.86 252.718Z" fill="#FFB27D"/>
<path d="M417.302 250.27L411.925 252.838C411.925 252.838 412.15 253.213 412.81 253.186C413.469 253.162 415.14 252.564 415.14 252.564L417.302 250.27Z" fill="#FFB27D"/>
<path d="M415.539 259.205L373.145 258.906L360.616 227.078L402.944 227.377L415.539 259.205Z" fill="#699DEE"/>
<path d="M372.656 257.667L428.64 258.061L428.631 259.298L373.146 258.906L372.656 257.667Z" fill="#548EE2"/>
<path d="M383.958 243.113C383.645 241.994 384.298 241.096 385.411 241.103C386.527 241.11 387.684 242.024 387.995 243.14C388.306 244.259 387.655 245.16 386.542 245.15C385.426 245.143 384.269 244.23 383.958 243.113Z" fill="white"/>
<path d="M286.704 359.386L286.699 385.014L157.892 384.987L157.896 359.361L286.704 359.386Z" fill="#C65447"/>
<path d="M157.888 384.99L138.957 376.886L127.947 372.17L139.216 367.351L157.895 359.362C157.895 359.362 160.388 365.601 160.425 371.47C160.484 380.678 157.888 384.99 157.888 384.99Z" fill="#FCECDB"/>
<path d="M301.676 367.889V375.991C301.674 380.977 297.637 385.014 292.658 385.014H286.698L286.703 359.386L293.184 359.388C297.876 359.388 301.678 363.195 301.676 367.889Z" fill="#FCECDB"/>
<path d="M139.216 367.351C139.686 369.939 140.092 373.906 138.957 376.886L127.947 372.17L139.216 367.351Z" fill="#2B478B"/>
<path d="M185.584 225.927C185.584 225.927 187.891 235.946 194.617 235.946C200.383 235.946 208.29 222.903 208.29 222.903L185.584 225.927Z" fill="#F99746"/>
<path d="M262.8 373.913L258.479 376.888C258.479 376.888 237.698 354.719 232.681 333.468C231.788 329.675 231.425 325.934 231.807 322.384C231.807 322.384 231.504 321.421 230.973 319.72C230.951 319.644 230.926 319.568 230.902 319.492C230.669 318.745 230.393 317.866 230.082 316.872C229.074 313.662 227.69 309.267 226.114 304.265C222.481 292.752 214.175 266.79 210.625 255.99L236.138 246.751C236.138 246.751 239.037 253.365 243.201 271.339C243.842 273.685 244.483 276.281 245.084 279.106C245.765 282.309 246.398 285.81 246.927 289.593C247.822 295.998 248.419 303.207 248.456 311.116C248.471 314.331 248.392 317.668 248.201 321.108C248.062 323.63 248.436 326.994 249.141 330.819C252.353 348.306 262.8 373.913 262.8 373.913Z" fill="#2B478B"/>
<path d="M276.392 384.596H255.765C255.765 384.596 254.995 381.305 256.348 379.065C257.547 377.081 257.089 375.952 256.201 374.312C257.136 374.694 258.344 375.044 259.675 374.966C260.703 374.907 261.789 374.442 262.743 373.886C263.629 374.9 267.431 379.211 268.62 380.066C269.968 381.036 275.976 380.69 276.392 384.596Z" fill="#233862"/>
<path d="M246.927 289.593L230.902 319.492C230.67 318.745 230.393 317.866 230.082 316.872C229.074 313.662 227.69 309.267 226.114 304.265C222.481 292.752 214.175 266.79 210.625 255.99L236.138 246.752C236.138 246.752 239.037 253.365 243.201 271.34C243.842 273.685 244.483 276.281 245.085 279.106C245.765 282.309 246.398 285.81 246.927 289.593Z" fill="#233862"/>
<path d="M210.208 378.134C210.208 378.134 208.782 381.64 210.125 384.596H221.345C221.345 384.596 221.577 381.932 217.506 378.839C214.424 376.498 210.208 378.134 210.208 378.134Z" fill="#233862"/>
<path d="M222.418 149.894C222.426 149.333 222.712 143.307 231.862 142.771C231.862 142.771 227.372 143.417 226.641 145.418C226.641 145.418 229.648 142.896 232.163 143.623C234.68 144.35 236.251 148.691 236.302 150.131C236.351 151.571 235.074 156.247 233.501 156.681C232.904 156.845 232.212 156.82 231.581 156.73C232.018 157.379 232.449 158.094 232.863 158.897C236.699 166.316 233.391 175.055 230.277 174.318C228.28 173.845 227.067 177.31 227.067 177.31L207.866 160.785C207.866 160.785 214.594 145.954 222.418 149.894Z" fill="#2C3A64"/>
<path d="M210.35 200.103C212.478 201.582 215.147 202.801 218.497 203.575C231.059 206.479 235.872 195.854 237.68 188.56C235.967 187.581 234.355 187.363 233.425 187.253C232.518 187.145 231.561 187.074 230.771 187.035C229.362 185.955 227.258 181.528 226.795 174.658L226.203 174.817L216.304 177.53C216.304 177.53 216.757 180.679 216.98 183.656C217.151 185.984 217.178 188.21 216.737 188.756C215.964 188.923 215.502 189.033 215.502 189.033L215.497 189.043C215.363 189.261 212.493 193.986 210.35 200.103Z" fill="#FFB27D"/>
<path d="M216.305 177.53C216.305 177.53 216.76 180.676 216.98 183.656C222.587 183.096 225.191 177.75 226.203 174.82L216.305 177.53Z" fill="#ED985F"/>
<path d="M216.19 182.258C216.19 182.258 229.103 178.935 226.911 170.921C224.721 162.905 224.912 157.077 216.576 158.857C208.239 160.64 207.48 164.134 207.561 166.989C207.642 169.841 212.775 182.914 216.19 182.258Z" fill="#FFB27D"/>
<path d="M206.72 162.427C208.046 159.472 209.692 159.587 210.732 160.082C216.697 154.283 222.794 158.754 222.794 158.754C225.23 164.269 230.278 166.423 230.278 166.423C230.278 166.423 228.333 168.517 222.549 168.61C220.783 168.639 218.989 167.87 217.345 166.79C220.538 169.858 224.237 171.683 224.237 171.683C216.966 170.471 211.911 162.202 211.393 161.323C210.803 162.244 209.675 164.202 209.617 165.833C209.536 168.049 210.399 172.329 209.137 172.522C209.137 172.522 204.733 166.861 206.72 162.427Z" fill="#2C3A64"/>
<path d="M212.476 188.364C212.476 188.364 234.162 183.095 243.591 190.879L238.879 256.656L196.466 246.399C196.466 246.399 197.66 242.239 205.792 231.172C213.924 220.102 210.387 203.868 212.476 188.364Z" fill="#FFB27D"/>
<path d="M225.118 249.332C225.118 249.332 225.093 249.555 225.049 249.981C225.029 250.163 225.005 250.385 224.978 250.642C224.795 252.347 224.45 255.618 224.004 259.871C222.84 271.026 221.015 288.942 219.769 303.085C218.796 314.142 218.177 322.893 218.512 324.299C219.515 328.527 218.512 379.074 218.512 379.074C214.906 380.805 209.44 379.074 209.44 379.074C209.44 379.074 199.84 333.525 201.183 327.193C202.526 320.861 200.285 315.457 200.285 315.457C192.828 280.71 193.645 261.45 195.125 252.232C195.556 249.55 196.043 247.719 196.4 246.602C196.703 245.652 196.911 245.219 196.911 245.219C213.357 240.79 225.118 249.332 225.118 249.332Z" fill="#2B478B"/>
<path d="M246.515 209.64C245.467 217.553 241.279 227.237 239.784 232.448C239.784 232.448 242.284 250.545 239.897 255.513C239.625 256.078 239.29 256.475 238.879 256.654C230.035 260.51 195.595 256.766 194.141 245.648C193.613 241.608 207.26 227.396 208.055 225.673C208.385 224.958 208.735 222.646 207.135 217.855C204.867 224.852 192.351 222.84 192.351 222.84C193.819 220.325 197.481 202.919 201.567 195.061C204.64 189.155 212.843 188.301 212.843 188.301C212.843 188.301 216.258 193.72 224.515 192.951C232.775 192.182 234.284 187.123 234.284 187.123C234.284 187.123 241.607 188.098 243.865 189.919C244.256 190.235 247.887 199.273 246.515 209.64Z" fill="#FF8A32"/>
<path d="M239.783 232.447C239.783 232.447 242.284 250.544 239.896 255.512C233.454 252.275 228.375 243.519 229.547 233.764C230.413 226.556 231.702 224.911 235.556 220.785C238.389 217.754 244.936 217.582 244.422 219.024C242.895 223.319 240.574 229.695 239.783 232.447Z" fill="#ED7D2B"/>
<path d="M212.888 211.05L227.655 234.759H202.529L188.459 211.562L212.888 211.05Z" fill="#1C468A"/>
<path d="M226.885 233.569L227.139 232.741L213.167 210.303L212.886 211.05L226.885 233.569Z" fill="#EFDECE"/>
<path d="M213.169 210.303L189.499 210.976L188.459 211.562L212.888 211.05L213.169 210.303Z" fill="#FCECDB"/>
<path d="M188.459 211.562L175.179 204.368L190.658 228.696L202.529 234.759L188.459 211.562Z" fill="#163560"/>
<path d="M258.728 228.177C257.306 228.829 253.656 233.131 252.352 233.569C246.493 235.53 221.558 230.31 221.558 230.31L222.331 225.94C222.331 225.94 246.803 226.588 249.495 225.868C250.001 225.731 252.646 221.593 253.663 220.998L258.728 228.177Z" fill="#FFB27D"/>
<path d="M222.33 225.937C222.33 225.937 219.38 223.535 217.386 224.078C215.392 224.622 212.456 227.146 211.367 227.744C210.278 228.341 207.318 230.479 208.818 231.772C210.318 233.064 214.988 231.953 216.84 230.964C218.69 229.972 221.559 230.31 221.559 230.31L222.33 225.937Z" fill="#FFB27D"/>
<path d="M217.951 224C217.951 224 214.365 223.572 213.383 223.591C212.405 223.611 212.672 223.826 213.212 224.585C213.753 225.347 215.62 225.638 215.705 225.905C215.791 226.169 217.951 224 217.951 224Z" fill="#FFB27D"/>
<path d="M234.285 187.123C234.285 187.123 244.923 188.386 247.851 192.95C251.553 198.724 260.292 221.71 260.011 227.504C260.011 227.504 253.62 238.387 231.711 236.644C231.711 236.644 229.431 228.586 234.041 225.927C234.041 225.927 245.295 223.924 246.589 222.78L237.414 206.094L234.285 187.123Z" fill="#FF8A32"/>
<path d="M191.862 220.229C191.532 218.888 188.611 219.725 187.625 220.499C187.385 220.685 187.128 221.006 186.876 221.378C186.844 221.155 186.818 220.939 186.803 220.773C186.749 220.141 186.015 219.012 185.834 219.857C185.651 220.704 185.352 224.252 185.352 224.252C185.315 227.112 187.153 228.292 188.332 227.362C189.511 226.431 192.19 221.571 191.862 220.229Z" fill="#FFB27D"/>
</svg>
