<svg width="481" height="344" viewBox="0 0 481 344" fill="none" xmlns="http://www.w3.org/2000/svg">
<path d="M115.291 342.889L115.481 342.886C117.033 342.859 118.232 341.591 118.085 340.13L107.734 236.764L98.7031 237.572L113.566 341.492C113.682 342.305 114.423 342.905 115.291 342.889Z" fill="#8CB4F4"/>
<path d="M15.6296 342.889L15.44 342.886C13.8885 342.859 12.6905 341.591 12.8362 340.13L23.1877 236.764L32.2188 237.572L17.3559 341.492C17.2399 342.305 16.4975 342.905 15.6296 342.889Z" fill="#8CB4F4"/>
<path d="M188.309 342.889L188.499 342.886C190.05 342.859 191.249 341.591 191.103 340.13L180.752 236.764L171.721 237.572L186.583 341.492C186.699 342.305 187.44 342.905 188.309 342.889Z" fill="#8CB4F4"/>
<path d="M18.713 221.73L0.340978 131.003C-2.01698 118.72 8.16169 107.487 21.3779 107.79L56.8106 108.598C69.0331 108.879 79.6599 117.058 83.0579 128.804L109.936 221.73H18.713Z" fill="#8CB4F4"/>
<path d="M29.8271 221.73L11.4553 131.003C9.09711 118.72 19.2747 107.487 32.492 107.79L67.9247 108.598C80.1472 108.879 90.774 117.058 94.172 128.804L121.05 221.73H29.8271Z" fill="#8CB4F4"/>
<path d="M23.8324 238.277H164.014C166.831 238.277 169.135 235.973 169.135 233.157V226.851C169.135 224.035 166.831 221.731 164.014 221.731H18.7119V233.157C18.7119 235.973 21.0159 238.277 23.8324 238.277Z" fill="#8CB4F4"/>
<path d="M89.6158 238.277H178.979C181.247 238.277 183.105 236.42 183.105 234.152V225.853C183.105 223.585 181.247 221.731 178.979 221.731H89.6158C87.3477 221.731 85.4902 223.585 85.4902 225.853V234.152C85.4902 236.42 87.3477 238.277 89.6158 238.277Z" fill="#8CB4F4"/>
<path d="M140.832 202.742C133.248 215.943 123.71 221.036 123.71 221.036H84.0273C84.0273 221.036 146.617 192.675 140.832 202.742Z" fill="#233862"/>
<path d="M189.775 333.874C189.348 338.038 195.138 339.113 201.854 339.521C208.571 339.926 206.526 341.282 215.717 343.048C224.908 344.815 228.625 342.335 229.306 341.097C229.91 340 225.646 338.228 221.104 336.228C220.534 335.977 219.961 335.72 219.39 335.461C214.278 333.149 211.445 328.514 207.487 324.201C203.739 320.114 200.278 307.128 200.278 307.128L187.791 304.32C187.791 304.32 191.181 316.013 192.347 321.001C193.033 323.936 191.939 327.196 190.974 329.677C190.453 331.027 189.927 332.408 189.775 333.874Z" fill="#FFB27D"/>
<path d="M201.853 339.521C208.569 339.926 206.525 341.282 215.716 343.048C224.906 344.815 228.624 342.335 229.305 341.097C229.908 340 225.645 338.228 221.103 336.228L221.032 336.305C221.032 336.305 214.533 338.432 207.081 336.321C201.007 334.602 195.156 330.898 190.973 329.677C190.452 331.027 189.926 332.408 189.774 333.874C189.347 338.038 195.137 339.113 201.853 339.521Z" fill="#0F2549"/>
<path d="M170.858 189.222C164.142 184.507 119.7 176.096 97.0192 173.662L71.9543 151.901C71.9543 151.901 50.6153 183.506 50.4471 207.684C50.37 218.955 55.5621 220.074 55.5621 220.077C55.5621 220.077 135.922 220.675 139.444 221.036C145.209 221.631 152.813 235.995 154.714 249.077C156.616 262.16 190.125 315.368 190.125 315.368C190.125 315.368 197.114 317.609 200.344 317.418C203.819 317.215 205.428 316.049 205.428 316.049C205.428 316.049 186.01 199.862 170.858 189.222Z" fill="#233862"/>
<path d="M168.99 333.874C168.563 338.038 174.353 339.113 181.069 339.521C187.785 339.926 185.741 341.282 194.932 343.048C204.122 344.815 207.84 342.335 208.518 341.097C209.124 340 204.861 338.228 200.319 336.228C199.749 335.977 199.176 335.72 198.605 335.461C193.493 333.149 190.66 328.514 186.702 324.201C182.954 320.114 179.493 307.128 179.493 307.128L167.006 304.32C167.006 304.32 170.396 316.013 171.561 321.001C172.248 323.936 171.154 327.196 170.189 329.677C169.665 331.027 169.142 332.408 168.99 333.874Z" fill="#FFB27D"/>
<path d="M181.068 339.521C187.784 339.926 185.739 341.282 194.93 343.048C204.121 344.815 207.839 342.335 208.517 341.097C209.123 340 204.86 338.228 200.318 336.228L200.247 336.305C200.247 336.305 193.748 338.432 186.296 336.321C180.222 334.602 174.371 330.898 170.188 329.677C169.664 331.027 169.141 332.408 168.989 333.874C168.562 338.038 174.352 339.113 181.068 339.521Z" fill="#233862"/>
<path d="M149.891 189.222C144.054 185.124 126.499 181.946 107.122 179.59C101.765 178.937 97.3637 175.043 96.0574 169.807L50.9845 151.901C50.9845 151.901 29.6483 183.506 29.4774 207.684C29.4002 218.955 34.5924 220.074 34.5924 220.077C34.5924 220.077 114.952 220.675 118.474 221.036C124.239 221.631 131.846 235.995 133.744 249.077C135.646 262.16 169.155 315.368 169.155 315.368C169.155 315.368 176.144 317.609 179.374 317.418C182.852 317.215 184.459 316.049 184.459 316.049C184.459 316.049 165.041 199.862 149.891 189.222Z" fill="#2B478B"/>
<path d="M89.5779 20.5989C83.3827 17.3442 73.9602 16.906 72.4279 16.6993C54.1067 14.2383 43.0803 40.8603 42.4299 48.9269C41.2366 63.7977 33.3712 66.0631 22.298 75.3753C0.0983 94.0466 6.60831 115.744 18.7484 123.808C26.0295 128.644 38.8692 123.805 38.8692 123.805C39.0511 123.932 73.9795 104.279 91.1957 94.799C117.008 91.1308 105.361 28.8859 89.5779 20.5989Z" fill="#233862"/>
<path d="M85.756 85.6412C85.8386 85.6826 77.615 89.4223 71.6815 87.4601C66.0981 85.6219 61.1815 77.2164 61.2587 77.2026C63.6839 76.8526 66.1449 74.4605 66.8339 60.2951L67.9059 60.5652L85.9489 65.1262C85.9489 65.1262 85.2351 70.842 84.9402 76.2463C84.6922 80.7853 84.7445 85.1011 85.756 85.6412Z" fill="#FFB27D"/>
<path d="M85.9475 65.1262C85.9475 65.1262 85.9475 66.303 85.2723 71.6191C75.0699 69.0451 70.5695 65.6636 67.3975 61.7916L85.9475 65.1262Z" fill="#ED975D"/>
<path d="M89.7983 65.8455C89.7983 65.8455 65.9376 69.7313 63.7494 54.8356C61.5585 39.9399 57.003 30.41 72.1439 27.2986C87.2849 24.1899 91.088 29.4372 93.0282 34.2325C94.9684 39.025 95.9467 64.451 89.7983 65.8455Z" fill="#FFB27D"/>
<path d="M89.8198 26.6756C89.8198 26.6756 78.9863 43.7787 69.3131 47.8299C59.6399 51.8811 54.8887 49.8224 54.8887 49.8224C54.8887 49.8224 59.2899 43.1504 60.4363 34.1937C60.7725 31.5508 62.495 29.2881 64.9643 28.2988C71.9064 25.5181 85.3332 21.1334 89.8198 26.6756Z" fill="#233862"/>
<path d="M80.3037 28.3291C80.3037 28.3291 86.6533 31.5838 89.2687 34.6373C91.7931 37.5806 94.7088 45.57 94.4994 49.1582C94.4994 49.1582 97.6329 31.9641 91.1069 26.0527C84.1868 19.783 80.3037 28.3291 80.3037 28.3291Z" fill="#233862"/>
<path d="M104.843 122.03C104.121 170.529 104.645 160.392 99.3394 164.995C98.0606 166.103 94.4697 166.764 89.7378 167.075C74.8669 168.062 48.7271 165.615 47.7322 162.864C44.3011 153.356 46.7236 150.402 43.8629 135.843C43.5626 134.294 43.1933 132.618 42.7606 130.794C40.374 120.795 38.0535 117.392 46.5169 101.33C54.1948 86.7792 63.2232 74.9564 63.9397 75.3836C84.1929 87.4076 84.8874 77.3292 84.8874 77.3292C84.8874 77.3292 105.198 98.3761 104.843 122.03Z" fill="#FFD72A"/>
<path d="M84.8877 77.329C84.8877 77.329 105.618 80.8428 108.065 89.8133C110.512 98.7865 124.912 151.537 124.912 151.537C124.912 151.537 114.318 153.442 109.424 148.547C104.529 143.653 92.392 103.138 92.392 103.138L84.8877 77.329Z" fill="#FFD72A"/>
<path d="M89.7381 167.075C74.8672 168.062 48.7274 165.615 47.7326 162.864C44.3015 153.356 46.7239 150.402 43.8633 135.843L51.0342 115.647C51.0342 115.647 49.8491 138.138 56.4826 144.053C63.1078 149.969 83.6393 155.473 86.8637 160.414C88.418 162.787 89.4405 165.166 89.7381 167.075Z" fill="#FFD009"/>
<path d="M72.7002 157.617C72.7002 157.617 87.3699 154.351 89.7372 155.652C92.1046 156.953 97.892 161.696 98.614 163.347C99.3388 164.995 93.3447 162.093 91.3963 161.569C90.1313 161.23 86.8077 162.388 85.1624 162.936C78.2396 165.243 73.9955 164.055 73.9955 164.055L72.7002 157.617Z" fill="#FFB27D"/>
<path d="M63.9403 75.3835C63.9403 75.3835 43.1773 76.5961 36.3564 86.1068C26.7576 99.4977 7.71428 156.559 18.628 164.168C30.919 172.739 74.5671 166.408 74.5671 166.408C74.5671 166.408 76.0195 159.621 73.9966 156.336C71.9765 153.053 39.1372 147.748 37.6214 146.232C36.1057 144.717 56.5655 116.675 56.5655 112.128C56.5655 107.581 63.9403 75.3835 63.9403 75.3835Z" fill="#FFD72A"/>
<path d="M90.4502 159.736C90.4502 159.736 93.523 163.699 94.5317 164.173C95.5404 164.647 96.1908 164.529 96.1908 164.529L94.1183 160.8L90.4502 159.736Z" fill="#FFB27D"/>
<path d="M89.7373 155.652L98.6747 159.993C98.6747 159.993 98.2944 160.616 97.1948 160.564C96.0952 160.514 93.32 159.5 93.32 159.5L89.7373 155.652Z" fill="#FFB27D"/>
<path d="M122.662 165.94H81.1523C81.1523 164.113 82.635 162.633 84.4622 162.633H122.662V165.94Z" fill="#49A0EB"/>
<path d="M122.541 120.735H186.718L171.324 165.94H106.733L122.541 120.735Z" fill="#49A0EB"/>
<path d="M187.664 120.732L172.27 165.94H107.68L123.49 120.732H187.664Z" fill="#49A0EB"/>
<path d="M153.063 142.92C152.666 144.648 150.941 146.048 149.213 146.048C147.488 146.048 146.41 144.648 146.81 142.92C147.207 141.192 148.932 139.792 150.657 139.792C152.385 139.792 153.463 141.192 153.063 142.92Z" fill="white"/>
<path d="M66.8054 176.112H348.043C349.225 176.112 350.184 175.153 350.184 173.971V168.082C350.184 166.899 349.225 165.94 348.043 165.94H66.8054C65.6231 165.94 64.6641 166.899 64.6641 168.082V173.971C64.6641 175.153 65.6231 176.112 66.8054 176.112Z" fill="#182D4F"/>
<path d="M354.927 343.647L355.048 343.633C356.49 343.454 357.509 342.167 357.327 340.758L332.265 171.116L323.091 171.378L352.576 341.941C352.766 343.032 353.803 343.784 354.927 343.647Z" fill="#182D4F"/>
<path d="M57.3882 343.647L57.2669 343.633C55.8256 343.454 54.8059 342.167 54.9878 340.758L80.05 171.116L89.2244 171.378L59.7362 341.941C59.5488 343.032 58.5126 343.784 57.3882 343.647Z" fill="#182D4F"/>
<path d="M115.406 343.647L115.285 343.633C113.847 343.454 112.824 342.167 113.009 340.758L138.068 171.116L147.245 171.378L117.757 341.941C117.567 343.032 116.531 343.784 115.406 343.647Z" fill="#182D4F"/>
<path d="M263.261 343.509H312.994C315.386 340.59 314.504 329.82 314.143 326.303C314.066 325.595 314.016 325.182 314.016 325.182C314.016 325.182 297.034 311.598 294.7 321.999C294.629 322.324 294.543 322.644 294.449 322.958C291.512 332.686 278.327 337.109 270.715 338.338C265.766 339.143 263.939 341.714 263.261 343.509Z" fill="#233862"/>
<path d="M398.961 181.913C397.165 181.913 313.774 197.569 299.98 214.645C293.088 223.175 292.062 321.687 292.062 321.687C292.062 321.687 300.589 332.256 319.002 326.119C319.002 326.119 332.5 258.72 331.505 238.277C331.227 232.625 388.481 237.458 398.961 234.747C409.439 232.035 435.044 209.238 429.4 198.134C423.759 187.028 398.961 181.913 398.961 181.913Z" fill="#233862"/>
<path d="M300.336 157.791C300.336 157.791 283.517 158.017 279.538 159.723C275.561 161.426 267.489 165.339 269.649 165.94C271.81 166.541 282.114 165.695 284.341 166.034C286.568 166.375 289.313 165.94 290.677 165.94C292.041 165.94 298.402 165.94 298.402 165.94L300.336 157.791Z" fill="#FFB27D"/>
<path d="M280.672 117.422C280.672 117.422 274.936 113.324 269.367 112.528C266.192 112.073 263.103 111.508 261.237 110.85C256.097 109.039 245.815 99.7956 246.595 98.7097C249.086 95.2345 261.091 102.59 263.185 101.799C265.283 101.011 259.159 96.6566 261.289 95.1271C262.4 94.3251 265.001 98.3349 267.129 98.7373C270.006 99.2802 272.258 103.345 273.123 103.557C274.81 103.971 282.193 109.461 282.193 109.461L280.672 117.422Z" fill="#FFB27D"/>
<path d="M390.655 69.5633C390.655 69.5633 377.851 73.5318 365.235 108.273C352.618 143.014 347.826 144.891 343.24 146.255C338.654 147.616 298.401 155.63 298.401 155.63V165.94H360.426C360.426 165.94 383.683 143.819 390.655 128.926C397.628 114.03 390.655 69.5633 390.655 69.5633Z" fill="#FF8A32"/>
<path d="M241.282 343.509H291.013C293.405 340.59 292.523 329.82 292.162 326.303C292.087 325.595 292.038 325.182 292.038 325.182C292.038 325.182 275.053 311.598 272.722 321.999C272.65 322.324 272.565 322.644 272.471 322.958C269.53 332.686 256.349 337.109 248.737 338.338C243.787 339.143 241.957 341.714 241.282 343.509Z" fill="#1B3051"/>
<path d="M374.387 181.913C372.59 181.913 289.199 197.569 275.406 214.645C268.514 223.175 267.488 321.687 267.488 321.687C267.488 321.687 276.015 332.256 294.427 326.119C294.427 326.119 307.926 258.72 306.931 238.277C306.653 232.625 363.907 237.458 374.387 234.747C384.865 232.035 410.47 209.238 404.826 198.134C399.185 187.028 374.387 181.913 374.387 181.913Z" fill="#2B478B"/>
<path d="M379.606 80.5732C385.603 80.0771 391.895 78.4787 397.33 76.7149C404.126 74.5102 409.605 71.2857 406.074 65.0767C402.819 59.3527 397.556 46.5625 397.911 35.9688L385.267 46.1601L376.677 53.083C376.677 53.083 376.713 57.1617 377.65 64.3133C377.823 65.6169 378.022 67.0251 378.259 68.5271C378.452 69.7424 377.892 70.9578 376.848 71.6054C376.782 71.644 376.718 71.6854 376.655 71.7267C372.386 74.4082 374.58 80.9866 379.606 80.5732Z" fill="#FFB27D"/>
<path d="M376.678 51.396C376.678 51.396 376.237 52.8786 376.992 58.3491C384.651 57.1007 391.81 50.9936 391.81 50.9936C387.911 49.9215 386.492 45.7105 383.59 46.1019L376.678 51.396Z" fill="#ED975D"/>
<path d="M369.594 52.6447C369.594 52.6447 399.049 57.5392 401.816 39.149C404.581 20.7561 410.244 9.00214 391.553 5.09977C372.863 1.1974 368.147 7.66553 365.731 13.5797C363.314 19.4939 362.002 50.8975 369.594 52.6447Z" fill="#FFB27D"/>
<path d="M361.398 5.44158C360.133 9.87032 363.517 15.2636 369.2 17.0412C377.636 19.6758 375.773 30.0215 379.568 29.8837C383.363 29.7404 384.895 23.9337 388.285 28.5747C391.179 32.5321 385.879 37.2227 386.243 39.3944C386.868 43.1204 392.705 50.7432 397.964 50.3601C403.225 49.977 413.066 24.9837 411.095 17.2506C409.128 9.51756 401.254 1.36284 393.805 0.238426C386.353 -0.885983 376.004 2.33292 373.615 2.33292C371.226 2.33292 362.082 3.04945 361.398 5.44158Z" fill="#2B478B"/>
<path d="M429.794 95.0883C425.536 77.9521 413.769 59.9698 405.812 59.9863C392.256 60.0111 372.763 63.5883 364.895 83.0009C359.1 97.2985 351.369 179.543 360.106 185.391C380.078 198.763 426.374 226.06 434.598 198.223C442.135 172.719 437.183 124.827 429.794 95.0883Z" fill="#FF8A32"/>
<path d="M396.863 78.0348C392.997 67.973 380.521 64.4951 372.013 71.1148C367.411 74.6947 361.778 79.7931 354.971 87.0411C329.669 113.983 324.526 113.818 319.775 113.261C315.021 112.704 274.873 104.183 274.873 104.183C274.873 104.183 272.817 105.699 271.607 108.151C269.992 111.425 270.805 113.655 270.805 113.655C269.232 112.641 285.037 123.535 292.905 127.878C303.292 133.613 318.945 138.993 325.182 141.035C326.949 141.614 328.853 141.583 330.603 140.952C339.857 137.618 370.936 125.464 396.232 104.373C402.899 98.8144 400.449 87.3636 396.863 78.0348Z" fill="#FF8A32"/>
<path d="M407.176 60.1515L404.109 53.2342C404.109 53.2342 376.633 55.4747 372.014 71.1145C372.014 71.1145 393.311 60.485 407.176 60.1515Z" fill="white"/>
<path d="M473.887 342.889L474.077 342.886C475.628 342.859 476.824 341.591 476.678 340.13L466.33 236.764L457.299 237.572L472.159 341.492C472.277 342.305 473.019 342.905 473.887 342.889Z" fill="#8CB4F4"/>
<path d="M420.612 342.889L420.802 342.886C422.354 342.859 423.553 341.591 423.407 340.13L413.056 236.764L404.024 237.572L418.887 341.492C419.003 342.305 419.744 342.905 420.612 342.889Z" fill="#8CB4F4"/>
<path d="M320.6 342.889L320.41 342.886C318.861 342.859 317.662 341.591 317.808 340.13L328.156 236.764L337.187 237.572L322.328 341.492C322.212 342.305 321.468 342.905 320.6 342.889Z" fill="#73A2E5"/>
<path d="M470.963 222.122L480.785 135.79C482.072 123.35 477.91 111.166 459.955 110.224L428.373 108.3C409.652 107.529 401.199 123.108 398.829 135.101L380.078 230.004L470.963 222.122Z" fill="#8CB4F4"/>
<path d="M465.681 238.277H325.502C322.686 238.277 320.379 235.973 320.379 233.157V226.851C320.379 224.035 322.686 221.731 325.502 221.731H470.802V233.157C470.802 235.973 468.498 238.277 465.681 238.277Z" fill="#73A2E5"/>
<path d="M466.826 238.277H384.055C381.869 238.277 380.078 236.486 380.078 234.3V225.707C380.078 223.519 381.869 221.731 384.055 221.731H470.803V234.3C470.803 236.486 469.014 238.277 466.826 238.277Z" fill="#8CB4F4"/>
</svg>
