<svg width="50" height="56" viewBox="0 0 50 56" fill="none" xmlns="http://www.w3.org/2000/svg">
<g clip-path="url(#clip0)">
<path d="M16.9696 41.2435C16.9599 41.2404 16.95 41.2381 16.9402 41.2354C17.8427 40.0923 18.3928 38.5841 18.3928 36.9325V32.0832C18.3928 29.2286 16.3455 26.9062 13.8291 26.9062H7.9725C7.44007 26.9062 7.00831 27.3959 7.00831 28V36.9325C7.00831 38.5841 7.55847 40.0923 8.46086 41.2354C8.45102 41.2381 8.44119 41.2404 8.43145 41.2436C4.2649 41.679 0.990814 45.6644 0.990814 50.5025V54.9062C0.990814 55.5102 1.42258 56 1.955 56H23.4463C23.9787 56 24.4104 55.5102 24.4104 54.9062V50.5024C24.4103 45.6642 21.1362 41.6789 16.9696 41.2435ZM12.7006 41.2022C10.6252 41.2022 8.93668 39.2868 8.93668 36.9325V34.9766C9.46149 35.3019 10.063 35.487 10.702 35.487H16.4645V36.9325C16.4646 39.2868 14.776 41.2022 12.7006 41.2022ZM14.3813 43.3897L12.7005 45.2963L11.0197 43.3897H14.3813ZM8.93659 29.0938H13.8292C15.2823 29.0938 16.4645 30.4348 16.4645 32.0832V33.2995H10.702C9.72857 33.2995 8.93659 32.4011 8.93659 31.2969V29.0938ZM2.919 53.8125V50.5024C2.919 46.9033 5.28829 43.9219 8.35026 43.4552L12.0186 47.6165C12.2069 47.83 12.4537 47.9369 12.7004 47.9369C12.9471 47.9369 13.1939 47.83 13.3822 47.6165L17.0506 43.4551C20.1125 43.9218 22.4819 46.9032 22.4819 50.5023V53.8125H2.919Z" fill="#0D3344"/>
<path d="M44.0003 42.0539C44.7419 41.2197 45.202 40.064 45.202 38.7886V34.3415C45.202 31.8178 44.0868 29.585 42.3871 28.2404C42.4026 28.1625 42.4107 28.082 42.4107 28V25.3997C44.6648 25.0791 46.4142 22.8915 46.4142 20.249V9.28851C46.4142 6.42616 44.3613 4.09735 41.8379 4.09735H26.8478C24.3244 4.09735 22.2716 6.42616 22.2716 9.28851V20.249C22.2716 23.1113 24.3244 25.4401 26.8478 25.4401H37.8263L39.1391 26.9293C38.9765 26.9155 38.8129 26.9062 38.6473 26.9062C35.0331 26.9062 32.0927 30.2417 32.0927 34.3415V38.7885C32.0927 40.064 32.5528 41.2196 33.2944 42.0538C30.4892 43.5241 28.537 46.7441 28.537 50.4735V54.9062C28.537 55.5102 28.9687 56 29.5011 56H47.7935C48.3259 56 48.7577 55.5102 48.7577 54.9062V50.4737C48.7577 46.7442 46.8054 43.5242 44.0003 42.0539ZM38.9077 23.573C38.7268 23.3679 38.4816 23.2526 38.2259 23.2526H26.8478C25.3877 23.2526 24.2 21.9053 24.2 20.249V9.28851C24.2 7.63224 25.3877 6.28485 26.8478 6.28485H41.8378C43.2979 6.28485 44.4857 7.63224 44.4857 9.28851V9.34735H38.3691C37.8366 9.34735 37.4049 9.83703 37.4049 10.4411C37.4049 11.0452 37.8366 11.5349 38.3691 11.5349H44.4857V20.249C44.4857 21.9053 43.2979 23.2526 41.8378 23.2526H41.4465C40.914 23.2526 40.4823 23.7423 40.4823 24.3464V25.3593L38.9077 23.573ZM34.0212 34.3415C34.0212 31.4479 36.0965 29.0937 38.6474 29.0937C41.1983 29.0937 43.2736 31.4479 43.2736 34.3415V38.7885C43.2736 40.1194 42.3192 41.2021 41.1459 41.2021H40.5847H36.7102H36.1488V41.2022C34.9756 41.2022 34.0212 40.1195 34.0212 38.7886V34.3415ZM46.8295 53.8125H46.8294H30.4654V50.4737C30.4654 46.5676 33.2669 43.3897 36.7103 43.3897H40.5848C44.0282 43.3897 46.8295 46.5676 46.8295 50.4737V53.8125Z" fill="#0D3344"/>
<path d="M20.7245 0H9.50997C6.98669 0 4.93375 2.32881 4.93375 5.19116V16.1516C4.93375 18.7941 6.68307 20.9817 8.93705 21.3023V23.9026C8.93705 24.3449 9.17203 24.7438 9.53225 24.9131C9.65152 24.9692 9.77686 24.9965 9.90105 24.9965C10.152 24.9965 10.3986 24.8852 10.583 24.676L13.5214 21.3428H18.532C19.0644 21.3428 19.4962 20.8531 19.4962 20.249C19.4962 19.645 19.0644 19.1553 18.532 19.1553H13.122C12.8663 19.1553 12.6211 19.2706 12.4402 19.4756L10.8655 21.262V20.249C10.8655 19.645 10.4338 19.1553 9.90134 19.1553H9.50997C8.0499 19.1553 6.86212 17.8079 6.86212 16.1516V5.19116C6.86212 3.53489 8.05 2.1875 9.50997 2.1875H20.7244C21.2569 2.1875 21.6886 1.69783 21.6886 1.09375C21.6886 0.489672 21.2569 0 20.7245 0Z" fill="#0D3344"/>
<path d="M25.182 0.320469C25.0018 0.117031 24.7539 0 24.5004 0C24.2457 0 23.997 0.117031 23.8187 0.320469C23.6384 0.523906 23.5352 0.806094 23.5352 1.09375C23.5352 1.38141 23.6384 1.66359 23.8187 1.86703C23.997 2.07047 24.2457 2.1875 24.5004 2.1875C24.754 2.1875 25.0018 2.07047 25.182 1.86703C25.3613 1.66359 25.4646 1.38141 25.4646 1.09375C25.4646 0.806094 25.3613 0.523906 25.182 0.320469Z" fill="#0D3344"/>
<path d="M35.0244 9.6677C34.8452 9.46426 34.5963 9.34723 34.3428 9.34723C34.0892 9.34723 33.8405 9.46426 33.6611 9.6677C33.4818 9.87114 33.3786 10.1533 33.3786 10.441C33.3786 10.7286 33.4817 11.0108 33.6611 11.2143C33.8406 11.4177 34.0892 11.5347 34.3428 11.5347C34.5964 11.5347 34.8452 11.4177 35.0244 11.2143C35.2037 11.0108 35.307 10.7286 35.307 10.441C35.307 10.1533 35.2038 9.87114 35.0244 9.6677Z" fill="#0D3344"/>
</g>
<defs>
<clipPath id="clip0">
<rect width="49.3664" height="56" fill="white" transform="translate(0.190979)"/>
</clipPath>
</defs>
</svg>
