<svg width="57" height="56" viewBox="0 0 57 56" fill="none" xmlns="http://www.w3.org/2000/svg">
<path d="M3.18599 34.3527C3.36898 34.8487 3.65729 35.2952 4.02621 35.661C4.68039 36.3152 5.57967 36.7213 6.5717 36.7213C7.56078 36.7213 8.46301 36.3152 9.11707 35.661C9.77125 35.007 10.1774 34.1048 10.1774 33.1157V31.1097C9.41785 31.1748 8.75121 31.0105 8.23037 30.7934C8.18378 31.0197 8.13117 31.2399 8.06292 31.4569C7.80556 32.2939 7.37462 33.0567 6.69256 33.6055C6.0012 34.1636 5.08354 34.486 3.86806 34.4239C3.65106 34.4146 3.42465 34.3899 3.18599 34.3527ZM24.4365 28.9798H31.648V26.7133H26.0951C25.6394 26.7133 25.2239 26.9025 24.9232 27.2032C24.6224 27.504 24.4365 27.9163 24.4365 28.3721V28.9798ZM31.6479 30.6198H24.4364V33.1156C24.4364 34.1046 24.8425 35.0069 25.4966 35.6609C26.1507 36.3151 27.0529 36.7212 28.042 36.7212C29.034 36.7212 29.9363 36.3151 30.5875 35.6609C31.2416 35.0069 31.6478 34.1046 31.6478 33.1156V30.6198H31.6479ZM54.1261 36.0952C54.5663 36.3277 54.9538 36.644 55.2732 37.019C55.8468 37.695 56.191 38.5662 56.191 39.5117V45.0428C56.191 45.4955 55.8251 45.8613 55.3725 45.8613C54.9199 45.8613 54.5509 45.4954 54.5509 45.0428V39.5117C54.5509 38.9661 54.3524 38.4638 54.0238 38.0763C53.7323 37.7321 53.3386 37.4779 52.8891 37.357C52.0241 37.9894 50.9604 38.3615 49.8134 38.3615C48.6261 38.3615 47.5284 37.9647 46.6447 37.2919C46.4774 37.3105 46.3161 37.3571 46.1611 37.4284C45.9502 37.5275 45.758 37.6796 45.6029 37.8841L41.1972 43.7191C41.0422 43.9238 40.8004 44.0478 40.5431 44.0478H34.8973C34.4787 44.0478 34.1005 44.2152 33.8277 44.4879C33.5548 44.7639 33.3843 45.1421 33.3843 45.5576C33.3843 45.9761 33.5548 46.3544 33.8277 46.6272C34.1005 46.9 34.4787 47.0706 34.8973 47.0706H41.6406C41.9105 47.0706 42.1181 47.0427 42.3756 46.9125C42.853 46.6737 43.2995 45.9483 43.625 45.5142L46.5426 41.6543C46.8154 41.2916 47.3269 41.2201 47.6896 41.493C48.0492 41.7658 48.1205 42.2804 47.8477 42.6402L45.0729 46.3171V53.4666H54.5509V48.7571C54.5509 48.3044 54.9198 47.9386 55.3725 47.9386C55.8252 47.9386 56.191 48.3045 56.191 48.7571V54.2882C56.191 54.7409 55.8251 55.1066 55.3725 55.1066C37.2504 55.1066 19.1316 55.1066 1.0126 55.1066C0.56001 55.1066 0.190979 54.7407 0.190979 54.2882V48.7571C0.190979 48.3044 0.56001 47.9386 1.0126 47.9386C1.46531 47.9386 1.83106 48.3045 1.83106 48.7571V53.4666H11.3122V46.3171L8.53432 42.6402C8.26154 42.2804 8.33285 41.7658 8.69565 41.493C9.05528 41.2201 9.56989 41.2915 9.84278 41.6543L12.6951 45.4305C12.9555 45.7746 13.216 46.1218 13.4763 46.4692C13.6251 46.6644 13.8081 46.8133 14.0096 46.9125C14.2359 47.0272 14.4468 47.0706 14.6949 47.0706H21.4878C21.9033 47.0706 22.2816 46.9 22.5574 46.6272C22.8303 46.3544 22.9976 45.9761 22.9976 45.5576C22.9976 45.1421 22.8303 44.7639 22.5574 44.4879C22.2816 44.2152 21.9033 44.0478 21.4878 44.0478H15.8389C15.5909 44.0478 15.346 43.9331 15.1849 43.7191L10.7791 37.8841C10.5279 37.5524 10.1527 37.3385 9.73745 37.2919C8.85687 37.9616 7.7594 38.3615 6.57192 38.3615C5.42479 38.3615 4.35817 37.9895 3.49323 37.3602C3.05299 37.4749 2.66231 37.726 2.37082 38.0608C2.03592 38.4514 1.83128 38.9568 1.83128 39.5118V45.0429C1.83128 45.4956 1.46542 45.8614 1.01282 45.8614C0.560229 45.8614 0.191198 45.4955 0.191198 45.0429V39.5118C0.191198 38.5538 0.54776 37.6703 1.13368 36.9913C1.44999 36.6286 1.83128 36.3216 2.25915 36.0953C1.6484 35.2179 1.32596 34.1823 1.32596 33.1158V28.3722C1.32596 27.4637 1.69489 26.639 2.29328 26.0408C2.89178 25.4455 3.71329 25.0734 4.62165 25.0734H8.51879C9.42726 25.0734 10.2519 25.4454 10.8502 26.0408C11.4487 26.6391 11.8177 27.4638 11.8177 28.3722V33.1158C11.8177 34.1668 11.5045 35.1497 10.968 35.9712C11.4114 36.1945 11.7865 36.5014 12.0873 36.8983L16.245 42.4046H19.5283V39.0779C19.5283 38.1354 20.0274 37.2827 20.8366 36.5603C21.463 36.0023 22.2877 35.5155 23.1992 35.1311C22.9388 34.5079 22.7963 33.8289 22.7963 33.1158V29.8014V28.3721C22.7963 27.4636 23.1683 26.6389 23.7637 26.0406C24.3621 25.4454 25.1868 25.0733 26.0951 25.0733H32.4695C32.9223 25.0733 33.2912 25.4422 33.2912 25.895V29.8015V33.1158C33.2912 33.7885 33.1611 34.4335 32.9286 35.0288C33.9082 35.4132 34.7949 35.9092 35.4647 36.4858C36.3234 37.2238 36.8537 38.1043 36.8537 39.0778V42.4045H40.1369L44.2947 36.8982C44.6017 36.495 44.9861 36.1851 45.4171 35.9743C44.8776 35.1496 44.5644 34.1668 44.5644 33.1157V28.3721C44.5644 27.4636 44.9365 26.6389 45.5318 26.0406C46.1302 25.4454 46.9549 25.0733 47.8633 25.0733H51.7606C52.669 25.0733 53.4938 25.4453 54.0921 26.0406C54.6873 26.639 55.0594 27.4637 55.0594 28.3721V33.1157C55.0593 34.1821 54.7338 35.2176 54.1261 36.0952ZM53.196 34.3527C52.9604 34.3899 52.7309 34.4146 52.5139 34.4239C51.3016 34.4859 50.3838 34.1635 49.6925 33.6055C49.0072 33.0567 48.5763 32.294 48.3189 31.4569C48.2537 31.2399 48.1981 31.0197 48.1545 30.7934C47.6306 31.0104 46.9672 31.1747 46.2045 31.1097V33.1157C46.2045 34.1048 46.6106 35.007 47.2648 35.661C47.9188 36.3152 48.8212 36.7213 49.8133 36.7213C50.8023 36.7213 51.7046 36.3152 52.3588 35.661C52.7248 35.2952 53.013 34.8487 53.196 34.3527ZM46.2045 29.4665C47.2989 29.6215 48.0988 28.9859 48.2414 28.8619C48.4027 28.7255 48.5545 28.6418 48.7747 28.6324C49.2274 28.6107 49.6087 28.958 49.6303 29.4106C49.6583 29.9439 49.7326 30.4835 49.8845 30.9763C50.052 31.525 50.3155 32.0087 50.7156 32.3311C51.1093 32.6474 51.6644 32.8273 52.4364 32.79C52.734 32.7744 53.0595 32.728 53.4191 32.6473V28.3719C53.4191 27.9161 53.23 27.5037 52.9292 27.203C52.6285 26.9023 52.2161 26.7131 51.7604 26.7131H47.8632C47.4074 26.7131 46.9949 26.9023 46.6943 27.203C46.3935 27.5037 46.2045 27.9161 46.2045 28.3719V29.4665ZM10.1775 29.4665V28.372C10.1775 27.9162 9.99153 27.5039 9.69075 27.2031C9.39007 26.9024 8.97456 26.7132 8.51879 26.7132H4.62143C4.16884 26.7132 3.75332 26.9024 3.45254 27.2031C3.15187 27.5039 2.96582 27.9162 2.96582 28.372V32.6474C3.32239 32.728 3.64789 32.7745 3.9456 32.7901C4.71768 32.8274 5.27265 32.6474 5.66629 32.3312C6.06628 32.0089 6.32976 31.5251 6.50039 30.9764C6.65231 30.4835 6.72668 29.944 6.75151 29.4107C6.77317 28.958 7.15762 28.6108 7.60715 28.6325C7.81803 28.6419 7.97914 28.7193 8.13423 28.8557C8.24907 28.958 9.0614 29.6245 10.1775 29.4665ZM24.0768 36.5416C23.221 36.8734 22.4645 37.295 21.925 37.7788C21.4569 38.1942 21.1684 38.6406 21.1684 39.0778V42.4045H21.4878C22.356 42.4045 23.1466 42.7578 23.7171 43.3283C24.2876 43.8988 24.641 44.6863 24.641 45.5576C24.641 46.1064 24.4984 46.6211 24.2535 47.0706H32.1285C31.8836 46.6211 31.744 46.1064 31.744 45.5576C31.744 44.6863 32.0974 43.8988 32.668 43.3283C33.2385 42.7578 34.0259 42.4045 34.8972 42.4045H35.2135V39.0778C35.2135 38.6251 34.9034 38.16 34.4012 37.7291C33.8121 37.2238 32.9935 36.7866 32.082 36.4549C31.9766 36.582 31.865 36.706 31.7503 36.8208C30.7985 37.7725 29.487 38.3616 28.0422 38.3616C26.6004 38.3616 25.286 37.7725 24.3373 36.8208C24.2472 36.7306 24.1604 36.6378 24.0768 36.5416ZM7.02746 6.96684C6.57476 6.96684 6.20901 6.59792 6.20901 6.14522C6.20901 5.69252 6.57487 5.32677 7.02746 5.32677H22.2133C22.666 5.32677 23.0319 5.69262 23.0319 6.14522C23.0319 6.59792 22.6659 6.96684 22.2133 6.96684H7.02746ZM7.02746 15.5984C6.57476 15.5984 6.20901 15.2295 6.20901 14.7768C6.20901 14.3241 6.57487 13.9551 7.02746 13.9551H14.6205C15.0732 13.9551 15.4421 14.3241 15.4421 14.7768C15.4421 15.2295 15.0732 15.5984 14.6205 15.5984H7.02746ZM7.02746 11.2827C6.57476 11.2827 6.20901 10.9136 6.20901 10.461C6.20901 10.0083 6.57487 9.64259 7.02746 9.64259H22.2133C22.666 9.64259 23.0319 10.0085 23.0319 10.461C23.0319 10.9136 22.6659 11.2827 22.2133 11.2827H7.02746ZM23.0535 20.0288C23.1683 20.3482 23.3511 20.6334 23.5838 20.8659C23.9993 21.2845 24.5759 21.5449 25.2176 21.5449H30.0388C30.4915 21.5449 30.8572 21.9107 30.8572 22.3665C30.8572 22.8192 30.4914 23.185 30.0388 23.185H25.2176C24.1232 23.185 23.1372 22.7386 22.4241 22.0193C21.8909 21.483 21.5125 20.7947 21.3513 20.0288H9.91398L6.19971 23.7431C6.05096 23.892 5.84632 23.9849 5.61685 23.9849C5.16415 23.9849 4.79523 23.6191 4.79523 23.1665V19.9607C3.75343 19.787 2.82014 19.2879 2.10406 18.5686C1.20182 17.6694 0.643791 16.4261 0.643791 15.0558V5.86631C0.643791 4.49901 1.20193 3.25575 2.10406 2.35362C3.00312 1.45445 4.24639 0.89325 5.61685 0.89325H23.6242C24.9945 0.89325 26.2379 1.45445 27.1369 2.35362C28.0392 3.25575 28.5972 4.49901 28.5972 5.86631V7.38553H42.5307C43.6189 7.38553 44.6049 7.82894 45.3211 8.54512C46.0373 9.26131 46.4807 10.2472 46.4807 11.3355V19.2353C46.4807 20.3236 46.0373 21.3095 45.3211 22.0257C44.7908 22.556 44.1089 22.9372 43.3493 23.0986V26.3229C43.3493 26.5306 43.2717 26.7414 43.1105 26.9027C42.7911 27.222 42.2703 27.222 41.9508 26.9027L38.2335 23.1853H33.7534C33.3006 23.1853 32.9317 22.8194 32.9317 22.3668C32.9317 21.9111 33.3006 21.5452 33.7534 21.5452H38.5745C38.804 21.5452 39.0085 21.6383 39.1574 21.7901L41.709 24.3417V22.3667C41.709 21.911 42.0779 21.5451 42.5307 21.5451C43.1631 21.5451 43.7429 21.2847 44.1615 20.8661C44.5801 20.4476 44.8405 19.8709 44.8405 19.2353V11.3355C44.8405 10.6999 44.5801 10.1233 44.1615 9.70472C43.7429 9.28614 43.1631 9.02572 42.5307 9.02572H28.5971V15.056C28.5971 16.4264 28.0391 17.6696 27.1368 18.5688C26.2376 19.4709 24.9944 20.0291 23.6241 20.0291H23.0535V20.0288ZM9.57284 18.3888H23.6241C24.5419 18.3888 25.3727 18.0136 25.9773 17.4091C26.5819 16.8045 26.957 15.9705 26.957 15.0558V5.86631C26.957 4.95172 26.5819 4.11773 25.9773 3.51311C25.3728 2.90848 24.5419 2.53333 23.6241 2.53333H5.61674C4.69898 2.53333 3.86806 2.90848 3.26343 3.51311C2.65892 4.11762 2.28365 4.95161 2.28365 5.86631V15.0559C2.28365 15.9705 2.65892 16.8045 3.26343 17.4092C3.86795 18.0137 4.69898 18.3889 5.61674 18.3889C6.06945 18.3889 6.4352 18.7578 6.4352 19.2105V21.1855L8.99304 18.6308C9.15437 18.4694 9.36207 18.3888 9.57284 18.3888ZM43.4327 48.7106H12.9524V53.4665H43.4328V48.7106H43.4327Z" fill="#0D3344"/>
</svg>
