<svg width="54" height="56" viewBox="0 0 54 56" fill="none" xmlns="http://www.w3.org/2000/svg">
<path d="M14.1627 10.5574C14.1627 12.1273 16.0649 13.3115 18.5884 13.3115C21.112 13.3115 23.0142 12.1273 23.0142 10.5574C23.0142 8.98761 21.112 7.80334 18.5884 7.80334C16.0649 7.80334 14.1627 8.98761 14.1627 10.5574ZM18.5884 9.63941C20.3021 9.63941 21.2439 10.3289 21.2439 10.5574C21.2439 10.786 20.3021 11.4755 18.5884 11.4755C16.8748 11.4755 15.933 10.786 15.933 10.5574C15.933 10.3289 16.8748 9.63941 18.5884 9.63941Z" fill="#0D3344"/>
<path d="M30.9804 33.5082C30.9804 35.078 32.8826 36.2623 35.4062 36.2623C37.9298 36.2623 39.832 35.078 39.832 33.5082C39.832 31.9384 37.9298 30.7541 35.4062 30.7541C32.8826 30.7541 30.9804 31.9384 30.9804 33.5082ZM38.0617 33.5082C38.0617 33.7368 37.1198 34.4262 35.4062 34.4262C33.6925 34.4262 32.7507 33.7368 32.7507 33.5082C32.7507 33.2796 33.6925 32.5902 35.4062 32.5902C37.1198 32.5902 38.0617 33.2796 38.0617 33.5082Z" fill="#0D3344"/>
<path d="M53.1094 32.5902C53.1039 32.5253 53.0914 32.4613 53.0722 32.3992C53.1976 31.9527 52.9813 31.4795 52.5686 31.2976L47.6533 29.1485C47.1833 27.9339 45.5068 27.082 43.3727 27.082C42.7398 27.082 43.6099 27.3868 39.7621 25.7049C39.478 24.551 38.1246 23.6761 36.2914 23.4622C36.2914 8.40645 36.326 9.08855 36.2224 8.83333C36.1305 8.61757 35.965 8.44462 35.7577 8.34769C35.5877 8.2715 35.763 8.34769 30.8353 6.19399C30.3653 4.9831 28.6888 4.13117 26.5547 4.13117C25.9218 4.13117 26.792 4.43596 22.9442 2.75412C22.1829 -0.303847 14.9946 -0.308437 14.2325 2.75412C10.3927 4.43228 11.2566 4.13117 10.6219 4.13117C8.48782 4.13117 6.81576 4.9831 6.34132 6.19399C3.87173 7.27451 1.29593 8.39727 1.41985 8.34769C1.22949 8.43275 1.07581 8.58724 0.987897 8.78192C0.834765 9.09681 0.885219 6.9633 0.885219 39.9344C0.885097 40.3039 1.09858 40.6375 1.42693 40.7809C36.9243 56.2819 35.0124 55.541 35.4063 55.541C35.7055 55.541 34.5919 55.9743 52.5677 48.1251C52.7331 48.0635 52.8695 47.9387 52.9492 47.7763C53.1705 47.4302 53.1094 48.5346 53.1094 32.5902ZM36.2914 40.0942L51.3391 33.5229V46.6691L36.2914 53.2404V40.0942ZM46.0282 29.8361C46.0282 30.0647 45.0864 30.7541 43.3727 30.7541C41.659 30.7541 40.7172 30.0647 40.7172 29.8361C40.7172 29.6075 41.659 28.9181 43.3727 28.9181C45.0864 28.9181 46.0282 29.6075 46.0282 29.8361ZM43.3727 32.5902C44.8684 32.7115 46.3386 32.1362 47.3842 31.0204L49.945 32.1394L35.4063 38.4885L20.8676 32.1394L23.4284 31.0204C24.474 32.1362 25.9442 32.7115 27.4399 32.5902C31.7603 32.5902 33.1208 29.4689 30.6194 27.8862L31.5187 27.4933C33.1412 29.3973 37.6723 29.3963 39.2939 27.4933L40.1932 27.8862C37.667 29.4826 39.1036 32.5902 43.3727 32.5902ZM31.0504 25.7049C27.2106 27.3831 28.0745 27.082 27.4399 27.082C25.3058 27.082 23.6337 27.9339 23.1593 29.1448L19.4735 30.7541V17.1434L34.5211 10.5721V23.4622C32.688 23.6761 31.3346 24.551 31.0504 25.7049ZM27.4399 28.9181C29.1536 28.9181 30.0954 29.6075 30.0954 29.8361C30.0954 30.0647 29.1536 30.7541 27.4399 30.7541C25.7262 30.7541 24.7844 30.0647 24.7844 29.8361C24.7844 29.6075 25.7262 28.9181 27.4399 28.9181ZM2.65553 10.5721L17.7032 17.1434V30.7541L2.65553 24.1865V10.5721ZM38.0618 26.164C38.0618 26.3925 37.12 27.082 35.4063 27.082C33.6926 27.082 32.7508 26.3925 32.7508 26.164C32.7508 25.9354 33.6926 25.2459 35.4063 25.2459C37.12 25.2459 38.0618 25.9354 38.0618 26.164ZM29.2102 6.88527C29.2102 7.11386 28.2684 7.8033 26.5547 7.8033C24.8411 7.8033 23.8993 7.11386 23.8993 6.88527C23.8993 6.65668 24.8411 5.96724 26.5547 5.96724C28.2684 5.96724 29.2102 6.65668 29.2102 6.88527ZM18.5883 2.2951C20.302 2.2951 21.2438 2.98455 21.2438 3.21314C21.2438 3.44173 20.302 4.13117 18.5883 4.13117C16.8747 4.13117 15.9329 3.44173 15.9329 3.21314C15.9329 2.98455 16.8747 2.2951 18.5883 2.2951ZM14.7007 4.54245C16.3232 6.44645 20.8543 6.44553 22.4759 4.54245L23.3753 4.93537C22.6545 5.3086 22.1797 6.05142 22.129 6.88527C22.129 9.96435 28.7145 10.607 30.5663 8.06953L33.1261 9.18861L18.5883 15.5377L4.05054 9.18861L6.61041 8.06953C8.46038 10.6042 15.0477 9.9671 15.0477 6.88527C14.9969 6.05142 14.5221 5.3086 13.8014 4.93537L14.7007 4.54245ZM10.6219 5.96724C12.3356 5.96724 13.2774 6.65668 13.2774 6.88527C13.2774 7.11386 12.3356 7.8033 10.6219 7.8033C8.90827 7.8033 7.96646 7.11386 7.96646 6.88527C7.96646 6.65668 8.90827 5.96724 10.6219 5.96724ZM2.65553 26.1786L18.2431 32.9859L34.5211 40.0942V53.2404L2.65553 39.3249V26.1786Z" fill="#0D3344"/>
<path d="M32.2196 48.273L12.7462 39.5241C12.4544 39.3844 12.1126 39.4197 11.8531 39.6162C11.5936 39.8128 11.4571 40.1398 11.4967 40.4705C11.5362 40.8013 11.7454 41.0838 12.0433 41.2087L31.5168 49.9566C31.8093 50.1022 32.1551 50.0701 32.4181 49.8731C32.681 49.676 32.819 49.3455 32.7776 49.0118C32.7362 48.6781 32.5221 48.3946 32.2196 48.273Z" fill="#0D3344"/>
<path d="M8.32045 37.531L5.66499 36.3375C5.21646 36.1347 4.69434 36.3474 4.49879 36.8126C4.30325 37.2778 4.50833 37.8193 4.95686 38.0221L7.61233 39.2156C7.90247 39.3468 8.23806 39.3074 8.49268 39.1124C8.7473 38.9174 8.88227 38.5963 8.84675 38.2701C8.81122 37.9439 8.6106 37.6622 8.32045 37.531Z" fill="#0D3344"/>
</svg>
