<svg width="52" height="52" viewBox="0 0 52 52" fill="none" xmlns="http://www.w3.org/2000/svg">
<path d="M50.7791 48.3547L40.102 29.2238C39.8101 28.7008 39.3032 28.3885 38.7461 28.3885C38.1891 28.3885 37.6822 28.7009 37.3905 29.2238L36.0043 31.7076C35.7886 32.094 35.8979 32.6001 36.2484 32.8379C36.5991 33.0756 37.058 32.9551 37.2738 32.5687L38.66 30.0848C38.6673 30.0717 38.6896 30.0316 38.7463 30.0316C38.803 30.0316 38.8254 30.0717 38.8327 30.0848L49.5098 49.2157C49.5183 49.2309 49.5409 49.2715 49.5119 49.3287C49.483 49.3859 49.4397 49.3859 49.4235 49.3859H43.5104L26.9724 19.7542C26.8238 19.488 26.6195 19.2768 26.3812 19.1332C26.3815 19.1333 26.3818 19.1335 26.382 19.1336V13.5577C27.0022 13.7431 27.6063 13.8223 28.1973 13.8223C29.897 13.8223 31.4887 13.1709 33.0458 12.5337C35.2035 11.6507 37.2415 10.8168 39.4459 11.7913C39.7301 11.917 40.0513 11.8791 40.305 11.6899C40.5591 11.5005 40.7107 11.1856 40.7107 10.8476V1.56637C40.7107 1.1573 40.4906 0.789694 40.1502 0.630006C37.3521 -0.685447 34.8991 0.318178 32.5271 1.28877C30.3049 2.19812 28.2061 3.05704 25.9207 1.93102C25.69 1.81738 25.4231 1.84035 25.2111 1.99173C24.9992 2.14321 24.8713 2.40265 24.8713 2.68112V2.71163C24.8585 2.77277 24.8512 2.8361 24.8512 2.90151V19.1336C24.6134 19.2772 24.4092 19.4883 24.2608 19.7542L16.4092 33.8224L13.8428 29.2239C13.5509 28.7009 13.044 28.3886 12.4869 28.3886C11.93 28.3886 11.4231 28.7009 11.1312 29.2239L0.454045 48.3547C0.152141 48.8956 0.139244 49.576 0.420214 50.1304C0.701183 50.6848 1.23366 51.0292 1.80978 51.0292H49.4234C49.9995 51.0292 50.532 50.6848 50.8129 50.1304C51.094 49.576 51.081 48.8954 50.7791 48.3547ZM26.3619 3.8476C28.7745 4.57713 30.9414 3.69043 33.0458 2.82921C35.1278 1.97718 37.1004 1.17021 39.2202 1.99337V9.9761C36.8004 9.2446 34.6314 10.1323 32.5272 10.9933C30.4487 11.8438 28.478 12.6502 26.3619 11.8296V3.8476ZM9.47296 49.386L12.0298 44.8048C12.2455 44.4184 12.1361 43.9123 11.7856 43.6745C11.435 43.4369 10.976 43.5573 10.7603 43.9437L7.72295 49.386H1.80988C1.79361 49.386 1.75036 49.386 1.72139 49.3288C1.69242 49.2716 1.71494 49.2311 1.72357 49.2158L12.4007 30.085C12.4081 30.0719 12.4304 30.0319 12.487 30.0319C12.5437 30.0319 12.566 30.0719 12.5733 30.085L15.5342 35.3901L12.5778 40.6873C12.3621 41.0737 12.4715 41.5798 12.822 41.8176C13.1727 42.0554 13.6316 41.9348 13.8472 41.5484L25.5303 20.6152C25.5376 20.6021 25.56 20.5621 25.6166 20.5621C25.6732 20.5621 25.6955 20.6021 25.7029 20.6152L41.7603 49.386H9.47296Z" fill="#0D3344"/>
</svg>
