<svg width="56" height="56" viewBox="0 0 56 56" fill="none" xmlns="http://www.w3.org/2000/svg">
<path d="M49.968 8.40002H24.984V10.2667H49.968V8.40002Z" fill="#0D3344"/>
<path d="M40.7147 12.1334H24.984V14H40.7147V12.1334Z" fill="#0D3344"/>
<path d="M40.7147 15.8666H24.984V17.7333H40.7147V15.8666Z" fill="#0D3344"/>
<path d="M49.968 4.66669H32.3867V6.53335H49.968V4.66669Z" fill="#0D3344"/>
<path d="M30.536 4.66669H28.6853V6.53335H30.536V4.66669Z" fill="#0D3344"/>
<path d="M28.6853 37.3333H26.8347V39.2H28.6853V37.3333Z" fill="#0D3344"/>
<path d="M15.4595 6.25986L14.1511 4.94012L12.3004 6.80679C11.9392 7.17126 11.9392 7.76206 12.3004 8.12652L14.1511 9.99319L15.4595 8.67346L14.2631 7.46666L15.4595 6.25986Z" fill="#0D3344"/>
<path d="M22.8622 6.80679L21.0116 4.94012L19.7031 6.25986L20.8996 7.46666L19.7031 8.67346L21.0116 9.99319L22.8622 8.12652C23.2235 7.76206 23.2235 7.17126 22.8622 6.80679Z" fill="#0D3344"/>
<path d="M17.6294 4.37043L15.7771 9.97034L17.5317 10.5608L19.3841 4.96094L17.6294 4.37043Z" fill="#0D3344"/>
<path d="M48.1173 28.9333V21.4666H46.2667V28.9333H44.416V19.6H42.5653V28.9333H40.7147V24.2666H38.864V28.9333H37.0133V23.3333H35.1627V28.9333H33.312V25.2H31.4613V28.9333H29.6107V30.8H49.968V28.9333H48.1173Z" fill="#0D3344"/>
<path d="M49.0427 0H6.47734C3.41229 0.00303333 0.928346 2.50845 0.925339 5.6V23.9176V23.926V34.5333V37.3333C0.928346 40.4249 3.41229 42.9303 6.47734 42.9333H17.9348L14.2335 50.4H9.25334C7.72018 50.4 6.47734 51.6536 6.47734 53.2C6.47734 54.7464 7.72018 56 9.25334 56H46.2667C47.7998 56 49.0427 54.7464 49.0427 53.2C49.0427 51.6536 47.7998 50.4 46.2667 50.4H41.2865L37.5852 42.9333H49.0427C52.1077 42.9303 54.5917 40.4249 54.5947 37.3333V5.6C54.5917 2.50845 52.1077 0.00303333 49.0427 0ZM2.77601 13.132L4.87929 15.6576C5.0551 15.8689 5.31466 15.9908 5.58809 15.9908H8.42054C8.69397 15.9908 8.95353 15.8689 9.12934 15.6576L11.2336 13.132L13.31 13.8124L13.5395 17.1005C13.5585 17.3755 13.697 17.628 13.9179 17.7903L16.21 19.4703C16.4317 19.6317 16.7126 19.6867 16.978 19.6205L20.1547 18.8244L21.4391 20.6061L19.7078 23.4061C19.5643 23.6409 19.5311 23.9275 19.6171 24.1892L20.4934 26.9061C20.5777 27.1682 20.7723 27.3793 21.0254 27.4829L24.0587 28.7233V30.926L21.0236 32.1664C20.7699 32.2695 20.5749 32.4813 20.4915 32.7441L20.2139 33.6H14.8831C16.9567 29.2208 15.1181 23.9751 10.7764 21.8835C8.22633 20.655 5.24375 20.7505 2.77601 22.1396V13.132ZM2.77601 24.36C5.769 22.0049 10.0882 22.5429 12.4231 25.5619C14.2258 27.8927 14.365 31.1201 12.7696 33.6H2.77601V24.36ZM46.2667 52.2667C46.7777 52.2667 47.192 52.6846 47.192 53.2C47.192 53.7154 46.7777 54.1333 46.2667 54.1333H9.25334C8.74232 54.1333 8.328 53.7154 8.328 53.2C8.328 52.6846 8.74232 52.2667 9.25334 52.2667H46.2667ZM39.2175 50.4H16.3025L20.0039 42.9333H35.5161L39.2175 50.4ZM52.744 37.3333C52.744 39.3952 51.0868 41.0667 49.0427 41.0667H6.47734C4.43316 41.0667 2.77601 39.3952 2.77601 37.3333V35.4667H13.2526H13.261H52.744V37.3333ZM52.744 33.6H22.444L25.3319 32.4193C25.6808 32.2765 25.9091 31.9348 25.9093 31.5551V28.0933C25.9095 27.7132 25.6811 27.371 25.3319 27.2281L22.1155 25.9159L21.5066 24.0259L23.3406 21.0579C23.5396 20.7354 23.5249 20.3236 23.3036 20.0163L21.2864 17.2163C21.0649 16.9086 20.6806 16.7672 20.3148 16.8588L16.9503 17.6988L15.3605 16.534L15.1172 13.0527C15.0907 12.6732 14.8384 12.3478 14.4796 12.2304L11.2178 11.1608C10.8589 11.0455 10.4666 11.1593 10.2231 11.4492L7.99581 14.1232H6.02207L3.79387 11.4492C3.55028 11.1589 3.15736 11.0451 2.79821 11.1608L2.77601 11.1692V5.6C2.77601 3.53815 4.43316 1.86667 6.47734 1.86667H49.0427C51.0868 1.86667 52.744 3.53815 52.744 5.6V33.6Z" fill="#0D3344"/>
</svg>
