<svg width="61" height="56" viewBox="0 0 61 56" fill="none" xmlns="http://www.w3.org/2000/svg">
<g clip-path="url(#clip0)">
<path d="M30.8612 7.76597L30.7753 7.76575C30.7741 7.76575 30.7732 7.76575 30.772 7.76575C30.1183 7.76575 29.5874 8.25345 29.5856 8.85654C29.5856 8.85742 29.5856 8.85829 29.5856 8.85917C29.5854 9.46204 30.1145 9.95161 30.7688 9.95325L30.8548 9.95347C30.8558 9.95347 30.8569 9.95347 30.858 9.95347C31.5116 9.95347 32.0425 9.46576 32.0443 8.86267C32.0443 8.86179 32.0443 8.86092 32.0443 8.86004C32.0445 8.25717 31.5154 7.76761 30.8612 7.76597Z" fill="#0D3344"/>
<path d="M59.6722 14.5587C58.8933 11.8282 56.5955 9.67778 53.6763 8.94671C50.666 8.19082 42.2733 7.91246 35.7628 7.81217C35.1115 7.80396 34.5677 8.28357 34.5568 8.88754C34.5459 9.49151 35.0681 9.98939 35.7232 9.99945C44.7345 10.1384 50.8889 10.5141 53.0536 11.0575C55.1569 11.5843 56.8139 13.1391 57.3777 15.1158C58.5439 19.1936 58.5581 27.9123 58.5581 27.9998C58.5581 28.0874 58.5439 36.8062 57.3776 40.8847C56.8139 42.8607 55.1569 44.4155 53.0529 44.9425C48.7052 46.034 30.7418 46.0468 30.5609 46.0468C30.38 46.0468 12.4165 46.0339 8.06817 44.9422C5.96482 44.4155 4.30788 42.8607 3.74402 40.884C2.57786 36.8062 2.56363 28.0874 2.56363 27.9999C2.56363 27.9123 2.57786 19.1936 3.74414 15.1152C4.30788 13.1392 5.96482 11.5844 8.06888 11.0574C10.281 10.502 16.6174 10.1237 25.9111 9.9919C26.5662 9.98271 27.089 9.4855 27.079 8.88153C27.0689 8.27756 26.528 7.79948 25.8745 7.80473C19.1636 7.89978 10.5189 8.17518 7.44618 8.9466C4.52628 9.67778 2.22849 11.8283 1.44979 14.5582C0.205334 18.91 0.190979 27.6308 0.190979 27.9999C0.190979 28.3691 0.205334 37.0899 1.44955 41.441C2.22849 44.1716 4.52628 46.322 7.44547 47.0531C12.0968 48.2209 29.8092 48.2343 30.5609 48.2343C31.3125 48.2343 49.025 48.2209 53.6756 47.0533C56.5955 46.3221 58.8933 44.1716 59.672 41.4417C60.9164 37.0899 60.9308 28.3691 60.9308 27.9999C60.9308 27.6308 60.9164 18.91 59.6722 14.5587Z" fill="#0D3344"/>
<path d="M7.07165 25.1039C6.41645 25.1039 5.88533 25.5936 5.88533 26.1976V35.1117C5.88533 35.7158 6.41645 36.2054 7.07165 36.2054C7.72686 36.2054 8.25798 35.7158 8.25798 35.1117V26.1976C8.25798 25.5936 7.72686 25.1039 7.07165 25.1039Z" fill="#0D3344"/>
<path d="M7.07165 20.1273C6.41645 20.1273 5.88533 20.617 5.88533 21.2211V21.234C5.88533 21.8381 6.41645 22.3277 7.07165 22.3277C7.72686 22.3277 8.25798 21.8381 8.25798 21.234V21.2211C8.25798 20.617 7.72686 20.1273 7.07165 20.1273Z" fill="#0D3344"/>
<path d="M40.1827 27.2205L25.4723 19.3455C25.1052 19.1489 24.6524 19.1482 24.2847 19.3434C23.9169 19.5386 23.6902 19.9001 23.6902 20.2913V36.0413C23.6902 36.4327 23.9169 36.7941 24.2847 36.9893C24.4678 37.0865 24.6721 37.1351 24.8765 37.1351C25.0823 37.1351 25.2882 37.0859 25.4723 36.9872L40.1827 29.1122C40.5485 28.9164 40.7734 28.5562 40.7734 28.1663C40.7734 27.7765 40.5483 27.4163 40.1827 27.2205ZM26.0628 34.1415V22.1912L37.2244 28.1663L26.0628 34.1415Z" fill="#0D3344"/>
</g>
<defs>
<clipPath id="clip0">
<rect width="60.7398" height="56" fill="white" transform="translate(0.190979)"/>
</clipPath>
</defs>
</svg>
