<svg width="76" height="76" viewBox="0 0 76 76" fill="none" xmlns="http://www.w3.org/2000/svg">
<path d="M55.1799 5.65801C55.1799 5.7387 55.1895 5.81911 55.2084 5.89754C56.0465 9.37153 57.8285 12.5462 60.3578 15.0709C62.8824 17.6002 66.0571 19.3823 69.5311 20.2202C69.794 20.2835 70.0713 20.2397 70.3019 20.0986C70.5325 19.9574 70.6976 19.7304 70.7609 19.4675C70.8241 19.2046 70.7804 18.9274 70.6392 18.6967C70.4981 18.4661 70.2711 18.301 70.0082 18.2378C66.9001 17.4873 64.0599 15.8926 61.801 13.6297C59.5382 11.3706 57.9432 8.53051 57.1919 5.42256C57.1333 5.18019 56.9879 4.9677 56.7832 4.82531C56.5785 4.68292 56.3287 4.62052 56.0811 4.6499C55.8335 4.67928 55.6052 4.79842 55.4395 4.98476C55.2738 5.1711 55.1822 5.41171 55.1819 5.66107L55.1799 5.65801Z" fill="#0D3344"/>
<path d="M41.9631 11.9061C41.9628 12.1018 42.0195 12.2934 42.1262 12.4575C42.2724 12.6848 42.503 12.8447 42.7672 12.9021C43.0313 12.9594 43.3075 12.9095 43.5348 12.7633C44.4043 12.2016 45.3094 11.6574 46.2236 11.1436C46.4594 11.0112 46.6328 10.7905 46.7058 10.5302C46.7789 10.2698 46.7455 9.99113 46.613 9.75541C46.4805 9.51968 46.2599 9.34624 45.9995 9.27322C45.7392 9.2002 45.4605 9.23359 45.2248 9.36605C44.2748 9.90015 43.334 10.4669 42.4299 11.0489C42.2866 11.1413 42.1688 11.2682 42.0872 11.4179C42.0057 11.5677 41.963 11.7355 41.9631 11.9061Z" fill="#0D3344"/>
<path d="M2.03857 35.6314C2.03858 35.8088 2.08485 35.983 2.17282 36.137C2.26078 36.291 2.38739 36.4193 2.54014 36.5094C2.69289 36.5994 2.8665 36.6481 3.0438 36.6505C3.22111 36.653 3.39599 36.6091 3.55116 36.5233C6.33557 34.979 9.42664 34.0686 12.6036 33.8572C15.7806 33.6457 18.965 34.1385 21.9295 35.3002C22.1815 35.3984 22.4621 35.3926 22.7098 35.2839C22.9574 35.1753 23.1517 34.9727 23.25 34.7207C23.3482 34.4688 23.3424 34.1881 23.2337 33.9405C23.1251 33.6929 22.9225 33.4985 22.6705 33.4003C16.9836 31.1704 10.6543 31.2277 5.00871 33.5603C5.79162 31.9538 6.77302 30.4519 7.92992 29.0898C10.7191 25.7812 14.4329 23.3811 18.5952 22.1971C22.7574 21.013 27.1784 21.0991 31.2915 22.4442C31.5438 22.5119 31.8125 22.4801 32.0421 22.3554C32.2717 22.2307 32.4446 22.0226 32.5252 21.7741C32.6058 21.5256 32.5878 21.2556 32.4751 21.0199C32.3624 20.7842 32.1634 20.6008 31.9193 20.5076C27.4212 19.0373 22.5864 18.944 18.0348 20.2395C13.4832 21.535 9.4222 24.1604 6.37248 27.779C4.48561 29.9971 3.03334 32.5507 2.09157 35.3063C2.05628 35.4111 2.03838 35.5209 2.03857 35.6314Z" fill="#0D3344"/>
<path d="M38.7749 72.3676C38.775 72.5297 38.8137 72.6894 38.8878 72.8336C38.962 72.9777 39.0695 73.102 39.2013 73.1963C39.3332 73.2906 39.4856 73.3521 39.6459 73.3756C39.8063 73.3992 39.97 73.3842 40.1234 73.3318C42.8787 72.3902 45.432 70.9379 47.6496 69.0509C51.2692 66.0019 53.8952 61.9409 55.1908 57.3891C56.4864 52.8373 56.3925 48.0022 54.9211 43.5041C54.8848 43.3709 54.8219 43.2465 54.7362 43.1384C54.6504 43.0303 54.5436 42.9407 54.4222 42.8751C54.3008 42.8095 54.1674 42.7692 54.03 42.7567C53.8925 42.7442 53.754 42.7597 53.6228 42.8023C53.4915 42.8449 53.3703 42.9138 53.2664 43.0046C53.1626 43.0955 53.0783 43.2065 53.0186 43.3309C52.9589 43.4553 52.9251 43.5906 52.9192 43.7284C52.9134 43.8663 52.9356 44.0039 52.9845 44.133C54.3294 48.2467 54.4147 52.6684 53.2296 56.831C52.0444 60.9935 49.6428 64.7071 46.3327 67.4955C44.9705 68.6522 43.4686 69.6336 41.8622 70.4167C44.1934 64.7703 44.25 58.4411 42.0202 52.7539C41.9715 52.6292 41.8987 52.5154 41.806 52.4188C41.7132 52.3223 41.6024 52.2449 41.4798 52.1912C41.3572 52.1375 41.2252 52.1085 41.0914 52.1058C40.9575 52.1031 40.8245 52.1267 40.6998 52.1755C40.5751 52.2242 40.4612 52.297 40.3647 52.3897C40.2681 52.4824 40.1908 52.5933 40.1371 52.7159C40.0834 52.8385 40.0543 52.9705 40.0516 53.1043C40.0489 53.2382 40.0726 53.3712 40.1213 53.4959C41.2833 56.4606 41.7761 59.6452 41.5647 62.8224C41.3532 65.9995 40.4427 69.0908 38.8982 71.8753C38.8159 72.0262 38.7734 72.1957 38.7749 72.3676Z" fill="#0D3344"/>
<path d="M2.42884 59.0154C2.42888 59.2169 2.48868 59.414 2.60068 59.5815C2.71268 59.7491 2.87185 59.8797 3.05807 59.9568C3.24429 60.034 3.4492 60.0542 3.64689 60.0149C3.84458 59.9755 4.02617 59.8785 4.16872 59.736L13.4267 50.479C13.6124 50.2868 13.7151 50.0293 13.7128 49.7621C13.7105 49.4948 13.6033 49.2392 13.4143 49.0502C13.2253 48.8612 12.9697 48.754 12.7024 48.7517C12.4352 48.7494 12.1777 48.8521 11.9855 49.0378L2.72748 58.2948C2.53632 58.4859 2.4289 58.7451 2.42884 59.0154Z" fill="#0D3344"/>
<path d="M15.3909 71.9763C15.3909 72.1779 15.4507 72.3749 15.5627 72.5425C15.6747 72.7101 15.8339 72.8407 16.0201 72.9178C16.2063 72.9949 16.4112 73.0151 16.6089 72.9758C16.8066 72.9365 16.9882 72.8394 17.1307 72.6969L26.3887 63.44C26.4861 63.3459 26.5637 63.2335 26.6171 63.1091C26.6706 62.9848 26.6987 62.851 26.6999 62.7157C26.701 62.5803 26.6752 62.4461 26.624 62.3209C26.5727 62.1956 26.4971 62.0818 26.4014 61.9861C26.3056 61.8904 26.1919 61.8147 26.0666 61.7635C25.9413 61.7122 25.8071 61.6864 25.6718 61.6876C25.5364 61.6888 25.4027 61.7169 25.2783 61.7703C25.154 61.8237 25.0415 61.9014 24.9475 61.9987L15.6895 71.2557C15.4983 71.4468 15.3909 71.706 15.3909 71.9763Z" fill="#0D3344"/>
<path d="M5.55293 68.8533C5.55297 69.0548 5.61277 69.2518 5.72478 69.4194C5.83678 69.587 5.99595 69.7176 6.18217 69.7947C6.36839 69.8719 6.57329 69.8921 6.77098 69.8527C6.96867 69.8134 7.15027 69.7164 7.29281 69.5739L16.5508 60.3159C16.7365 60.1237 16.8392 59.8662 16.8369 59.599C16.8346 59.3317 16.7274 59.0761 16.5384 58.8871C16.3494 58.6981 16.0938 58.5909 15.8265 58.5886C15.5593 58.5863 15.3018 58.689 15.1096 58.8747L5.85157 68.1326C5.66041 68.3238 5.55298 68.583 5.55293 68.8533Z" fill="#0D3344"/>
<path d="M35 18.5C27.9807 26.4493 22.9055 33.7004 18.5668 42.419L23.9242 51.7362L33.2377 57.0923C42.613 52.5747 48.7066 47.6525 56 41C44 35.5 39 31 35 18.5Z" fill="#2196F3"/>
<path d="M43.3738 43.2421L40.9289 45.2743L33.5954 51.362L27.7058 47.9547L27.7007 47.9521L24.2972 42.0638L27.4823 38.2302L29.7585 40.5064L28.1074 42.4958L29.9752 45.6802L29.9777 45.6803L33.166 47.5519L36.5437 44.8637L28.5663 36.9283L30.4147 34.6288L38.8828 42.9064L41.272 40.8557L32.4821 32.1128L34.4 29.9001L40.0802 35.5803L45.7604 41.2605L43.3738 43.2421Z" fill="#FAFAFA"/>
<path d="M17.1848 42.697C17.1846 42.8303 17.2109 42.9623 17.2623 43.0853C19.9878 49.6871 25.0464 54.7539 32.2964 58.145C32.4261 58.2055 32.5671 58.2381 32.7103 58.2406C32.8534 58.243 32.9954 58.2153 33.1271 58.1592C36.0144 56.9364 38.8319 55.5549 41.5666 54.021C41.6054 53.9986 41.6431 53.9741 41.6788 53.9486C46.3448 51.3304 50.6941 48.184 54.6408 44.5714C62.091 37.7673 67.6388 29.1385 70.737 19.5362C72.5486 14.2203 73.4374 8.63364 73.3646 3.01799C73.3501 2.7688 73.2446 2.5336 73.0682 2.35701C72.8918 2.18041 72.6567 2.07469 72.4076 2.05989C66.7919 1.98863 61.2054 2.87765 55.8893 4.68857C54.6102 5.09627 53.3239 5.56208 52.0691 6.06968C51.9442 6.11924 51.8303 6.19304 51.7339 6.28681C51.6376 6.38059 51.5608 6.4925 51.5079 6.61609C51.455 6.73968 51.4271 6.87252 51.4257 7.00695C51.4244 7.14137 51.4497 7.27474 51.5001 7.39936C51.5505 7.52398 51.6251 7.63739 51.7195 7.73308C51.8139 7.82876 51.9263 7.90482 52.0503 7.95688C52.1742 8.00893 52.3073 8.03595 52.4417 8.03638C52.5761 8.03681 52.7093 8.01065 52.8336 7.95939C54.0414 7.47116 55.2798 7.0237 56.5121 6.62925C61.3035 5.04676 66.3038 4.18658 71.3485 4.07701C71.2407 9.12092 70.3819 14.1206 68.8004 18.9114C65.8069 28.1773 60.4503 36.5031 53.2586 43.068C49.3969 46.6047 45.1378 49.6814 40.5667 52.2363C40.528 52.2587 40.4913 52.2821 40.4556 52.3076C37.9549 53.7055 35.3833 54.9725 32.751 56.1034C26.2522 52.9701 21.8449 48.5792 19.312 42.7C20.446 40.0585 21.717 37.4779 23.12 34.9689C23.1453 34.9338 23.1688 34.8974 23.1903 34.8598C25.7451 30.2887 28.8214 26.0293 32.3576 22.1669C33.8752 20.5278 35.4809 18.9725 37.1675 17.5079C37.3721 17.3311 37.4982 17.0802 37.5178 16.8105C37.5375 16.5408 37.4493 16.2743 37.2725 16.0697C37.0957 15.865 36.8448 15.739 36.5751 15.7193C36.3054 15.6996 36.0389 15.7879 35.8343 15.9647C34.0908 17.4797 32.4307 19.0881 30.8613 20.7828C27.2458 24.7305 24.0966 29.0811 21.4759 33.7488C21.4502 33.7843 21.4264 33.821 21.4046 33.8589C19.8709 36.5935 18.4894 39.4106 17.2663 42.2974C17.2127 42.4238 17.185 42.5597 17.1848 42.697Z" fill="#0D3344"/>
<path d="M41.8082 25.6568C41.8083 26.966 42.1313 28.2551 42.7485 29.4097C43.3658 30.5643 44.2583 31.5489 45.3469 32.2762C46.4356 33.0035 47.6868 33.4511 48.9898 33.5794C50.2927 33.7076 51.6072 33.5126 52.8168 33.0115C54.0264 32.5104 55.0937 31.7187 55.9242 30.7066C56.7548 29.6945 57.3229 28.4931 57.5782 27.209C57.8336 25.9249 57.7683 24.5976 57.3882 23.3448C57.0081 22.0919 56.3249 20.9521 55.3991 20.0264C54.2856 18.9129 52.8669 18.1547 51.3225 17.8476C49.7781 17.5405 48.1773 17.6982 46.7225 18.3009C45.2678 18.9036 44.0244 19.9241 43.1496 21.2335C42.2749 22.5428 41.8081 24.0821 41.8082 25.6568ZM55.6916 25.6568C55.6908 27.0268 55.215 28.3542 54.3452 29.4127C53.4755 30.4713 52.2657 31.1955 50.9218 31.4621C49.578 31.7286 48.1833 31.521 46.9753 30.8745C45.7674 30.2281 44.821 29.1828 44.2974 27.9168C43.7737 26.6508 43.7052 25.2424 44.1036 23.9315C44.5019 22.6207 45.3424 21.4885 46.4819 20.7279C47.6214 19.9673 48.9893 19.6252 50.3527 19.7601C51.7161 19.895 52.9905 20.4984 53.9588 21.4676C54.5102 22.0167 54.9472 22.6697 55.2446 23.3887C55.542 24.1078 55.6939 24.8786 55.6916 25.6568Z" fill="#0D3344"/>
</svg>
