<svg width="80" height="80" viewBox="0 0 80 80" fill="none" xmlns="http://www.w3.org/2000/svg">
<path d="M50 18.1252V19.0024C50 20.0773 50.1733 21.1451 50.5131 22.1648L52.5 28.1252H56.25V14.3752H53.75C51.6789 14.3752 50 16.0542 50 18.1252Z" fill="#5A4146"/>
<path d="M67.2114 20.3852L65 28.1252L55 19.3752C53.6192 19.3752 52.5 18.256 52.5 16.8752C52.5 14.8042 54.1789 13.1252 56.25 13.1252H67.5V18.3248C67.5 19.0216 67.4028 19.7152 67.2114 20.3852Z" fill="#694B4B"/>
<path d="M62.5 31.8752H55V39.3752H62.5V31.8752Z" fill="#E6AF78"/>
<path d="M68.5302 36.6307L62.4997 34.9079L61.0214 36.6691C59.8362 38.0812 57.6638 38.0812 56.4786 36.6693L55 34.9077L48.9698 36.6307C47.3598 37.0907 46.25 38.5621 46.25 40.2365V56.8754H66.25C69.0114 56.8754 71.25 54.6368 71.25 51.8754V40.2365C71.25 38.5621 70.14 37.0907 68.5302 36.6307Z" fill="#707487"/>
<path d="M58.75 33.1252C54.6078 33.1252 51.25 29.7674 51.25 25.6252C51.25 24.0244 51.8859 22.4893 53.0178 21.3574L54.2489 20.1263C54.7289 19.6463 55.3852 19.3704 56.0636 19.3918C60.0595 19.5177 63.5964 20.3738 65.5298 22.2621C66.0031 22.7243 66.2502 23.3708 66.2502 24.0324V25.6252C66.25 29.7674 62.8922 33.1252 58.75 33.1252Z" fill="#F0C087"/>
<path d="M55 25.6251C55 24.1831 56.2109 23.037 57.65 23.1287C60.1734 23.2897 63.918 23.7114 66.2153 24.8165C66.1403 24.2892 65.9138 22.637 65.5297 22.2619C63.5963 20.3736 60.0595 19.5176 56.0636 19.3915H56.0634C55.3852 19.3701 54.7287 19.6462 54.2489 20.1262L53.0178 21.3573C51.8859 22.4892 51.25 24.0244 51.25 25.6251C51.25 29.0454 53.5417 31.9253 56.6719 32.827C55.63 31.5415 55 29.91 55 28.1251V25.6251Z" fill="#E6AF78"/>
<path d="M70.5661 38.0916L67.3483 41.3092C66.645 42.0123 66.25 42.9662 66.25 43.9608V50.6251H55V56.8751H66.25C69.0116 56.8751 71.25 54.6365 71.25 51.8751V40.2362C71.25 39.4462 70.9961 38.7062 70.5661 38.0916Z" fill="#5B5D6E"/>
<path d="M45 43.1255H60C60.6903 43.1255 61.25 43.6852 61.25 44.3755V54.3755C61.25 55.0658 60.6903 55.6255 60 55.6255H45C44.3097 55.6255 43.75 55.0658 43.75 54.3755V44.3755C43.75 43.6852 44.3097 43.1255 45 43.1255Z" fill="#C7CFE2"/>
<path d="M33.5302 37.3482L29.3358 36.1498C28.2519 35.8401 27.5094 34.8434 27.5228 33.7162L27.5297 33.1252H20V33.7395C20 34.8557 19.26 35.8367 18.1869 36.1432L13.9698 37.3481C12.3598 37.8082 11.25 39.2796 11.25 40.954V51.8753C11.25 53.9464 12.9289 55.6253 15 55.6253H32.5C34.5711 55.6253 36.25 53.9464 36.25 51.8753V40.954C36.25 39.2796 35.14 37.8082 33.5302 37.3482Z" fill="#00C3FF"/>
<path d="M11.9339 38.8091C11.5039 39.4238 11.25 40.1638 11.25 40.9538V51.8752C11.25 53.9463 12.9289 55.6252 15 55.6252H16.25V43.1252L11.9339 38.8091Z" fill="#00AAF0"/>
<path d="M35.5661 38.8091C35.9961 39.4238 36.25 40.1638 36.25 40.9538V51.8752C36.25 53.9463 34.5711 55.6252 32.5 55.6252H31.25V43.1252L35.5661 38.8091Z" fill="#00AAF0"/>
<path d="M23.7492 36.8751C25.9451 36.8751 27.9832 36.6151 29.7543 36.2693L29.3357 36.1498C28.2518 35.8401 27.5093 34.8434 27.5228 33.7162L27.5296 33.1252H20V33.7395C20 34.8557 19.26 35.8367 18.1868 36.1432L17.7454 36.2693C19.516 36.6151 21.5537 36.8751 23.7492 36.8751Z" fill="#00AAF0"/>
<path d="M23.7497 34.3752C28.1529 34.3752 31.9357 33.2559 33.7867 32.5945C34.427 32.3657 34.7709 31.6576 34.5397 31.0181C33.5003 28.1438 32.6781 23.2762 32.4995 20.7323C32.157 15.8529 28.582 11.8751 23.7501 11.8752C18.9176 11.8752 15.3426 15.8531 15.0001 20.7324C14.8215 23.2762 13.9995 28.1438 12.96 31.0182C12.7287 31.6576 13.0726 32.3657 13.7129 32.5946C15.564 33.256 19.3467 34.3754 23.7497 34.3752Z" fill="#694B4B"/>
<path d="M18.8123 33.1451C19.7094 29.9513 20.4189 24.5429 20.5731 21.7163C20.82 17.1893 23.0156 13.3713 26.1605 12.2312C25.4017 12.0037 24.5966 11.8752 23.7501 11.8752C18.9176 11.8752 15.3428 15.8531 15.0001 20.7324C14.8216 23.2762 13.9995 28.1438 12.9602 31.0182C12.7289 31.6576 13.0728 32.3657 13.7131 32.5946C14.8142 32.9882 16.6091 33.5398 18.8011 33.9252C18.7517 33.6727 18.7387 33.4073 18.8123 33.1451Z" fill="#5A4146"/>
<path d="M76.25 55.6255H3.75V60.6255H76.25V55.6255Z" fill="#E6AF78"/>
<path d="M28.75 43.1255H18.75C17.3692 43.1255 16.25 44.2447 16.25 45.6255V63.1255H31.25V45.6255C31.25 44.2447 30.1308 43.1255 28.75 43.1255Z" fill="#959CB5"/>
<path d="M62.0214 21.6341C62.1897 21.7184 62.3685 21.758 62.5446 21.758C62.9744 21.758 63.3883 21.5205 63.5936 21.1101C63.8832 20.5312 63.6485 19.8273 63.0696 19.5379C60.3483 18.1772 55.2461 18.1616 55.0303 18.1616C54.3831 18.1616 53.8585 18.6863 53.8585 19.3335C53.8585 19.9807 54.3831 20.5054 55.0303 20.5054C56.3469 20.5054 60.1692 20.7082 62.0214 21.6341Z" fill="black"/>
<path d="M78.8281 54.4852H71.75C72.2155 53.733 72.4848 52.8472 72.4848 51.8995V40.9561C72.4848 38.7669 71.0145 36.8178 68.9095 36.2164L64.6838 35.0091C64.1144 34.8464 63.7169 34.3192 63.717 33.727L63.7172 32.7495C64.1108 32.4769 64.4861 32.1717 64.837 31.8311C66.538 30.1805 67.4747 27.9663 67.4747 25.5966V23.3681L67.9423 22.4328C68.4559 21.4059 68.7272 20.2561 68.7272 19.108V13.0713C68.7272 12.4241 68.2025 11.8994 67.5553 11.8994H56.2825C52.1831 11.8994 48.848 15.2345 48.848 19.3339V19.4038C48.848 20.3583 49.0736 21.3144 49.5006 22.1684L50.1005 23.3681V25.2814C50.1005 28.3136 51.5947 31.0344 53.858 32.6717V33.7272C53.858 34.3192 53.4603 34.8464 52.8911 35.0091L48.6656 36.2164C46.5606 36.8178 45.0905 38.767 45.0905 40.9563V41.96H45.0098C43.673 41.96 42.5855 43.0475 42.5855 44.3844V54.4045C42.5855 54.4317 42.5886 54.4581 42.5895 54.4852H36.6792C37.1447 53.733 37.4141 52.8472 37.4141 51.8995V40.9561C37.4141 38.7669 35.9437 36.8178 33.8387 36.2164L29.613 35.0091C29.5672 34.9961 29.5239 34.9781 29.4803 34.9605C31.4853 34.5697 33.1197 34.0578 34.1681 33.6831C34.778 33.4652 35.2663 33.0222 35.5427 32.4353C35.8166 31.8539 35.8478 31.2027 35.6305 30.6014C34.5975 27.7452 33.8184 22.9645 33.6533 20.6114C33.2545 14.9305 28.9828 10.6466 23.7172 10.6467C18.4512 10.6467 14.1794 14.9306 13.7806 20.6114C13.6153 22.9642 12.8364 27.7449 11.8033 30.6014C11.5859 31.2025 11.6172 31.8538 11.8911 32.4352C12.1677 33.0219 12.6556 33.4652 13.2655 33.683C14.3139 34.0577 15.9486 34.5695 17.9539 34.9605C17.9103 34.978 17.8666 34.9956 17.8206 35.0088L13.5952 36.2161C11.4902 36.8175 10.02 38.7666 10.02 40.9558V51.8992C10.02 52.8469 10.2895 53.7327 10.7548 54.4849H1.17188C0.524687 54.4849 0 55.0095 0 55.6567C0 56.3039 0.524687 56.8286 1.17188 56.8286H2.505V68.1819C2.505 68.8291 3.02969 69.3538 3.67687 69.3538C4.32406 69.3538 4.84875 68.8291 4.84875 68.1819V61.8386H15.0302V68.1819C15.0302 68.8291 15.5548 69.3538 16.202 69.3538C16.8492 69.3538 17.3739 68.8291 17.3739 68.1819V64.3438H30.0605V68.1819C30.0605 68.8291 30.5852 69.3538 31.2323 69.3538C31.8795 69.3538 32.4042 68.8291 32.4042 68.1819V61.8386H75.1512V68.1819C75.1512 68.8291 75.6759 69.3538 76.3231 69.3538C76.9703 69.3538 77.495 68.8291 77.495 68.1819V56.8286H78.8281C79.4753 56.8286 80 56.3039 80 55.6567C80 55.0095 79.4753 54.4852 78.8281 54.4852ZM52.4445 25.2814V23.0914C52.4445 22.9094 52.4022 22.73 52.3208 22.5674L51.5973 21.1202C51.3322 20.5899 51.192 19.9964 51.192 19.4036V19.3338C51.192 16.5267 53.4758 14.243 56.2828 14.243H66.3838V19.1078C66.3838 19.8941 66.198 20.6813 65.8464 21.3845L65.255 22.5672C65.1736 22.73 65.1312 22.9092 65.1312 23.0913V25.5963C65.1312 27.3267 64.4472 28.9434 63.205 30.1489C61.9634 31.3538 60.3238 31.9884 58.592 31.9366C55.2022 31.8352 52.4445 28.8494 52.4445 25.2814ZM61.5775 34.9272L60.6161 35.8886C60.1278 36.3769 59.4784 36.6459 58.7877 36.6459C58.097 36.6459 57.4477 36.3769 56.9594 35.8886L55.9978 34.927C56.115 34.5908 56.1819 34.2344 56.1963 33.868C56.9353 34.1111 57.7148 34.2553 58.5216 34.2795C58.6117 34.2824 58.7014 34.2836 58.7913 34.2836C59.6825 34.2836 60.5525 34.1486 61.3803 33.8911C61.3963 34.2494 61.4628 34.598 61.5775 34.9272ZM47.4345 40.9561C47.4345 39.8077 48.2058 38.7853 49.3098 38.4699L53.5355 37.2625C53.9022 37.1577 54.2416 36.9963 54.5488 36.7924L55.3022 37.5458C56.2331 38.4769 57.4711 38.9897 58.7878 38.9897C60.1045 38.9897 61.3425 38.4769 62.2734 37.5458L63.0267 36.7925C63.3338 36.9964 63.6733 37.1578 64.04 37.2625L68.2656 38.4699C69.3698 38.7853 70.1411 39.8077 70.1411 40.9561V51.8995C70.1411 53.3253 68.9813 54.4852 67.5555 54.4852H62.4606C62.4616 54.4581 62.4647 54.4317 62.4647 54.4045V51.8189H66.3028C66.95 51.8189 67.4747 51.2942 67.4747 50.647V43.1319C67.4747 42.4847 66.95 41.96 66.3028 41.96C65.6556 41.96 65.1309 42.4847 65.1309 43.1319V49.4752H62.4647V44.3844C62.4647 43.0475 61.3772 41.96 60.0403 41.96H47.4344L47.4345 40.9561ZM44.9294 44.3844C44.9294 44.3399 44.9655 44.3038 45.01 44.3038H60.0403C60.0848 44.3038 60.1209 44.3399 60.1209 44.3844V54.4045C60.1209 54.4491 60.0848 54.4852 60.0403 54.4852H45.01C44.9655 54.4852 44.9294 54.4491 44.9294 54.4045V44.3844ZM14.0544 31.4763C14.0303 31.4677 14.0178 31.45 14.0114 31.4366C14.0016 31.4155 14.0058 31.4039 14.0077 31.3988C15.1131 28.3419 15.9441 23.2652 16.1188 20.7759C16.2688 18.64 17.1116 16.6719 18.4917 15.2345C19.9013 13.7666 21.7083 12.9908 23.7175 12.9908C25.7263 12.9908 27.533 13.7666 28.9425 15.2345C30.3227 16.6719 31.1655 18.6399 31.3155 20.7759C31.4903 23.2655 32.3212 28.3422 33.4266 31.3988C33.4284 31.4038 33.4327 31.4155 33.4227 31.4366C33.4164 31.4499 33.4038 31.4677 33.3798 31.4763C31.5863 32.1172 27.9459 33.1922 23.7169 33.1922C19.4877 33.1922 15.8478 32.117 14.0544 31.4763ZM15.0302 59.4952H4.84875V56.8289H15.0302V59.4952ZM30.0605 62.0002H17.3739V45.6369C17.3739 44.9017 17.972 44.3038 18.707 44.3038H28.7272C29.4623 44.3038 30.0603 44.9019 30.0603 45.6369V62.0002H30.0605ZM28.7273 41.96H18.7072C16.6797 41.96 15.0303 43.6095 15.0303 45.6369V54.4852H14.9497C13.5239 54.4852 12.3641 53.3253 12.3641 51.8995V40.9561C12.3641 39.8077 13.1353 38.7853 14.2394 38.4699L18.4648 37.2625C19.4748 36.9739 20.2891 36.2853 20.742 35.3783C21.6908 35.477 22.6872 35.5359 23.717 35.5359C24.7488 35.5359 25.7469 35.4767 26.6973 35.3777C27.1528 36.2799 27.9692 36.9767 28.9697 37.2627L33.1953 38.47C34.2995 38.7855 35.0708 39.8078 35.0708 40.9563V51.8997C35.0708 53.3255 33.9109 54.4853 32.4852 54.4853H32.4045V45.637C32.4042 43.6094 30.7548 41.96 28.7273 41.96ZM75.1512 59.4952H32.4042V56.8289H32.4848H75.1511V59.4952H75.1512Z" fill="black"/>
<path d="M52.5 50.5474C53.1472 50.5474 53.6719 50.0227 53.6719 49.3755C53.6719 48.7283 53.1472 48.2036 52.5 48.2036C51.8528 48.2036 51.3281 48.7283 51.3281 49.3755C51.3281 50.0227 51.8528 50.5474 52.5 50.5474Z" fill="black"/>
</svg>
