<svg width="376" height="376" viewBox="0 0 376 376" fill="none" xmlns="http://www.w3.org/2000/svg">
<path d="M307.974 156.86C298.025 142.384 274.818 139.564 261.711 151.272C261.576 145.353 259.707 139.603 256.336 134.735C252.966 129.867 248.241 126.094 242.748 123.884C237.255 121.674 231.234 121.124 225.431 122.302C219.629 123.479 214.299 126.333 210.101 130.51C211.974 123.93 205.07 117.515 198.242 117.162C191.414 116.808 185.09 120.478 179.232 124.005C173.374 127.532 167.012 131.164 160.184 130.705C152.791 130.209 146.648 125.05 139.744 122.38C122.839 115.846 101.445 127.441 97.6999 145.174C78.9902 137.654 54.9863 149.986 50.2788 169.606L324.217 172.802C323.24 168.907 321.207 165.357 318.34 162.544C315.474 159.731 311.887 157.764 307.974 156.86Z" fill="#FCFCFC"/>
<path d="M296.95 68.7027C297.424 65.2586 292.566 62.4235 288.911 62.1302C287.174 61.9949 285.362 62.2581 283.715 61.6866C280.143 60.4382 278.714 55.821 275.232 54.3546C272.623 53.2491 269.622 54.2342 267.095 55.5051C264.569 56.776 262.072 58.3778 259.245 58.5582C256.793 58.7162 254.123 57.8062 251.98 59.0019C250.378 59.8968 249.536 61.7392 248.062 62.8296C246.588 63.92 244.738 64.1155 242.941 64.2133C241.144 64.311 239.302 64.3336 237.677 65.0781C236.053 65.8226 234.669 67.5522 235.038 69.3118L296.95 68.7027Z" fill="#FCFCFC"/>
<path d="M58.4831 40.3824C58.7463 38.4573 56.0391 36.8781 53.9711 36.7202C53.0192 36.7514 52.067 36.6655 51.1361 36.4645C49.1433 35.7727 48.3461 33.1933 46.3985 32.3736C44.9471 31.7645 43.2701 32.3059 41.8865 33.0203C40.5028 33.7347 39.0213 34.592 37.4497 34.7199C36.0735 34.8101 34.5921 34.2987 33.3889 34.968C32.494 35.4719 32.0277 36.472 31.2081 37.1037C30.3484 37.6256 29.3557 37.8868 28.3505 37.8557C27.3465 37.8318 26.3469 37.995 25.4026 38.337C24.93 38.5146 24.5279 38.8409 24.2567 39.2667C23.9855 39.6925 23.8598 40.1949 23.8986 40.6982L58.4831 40.3824Z" fill="#FCFCFC"/>
<path d="M340.852 103.814C341.393 99.8581 335.813 96.6019 331.617 96.2936C329.609 96.1282 327.534 96.4365 325.601 95.7747C321.495 94.3459 319.856 89.0067 315.825 87.3448C312.817 86.0814 309.38 87.2094 306.47 88.6683C303.56 90.1272 300.695 91.9696 297.446 92.1802C294.619 92.3606 291.558 91.3154 289.084 92.6915C287.249 93.7218 286.286 95.8424 284.572 97.0907C282.857 98.339 280.744 98.5947 278.691 98.685C276.638 98.7752 274.495 98.8203 272.623 99.6776C270.75 100.535 269.193 102.52 269.615 104.543L340.852 103.814Z" fill="#EBEBEB"/>
<path d="M333.189 35.923C333.572 33.1331 329.639 30.847 326.684 30.6064C325.278 30.4936 323.811 30.7117 322.48 30.2454C319.585 29.2378 318.435 25.5003 315.615 24.3122C313.501 23.4248 311.103 24.2144 309.035 25.2446C306.967 26.2749 304.966 27.5683 302.68 27.7112C300.695 27.839 298.537 27.1021 296.8 28.0722C295.506 28.8242 294.829 30.3282 293.634 31.1704C292.399 31.9329 290.971 32.322 289.52 32.2909C288.065 32.2591 286.617 32.4962 285.249 32.9902C283.933 33.5918 282.842 34.9906 283.113 36.4194L333.189 35.923Z" fill="#EBEBEB"/>
<path d="M69.8007 102.422C70.0865 100.347 67.1612 98.6624 64.9653 98.4669C63.9128 98.5102 62.859 98.4192 61.8295 98.1962C59.6788 97.4442 58.8215 94.6693 56.7234 93.7819C55.1517 93.1201 53.3469 93.7142 51.8279 94.4737C50.3089 95.2333 48.8199 96.2034 47.1053 96.3162C45.6013 96.4064 44.0221 95.865 42.7287 96.5869C41.7586 97.1208 41.2247 98.2338 40.3674 98.888C39.4416 99.4575 38.3709 99.7474 37.2842 99.7227C36.2033 99.6965 35.127 99.8725 34.1108 100.242C33.6056 100.438 33.1774 100.792 32.8901 101.251C32.6027 101.711 32.4717 102.251 32.5165 102.791L69.8007 102.422Z" fill="#EBEBEB"/>
<path d="M147.106 70.6354C147.708 66.2587 141.526 62.6566 136.887 62.2806C134.668 62.1002 132.375 62.4386 130.269 61.7091C125.757 60.1224 123.907 54.2493 119.478 52.3843C116.161 50.9856 112.341 52.2264 109.13 53.8432C105.919 55.46 102.738 57.4979 99.1437 57.731C96.0229 57.9266 92.6314 56.7685 89.8941 58.295C87.8562 59.4306 86.7959 61.7768 84.9159 63.168C83.0359 64.5592 80.6821 64.8074 78.4035 64.9277C76.125 65.048 73.7712 65.0781 71.6957 66.0256C69.6202 66.9731 67.9056 69.184 68.3343 71.44L147.106 70.6354Z" fill="#FCFCFC"/>
<path d="M20.9433 227.788C20.9433 227.788 14.5362 228.698 18.1834 242.723C21.8306 256.748 24.8988 263.952 24.8988 263.952C24.8988 263.952 25.3876 267.133 22.8233 267.043C20.2589 266.952 15.0401 264.915 13.2653 267.712C11.4906 270.509 13.0473 274.036 17.0855 277.646C21.1237 281.256 29.6589 289.475 30.426 290.227C31.193 290.979 31.757 292.483 30.0049 292.731C28.2527 292.979 15.7921 291.498 15.4386 297.461C15.0852 303.424 28.0045 311.629 29.3957 312.554C30.7869 313.479 31.005 314.201 30.6967 315.013C30.3884 315.825 26.2373 314.945 22.6653 314.682C19.0933 314.419 14.9197 314.742 15.025 318.201C15.1303 321.66 21.9058 330.376 41.6232 336.813L50.9556 339.197L57.8213 332.384C71.6431 316.915 73.132 305.981 71.4852 302.936C69.8383 299.89 66.0557 301.717 63.1004 303.733C60.145 305.748 56.9941 308.591 56.3324 308.049C55.6706 307.508 55.4901 306.763 56.2271 305.267C56.964 303.77 63.9877 290.227 60.7391 285.211C57.4905 280.195 47.3761 287.723 45.7292 288.415C44.0823 289.106 43.8116 287.475 44.0973 286.459C44.3831 285.444 47.6468 274.021 49.3613 268.878C51.0759 263.734 50.6999 259.936 47.6769 258.35C44.6538 256.763 41.2698 261.252 39.0965 262.621C36.9233 263.99 35.7577 260.989 35.7577 260.989C35.7577 260.989 34.75 253.213 30.8321 239.256C26.9141 225.299 20.7929 227.811 20.7929 227.811" fill="#EBEBEB"/>
<path d="M50.948 341.513C48.128 331.248 43.428 312.937 39.2995 297.205C35.171 281.474 31.4336 267.276 28.6587 256.996C27.275 251.867 26.1546 247.709 25.3725 244.829L24.4776 241.512L24.252 240.655L24.1843 240.354C24.1843 240.354 24.2219 240.452 24.2821 240.648L24.5378 241.497C24.7558 242.249 25.0717 243.37 25.4853 244.791C26.305 247.656 27.4555 251.807 28.8693 256.936C31.6893 267.201 35.4643 281.413 39.5853 297.13C43.7062 312.847 48.3837 331.181 51.136 341.461" fill="#E0E0E0"/>
<path d="M20.4695 270.87C20.682 270.962 20.8859 271.073 21.0786 271.201C21.4696 271.427 22.0186 271.773 22.6954 272.201C24.0415 273.066 25.8688 274.3 27.8692 275.706L32.9677 279.315L34.5168 280.406C34.7177 280.525 34.9044 280.666 35.0733 280.827C34.856 280.743 34.649 280.635 34.4567 280.504C34.0656 280.278 33.5167 279.932 32.8474 279.496C31.5088 278.616 29.689 277.353 27.6962 275.954L22.56 272.374L21.056 271.299C20.8399 271.187 20.6421 271.042 20.4695 270.87Z" fill="#E0E0E0"/>
<path d="M35.8479 280.368C35.7727 280.323 38.1641 276.435 41.1796 271.683C44.1951 266.93 46.6993 263.117 46.767 263.2C46.8346 263.283 44.4508 267.125 41.4353 271.878C38.4198 276.631 35.9156 280.413 35.8479 280.368Z" fill="#E0E0E0"/>
<path d="M41.0894 304.778C41.2406 304.594 41.4121 304.427 41.6007 304.282L43.0521 303.011C44.2703 301.928 45.9548 300.432 47.7521 298.709C49.5494 296.987 51.1286 295.378 52.2641 294.197L53.6102 292.806C53.7622 292.622 53.9365 292.458 54.129 292.317C54.0029 292.52 53.8568 292.709 53.6929 292.881C53.3996 293.235 52.9409 293.731 52.422 294.34C51.3316 295.559 49.775 297.198 47.9626 298.92C46.1503 300.642 44.4583 302.124 43.195 303.161C42.5633 303.68 42.0444 304.094 41.691 304.365C41.5091 304.528 41.3069 304.667 41.0894 304.778Z" fill="#E0E0E0"/>
<path d="M25.2898 299.296C25.5081 299.32 25.7227 299.371 25.929 299.446L27.636 299.973C29.0724 300.424 31.0576 301.071 33.2384 301.8C35.4192 302.53 37.3895 303.214 38.8183 303.718L40.4952 304.334C40.706 304.397 40.9081 304.485 41.0968 304.598C40.8788 304.568 40.6646 304.515 40.4576 304.44L38.7506 303.921C37.3068 303.462 35.329 302.815 33.1407 302.086C30.9524 301.356 28.9896 300.68 27.5684 300.168L25.8914 299.559C25.6821 299.493 25.4805 299.405 25.2898 299.296Z" fill="#E0E0E0"/>
<path d="M27.1774 321.397C27.4559 321.441 27.7302 321.509 27.997 321.6L30.1854 322.262C32.0353 322.834 34.577 323.646 37.3895 324.518C40.202 325.39 42.7287 326.27 44.5561 326.894L46.7218 327.646C46.9816 327.729 47.2334 327.834 47.4738 327.962C47.1944 327.923 46.9197 327.855 46.6542 327.759L44.4959 327.12C42.646 326.549 40.1042 325.736 37.2918 324.864C34.4793 323.992 31.9526 323.112 30.1252 322.488L27.9594 321.736C27.687 321.652 27.4247 321.539 27.1774 321.397Z" fill="#E0E0E0"/>
<path d="M47.0602 327.707C47.2498 327.471 47.4613 327.255 47.6919 327.06L49.4741 325.375C50.9781 323.947 53.0386 321.976 55.2645 319.728C57.4904 317.479 59.4456 315.404 60.8519 313.885L62.5213 312.08C62.7153 311.851 62.9292 311.64 63.1605 311.448C62.9961 311.698 62.8125 311.934 62.6115 312.155C62.2431 312.606 61.6941 313.246 61.0098 314.02C59.6411 315.577 57.701 317.682 55.4751 319.931C53.2491 322.179 51.136 324.112 49.632 325.533C48.88 326.218 48.2258 326.774 47.7821 327.15C47.5566 327.354 47.3152 327.54 47.0602 327.707Z" fill="#E0E0E0"/>
<path d="M317.457 342.273C301.868 333.647 296.01 314.449 294.198 296.724C293.897 293.761 293.175 290.708 294.137 287.933C295.1 285.158 297.897 282.978 300.552 283.88C302.74 284.632 303.973 287.046 305.402 288.994C307.263 291.555 309.814 293.535 312.757 294.701C314.644 295.453 316.893 295.732 318.487 294.476C320.675 292.739 320.48 289.212 320.074 286.264L317.773 269.893C317.359 266.96 316.945 263.967 317.427 261.072C317.908 258.177 319.442 255.327 321.939 254.191C324.435 253.056 327.887 254.191 328.82 257.004C329.087 258.203 329.278 259.419 329.391 260.643C329.632 261.846 330.339 263.117 331.467 263.313C332.595 263.508 333.595 262.561 334.294 261.553C336.731 258.199 338.137 254.123 339.415 250.085C340.694 246.047 341.919 241.926 344.055 238.346C346.191 234.767 349.394 231.714 353.282 230.939C357.17 230.165 361.712 232.172 363.254 236.128C364.795 240.084 363.118 244.626 361.11 248.31C358.174 253.725 354.474 258.689 350.124 263.05C349.249 263.753 348.618 264.713 348.319 265.794C347.988 267.825 349.981 269.554 351.876 269.923C354.012 270.367 356.2 269.833 358.373 269.81C360.546 269.788 362.998 270.472 364.096 272.525C365.6 275.36 363.705 278.827 361.674 281.203C357.656 285.928 352.831 289.902 347.424 292.942C345.514 294.009 343.484 294.995 342.062 296.702C340.641 298.409 340.009 301.214 341.273 303.139C342.536 305.064 345.146 305.395 347.198 304.643C349.251 303.891 350.958 302.447 352.884 301.356C356.441 299.319 361.344 298.928 364.224 302.071C366.119 304.139 366.69 307.335 366.254 310.147C365.709 312.933 364.629 315.586 363.073 317.961C358.057 326.368 351.146 333.535 342.844 337.979C334.542 342.423 326.564 344.416 317.427 342.213" fill="#FCFCFC"/>
<path d="M320.232 330.624C321.671 320.65 323.654 310.761 326.172 301.003C326.827 298.416 327.473 295.852 328.105 293.333C328.737 290.813 329.376 288.317 330.143 285.918C331.609 281.331 333.318 276.825 335.264 272.42C337.092 268.216 338.972 264.298 340.754 260.651C342.536 257.004 344.266 253.635 345.965 250.642C348.613 245.924 351.631 241.423 354.989 237.181C356.162 235.677 357.11 234.564 357.764 233.812L358.516 232.962C358.598 232.861 358.688 232.768 358.787 232.684C358.72 232.795 358.644 232.9 358.561 233L357.847 233.887C357.223 234.639 356.298 235.812 355.147 237.324C351.868 241.611 348.913 246.135 346.304 250.86C344.627 253.868 342.927 257.229 341.152 260.876C339.378 264.524 337.498 268.464 335.693 272.645C333.765 277.037 332.07 281.528 330.617 286.098C329.865 288.49 329.233 290.964 328.594 293.483C327.955 296.002 327.316 298.567 326.661 301.153C324.151 310.89 322.158 320.752 320.69 330.7" fill="#E0E0E0"/>
<path d="M330.286 285.88C330.097 285.494 329.951 285.088 329.85 284.67C329.594 283.88 329.263 282.722 328.872 281.286C328.12 278.42 327.143 274.427 326.112 270.006C325.082 265.584 324.074 261.628 323.255 258.786C322.849 257.364 322.503 256.214 322.27 255.424C322.121 255.019 322.01 254.601 321.939 254.176C322.156 254.548 322.328 254.944 322.45 255.357C322.751 256.109 323.149 257.259 323.593 258.673C324.503 261.5 325.571 265.441 326.601 269.885C327.631 274.33 328.526 278.157 329.218 281.165C329.541 282.526 329.82 283.669 330.038 284.587C330.161 285.009 330.244 285.442 330.286 285.88Z" fill="#E0E0E0"/>
<path d="M364.577 273.976C364.13 274.148 363.666 274.274 363.193 274.352C362.299 274.563 361.005 274.864 359.433 275.285C356.26 276.104 351.913 277.398 347.168 279.045C342.423 280.692 338.212 282.406 335.189 283.737C333.685 284.384 332.467 284.948 331.625 285.331C331.2 285.553 330.758 285.737 330.301 285.88C330.686 285.585 331.102 285.333 331.542 285.128C332.354 284.685 333.55 284.068 335.046 283.369C338.948 281.548 342.942 279.929 347.01 278.518C351.054 277.083 355.174 275.873 359.351 274.894C360.953 274.525 362.261 274.284 363.171 274.142C363.633 274.039 364.104 273.984 364.577 273.976Z" fill="#E0E0E0"/>
<path d="M320.57 329.865C320.57 329.865 320.45 329.729 320.262 329.444L319.51 328.158C318.833 327.045 317.886 325.405 316.75 323.368C314.494 319.284 311.486 313.539 308.268 307.162C305.049 300.785 302.116 295.01 299.92 290.881L297.303 286.008L296.597 284.67C296.501 284.52 296.428 284.358 296.378 284.188C296.5 284.317 296.603 284.461 296.687 284.617L297.439 285.895C298.116 287.008 299.063 288.648 300.199 290.693C302.455 294.776 305.463 300.514 308.681 306.899C311.9 313.283 314.832 319.044 317.028 323.172L319.645 328.052L320.352 329.376C320.445 329.529 320.518 329.693 320.57 329.865Z" fill="#E0E0E0"/>
<path d="M365.224 307.275C365.092 307.385 364.945 307.476 364.788 307.545L363.494 308.215L358.704 310.644C354.666 312.697 349.124 315.599 343.002 318.818C336.881 322.036 331.309 324.887 327.21 326.849C325.172 327.834 323.518 328.609 322.36 329.105L321.029 329.684C320.721 329.812 320.555 329.872 320.548 329.85C320.681 329.744 320.828 329.655 320.984 329.587L322.277 328.91L327.06 326.481C331.091 324.428 336.64 321.525 342.762 318.307C348.883 315.088 354.455 312.238 358.554 310.275C360.592 309.298 362.254 308.516 363.412 308.019L364.743 307.44C364.894 307.362 365.056 307.306 365.224 307.275Z" fill="#E0E0E0"/>
<path d="M364.517 359.719C364.517 359.832 285.143 359.922 187.255 359.922C89.3676 359.922 9.979 359.832 9.979 359.719C9.979 359.606 89.3375 359.524 187.255 359.524C285.173 359.524 364.517 359.614 364.517 359.719Z" fill="black"/>
<path d="M318.359 165.733H53.2265C47.1754 165.733 42.2699 170.639 42.2699 176.69V344.596C42.2699 350.648 47.1754 355.553 53.2265 355.553H318.359C324.41 355.553 329.316 350.648 329.316 344.596V176.69C329.316 170.639 324.41 165.733 318.359 165.733Z" fill="#0D3344"/>
<path d="M31.05 343.296H342.047V346.8C342.047 350.274 340.667 353.606 338.21 356.063C335.754 358.519 332.422 359.9 328.947 359.9H44.1499C40.6756 359.9 37.3436 358.519 34.8869 356.063C32.4302 353.606 31.05 350.274 31.05 346.8V343.296Z" fill="#0D3344"/>
<path d="M320.803 173.276H49.9703V333.58H320.803V173.276Z" fill="black"/>
<path d="M157.491 341.521L161.357 347.657H215.659L219.238 341.521H157.491Z" fill="black"/>
<path d="M313.328 178.705H58.0092C56.6511 178.705 55.5502 179.806 55.5502 181.164V330.609C55.5502 331.967 56.6511 333.068 58.0092 333.068H313.328C314.686 333.068 315.787 331.967 315.787 330.609V181.164C315.787 179.806 314.686 178.705 313.328 178.705Z" fill="#EBEBEB"/>
<path d="M315.509 333.294H55.272L55.5502 190.241H315.509V333.294Z" fill="#FCFCFC"/>
<path d="M76.892 184.669C76.8905 185.079 76.7675 185.479 76.5386 185.82C76.3096 186.16 75.9849 186.425 75.6055 186.581C75.2262 186.737 74.8091 186.777 74.407 186.696C74.0049 186.615 73.6357 186.417 73.3462 186.126C73.0567 185.836 72.8598 185.466 72.7803 185.063C72.7008 184.661 72.7424 184.244 72.8997 183.865C73.057 183.486 73.323 183.163 73.6642 182.935C74.0053 182.707 74.4063 182.586 74.8165 182.586C75.0897 182.586 75.3602 182.64 75.6125 182.744C75.8648 182.849 76.0939 183.003 76.2868 183.196C76.4796 183.39 76.6323 183.619 76.7362 183.872C76.84 184.125 76.893 184.395 76.892 184.669Z" fill="black"/>
<path d="M64.296 184.669C64.296 185.081 64.1736 185.484 63.9444 185.827C63.7152 186.169 63.3894 186.436 63.0083 186.594C62.6273 186.751 62.208 186.792 61.8038 186.711C61.3995 186.63 61.0283 186.431 60.7373 186.139C60.4463 185.847 60.2485 185.475 60.169 185.07C60.0895 184.666 60.1318 184.247 60.2906 183.866C60.4494 183.486 60.7176 183.161 61.0611 182.933C61.4047 182.705 61.8081 182.584 62.2204 182.586C62.4936 182.586 62.7641 182.64 63.0165 182.744C63.2688 182.849 63.4979 183.003 63.6907 183.196C63.8836 183.39 64.0363 183.619 64.1401 183.872C64.244 184.125 64.297 184.395 64.296 184.669Z" fill="black"/>
<path d="M70.3421 184.669C70.3406 185.079 70.2176 185.479 69.9886 185.82C69.7597 186.16 69.435 186.425 69.0556 186.581C68.6762 186.737 68.2592 186.777 67.857 186.696C67.4549 186.615 67.0858 186.417 66.7963 186.126C66.5068 185.836 66.3099 185.466 66.2304 185.063C66.1509 184.661 66.1924 184.244 66.3497 183.865C66.5071 183.486 66.7731 183.163 67.1142 182.935C67.4554 182.707 67.8564 182.586 68.2665 182.586C68.5397 182.586 68.8102 182.64 69.0625 182.744C69.3149 182.849 69.544 183.003 69.7368 183.196C69.9296 183.39 70.0824 183.619 70.1862 183.872C70.2901 184.125 70.343 184.395 70.3421 184.669Z" fill="black"/>
<path d="M326.849 341.521C326.849 341.619 263.14 341.701 184.563 341.701C105.987 341.701 42.2699 341.619 42.2699 341.521C42.2699 341.423 105.964 341.333 184.563 341.333C263.162 341.333 326.849 341.408 326.849 341.521Z" fill="black"/>
<path d="M288.099 251.83C284.472 254.956 281.781 259.023 280.321 263.583C278.861 268.143 278.69 273.018 279.827 277.668C276.436 276.999 272.932 277.173 269.624 278.175C266.316 279.177 263.304 280.976 260.853 283.413C258.403 285.851 256.589 288.853 255.57 292.156C254.551 295.459 254.359 298.962 255.011 302.357C247.558 297.228 236.166 299.146 230.804 306.44C230.691 301.627 230.503 296.551 227.976 292.453C225.45 288.354 219.704 285.828 215.651 288.43C217.187 286.679 218.12 284.482 218.313 282.161C218.506 279.84 217.948 277.518 216.721 275.539C215.494 273.559 213.664 272.026 211.5 271.165C209.336 270.304 206.953 270.161 204.702 270.758C204.589 264.982 200.942 224.088 197.934 189.587H172.246C169.238 223.487 165.801 262.425 165.688 268.058C163.431 267.449 161.037 267.584 158.864 268.445C156.69 269.305 154.851 270.844 153.622 272.833C152.393 274.821 151.838 277.154 152.041 279.483C152.244 281.812 153.192 284.013 154.747 285.76C150.693 283.158 144.971 285.692 142.421 289.783C139.872 293.874 139.699 298.958 139.586 303.77C134.224 296.484 122.839 294.558 115.379 299.687C116.031 296.292 115.839 292.79 114.82 289.487C113.801 286.184 111.987 283.182 109.536 280.744C107.086 278.306 104.074 276.507 100.766 275.506C97.458 274.504 93.9545 274.33 90.5633 274.999C91.7682 270.348 91.6283 265.45 90.1597 260.876C88.6911 256.301 85.9542 252.238 82.2673 249.157C78.5803 246.077 74.0946 244.106 69.3319 243.474C64.5691 242.842 59.7248 243.575 55.3622 245.588V333.219H315.028V248.243C310.646 246.296 305.81 245.6 301.057 246.234C296.304 246.867 291.818 248.804 288.099 251.83Z" fill="#49A0EB"/>
<g opacity="0.8">
<path opacity="0.8" d="M288.099 251.83C284.472 254.956 281.781 259.023 280.321 263.583C278.861 268.143 278.69 273.018 279.827 277.668C276.436 276.999 272.932 277.173 269.624 278.175C266.316 279.177 263.304 280.976 260.853 283.413C258.403 285.851 256.589 288.853 255.57 292.156C254.551 295.459 254.359 298.962 255.011 302.357C247.558 297.228 236.166 299.146 230.804 306.44C230.691 301.627 230.503 296.551 227.976 292.453C225.45 288.354 219.704 285.828 215.651 288.43C217.187 286.679 218.12 284.482 218.313 282.161C218.506 279.84 217.948 277.518 216.721 275.539C215.494 273.559 213.664 272.026 211.5 271.165C209.336 270.304 206.953 270.161 204.702 270.758C204.589 264.982 200.942 224.088 197.934 189.587H172.246C169.238 223.487 165.801 262.425 165.688 268.058C163.431 267.449 161.037 267.584 158.864 268.445C156.69 269.305 154.851 270.844 153.622 272.833C152.393 274.821 151.838 277.154 152.041 279.483C152.244 281.812 153.192 284.013 154.747 285.76C150.693 283.158 144.971 285.692 142.421 289.783C139.872 293.874 139.699 298.958 139.586 303.77C134.224 296.484 122.839 294.558 115.379 299.687C116.031 296.292 115.839 292.79 114.82 289.487C113.801 286.184 111.987 283.182 109.536 280.744C107.086 278.306 104.074 276.507 100.766 275.506C97.458 274.504 93.9545 274.33 90.5633 274.999C91.7682 270.348 91.6283 265.45 90.1597 260.876C88.6911 256.301 85.9542 252.238 82.2673 249.157C78.5803 246.077 74.0946 244.106 69.3319 243.474C64.5691 242.842 59.7248 243.575 55.3622 245.588V333.219H315.028V248.243C310.646 246.296 305.81 245.6 301.057 246.234C296.304 246.867 291.818 248.804 288.099 251.83Z" fill="white"/>
</g>
<path d="M286.512 315.72C281.852 312.589 276.599 310.449 271.079 309.43C265.558 308.411 259.887 308.535 254.417 309.795C248.946 311.056 243.793 313.425 239.275 316.757C234.756 320.088 230.97 324.312 228.149 329.165C225.865 326.079 222.88 323.579 219.441 321.871C219.685 321.222 219.888 320.559 220.05 319.886C220.716 317.005 220.635 314.001 219.815 311.16C218.995 308.319 217.464 305.735 215.366 303.651C213.268 301.567 210.673 300.054 207.826 299.253C204.98 298.453 201.976 298.393 199.099 299.078L191.414 189.587H181.337V290.272C175.096 291.227 170.742 298.619 172.945 304.56C170.77 304.898 168.711 305.759 166.942 307.069C165.174 308.379 163.75 310.099 162.793 312.08C162.191 313.373 162.101 316.111 162.62 319.209C158.816 319.278 155.077 320.215 151.689 321.946C148.301 323.678 145.352 326.16 143.068 329.203C140.247 324.349 136.461 320.126 131.943 316.794C127.424 313.463 122.271 311.093 116.8 309.833C111.33 308.573 105.659 308.448 100.138 309.467C94.618 310.486 89.3652 312.627 84.7052 315.757C82.0657 302.973 67.7702 293.889 55.0764 296.957V333.452L172.231 333.301C173.035 333.531 173.868 333.647 174.705 333.647L203.341 333.309L316.193 333.452V296.89C303.47 293.852 289.174 302.936 286.512 315.72Z" fill="#49A0EB"/>
<g opacity="0.6">
<path opacity="0.6" d="M286.512 315.72C281.852 312.589 276.599 310.449 271.079 309.43C265.558 308.411 259.887 308.535 254.417 309.795C248.946 311.056 243.793 313.425 239.275 316.757C234.756 320.088 230.97 324.312 228.149 329.165C225.865 326.079 222.88 323.579 219.441 321.871C219.685 321.222 219.888 320.559 220.05 319.886C220.716 317.005 220.635 314.001 219.815 311.16C218.995 308.319 217.464 305.735 215.366 303.651C213.268 301.567 210.673 300.054 207.826 299.253C204.98 298.453 201.976 298.393 199.099 299.078L191.414 189.587H181.337V290.272C175.096 291.227 170.742 298.619 172.945 304.56C170.77 304.898 168.711 305.759 166.942 307.069C165.174 308.379 163.75 310.099 162.793 312.08C162.191 313.373 162.101 316.111 162.62 319.209C158.816 319.278 155.077 320.215 151.689 321.946C148.301 323.678 145.352 326.16 143.068 329.203C140.247 324.349 136.461 320.126 131.943 316.794C127.424 313.463 122.271 311.093 116.8 309.833C111.33 308.573 105.659 308.448 100.138 309.467C94.618 310.486 89.3652 312.627 84.7052 315.757C82.0657 302.973 67.7702 293.889 55.0764 296.957V333.452L172.231 333.301C173.035 333.531 173.868 333.647 174.705 333.647L203.341 333.309L316.193 333.452V296.89C303.47 293.852 289.174 302.936 286.512 315.72Z" fill="white"/>
</g>
<path d="M175.404 155.311C169.629 158.055 167.012 165.966 170.02 171.614C171.208 173.87 173.148 175.803 173.404 178.314C173.795 182.164 170.155 185.172 169.027 188.842C168.455 191.042 168.755 193.377 169.865 195.36C170.975 197.343 172.809 198.821 174.983 199.483C176.961 200.002 179.329 199.912 180.653 201.468C182.345 203.454 181.119 206.732 182.571 208.921C183.871 210.883 186.917 210.981 188.88 209.673C190.843 208.364 191.925 206.101 192.7 203.875C193.475 201.649 194.054 199.31 195.392 197.37C196.896 195.242 199.115 193.783 200.904 191.91C205.206 187.398 206.522 180.63 205.552 174.456C204.582 168.283 201.596 162.635 198.22 157.394" fill="#49A0EB"/>
<g opacity="0.3">
<path opacity="0.3" d="M175.404 155.311C169.629 158.055 167.012 165.966 170.02 171.614C171.208 173.87 173.148 175.803 173.404 178.314C173.795 182.164 170.155 185.172 169.027 188.842C168.455 191.042 168.755 193.377 169.865 195.36C170.975 197.343 172.809 198.821 174.983 199.483C176.961 200.002 179.329 199.912 180.653 201.468C182.345 203.454 181.119 206.732 182.571 208.921C183.871 210.883 186.917 210.981 188.88 209.673C190.843 208.364 191.925 206.101 192.7 203.875C193.475 201.649 194.054 199.31 195.392 197.37C196.896 195.242 199.115 193.783 200.904 191.91C205.206 187.398 206.522 180.63 205.552 174.456C204.582 168.283 201.596 162.635 198.22 157.394" fill="white"/>
</g>
<path d="M180.48 158.559C175.585 160.717 173.441 167.508 176.209 172.095C177.901 174.893 181.179 177.419 180.382 180.585C179.841 182.736 177.54 184.052 176.878 186.165C175.998 188.978 178.66 191.963 181.593 192.316C184.526 192.67 187.353 191.106 189.572 189.158C197.25 182.39 199.122 169.155 194.332 160.123" fill="#49A0EB"/>
<path d="M205.717 115.515C205.717 115.515 230.864 132.149 228.119 160.928L205.003 150.55L205.717 115.515Z" fill="#0D3344"/>
<path d="M163.936 149.971L169.651 159.439H199.288L205.003 150.513L163.936 149.971Z" fill="black"/>
<path d="M182.931 54.4448C177.292 54.8227 172.015 57.3592 168.197 61.527C164.38 65.6948 162.315 71.1735 162.432 76.8243L163.936 150.52H205.003L206.371 76.7867C206.429 73.7426 205.854 70.7197 204.682 67.9097C203.51 65.0998 201.766 62.564 199.562 60.4634C197.359 58.3627 194.742 56.743 191.879 55.7069C189.016 54.6708 185.969 54.2411 182.931 54.4448Z" fill="#49A0EB"/>
<g opacity="0.8">
<path opacity="0.8" d="M182.931 54.4448C177.292 54.8227 172.015 57.3592 168.197 61.527C164.38 65.6948 162.315 71.1735 162.432 76.8243L163.936 150.52H205.003L206.371 76.7867C206.429 73.7426 205.854 70.7197 204.682 67.9097C203.51 65.0998 201.766 62.564 199.562 60.4634C197.359 58.3627 194.742 56.743 191.879 55.7069C189.016 54.6708 185.969 54.2411 182.931 54.4448Z" fill="white"/>
</g>
<path d="M163.184 115.515C163.184 115.515 138.067 132.149 140.82 160.928L163.936 150.535L163.184 115.515Z" fill="#0D3344"/>
<path d="M162.658 74.3803C171.343 66.7776 198.603 66.943 205.92 73.132C204.04 45.7742 183.15 35.532 183.15 35.532C161.778 50.3314 162.658 74.3803 162.658 74.3803Z" fill="#0D3344"/>
<path d="M183.15 35.5395L183.398 35.7651C183.556 35.9155 183.796 36.1336 184.097 36.4269L185.24 37.5098L185.992 38.2016L186.744 39.0438C187.286 39.6379 187.902 40.2922 188.556 41.0291L190.557 43.5258C190.895 43.9845 191.234 44.4808 191.587 44.9771C191.94 45.4734 192.339 45.9848 192.655 46.5488C193.324 47.6618 194.069 48.8048 194.708 50.1208C196.175 52.9178 197.313 55.8754 198.099 58.9342C198.543 60.6349 198.872 62.3634 199.084 64.108C199.212 65.0104 199.28 65.9278 199.408 66.8378C199.49 67.783 199.522 68.7318 199.506 69.6803C199.506 77.3131 199.408 85.7055 199.31 94.4963C199.099 112.123 198.851 128.073 198.663 139.616C198.566 145.384 198.483 150.054 198.423 153.288C198.423 154.897 198.363 156.153 198.347 157.048C198.347 157.469 198.347 157.8 198.347 158.01C198.347 158.221 198.347 158.341 198.347 158.341C198.347 158.341 198.347 158.228 198.347 158.01C198.347 157.792 198.347 157.469 198.347 157.048C198.347 156.19 198.347 154.935 198.385 153.288C198.423 150.054 198.483 145.384 198.551 139.616C198.701 128.058 198.904 112.108 199.137 94.4963C199.235 85.6829 199.348 77.2906 199.348 69.6803C199.368 68.7417 199.336 67.8027 199.25 66.8678C199.13 65.9429 199.062 65.033 198.942 64.1381C198.731 62.3986 198.405 60.6751 197.964 58.9794C197.187 55.9334 196.065 52.9864 194.618 50.196C193.941 48.88 193.196 47.737 192.512 46.624C192.181 46.06 191.76 45.5637 191.452 45.0523C191.143 44.541 190.775 44.0597 190.436 43.601L188.451 41.0968C187.804 40.3448 187.195 39.7056 186.654 39.104L185.902 38.2542L185.187 37.5549L184.059 36.457L183.375 35.7802L183.15 35.5395Z" fill="black"/>
<path d="M192.754 93.016C194.045 87.168 190.686 81.4545 185.252 80.2547C179.817 79.0549 174.365 82.8231 173.074 88.6712C171.783 94.5192 175.142 100.233 180.576 101.432C186.011 102.632 191.463 98.8641 192.754 93.016Z" fill="#FCFCFC"/>
<path d="M185.248 80.2534C185.19 80.2618 185.132 80.2618 185.075 80.2534L184.586 80.1857L184.225 80.1256H183.781H183.27C183.082 80.1256 182.886 80.1256 182.683 80.1256C182.226 80.154 181.771 80.2143 181.322 80.3061C180.788 80.4193 180.265 80.5778 179.758 80.7798C178.52 81.2739 177.387 81.9986 176.419 82.9155C175.246 84.0223 174.33 85.3724 173.735 86.871C173.569 87.2799 173.43 87.6994 173.321 88.1269C173.268 88.3449 173.201 88.563 173.148 88.7811L173.035 89.4579L172.975 89.8038V90.1497C172.975 90.3829 172.937 90.6235 172.922 90.8566C172.907 91.0897 172.922 91.3304 172.922 91.571V91.932L172.96 92.3005C173.158 94.3436 173.941 96.2862 175.216 97.8953C176.558 99.6442 178.474 100.864 180.626 101.34C182.779 101.816 185.03 101.517 186.985 100.497C188.809 99.5622 190.328 98.1244 191.361 96.3538L191.549 96.0454L191.707 95.7146L192.023 95.0754L192.271 94.4136L192.392 94.0827L192.489 93.7443L192.67 93.0825C192.723 92.8645 192.745 92.6389 192.79 92.4208C192.866 91.9854 192.916 91.546 192.941 91.1048C193.041 89.4944 192.784 87.8818 192.189 86.3822C191.5 84.627 190.342 83.0948 188.842 81.9529C188.473 81.6778 188.086 81.4266 187.684 81.2009C187.496 81.1107 187.331 81.0054 187.165 80.9302L186.691 80.7347L186.278 80.5693L185.932 80.464L185.451 80.3211C185.396 80.307 185.343 80.2869 185.293 80.2609H185.458L185.939 80.3813L186.3 80.479L186.714 80.6369L187.195 80.8249L187.722 81.0881C188.134 81.3128 188.531 81.564 188.91 81.8401C189.35 82.1728 189.764 82.5372 190.151 82.9305C191.086 83.9011 191.826 85.0422 192.331 86.292C192.953 87.8089 193.228 89.4455 193.136 91.0822C193.118 91.5311 193.07 91.9782 192.993 92.4208C192.948 92.6464 192.926 92.872 192.873 93.0976C192.82 93.3232 192.753 93.5488 192.685 93.7744L192.595 94.1128L192.474 94.4437L192.219 95.1205L191.903 95.7747L191.745 96.1131L191.549 96.4289C190.506 98.2387 188.959 99.7068 187.098 100.655C185.101 101.703 182.799 102.011 180.597 101.525C178.395 101.04 176.436 99.7912 175.066 98.0006C173.779 96.3527 172.995 94.3681 172.81 92.2854V91.917V91.5485C172.81 91.3078 172.81 91.0597 172.81 90.7965C172.81 90.5333 172.81 90.3152 172.87 90.0445V89.691L172.922 89.3376C172.967 89.112 173.005 88.8789 173.043 88.6533C173.08 88.4277 173.163 88.2096 173.223 87.984C173.334 87.5503 173.478 87.1255 173.652 86.7131C174.258 85.1897 175.195 83.8205 176.397 82.7049C177.383 81.7843 178.537 81.0618 179.796 80.5768C180.31 80.3768 180.841 80.2209 181.382 80.1105C181.837 80.0237 182.297 79.9684 182.759 79.9451C182.969 79.9451 183.165 79.9451 183.353 79.9451H183.871H184.315L184.676 80.0128L185.165 80.103L185.248 80.2534Z" fill="black"/>
<path d="M172.524 89.2173C172.524 89.3451 170.208 89.285 167.418 89.7888C164.628 90.2926 162.477 91.1349 162.432 91.0145C162.846 90.7136 163.309 90.4871 163.801 90.3453C166.103 89.4812 168.545 89.0478 171.005 89.0669C171.516 89.0342 172.029 89.085 172.524 89.2173Z" fill="black"/>
<path d="M205.725 89.2022C205.104 89.2063 204.484 89.1484 203.875 89.0293C202.747 88.8939 201.183 88.7134 199.453 88.5856C197.723 88.4578 196.152 88.4277 195.009 88.4051C194.391 88.4381 193.771 88.4104 193.159 88.3224C193.76 88.1663 194.38 88.0954 195.001 88.1118C196.505 88.0436 198.012 88.0637 199.513 88.172C201.002 88.2755 202.483 88.4638 203.95 88.736C204.558 88.8173 205.155 88.9739 205.725 89.2022Z" fill="black"/>
<path d="M205.95 131.374C205.805 131.394 205.659 131.394 205.514 131.374L204.273 131.277L199.709 130.931C195.858 130.66 190.527 130.397 184.669 130.404C178.811 130.412 173.449 130.683 169.591 130.961L165.034 131.322L163.793 131.412C163.648 131.433 163.502 131.433 163.357 131.412C163.495 131.363 163.639 131.333 163.786 131.322L165.019 131.149C166.087 131.006 167.643 130.833 169.531 130.66C173.381 130.299 178.728 129.983 184.631 129.976C190.534 129.968 195.911 130.276 199.724 130.63C201.656 130.803 203.205 130.968 204.281 131.111L205.514 131.277C205.663 131.289 205.81 131.322 205.95 131.374Z" fill="black"/>
<path d="M173.614 99.7829C173.614 99.843 173.359 99.8656 173.186 100.159C173.135 100.234 173.102 100.32 173.088 100.409C173.073 100.499 173.079 100.59 173.103 100.678C173.141 100.77 173.206 100.849 173.289 100.906C173.371 100.962 173.469 100.992 173.569 100.994C173.67 101.009 173.772 100.994 173.865 100.951C173.957 100.908 174.035 100.839 174.088 100.753C174.125 100.67 174.145 100.581 174.145 100.49C174.145 100.399 174.125 100.309 174.088 100.227C173.96 99.9107 173.712 99.8506 173.727 99.7904C173.742 99.7302 174.073 99.6776 174.351 100.084C174.43 100.205 174.479 100.343 174.495 100.487C174.51 100.63 174.492 100.776 174.441 100.911C174.366 101.079 174.238 101.219 174.077 101.31C173.916 101.401 173.73 101.437 173.547 101.415C173.388 101.406 173.236 101.354 173.106 101.262C172.977 101.171 172.876 101.045 172.814 100.899C172.753 100.753 172.734 100.593 172.76 100.437C172.786 100.28 172.855 100.135 172.96 100.016C173.291 99.6174 173.644 99.7302 173.614 99.7829Z" fill="black"/>
<path d="M182.563 104.603C182.563 104.671 182.307 104.693 182.134 104.987C182.086 105.061 182.053 105.146 182.039 105.234C182.025 105.322 182.029 105.412 182.052 105.498C182.088 105.593 182.152 105.674 182.235 105.732C182.318 105.789 182.417 105.821 182.518 105.821C182.619 105.835 182.722 105.819 182.814 105.774C182.906 105.73 182.984 105.661 183.037 105.573C183.072 105.491 183.09 105.403 183.09 105.314C183.09 105.225 183.072 105.136 183.037 105.054C182.901 104.739 182.653 104.678 182.668 104.618C182.683 104.558 183.014 104.505 183.293 104.912C183.371 105.031 183.42 105.168 183.436 105.311C183.452 105.453 183.433 105.597 183.383 105.731C183.307 105.9 183.18 106.041 183.019 106.133C182.858 106.225 182.672 106.263 182.488 106.243C182.322 106.241 182.161 106.19 182.024 106.097C181.887 106.003 181.781 105.872 181.719 105.719C181.656 105.566 181.64 105.397 181.672 105.235C181.705 105.073 181.785 104.924 181.901 104.806C182.24 104.445 182.593 104.528 182.563 104.603Z" fill="black"/>
<path d="M192.437 100.49C192.437 100.557 192.189 100.58 192.008 100.873C191.959 100.948 191.927 101.032 191.913 101.12C191.898 101.208 191.903 101.298 191.925 101.385C191.965 101.479 192.03 101.559 192.114 101.617C192.198 101.674 192.297 101.706 192.399 101.708C192.499 101.723 192.602 101.707 192.693 101.663C192.784 101.619 192.86 101.548 192.911 101.46C192.946 101.378 192.964 101.29 192.964 101.2C192.964 101.111 192.946 101.023 192.911 100.941C192.783 100.625 192.527 100.565 192.542 100.497C192.557 100.43 192.888 100.392 193.166 100.798C193.248 100.917 193.299 101.053 193.316 101.196C193.333 101.339 193.315 101.483 193.264 101.618C193.185 101.786 193.056 101.926 192.894 102.018C192.733 102.109 192.546 102.148 192.362 102.129C192.177 102.121 192 102.055 191.855 101.941C191.711 101.826 191.606 101.668 191.557 101.49C191.527 101.349 191.531 101.204 191.569 101.065C191.607 100.926 191.678 100.799 191.775 100.693C192.113 100.332 192.467 100.445 192.437 100.49Z" fill="black"/>
<path d="M195.648 93.1126C195.648 93.1728 195.392 93.1954 195.212 93.4886C195.164 93.5653 195.133 93.6509 195.12 93.7402C195.107 93.8295 195.113 93.9205 195.137 94.0075C195.173 94.102 195.237 94.1834 195.32 94.2411C195.403 94.2987 195.502 94.33 195.603 94.3309C195.703 94.3437 195.805 94.3271 195.895 94.283C195.986 94.239 196.062 94.1693 196.114 94.0827C196.15 94.0008 196.168 93.9125 196.168 93.8233C196.168 93.734 196.15 93.6458 196.114 93.5638C195.986 93.248 195.738 93.1803 195.746 93.1202C195.753 93.06 196.092 93.0149 196.377 93.421C196.456 93.5406 196.506 93.6773 196.522 93.8199C196.537 93.9624 196.519 94.1067 196.468 94.2406C196.391 94.4085 196.263 94.5477 196.102 94.6382C195.941 94.7287 195.756 94.7659 195.573 94.7445C195.387 94.7372 195.209 94.6715 195.063 94.5567C194.917 94.4419 194.811 94.2839 194.761 94.1053C194.731 93.9646 194.736 93.8191 194.774 93.6805C194.812 93.542 194.882 93.4144 194.979 93.3082C195.317 92.9547 195.67 93.0675 195.648 93.1126Z" fill="black"/>
<path d="M170.351 92.3982C170.351 92.4584 170.095 92.481 169.922 92.7742C169.873 92.8505 169.841 92.9359 169.827 93.0251C169.813 93.1144 169.817 93.2056 169.839 93.2931C169.876 93.387 169.94 93.4678 170.023 93.5254C170.106 93.5829 170.204 93.6146 170.305 93.6165C170.407 93.628 170.509 93.6109 170.601 93.567C170.692 93.5231 170.77 93.4542 170.824 93.3683C170.862 93.2869 170.881 93.1984 170.881 93.1089C170.881 93.0193 170.862 92.9309 170.824 92.8494C170.696 92.5336 170.448 92.4659 170.463 92.4058C170.478 92.3456 170.809 92.3005 171.088 92.7066C171.167 92.8262 171.216 92.9629 171.232 93.1055C171.247 93.248 171.229 93.3923 171.178 93.5262C171.102 93.6948 170.974 93.8347 170.813 93.9254C170.652 94.016 170.466 94.0527 170.283 94.0301C170.097 94.0228 169.919 93.9571 169.773 93.8423C169.627 93.7275 169.521 93.5695 169.471 93.3909C169.441 93.2497 169.446 93.1034 169.486 92.9646C169.525 92.8258 169.597 92.6986 169.696 92.5938C170.027 92.2403 170.381 92.3531 170.351 92.3982Z" fill="black"/>
<path d="M192.422 82.2763C192.422 82.2162 192.677 82.1936 192.85 81.9003C192.901 81.8248 192.934 81.7394 192.948 81.6499C192.963 81.5603 192.957 81.4688 192.933 81.3814C192.894 81.2886 192.83 81.2089 192.747 81.1516C192.665 81.0942 192.567 81.0618 192.467 81.0581C192.367 81.0452 192.265 81.0618 192.174 81.1059C192.083 81.15 192.007 81.2196 191.956 81.3062C191.916 81.3871 191.896 81.4758 191.896 81.5657C191.896 81.6555 191.916 81.7443 191.956 81.8251C192.083 82.1409 192.332 82.2086 192.317 82.2688C192.301 82.329 191.971 82.3741 191.692 81.968C191.613 81.8484 191.564 81.7116 191.548 81.5691C191.532 81.4265 191.551 81.2823 191.602 81.1483C191.678 80.9797 191.806 80.8398 191.967 80.7492C192.128 80.6585 192.314 80.6218 192.497 80.6445C192.663 80.6465 192.824 80.6973 192.961 80.7904C193.097 80.8836 193.204 81.015 193.266 81.1682C193.329 81.3215 193.345 81.4897 193.312 81.652C193.28 81.8143 193.2 81.9635 193.084 82.0808C192.745 82.4418 192.392 82.3214 192.422 82.2763Z" fill="black"/>
<path d="M182.548 77.8997C182.548 77.8395 182.804 77.817 182.977 77.5237C183.025 77.4474 183.057 77.362 183.072 77.2728C183.086 77.1836 183.082 77.0923 183.059 77.0048C183.019 76.9114 182.953 76.8314 182.87 76.7741C182.786 76.7168 182.687 76.6847 182.586 76.6814C182.485 76.6686 182.384 76.6852 182.293 76.7293C182.202 76.7733 182.126 76.843 182.074 76.9296C182.039 77.0115 182.021 77.0998 182.021 77.189C182.021 77.2783 182.039 77.3666 182.074 77.4485C182.202 77.7718 182.458 77.832 182.443 77.8922C182.428 77.9523 182.097 78.005 181.819 77.5914C181.719 77.458 181.661 77.2978 181.653 77.1314C181.645 76.965 181.687 76.8001 181.774 76.6577C181.86 76.5154 181.987 76.4022 182.139 76.3327C182.29 76.2632 182.459 76.2406 182.623 76.2678C182.808 76.2755 182.985 76.3415 183.13 76.4564C183.274 76.5712 183.379 76.729 183.428 76.907C183.457 77.0477 183.452 77.1932 183.414 77.3318C183.377 77.4703 183.306 77.5979 183.21 77.7042C182.871 78.0651 182.518 77.9523 182.548 77.8997Z" fill="black"/>
<path d="M172.787 82.2763C172.787 82.2162 173.043 82.1936 173.216 81.9003C173.264 81.8241 173.296 81.7387 173.311 81.6494C173.325 81.5602 173.321 81.469 173.298 81.3814C173.258 81.288 173.193 81.208 173.109 81.1507C173.025 81.0935 172.926 81.0613 172.825 81.0581C172.724 81.0452 172.623 81.0618 172.532 81.1059C172.441 81.15 172.365 81.2196 172.313 81.3062C172.278 81.3882 172.26 81.4764 172.26 81.5657C172.26 81.6549 172.278 81.7432 172.313 81.8251C172.441 82.141 172.697 82.2086 172.682 82.2688C172.667 82.329 172.336 82.3741 172.058 81.968C171.958 81.8346 171.9 81.6744 171.892 81.5081C171.884 81.3417 171.926 81.1767 172.013 81.0344C172.099 80.8921 172.226 80.7789 172.378 80.7094C172.529 80.6399 172.698 80.6173 172.862 80.6445C173.047 80.6521 173.224 80.7181 173.369 80.833C173.513 80.9479 173.618 81.1057 173.667 81.2837C173.696 81.4243 173.691 81.5699 173.654 81.7084C173.616 81.847 173.545 81.9746 173.449 82.0808C173.11 82.4418 172.757 82.3214 172.787 82.2763Z" fill="black"/>
<path d="M181.3 118.538L182.18 162.537C182.193 163.148 182.449 163.729 182.89 164.152C183.331 164.575 183.922 164.805 184.533 164.793C185.127 164.78 185.694 164.538 186.114 164.118C186.534 163.697 186.776 163.131 186.789 162.537C186.88 154.611 187.173 127.945 187.218 118.493C187.22 118.066 187.129 117.644 186.952 117.256C186.775 116.868 186.516 116.523 186.193 116.244C185.87 115.965 185.491 115.76 185.081 115.642C184.671 115.524 184.241 115.496 183.819 115.56C183.11 115.667 182.463 116.028 182 116.576C181.537 117.123 181.288 117.821 181.3 118.538Z" fill="#49A0EB"/>
<g opacity="0.3">
<path opacity="0.3" d="M181.3 118.538L182.18 162.537C182.193 163.148 182.449 163.729 182.89 164.152C183.331 164.575 183.922 164.805 184.533 164.793C185.127 164.78 185.694 164.538 186.114 164.118C186.534 163.697 186.776 163.131 186.789 162.537C186.88 154.611 187.173 127.945 187.218 118.493C187.22 118.066 187.129 117.644 186.952 117.256C186.775 116.868 186.516 116.523 186.193 116.244C185.87 115.965 185.491 115.76 185.081 115.642C184.671 115.524 184.241 115.496 183.819 115.56C183.11 115.667 182.463 116.028 182 116.576C181.537 117.123 181.288 117.821 181.3 118.538Z" fill="black"/>
</g>
<path d="M182.661 38.0512C182.789 38.2016 181.33 39.6154 179.202 42.097C178.134 43.3302 176.946 44.8643 175.69 46.609C174.354 48.5234 173.124 50.5091 172.005 52.5573C170.914 54.6177 169.938 56.7365 169.08 58.9042C168.328 60.912 167.688 62.7544 167.245 64.3261C166.35 67.4695 165.974 69.4698 165.741 69.4397C165.508 69.4096 165.658 67.3642 166.35 64.108C166.764 62.2052 167.302 60.3312 167.959 58.4981C168.773 56.2525 169.743 54.0664 170.862 51.9557C172.011 49.8674 173.297 47.8577 174.712 45.9397C175.881 44.3801 177.149 42.898 178.51 41.5029C180.879 39.104 182.563 37.9384 182.661 38.0512Z" fill="white"/>
<path d="M162.259 119.891C162.379 120.079 160.296 121.395 157.394 124.118L156.273 125.185C155.882 125.561 155.521 125.99 155.115 126.404C154.295 127.231 153.528 128.208 152.694 129.209C150.951 131.432 149.404 133.802 148.069 136.292C146.768 138.803 145.681 141.419 144.82 144.113C144.467 145.362 144.068 146.55 143.873 147.685C143.752 148.257 143.609 148.798 143.519 149.332C143.429 149.866 143.346 150.37 143.271 150.836C142.684 154.754 142.737 157.228 142.519 157.236C142.429 157.236 142.346 156.627 142.271 155.499C142.271 155.213 142.233 154.897 142.218 154.559C142.203 154.22 142.218 153.844 142.218 153.446C142.224 152.539 142.277 151.632 142.376 150.731C142.429 150.227 142.489 149.701 142.549 149.152C142.609 148.603 142.737 148.039 142.835 147.46C143.023 146.279 143.361 145.053 143.7 143.76C145.296 138.15 148.05 132.937 151.784 128.457C152.594 127.482 153.452 126.548 154.356 125.659C154.777 125.246 155.175 124.824 155.589 124.464L156.792 123.433C157.481 122.841 158.202 122.287 158.95 121.771C159.274 121.538 159.574 121.313 159.86 121.125L160.665 120.643C161.68 120.094 162.206 119.816 162.259 119.891Z" fill="white"/>
<path d="M129.893 263.358C128.881 262.784 128.07 261.914 127.568 260.865C127.067 259.816 126.899 258.638 127.087 257.491C127.276 256.343 127.812 255.281 128.623 254.448C129.434 253.614 130.481 253.05 131.623 252.83C133.683 252.424 136.262 253.01 137.556 251.326C138.736 249.822 137.849 247.837 138.368 245.43C138.887 243.024 140.955 241.888 143.233 241.918C144.376 241.985 145.483 242.34 146.45 242.95C147.418 243.56 148.216 244.406 148.768 245.408C149.988 247.636 150.539 250.169 150.355 252.702C149.746 257.898 146.971 260.561 143.519 262.764C140.068 264.967 133.533 265.471 129.893 263.313" fill="#49A0EB"/>
<g opacity="0.8">
<path opacity="0.8" d="M129.893 263.358C128.881 262.784 128.07 261.914 127.568 260.865C127.067 259.816 126.899 258.638 127.087 257.491C127.276 256.343 127.812 255.281 128.623 254.448C129.434 253.614 130.481 253.05 131.623 252.83C133.683 252.424 136.262 253.01 137.556 251.326C138.736 249.822 137.849 247.837 138.368 245.43C138.887 243.024 140.955 241.888 143.233 241.918C144.376 241.985 145.483 242.34 146.45 242.95C147.418 243.56 148.216 244.406 148.768 245.408C149.988 247.636 150.539 250.169 150.355 252.702C149.746 257.898 146.971 260.561 143.519 262.764C140.068 264.967 133.533 265.471 129.893 263.313" fill="white"/>
</g>
<path d="M214.26 221.705C215.098 220.102 216.406 218.793 218.009 217.954C219.611 217.115 221.432 216.786 223.227 217.011C225.022 217.236 226.705 218.004 228.052 219.213C229.398 220.421 230.342 222.012 230.759 223.773C231.511 226.969 230.759 231.014 233.413 232.947C235.827 234.699 238.88 233.188 242.67 233.849C246.461 234.511 248.356 237.67 248.438 241.234C248.521 244.799 246.34 248.183 243.325 250.078C239.923 252.113 236.007 253.126 232.045 252.995C223.901 252.356 219.577 248.183 215.929 242.934C212.282 237.685 211.109 227.51 214.26 221.705Z" fill="#49A0EB"/>
<g opacity="0.8">
<path opacity="0.8" d="M214.26 221.705C215.098 220.102 216.406 218.793 218.009 217.954C219.611 217.115 221.432 216.786 223.227 217.011C225.022 217.236 226.705 218.004 228.052 219.213C229.398 220.421 230.342 222.012 230.759 223.773C231.511 226.969 230.759 231.014 233.413 232.947C235.827 234.699 238.88 233.188 242.67 233.849C246.461 234.511 248.356 237.67 248.438 241.234C248.521 244.799 246.34 248.183 243.325 250.078C239.923 252.113 236.007 253.126 232.045 252.995C223.901 252.356 219.577 248.183 215.929 242.934C212.282 237.685 211.109 227.51 214.26 221.705Z" fill="white"/>
</g>
<path d="M153.491 211.041C152.584 211.507 151.824 212.215 151.293 213.085C150.762 213.955 150.482 214.955 150.483 215.974C150.52 217.107 150.923 218.197 151.629 219.082C152.336 219.968 153.31 220.602 154.405 220.89C155.501 221.178 156.66 221.105 157.711 220.681C158.762 220.258 159.648 219.507 160.238 218.539C160.828 217.572 161.09 216.44 160.985 215.312C160.88 214.184 160.414 213.12 159.657 212.277C158.899 211.435 157.889 210.86 156.779 210.637C155.668 210.415 154.515 210.556 153.491 211.041Z" fill="#49A0EB"/>
<g opacity="0.8">
<path opacity="0.8" d="M153.491 211.041C152.584 211.507 151.824 212.215 151.293 213.085C150.762 213.955 150.482 214.955 150.483 215.974C150.52 217.107 150.923 218.197 151.629 219.082C152.336 219.968 153.31 220.602 154.405 220.89C155.501 221.178 156.66 221.105 157.711 220.681C158.762 220.258 159.648 219.507 160.238 218.539C160.828 217.572 161.09 216.44 160.985 215.312C160.88 214.184 160.414 213.12 159.657 212.277C158.899 211.435 157.889 210.86 156.779 210.637C155.668 210.415 154.515 210.556 153.491 211.041Z" fill="white"/>
</g>
<path d="M233.443 274.104C232.991 274.339 232.612 274.693 232.347 275.127C232.082 275.562 231.941 276.061 231.939 276.571C231.957 277.139 232.158 277.686 232.512 278.131C232.866 278.576 233.354 278.894 233.904 279.04C234.454 279.185 235.036 279.148 235.563 278.936C236.09 278.724 236.535 278.347 236.831 277.862C237.127 277.376 237.258 276.808 237.206 276.242C237.153 275.676 236.919 275.142 236.538 274.72C236.157 274.298 235.65 274.01 235.093 273.899C234.535 273.788 233.957 273.86 233.443 274.104Z" fill="#49A0EB"/>
<g opacity="0.8">
<path opacity="0.8" d="M233.443 274.104C232.991 274.339 232.612 274.693 232.347 275.127C232.082 275.562 231.941 276.061 231.939 276.571C231.957 277.139 232.158 277.686 232.512 278.131C232.866 278.576 233.354 278.894 233.904 279.04C234.454 279.185 235.036 279.148 235.563 278.936C236.09 278.724 236.535 278.347 236.831 277.862C237.127 277.376 237.258 276.808 237.206 276.242C237.153 275.676 236.919 275.142 236.538 274.72C236.157 274.298 235.65 274.01 235.093 273.899C234.535 273.788 233.957 273.86 233.443 274.104Z" fill="white"/>
</g>
<path d="M212.5 253.522H165.756C157.557 253.522 150.911 260.168 150.911 268.366V270.449C150.911 278.648 157.557 285.294 165.756 285.294H212.5C220.699 285.294 227.345 278.648 227.345 270.449V268.366C227.345 260.168 220.699 253.522 212.5 253.522Z" fill="#0D3344"/>
<path d="M173.765 271.51L174.284 270.359C174.922 270.803 175.679 271.044 176.457 271.051C177.359 271.051 177.728 270.75 177.728 270.344C177.728 269.111 173.892 269.953 173.892 267.509C173.892 266.388 174.802 265.456 176.675 265.456C177.465 265.444 178.244 265.644 178.931 266.035L178.465 267.193C177.909 266.869 177.28 266.693 176.637 266.682C175.727 266.682 175.381 267.02 175.381 267.434C175.381 268.644 179.217 267.81 179.217 270.231C179.217 271.329 178.299 272.277 176.419 272.277C175.477 272.293 174.552 272.026 173.765 271.51Z" fill="white"/>
<path d="M181.563 266.81H179.45V265.569H185.195V266.81H183.09V272.164H181.586L181.563 266.81Z" fill="white"/>
<path d="M190.023 270.72H186.962L186.383 272.134H184.819L187.752 265.539H189.256L192.204 272.134H190.602L190.023 270.72ZM189.542 269.562L188.496 267.035L187.451 269.562H189.542Z" fill="white"/>
<path d="M197.099 272.164L195.821 270.321H194.422V272.164H192.918V265.569H195.776C197.535 265.569 198.633 266.479 198.633 267.96C198.651 268.405 198.53 268.844 198.288 269.217C198.045 269.59 197.693 269.879 197.28 270.043L198.784 272.164H197.099ZM195.663 266.81H194.422V269.111H195.663C196.595 269.111 197.069 268.675 197.069 267.96C197.069 267.246 196.595 266.81 195.663 266.81Z" fill="white"/>
<path d="M201.085 266.81H198.979V265.569H204.724V266.81H202.611V272.164H201.107L201.085 266.81Z" fill="white"/>
<path d="M304.695 344.98L313.584 348.101L313.486 356.644C309.23 357.847 308.636 359.997 308.636 359.997L317.532 359.794L325.27 344.055L319.149 340.054L307.703 335.046" fill="#EA377D"/>
<g opacity="0.6">
<path opacity="0.6" d="M325.27 344.055L317.532 359.794L308.636 359.997L309.606 358.636L316.833 358.072L323.969 343.205L325.27 344.055Z" fill="white"/>
</g>
<path d="M313.456 352.733C313.524 352.823 314.028 352.515 314.72 352.523C315.411 352.53 315.915 352.801 315.983 352.711C316.051 352.62 315.554 352.117 314.72 352.132C313.885 352.147 313.374 352.688 313.456 352.733Z" fill="black"/>
<path d="M313.584 350.612C313.674 350.673 314.058 350.139 314.765 349.981C315.472 349.823 316.043 350.139 316.096 350.048C316.148 349.958 316.021 349.86 315.772 349.725C315.431 349.563 315.046 349.52 314.678 349.603C314.31 349.686 313.98 349.891 313.742 350.184C313.539 350.432 313.509 350.582 313.584 350.612Z" fill="black"/>
<path d="M313.434 347.89C313.531 347.935 313.825 347.416 314.441 347.191C315.058 346.965 315.614 347.153 315.659 347.048C315.705 346.943 315.562 346.883 315.314 346.8C314.983 346.687 314.624 346.693 314.297 346.817C313.971 346.94 313.697 347.174 313.524 347.477C313.396 347.702 313.388 347.875 313.434 347.89Z" fill="black"/>
<path d="M312.779 347.883C312.892 347.883 312.825 347.296 313.088 346.695C313.351 346.093 313.787 345.747 313.734 345.649C313.682 345.552 313.043 345.8 312.727 346.544C312.411 347.289 312.682 347.935 312.779 347.883Z" fill="black"/>
<path d="M311.727 346.883C311.858 346.497 311.929 346.094 311.937 345.687C311.975 345.258 312.012 344.83 312.058 344.386C312.096 344.111 312.096 343.833 312.058 343.559C312.011 343.377 311.899 343.218 311.742 343.115C311.651 343.056 311.545 343.024 311.437 343.024C311.329 343.024 311.223 343.056 311.133 343.115C310.892 343.324 310.717 343.598 310.629 343.905C310.538 344.164 310.485 344.435 310.471 344.709C310.444 345.17 310.524 345.63 310.704 346.055C311.02 346.807 311.456 347.04 311.456 347.01C311.26 346.67 311.084 346.319 310.93 345.958C310.804 345.565 310.758 345.15 310.794 344.739C310.821 344.5 310.876 344.266 310.96 344.04C311.026 343.812 311.151 343.605 311.321 343.438C311.348 343.418 311.381 343.407 311.415 343.407C311.448 343.407 311.481 343.418 311.509 343.438C311.582 343.485 311.636 343.558 311.659 343.641C311.686 343.876 311.686 344.113 311.659 344.348C311.659 344.792 311.659 345.228 311.621 345.657C311.59 346.068 311.626 346.482 311.727 346.883Z" fill="black"/>
<path d="M311.584 347.274C311.621 347.274 311.358 346.86 310.674 346.634C310.211 346.495 309.716 346.507 309.262 346.669C308.807 346.832 308.416 347.136 308.147 347.537C308.127 347.594 308.12 347.654 308.127 347.714C308.133 347.774 308.153 347.831 308.185 347.883C308.24 347.969 308.322 348.034 308.418 348.071C308.553 348.119 308.695 348.147 308.839 348.153C309.089 348.178 309.341 348.178 309.591 348.153C309.996 348.117 310.392 348.016 310.764 347.853C311.403 347.574 311.696 347.251 311.666 347.221C311.636 347.191 311.29 347.401 310.674 347.597C310.313 347.712 309.939 347.778 309.561 347.792C309.343 347.811 309.124 347.811 308.907 347.792C308.804 347.785 308.703 347.765 308.606 347.732C308.531 347.687 308.553 347.695 308.553 347.672C308.594 347.59 308.653 347.518 308.726 347.462C308.807 347.383 308.895 347.312 308.989 347.251C309.164 347.129 309.357 347.035 309.561 346.973C309.909 346.867 310.279 346.849 310.636 346.92C310.96 347.015 311.277 347.133 311.584 347.274Z" fill="black"/>
<g opacity="0.6">
<path opacity="0.6" d="M318.171 343.95C318.174 344.088 318.204 344.224 318.26 344.351C318.316 344.478 318.396 344.592 318.495 344.688C318.595 344.783 318.713 344.858 318.842 344.908C318.971 344.959 319.108 344.983 319.246 344.98C319.385 344.977 319.521 344.947 319.648 344.891C319.774 344.836 319.889 344.756 319.984 344.656C320.08 344.556 320.155 344.438 320.205 344.309C320.255 344.18 320.28 344.043 320.277 343.905C320.274 343.766 320.244 343.63 320.188 343.503C320.132 343.377 320.052 343.262 319.952 343.167C319.853 343.071 319.735 342.996 319.606 342.946C319.477 342.896 319.34 342.871 319.201 342.874C319.063 342.877 318.927 342.908 318.8 342.963C318.674 343.019 318.559 343.099 318.464 343.199C318.368 343.299 318.293 343.416 318.243 343.545C318.192 343.674 318.168 343.811 318.171 343.95Z" fill="white"/>
</g>
<path d="M259.094 341.408L259.214 353.049C259.214 353.049 247.416 357.087 247.228 359.238L269.788 359.817L270.344 341.664L259.094 341.408Z" fill="#EA377D"/>
<g opacity="0.6">
<path opacity="0.6" d="M266.208 352.252C266.423 352.324 266.603 352.473 266.716 352.67C266.828 352.867 266.864 353.098 266.817 353.32C266.752 353.537 266.607 353.721 266.412 353.835C266.217 353.95 265.985 353.986 265.764 353.936C265.536 353.859 265.345 353.7 265.226 353.491C265.106 353.282 265.068 353.036 265.118 352.801C265.208 352.579 265.381 352.402 265.6 352.305C265.818 352.208 266.066 352.2 266.291 352.282" fill="white"/>
</g>
<g opacity="0.6">
<path opacity="0.6" d="M269.818 359.817V357.982L248.168 358.117C248.168 358.117 247.145 358.523 247.243 359.238L269.818 359.817Z" fill="white"/>
</g>
<path d="M258.846 352.929C258.846 353.034 259.402 353.102 259.936 353.47C260.47 353.839 260.741 354.312 260.846 354.267C260.952 354.222 260.801 353.583 260.147 353.154C259.493 352.726 258.831 352.823 258.846 352.929Z" fill="black"/>
<path d="M256.432 353.846C256.432 353.951 256.876 354.154 257.237 354.598C257.598 355.042 257.695 355.568 257.808 355.568C257.921 355.568 258.004 354.944 257.545 354.357C257.086 353.771 256.432 353.741 256.432 353.846Z" fill="black"/>
<path d="M255.033 356.644C255.139 356.644 255.304 356.125 255.033 355.516C254.763 354.906 254.281 354.651 254.206 354.764C254.131 354.876 254.469 355.185 254.687 355.688C254.905 356.192 254.928 356.636 255.033 356.644Z" fill="black"/>
<path d="M259.117 350.267C259.162 350.372 259.666 350.267 260.29 350.267C260.914 350.267 261.395 350.537 261.455 350.44C261.515 350.342 261.057 349.943 260.32 349.883C259.583 349.823 259.064 350.184 259.117 350.267Z" fill="black"/>
<g opacity="0.3">
<path opacity="0.3" d="M259.117 343.709L259.139 345.785L270.239 345.973L270.299 344.1L259.117 343.709Z" fill="black"/>
</g>
<path d="M259.132 347.92C259.503 348.024 259.896 348.024 260.267 347.92C260.675 347.859 261.074 347.748 261.455 347.589C261.683 347.494 261.904 347.384 262.117 347.259C262.247 347.194 262.364 347.108 262.463 347.003C262.538 346.927 262.585 346.827 262.597 346.721C262.61 346.615 262.586 346.508 262.531 346.416C262.477 346.339 262.406 346.275 262.324 346.23C262.242 346.184 262.151 346.158 262.057 346.153C261.913 346.15 261.769 346.166 261.628 346.198C261.386 346.251 261.149 346.326 260.921 346.424C260.536 346.585 260.178 346.806 259.861 347.078C259.32 347.552 259.109 347.958 259.169 347.98C259.229 348.003 259.485 347.68 260.027 347.296C260.342 347.071 260.686 346.889 261.049 346.755C261.262 346.674 261.481 346.611 261.704 346.567C261.944 346.514 262.147 346.514 262.207 346.627C262.268 346.74 262.207 346.68 262.207 346.747C262.134 346.824 262.047 346.888 261.952 346.935C261.749 347.063 261.546 347.168 261.35 347.266C260.993 347.427 260.623 347.558 260.245 347.657C259.867 347.715 259.495 347.803 259.132 347.92Z" fill="black"/>
<path d="M259.275 348.086C259.493 347.765 259.606 347.384 259.598 346.995C259.632 346.578 259.591 346.158 259.478 345.755C259.414 345.514 259.323 345.282 259.207 345.063C259.15 344.911 259.055 344.777 258.931 344.673C258.808 344.569 258.659 344.498 258.5 344.469C258.399 344.468 258.299 344.497 258.214 344.552C258.129 344.607 258.061 344.685 258.019 344.777C257.959 344.906 257.916 345.043 257.891 345.183C257.855 345.432 257.855 345.686 257.891 345.935C257.938 346.361 258.094 346.767 258.342 347.116C258.771 347.71 259.222 347.868 259.237 347.815C259.252 347.762 258.891 347.537 258.568 346.965C258.383 346.637 258.271 346.273 258.237 345.897C258.22 345.679 258.232 345.459 258.274 345.243C258.32 345.003 258.41 344.815 258.5 344.837C258.59 344.86 258.801 345.025 258.891 345.221C258.995 345.419 259.083 345.625 259.154 345.837C259.269 346.205 259.332 346.587 259.342 346.973C259.342 347.657 259.214 348.063 259.275 348.086Z" fill="black"/>
<path d="M311.599 335.475L285.587 325.804L312.93 321.961L314.306 308.643L263.177 313.103L255.958 323.503L257.853 336.543L307.673 349.206L311.599 335.475Z" fill="black"/>
<path d="M256.432 344.792L253.943 297.19C254.011 294.911 254.66 292.686 255.828 290.728C256.997 288.77 258.647 287.142 260.621 286.001C262.261 285.05 264.085 284.458 265.971 284.265C267.857 284.072 269.763 284.281 271.562 284.88L304.733 295.942L322.939 300.627C322.939 300.627 326.045 308.275 324.217 314.216C322.435 320.036 316.058 323.909 310.448 322.247C303.477 320.179 271.487 306.455 271.487 306.455V345.168L256.432 344.792Z" fill="black"/>
<path d="M309.982 322.367L309.786 322.307L309.215 322.089L307.042 321.217L299.063 317.961L272.78 307.117L271.442 306.56L271.66 306.417C271.66 317.194 271.622 326.872 271.607 333.888C271.607 337.37 271.607 340.19 271.562 342.16C271.562 343.115 271.562 343.867 271.562 344.416C271.562 344.657 271.562 344.852 271.562 344.995C271.574 345.062 271.574 345.131 271.562 345.198C271.556 345.131 271.556 345.063 271.562 344.995V344.416C271.562 343.882 271.562 343.13 271.562 342.16C271.562 340.19 271.562 337.37 271.517 333.888C271.517 326.872 271.517 317.194 271.472 306.417V306.192L271.683 306.275L273.021 306.831L299.266 317.758L307.087 321.104L309.237 322.029L309.794 322.277L309.982 322.367Z" fill="#0D3344"/>
<path d="M279.345 322.428C281.751 322.849 283.946 324.064 285.579 325.879C285.512 325.947 284.331 324.849 282.571 323.894C280.812 322.939 279.315 322.518 279.345 322.428Z" fill="#0D3344"/>
<path d="M268.614 299.98C269.329 300.978 269.919 302.059 270.374 303.199C270.917 304.298 271.331 305.456 271.607 306.651C271.525 306.651 270.915 305.147 270.103 303.327C269.291 301.507 268.539 300.048 268.614 299.98Z" fill="#0D3344"/>
<path d="M268.69 279.007L262.824 277.909L256.665 284.196L257.801 288.204L264.982 285.557L268.69 279.007Z" fill="#FFBE9D"/>
<path d="M214.493 264.659L221.163 263.155L231.902 264.832L231.488 271.683C231.488 271.683 228.157 272.164 226.976 271.773C226.265 271.54 225.5 271.524 224.78 271.728C224.78 271.728 225.435 273.074 224.307 273.292C223.179 273.51 221.336 273.984 220.99 272.389C220.707 272.407 220.426 272.325 220.197 272.157C219.968 271.99 219.804 271.747 219.734 271.472C219.734 271.472 218.862 271.788 218.471 270.261C218.08 268.735 218.306 266.441 221.321 265.712C221.479 265.674 221.554 265.313 221.253 265.328L216.486 266.223C216.486 266.223 213.282 266.366 214.493 264.659Z" fill="#FFBE9D"/>
<path d="M220.17 269.434C220.539 269.32 220.921 269.252 221.306 269.231C221.724 269.168 222.146 269.13 222.569 269.118C222.713 269.121 222.854 269.154 222.983 269.214C223.113 269.275 223.228 269.363 223.321 269.472C223.414 269.605 223.468 269.762 223.476 269.924C223.484 270.086 223.446 270.247 223.366 270.389C223.209 270.615 223.007 270.805 222.773 270.949C222.539 271.092 222.278 271.186 222.005 271.224C221.6 271.339 221.188 271.429 220.772 271.495C220.39 271.57 219.996 271.57 219.614 271.495C219.983 271.395 220.357 271.317 220.734 271.261C221.08 271.186 221.486 271.081 221.93 270.938C222.156 270.882 222.377 270.809 222.592 270.72C222.808 270.616 222.988 270.452 223.111 270.246C223.167 270.154 223.196 270.049 223.196 269.942C223.196 269.834 223.167 269.729 223.111 269.637C222.97 269.48 222.772 269.386 222.562 269.374C222.133 269.374 221.69 269.419 221.336 269.427C220.949 269.478 220.558 269.48 220.17 269.434Z" fill="#EB996E"/>
<path d="M221.314 267.96C221.314 268.043 220.983 268.216 220.727 268.614C220.471 269.013 220.434 269.404 220.351 269.412C220.268 269.419 220.163 268.93 220.486 268.449C220.81 267.968 221.314 267.885 221.314 267.96Z" fill="#EB996E"/>
<path d="M223.148 270.404C223.148 270.404 223.216 270.404 223.321 270.404C223.427 270.404 223.547 270.622 223.637 270.765C223.708 270.875 223.755 270.999 223.775 271.129C223.794 271.259 223.786 271.391 223.75 271.517C223.697 271.667 223.605 271.801 223.483 271.904C223.362 272.007 223.215 272.076 223.058 272.104C222.579 272.253 222.089 272.363 221.592 272.435C221.208 272.472 220.968 272.435 220.968 272.397C220.968 272.359 221.201 272.322 221.562 272.232C221.923 272.141 222.419 271.983 222.976 271.833C223.089 271.815 223.197 271.769 223.289 271.7C223.381 271.63 223.454 271.539 223.502 271.434C223.575 271.254 223.575 271.051 223.502 270.87C223.412 270.682 223.382 270.562 223.306 270.502C223.231 270.442 223.133 270.419 223.148 270.404Z" fill="#EB996E"/>
<path d="M223.592 271.57C223.592 271.57 223.667 271.434 223.878 271.404C224.143 271.387 224.407 271.455 224.63 271.6C224.744 271.68 224.838 271.786 224.905 271.908C224.971 272.031 225.009 272.167 225.013 272.307C225.013 272.502 225.013 272.623 224.946 272.623C224.878 272.623 224.871 272.51 224.81 272.344C224.758 272.147 224.642 271.972 224.48 271.848C224.299 271.73 224.097 271.648 223.885 271.607C223.72 271.577 223.615 271.607 223.592 271.57Z" fill="#EB996E"/>
<path d="M226.916 266.246L223.908 267.441L221.088 269.442C221.088 269.442 221.088 270.133 222.69 269.878C223.697 269.709 224.66 269.335 225.517 268.78C225.517 268.78 227.615 270.103 229.473 269.795" fill="#FFBE9D"/>
<path d="M229.443 269.795C229.443 269.795 229.345 269.833 229.149 269.87C228.865 269.902 228.577 269.902 228.292 269.87C227.276 269.745 226.297 269.407 225.42 268.878H225.555C224.504 269.587 223.28 269.998 222.013 270.066C221.799 270.073 221.585 270.042 221.381 269.976C221.26 269.939 221.151 269.869 221.069 269.773C220.986 269.677 220.933 269.559 220.915 269.434V269.366L220.975 269.321L223.833 267.336C224.758 266.983 225.517 266.697 226.051 266.509C226.322 266.393 226.605 266.305 226.893 266.246C226.641 266.401 226.374 266.531 226.096 266.637C225.577 266.862 224.833 267.178 223.916 267.554L221.088 269.577L221.148 269.457C221.148 269.547 221.276 269.675 221.426 269.727C221.598 269.784 221.779 269.81 221.96 269.803C223.171 269.734 224.343 269.35 225.359 268.69L225.435 268.644H225.502C226.344 269.17 227.278 269.53 228.255 269.705C228.648 269.763 229.045 269.793 229.443 269.795Z" fill="#EB996E"/>
<path d="M222.539 266.095C222.539 266.178 222.186 266.17 221.84 265.96C221.494 265.749 221.321 265.441 221.381 265.396C221.441 265.351 221.682 265.531 221.983 265.712C222.284 265.892 222.592 266.02 222.539 266.095Z" fill="#EB996E"/>
<path d="M231.323 273.495L256.785 277.195C259.315 277.994 262.057 277.764 264.418 276.556L287.099 264.922L280.331 249.95C279.455 250.25 278.601 250.609 277.774 251.025L259.117 264.471L232.045 263.523L231.323 273.495Z" fill="#EA377D"/>
<path d="M322.45 300.514L320.826 297.664L303.47 293.318L305.515 296.852L322.45 300.514Z" fill="#FFBE9D"/>
<path d="M280.308 249.95C280.308 250.551 277.759 269.397 277.759 273.262C277.759 277.127 285.128 281.286 285.128 281.286L293.197 298.424H321.946L312.118 279.97L307.673 265.185C305.989 259.59 306.169 256.695 301.996 252.597L293.957 247.182L280.308 249.95Z" fill="#EA377D"/>
<path d="M288.655 264.824L293.483 285.083L269.133 278.24L264.982 285.58L296.664 300.003C298.558 300.864 300.694 301.035 302.701 300.486C304.708 299.936 306.46 298.701 307.651 296.995C308.387 295.942 308.887 294.742 309.117 293.478C309.347 292.214 309.301 290.915 308.982 289.67L301.89 261.959C301.661 261.056 301.247 260.209 300.674 259.473C300.102 258.737 299.384 258.127 298.565 257.682C297.746 257.236 296.844 256.964 295.915 256.884C294.986 256.804 294.051 256.916 293.167 257.214C291.627 257.73 290.324 258.783 289.496 260.18C288.667 261.577 288.369 263.225 288.655 264.824Z" fill="#EA377D"/>
<path d="M285.579 282.226C285.369 281.84 285.117 281.48 284.827 281.15C284.647 281.06 284.391 280.925 284.075 280.737C283.144 280.212 282.252 279.622 281.406 278.969C280.108 278.024 279.035 276.805 278.262 275.397C277.51 273.713 277.51 271.637 277.819 269.607C278.127 267.577 278.571 265.652 278.781 263.884C278.992 262.117 279.24 260.53 279.338 259.192C279.436 257.853 279.458 256.763 279.458 256.011C279.458 255.259 279.458 254.838 279.458 254.838C279.489 254.935 279.506 255.036 279.511 255.139C279.511 255.334 279.556 255.627 279.578 256.003C279.634 257.07 279.634 258.14 279.578 259.207C279.511 260.553 279.345 262.162 279.09 263.929C278.834 265.697 278.443 267.622 278.15 269.652C277.856 271.683 277.819 273.675 278.541 275.277C279.282 276.651 280.307 277.85 281.549 278.796C282.379 279.458 283.245 280.073 284.143 280.639C284.71 281.08 285.196 281.617 285.579 282.226Z" fill="black"/>
<path d="M295.265 248.521C295.14 248.705 294.99 248.872 294.821 249.017C294.528 249.318 294.069 249.769 293.536 250.258C292.43 251.288 290.858 252.672 289.024 254.116C287.189 255.56 285.534 256.793 284.286 257.65C283.662 258.079 283.15 258.402 282.782 258.635C282.603 258.766 282.408 258.875 282.203 258.959C282.359 258.802 282.53 258.661 282.714 258.538L284.151 257.47C285.361 256.575 287.031 255.319 288.828 253.875C290.625 252.431 292.212 251.085 293.34 250.115L294.694 248.942C294.867 248.78 295.059 248.638 295.265 248.521Z" fill="black"/>
<path d="M288.655 264.824C288.708 264.95 288.748 265.081 288.776 265.215C288.851 265.496 288.948 265.872 289.069 266.343C289.324 267.359 289.678 268.787 290.122 270.57C291.001 274.194 292.227 279.248 293.626 285.046L293.686 285.294L293.445 285.226L287.264 283.504L269.133 278.353L269.261 278.3L266.185 283.639L265.328 285.083L265.103 285.452C265.05 285.542 265.02 285.58 265.012 285.58C265.027 285.53 265.047 285.482 265.072 285.437L265.276 285.053L266.073 283.549L269.081 278.157L269.126 278.082H269.208L287.362 283.151L293.573 284.91L293.385 285.083C292.024 279.278 290.836 274.217 289.979 270.585C289.573 268.795 289.227 267.351 289.016 266.336C288.911 265.855 288.828 265.479 288.768 265.193C288.721 265.073 288.683 264.95 288.655 264.824Z" fill="black"/>
<path d="M301.996 263.561C302.051 263.673 302.091 263.792 302.116 263.914C302.191 264.178 302.281 264.508 302.402 264.922L303.379 268.682C304.184 271.871 305.289 276.202 306.5 281.022C307.094 283.436 307.681 285.73 308.177 287.836C308.671 289.698 308.826 291.634 308.636 293.551C308.482 294.848 308.018 296.089 307.282 297.168C307.018 297.565 306.687 297.913 306.305 298.198C306.619 297.852 306.911 297.485 307.177 297.1C307.867 296.021 308.294 294.795 308.425 293.521C308.577 291.629 308.399 289.726 307.899 287.896C307.372 285.805 306.801 283.512 306.199 281.128L303.191 268.765L302.304 265.005L302.078 263.982C302.039 263.844 302.011 263.703 301.996 263.561Z" fill="black"/>
<g opacity="0.3">
<path opacity="0.3" d="M306.418 298.409C309.982 298.732 312.05 296.702 312.434 293.897C312.518 292.351 312.245 290.808 311.636 289.385C309.448 282.978 307.237 276.518 303.771 270.697C305.079 276.518 306.778 282.105 308.064 287.926C308.48 289.544 308.665 291.212 308.613 292.881C308.532 294.918 307.757 296.865 306.418 298.401" fill="black"/>
</g>
<path d="M277.187 269.216C276.64 268.751 276.154 268.218 275.743 267.629C274.694 266.258 273.798 264.775 273.074 263.208C272.348 261.637 271.8 259.99 271.442 258.297C271.262 257.602 271.171 256.887 271.171 256.169C271.389 256.845 271.57 257.533 271.713 258.229C272.144 259.88 272.717 261.491 273.427 263.042C274.142 264.588 274.992 266.068 275.969 267.464C276.736 268.569 277.232 269.216 277.187 269.216Z" fill="#FCFCFC"/>
<path d="M270.209 273.375C269.772 272.872 269.389 272.325 269.066 271.743C268.404 270.705 267.562 269.246 266.644 267.599C265.727 265.952 264.99 264.433 264.478 263.32C264.164 262.734 263.912 262.117 263.726 261.478C264.106 262.02 264.433 262.596 264.704 263.2L266.96 267.411C267.825 268.99 268.614 270.419 269.269 271.6C269.634 272.163 269.948 272.757 270.209 273.375Z" fill="#FCFCFC"/>
<path d="M260.606 277.12C260.088 275.141 259.697 273.132 259.432 271.104C259.041 269.094 258.778 267.062 258.643 265.02C259.16 266.998 259.552 269.008 259.816 271.036C260.211 273.044 260.475 275.077 260.606 277.12Z" fill="#FCFCFC"/>
<path d="M252.063 276.54C251.926 275.979 251.861 275.403 251.867 274.826C251.8 273.758 251.762 272.284 251.8 270.652C251.837 269.02 251.95 267.554 252.063 266.494C252.085 265.915 252.178 265.342 252.341 264.787C252.403 265.359 252.403 265.936 252.341 266.509C252.296 267.577 252.236 269.043 252.191 270.66C252.146 272.277 252.146 273.751 252.146 274.818C252.184 275.394 252.156 275.971 252.063 276.54Z" fill="#FCFCFC"/>
<path d="M243.513 264.102C243.646 264.624 243.717 265.159 243.723 265.697C243.798 266.689 243.843 268.065 243.821 269.584C243.798 271.104 243.693 272.48 243.58 273.465C243.562 274.006 243.471 274.542 243.31 275.059C243.197 275.059 243.377 272.6 243.422 269.577C243.468 266.554 243.392 264.11 243.513 264.102Z" fill="#FCFCFC"/>
<path d="M236.489 265.005C236.543 266.537 236.47 268.072 236.271 269.592C236.202 271.123 235.998 272.646 235.662 274.142C235.676 271.078 235.953 268.021 236.489 265.005Z" fill="#FCFCFC"/>
<path d="M278.819 258.049C278.706 258.049 278.255 256.831 277.488 255.402C276.721 253.973 275.984 252.89 276.044 252.822C277.484 254.238 278.453 256.063 278.819 258.049Z" fill="#FCFCFC"/>
<path d="M292.054 278.511C291.865 278.57 291.666 278.593 291.468 278.578C290.928 278.601 290.388 278.588 289.851 278.541C288.072 278.404 286.323 278.014 284.655 277.383C282.982 276.762 281.405 275.909 279.97 274.848C279.535 274.528 279.121 274.181 278.729 273.811C278.451 273.547 278.308 273.397 278.33 273.375C278.353 273.352 279.015 273.871 280.127 274.623C283.053 276.592 286.403 277.841 289.904 278.27C291.212 278.436 292.054 278.443 292.054 278.511Z" fill="#FCFCFC"/>
<path d="M289.309 268.908C288.782 268.931 288.255 268.872 287.745 268.735C286.497 268.499 285.268 268.172 284.068 267.757C282.865 267.347 281.696 266.844 280.571 266.253C280.085 266.043 279.632 265.764 279.225 265.426C279.285 265.321 281.406 266.426 284.196 267.381C286.986 268.336 289.332 268.795 289.309 268.908Z" fill="#FCFCFC"/>
<path d="M287.715 262.004C286.356 262.09 284.995 261.872 283.731 261.366C282.466 260.86 281.331 260.079 280.406 259.079C282.558 260.653 285.072 261.659 287.715 262.004Z" fill="#FCFCFC"/>
<path d="M298.973 257.086C298.935 257.146 298.348 256.748 297.281 256.447C295.889 256.061 294.413 256.116 293.054 256.605C291.704 257.121 290.552 258.05 289.761 259.26C289.144 260.184 288.963 260.869 288.896 260.846C288.961 260.225 289.175 259.63 289.52 259.109C290.285 257.787 291.485 256.772 292.916 256.238C294.347 255.705 295.92 255.685 297.363 256.184C297.964 256.353 298.515 256.662 298.973 257.086Z" fill="#FCFCFC"/>
<path d="M300.304 266.321C299.921 266.639 299.489 266.893 299.025 267.073C296.853 268.016 294.504 268.482 292.137 268.441C291.647 268.471 291.156 268.415 290.686 268.276C290.686 268.156 292.942 268.276 295.574 267.742C298.206 267.208 300.251 266.208 300.304 266.321Z" fill="#FCFCFC"/>
<path d="M304.154 277.909C302.419 278.275 300.66 278.514 298.89 278.624C297.125 278.859 295.346 278.967 293.566 278.947C295.3 278.577 297.06 278.339 298.83 278.232C300.594 277.996 302.374 277.888 304.154 277.909Z" fill="#FCFCFC"/>
<path d="M307.568 293.964C307.362 293.957 307.159 293.917 306.967 293.844C306.433 293.696 305.908 293.518 305.395 293.31C303.693 292.626 302.068 291.767 300.544 290.746C299.029 289.728 297.568 288.631 296.168 287.46C295.561 287.012 294.997 286.508 294.483 285.956C295.121 286.34 295.724 286.778 296.288 287.264C297.409 288.099 298.95 289.264 300.717 290.437C302.225 291.44 303.809 292.322 305.455 293.077C306.741 293.626 307.568 293.904 307.568 293.964Z" fill="#FCFCFC"/>
<path d="M289.317 296.408C289.191 295.849 289.151 295.273 289.197 294.701C289.256 291.932 289.918 289.209 291.137 286.723C291.356 286.194 291.655 285.702 292.024 285.264C291.269 287.032 290.631 288.848 290.114 290.701C289.727 292.584 289.461 294.491 289.317 296.408Z" fill="#FCFCFC"/>
<path d="M280.15 291.498C279.859 288.343 280.823 285.2 282.835 282.752C282.129 284.121 281.516 285.535 281 286.986C280.612 288.468 280.328 289.976 280.15 291.498Z" fill="#FCFCFC"/>
<path d="M275.037 279.496C273.979 280.753 273.042 282.108 272.239 283.542C271.553 285.035 271.011 286.592 270.622 288.189C270.57 287.685 270.609 287.176 270.735 286.685C270.96 285.516 271.348 284.385 271.886 283.324C272.424 282.262 273.11 281.282 273.924 280.413C274.241 280.047 274.617 279.737 275.037 279.496Z" fill="#FCFCFC"/>
<path d="M308.816 268.99C308.253 269.694 307.517 270.238 306.68 270.57C305.842 270.903 304.933 271.011 304.041 270.885C304.041 270.765 305.214 270.735 306.53 270.201C307.846 269.667 308.734 268.908 308.816 268.99Z" fill="#FCFCFC"/>
<path d="M305.372 258.44C305.113 259.195 304.621 259.848 303.966 260.305C303.389 260.861 302.648 261.215 301.853 261.312C301.853 261.207 302.755 260.794 303.718 259.996C304.68 259.199 305.312 258.372 305.372 258.44Z" fill="#FCFCFC"/>
<path d="M293.092 251.416C293.759 251.811 294.285 252.406 294.596 253.116C295.021 253.768 295.239 254.533 295.22 255.312C295.107 255.312 294.837 254.372 294.25 253.304C293.664 252.236 293.017 251.491 293.092 251.416Z" fill="#FCFCFC"/>
<path d="M311.328 278.924C310.673 279.511 309.869 279.907 309.004 280.067C308.173 280.348 307.28 280.392 306.425 280.195C306.425 280.082 307.568 280.037 308.907 279.684C310.245 279.33 311.283 278.827 311.328 278.924Z" fill="#FCFCFC"/>
<path d="M316.592 288.181C313.88 288.673 311.128 288.904 308.373 288.873C309.716 288.564 311.086 288.383 312.463 288.332C313.831 288.146 315.214 288.096 316.592 288.181Z" fill="#FCFCFC"/>
<path d="M320.247 295.626C316.211 295.787 312.17 295.686 308.147 295.325C312.182 295.165 316.224 295.265 320.247 295.626Z" fill="#FCFCFC"/>
<path d="M293.634 220.998C294.137 223.547 297.8 224.562 298.145 227.134C298.296 228.232 297.769 229.33 297.815 230.443C297.86 231.947 298.905 233.203 299.431 234.601C300.529 237.489 299.296 240.911 296.972 242.949C294.649 244.987 291.475 245.814 288.392 245.874" fill="black"/>
<path d="M272.893 223.63C273.217 224.991 272.502 226.359 271.75 227.54C270.998 228.721 270.148 229.954 270.164 231.345C270.164 233.827 272.916 235.699 272.811 238.173C272.75 239.497 271.863 240.693 271.878 242.024C271.942 242.664 272.142 243.283 272.465 243.839C272.788 244.396 273.227 244.877 273.751 245.25C274.728 246.077 275.676 245.784 276.578 246.701C277.619 247.725 278.861 248.522 280.225 249.04C283.105 250.07 285.963 247.461 287.189 246.882" fill="black"/>
<path d="M294.385 222.389C294.22 221.133 292.881 220.351 291.678 220.08C290.475 219.81 289.129 219.84 287.978 219.328C287.023 218.751 286.126 218.081 285.301 217.328C284.19 216.507 282.88 215.996 281.506 215.849C280.133 215.701 278.744 215.922 277.484 216.489C276.224 217.055 275.137 217.947 274.336 219.073C273.534 220.198 273.047 221.517 272.923 222.893C272.758 224.743 273.397 226.796 274.984 227.758C276.826 228.871 279.195 228.187 281.21 227.427C283.226 226.668 285.519 225.878 287.452 226.826C288.557 227.516 289.503 228.434 290.227 229.518C291.039 230.526 292.024 231.533 293.302 231.774C294.581 232.015 296.115 231.022 295.965 229.728" fill="black"/>
<path d="M294.822 249.017L291.814 224.66C291.741 224.135 291.475 223.657 291.067 223.318C290.659 222.98 290.139 222.807 289.61 222.833L278.09 221.757C274.48 221.938 272.826 226.675 273.127 230.277C273.495 234.271 274.097 239.144 275.029 242.024C276.894 247.814 281.564 247.859 281.564 247.859C281.564 247.859 282.406 256.432 282.752 258.538" fill="#FFBE9D"/>
<path d="M274.676 234.722C274.688 234.822 274.719 234.918 274.769 235.005C274.819 235.093 274.886 235.169 274.966 235.23C275.046 235.291 275.137 235.335 275.235 235.36C275.332 235.386 275.433 235.391 275.533 235.376C275.73 235.357 275.911 235.261 276.038 235.109C276.165 234.957 276.226 234.761 276.21 234.564C276.198 234.464 276.166 234.368 276.116 234.28C276.066 234.193 275.999 234.117 275.919 234.056C275.839 233.995 275.748 233.95 275.651 233.925C275.553 233.9 275.452 233.895 275.352 233.91C275.155 233.929 274.974 234.025 274.847 234.177C274.72 234.329 274.659 234.525 274.676 234.722Z" fill="black"/>
<path d="M274.48 233.218C274.593 233.308 275.104 232.789 275.924 232.661C276.744 232.533 277.428 232.857 277.481 232.736C277.533 232.616 277.39 232.526 277.105 232.376C276.711 232.183 276.267 232.117 275.834 232.188C275.406 232.253 275.011 232.453 274.706 232.759C274.48 232.992 274.405 233.18 274.48 233.218Z" fill="black"/>
<path d="M282.94 233.511C282.952 233.61 282.984 233.706 283.033 233.793C283.083 233.879 283.149 233.955 283.228 234.016C283.307 234.077 283.397 234.122 283.494 234.147C283.59 234.173 283.691 234.179 283.79 234.165C283.985 234.146 284.166 234.051 284.292 233.901C284.419 233.751 284.481 233.557 284.467 233.361C284.455 233.262 284.423 233.166 284.374 233.079C284.324 232.992 284.258 232.916 284.179 232.855C284.1 232.795 284.009 232.75 283.913 232.724C283.816 232.699 283.716 232.693 283.617 232.706C283.421 232.726 283.241 232.82 283.115 232.971C282.988 233.121 282.925 233.315 282.94 233.511Z" fill="black"/>
<path d="M282.541 232.12C282.654 232.203 283.165 231.684 283.985 231.563C284.805 231.443 285.489 231.751 285.542 231.639C285.594 231.526 285.452 231.42 285.158 231.27C284.766 231.08 284.325 231.017 283.895 231.09C283.469 231.156 283.075 231.353 282.767 231.654C282.549 231.887 282.489 232.082 282.541 232.12Z" fill="black"/>
<path d="M280.496 238.662C280.042 238.608 279.582 238.608 279.127 238.662C278.917 238.662 278.714 238.662 278.654 238.519C278.6 238.307 278.616 238.083 278.699 237.88C278.812 237.346 278.939 236.782 279.067 236.188C279.434 234.749 279.685 233.283 279.819 231.804C279.338 233.211 278.971 234.655 278.721 236.12C278.601 236.717 278.488 237.281 278.383 237.813C278.285 238.085 278.285 238.382 278.383 238.655C278.425 238.724 278.481 238.783 278.549 238.828C278.617 238.872 278.694 238.9 278.774 238.91C278.897 238.922 279.02 238.922 279.143 238.91C279.603 238.887 280.058 238.804 280.496 238.662Z" fill="black"/>
<path d="M281.534 247.859C284.318 247.527 286.946 246.393 289.099 244.596C288.467 246.034 287.432 247.259 286.119 248.121C284.806 248.983 283.27 249.446 281.699 249.453L281.534 247.859Z" fill="#EB996E"/>
<path d="M281.165 240.587C281.292 240.368 281.472 240.183 281.689 240.052C281.906 239.92 282.153 239.846 282.406 239.835C282.589 239.824 282.773 239.85 282.946 239.91C283.119 239.971 283.278 240.066 283.414 240.189C283.545 240.309 283.636 240.466 283.675 240.64C283.713 240.813 283.699 240.994 283.632 241.159C283.524 241.327 283.368 241.458 283.184 241.536C283 241.614 282.797 241.634 282.602 241.595C282.191 241.521 281.8 241.365 281.451 241.136C281.352 241.082 281.261 241.013 281.18 240.933C281.145 240.891 281.121 240.84 281.113 240.786C281.105 240.731 281.113 240.675 281.135 240.625" fill="#EB996E"/>
<path d="M283.015 238.858C282.88 238.858 283.015 239.76 282.353 240.505C281.692 241.249 280.729 241.309 280.737 241.43C280.744 241.55 280.977 241.572 281.383 241.52C281.909 241.437 282.389 241.17 282.737 240.768C283.071 240.389 283.248 239.897 283.233 239.392C283.211 239.046 283.075 238.843 283.015 238.858Z" fill="black"/>
<path d="M281.804 229.886C281.925 230.097 282.729 229.886 283.707 229.826C284.685 229.766 285.504 229.932 285.602 229.713C285.7 229.495 285.474 229.42 285.128 229.255C284.669 229.054 284.17 228.962 283.67 228.984C283.169 229.006 282.68 229.143 282.241 229.383C281.91 229.578 281.759 229.781 281.804 229.886Z" fill="black"/>
<path d="M274.39 230.804C274.563 230.962 275.097 230.683 275.773 230.571C276.45 230.458 277.052 230.496 277.149 230.285C277.247 230.074 277.074 230.007 276.796 229.871C276.428 229.706 276.018 229.662 275.623 229.744C275.224 229.81 274.856 229.999 274.57 230.285C274.36 230.518 274.314 230.721 274.39 230.804Z" fill="black"/>
<path d="M295.153 242.896C293.573 243.483 293.295 242.678 291.896 241.73C291.199 241.252 290.623 240.618 290.215 239.877C289.806 239.137 289.576 238.312 289.543 237.467C289.498 235.963 290.046 234.368 289.325 233.067C288.362 231.353 285.715 231.195 284.752 229.48C284.188 228.48 284.346 227.187 283.737 226.224C283.404 225.802 282.99 225.451 282.518 225.193C282.046 224.934 281.528 224.774 280.992 224.72C279.919 224.615 278.869 224.344 277.879 223.916C276.939 223.397 276.225 222.246 276.623 221.246C281.143 221.079 285.667 221.45 290.099 222.351C291.147 222.466 292.133 222.905 292.919 223.607C293.579 224.506 293.939 225.59 293.949 226.705C294.546 232.075 295.138 237.447 295.724 242.821" fill="black"/>
<path d="M296.972 230.187C296.913 229.186 297.182 228.193 297.738 227.357C298.293 226.522 299.106 225.891 300.052 225.559C300.999 225.227 302.028 225.212 302.984 225.516C303.939 225.821 304.77 226.428 305.35 227.247C305.844 228.057 306.156 228.965 306.263 229.908C306.371 230.851 306.272 231.806 305.974 232.706C305.38 234.88 303.8 237.023 301.559 237.271C299.461 237.504 297.491 235.94 296.574 234.03C295.656 232.12 295.559 229.939 295.476 227.826" fill="black"/>
<path d="M299.424 238.143C299.535 238.029 299.622 237.893 299.68 237.745C299.854 237.349 299.941 236.921 299.935 236.489C299.923 235.849 299.804 235.216 299.582 234.616C299.356 233.94 299.003 233.248 298.709 232.496C298.406 231.808 298.242 231.067 298.228 230.315C298.228 229.638 298.469 229.029 298.529 228.48C298.594 228.049 298.537 227.609 298.364 227.209C298.221 226.931 298.07 226.826 298.063 226.841C298.055 226.856 298.161 226.976 298.266 227.247C298.393 227.637 298.419 228.054 298.341 228.458C298.185 229.066 298.067 229.684 297.988 230.308C297.988 231.084 298.15 231.852 298.461 232.564C298.762 233.316 299.123 234.015 299.356 234.669C299.576 235.243 299.708 235.846 299.747 236.459C299.768 237.038 299.657 237.613 299.424 238.143Z" fill="#0D3344"/>
<path d="M298.386 230.992C298.67 231.322 299.028 231.58 299.431 231.744C300.382 232.215 301.453 232.389 302.503 232.241C303.554 232.094 304.536 231.632 305.319 230.917C305.66 230.646 305.935 230.301 306.124 229.909C306.086 229.909 305.808 230.285 305.199 230.774C304.413 231.411 303.47 231.826 302.469 231.977C301.466 232.111 300.444 231.97 299.514 231.571C298.792 231.27 298.409 230.954 298.386 230.992Z" fill="#0D3344"/>
<path d="M298.822 231.879C298.984 232.202 299.206 232.49 299.477 232.729C300.092 233.35 300.829 233.836 301.642 234.158C302.448 234.488 303.313 234.652 304.184 234.639C304.545 234.659 304.905 234.606 305.244 234.481C304.894 234.46 304.542 234.46 304.192 234.481C302.495 234.406 300.876 233.75 299.604 232.624C299.359 232.359 299.098 232.111 298.822 231.879Z" fill="#0D3344"/>
<path d="M298.619 240.302C298.619 240.302 298.619 240.302 298.679 240.219C298.725 240.134 298.765 240.046 298.8 239.956C298.944 239.607 299.023 239.235 299.033 238.858C299.05 238.257 298.921 237.661 298.657 237.121C298.311 236.39 297.717 235.806 296.98 235.474C296.095 235.187 295.264 234.755 294.521 234.195C294.342 234.021 294.202 233.811 294.109 233.579C294.016 233.347 293.971 233.099 293.979 232.849C294.01 232.3 294.101 231.755 294.25 231.225C294.394 230.624 294.411 229.999 294.301 229.391C294.191 228.782 293.956 228.203 293.611 227.691C293.246 227.143 292.753 226.694 292.174 226.382C291.565 226.093 290.901 225.934 290.227 225.916C289.565 225.871 288.911 225.916 288.287 225.803C287.674 225.743 287.085 225.534 286.572 225.194C286.108 224.829 285.782 224.317 285.647 223.743C285.5 223.169 285.314 222.606 285.091 222.058C284.658 221.033 283.95 220.148 283.045 219.501C282.246 218.946 281.296 218.649 280.323 218.652C279.514 218.638 278.723 218.886 278.067 219.358C277.578 219.709 277.185 220.177 276.924 220.72C276.758 221.06 276.654 221.426 276.616 221.802C276.598 221.932 276.598 222.064 276.616 222.193C276.648 221.696 276.781 221.21 277.007 220.765C277.323 220.169 277.798 219.673 278.38 219.332C278.961 218.99 279.626 218.817 280.3 218.832C281.232 218.844 282.137 219.141 282.895 219.682C283.761 220.311 284.438 221.167 284.85 222.156C285.059 222.699 285.237 223.254 285.384 223.818C285.534 224.444 285.892 225 286.399 225.397C286.943 225.769 287.571 225.999 288.226 226.066C288.881 226.156 289.535 226.134 290.189 226.179C290.825 226.196 291.451 226.347 292.024 226.623C292.569 226.907 293.035 227.323 293.378 227.833C293.704 228.319 293.926 228.867 294.031 229.443C294.136 230.019 294.121 230.61 293.987 231.18C293.839 231.725 293.751 232.285 293.724 232.849C293.715 233.129 293.766 233.408 293.872 233.667C293.978 233.926 294.138 234.16 294.34 234.353C295.106 234.931 295.966 235.371 296.882 235.654C297.581 235.95 298.154 236.482 298.499 237.158C298.764 237.678 298.903 238.252 298.905 238.835C298.907 239.338 298.81 239.836 298.619 240.302Z" fill="#0D3344"/>
<path d="M295.604 223.788C295.626 223.694 295.626 223.596 295.604 223.502C295.582 223.224 295.471 222.96 295.288 222.75C294.994 222.412 294.598 222.179 294.16 222.088C293.58 221.995 292.986 222.068 292.445 222.299C291.844 222.517 291.235 222.863 290.55 223.111C290.206 223.269 289.831 223.351 289.452 223.351C289.073 223.351 288.699 223.269 288.354 223.111C287.653 222.619 287.095 221.949 286.738 221.171C286.281 220.328 285.689 219.566 284.985 218.915C283.623 217.652 281.88 216.877 280.03 216.711C279.218 216.657 278.405 216.809 277.669 217.155C277.026 217.461 276.484 217.944 276.104 218.546C275.796 219.051 275.653 219.641 275.698 220.231C275.727 220.671 275.864 221.097 276.097 221.472C276.239 221.708 276.425 221.915 276.646 222.081C276.724 222.135 276.807 222.183 276.894 222.224C276.613 221.997 276.371 221.725 276.18 221.419C275.977 221.049 275.861 220.637 275.841 220.216C275.818 219.661 275.964 219.113 276.262 218.644C276.632 218.08 277.153 217.631 277.766 217.351C278.472 217.028 279.249 216.894 280.022 216.96C281.812 217.129 283.496 217.885 284.813 219.11C285.496 219.736 286.074 220.467 286.527 221.276C286.904 222.091 287.497 222.788 288.242 223.291C288.622 223.493 289.053 223.582 289.482 223.547C289.877 223.516 290.265 223.428 290.633 223.284C291.347 223.013 291.941 222.66 292.521 222.434C293.027 222.206 293.587 222.123 294.137 222.193C294.55 222.268 294.927 222.474 295.213 222.78C295.399 222.97 295.52 223.215 295.559 223.479C295.611 223.682 295.589 223.788 295.604 223.788Z" fill="#0D3344"/>
</svg>
