<svg width="262" height="280" viewBox="0 0 262 280" fill="none" xmlns="http://www.w3.org/2000/svg">
<path d="M39.7518 162.714C24.2046 162.714 11.4965 161.272 11.0909 159.469L13.3891 186.643C13.3891 199.531 25.2411 210.031 39.7518 210.031C54.2624 210.031 66.1144 199.486 66.1144 186.643L68.4126 159.469C68.0972 161.272 55.3891 162.714 39.7518 162.714Z" fill="#DEC7B2"/>
<path d="M39.7516 162.714C23.9341 162.714 11.1358 161.227 11.0457 159.424V159.379C11.1809 157.532 23.9791 156.089 39.7516 156.089C55.5241 156.089 68.2773 157.577 68.4576 159.379V159.424C68.3675 161.272 55.5241 162.714 39.7516 162.714Z" fill="#E8D4C1"/>
<path d="M39.7517 162.173C26.4127 162.173 15.5972 160.911 15.5522 159.379V159.334C15.6874 157.802 26.4577 156.54 39.7517 156.54C53.0456 156.54 63.8611 157.757 63.9512 159.334V159.379C63.9061 160.911 53.0907 162.173 39.7517 162.173Z" fill="#BA9C7E"/>
<path d="M12.0822 171.141C13.9298 171.186 15.7324 171.907 17.3097 173.439C20.2388 176.278 22.0865 180.694 24.4749 184.029C25.3762 182.227 26.1423 180.379 26.8633 178.486C27.7195 176.233 30.7388 174.115 33.1272 175.963C35.6508 177.9 37.5435 180.154 39.2109 182.902C40.6079 185.291 41.7796 188.085 43.9877 189.887C46.1057 191.6 48.5392 192.096 49.3954 189.031C50.1615 186.372 49.8911 183.488 50.7474 180.784C51.4684 178.576 52.595 176.233 54.8933 175.242C57.5971 174.07 60.2108 175.512 62.5993 176.729C64.0413 177.45 65.4383 178.216 66.8353 179.027L66.3396 184.75C63.861 183.218 60.8868 181.325 58.3632 180.965C56.786 180.739 56.8761 181.821 56.786 183.308C56.6959 184.66 56.6958 186.012 56.6508 187.319C56.5156 190.068 56.11 192.772 54.4877 195.025C51.0177 199.892 44.5285 199.666 39.977 196.557C37.4984 194.89 35.741 192.727 34.1637 190.248C33.668 189.437 33.1723 188.581 32.6766 187.769C30.7388 192.321 27.7195 196.377 22.8075 194.664C19.7431 193.583 17.7603 190.248 15.9127 187.769C15.3268 187.003 14.2904 185.111 13.2539 183.443L12.0822 171.141Z" fill="#EBDBCD"/>
<path d="M0.816154 69.9266C1.40199 67.6283 4.15091 67.2678 5.77322 68.6197C8.83759 71.1884 10.4148 74.7034 12.1273 78.2184C13.8848 81.9137 16.0479 85.2935 18.5715 88.4931C23.7088 95.0274 29.432 101.156 33.2174 108.637C40.5178 123.193 42.2753 140.317 37.2281 155.909C37.0929 156.405 38.0392 153.926 36.462 158.253C35.065 162.173 29.477 160.055 29.5672 155.504C29.6122 151.042 28.4405 146.896 26.4577 142.931C22.5371 135.09 17.6702 127.789 13.8397 119.858C10.0093 111.881 6.58438 103.68 3.88052 95.2978C1.17666 87.1862 -1.34693 78.4888 0.816154 69.9266Z" fill="#4C7378"/>
<path d="M36.5971 24.2765C38.5349 20.7164 44.3482 23.1499 43.1765 27.0254C39.7967 38.5168 42.2302 50.7292 44.3031 62.2206C46.4211 73.9824 48.8997 85.654 50.3868 97.5059C52.9555 118.551 52.1443 142.21 38.8053 159.785C37.3632 161.677 34.3439 160.1 35.5156 157.847C36.8224 155.368 33.4877 138.965 32.0456 133.693C30.5585 128.285 29.0263 122.832 27.6744 117.424C25.0156 106.789 22.8525 95.9287 22.2667 84.933C21.1401 63.6176 26.4126 42.9331 36.5971 24.2765Z" fill="#57848A"/>
<path d="M42.9513 141.308C44.5285 134.143 43.3568 126.572 44.889 119.407C46.3761 112.422 48.4491 105.302 51.6937 98.9027C54.8031 92.819 59.5349 88.4928 65.0778 84.7525C70.3053 81.1924 76.4791 77.7224 78.3267 71.2332C79.4083 67.4027 85.9876 67.9435 85.5821 72.2246C84.7258 80.922 81.0306 88.583 76.7945 96.0637C72.243 104.04 68.2774 111.701 66.0242 120.624C62.1937 135.991 58.904 155.909 41.374 160.596C39.301 161.182 39.6165 156.63 42.9513 141.308Z" fill="#689399"/>
<path d="M228.571 13.1458L227.715 12.3346L236.007 3.41185L242.496 12.4247L241.504 13.1007L235.916 5.34964L228.571 13.1458Z" fill="#E8D4C1"/>
<path d="M199.234 244.145C196.846 244.776 194.277 243.154 193.151 240.314L186.887 224.452C185.49 220.982 186.932 217.151 189.816 216.385L193.691 215.349C196.621 214.583 199.685 217.197 200.226 220.892L202.614 237.791C203.02 240.81 201.578 243.514 199.234 244.145Z" fill="#7A5B3C"/>
<path d="M99.5972 244.145C101.986 244.776 104.554 243.154 105.681 240.314L111.945 224.452C113.342 220.982 111.9 217.151 109.016 216.385L105.14 215.349C102.211 214.583 99.1465 217.197 98.6057 220.892L96.2173 237.791C95.7667 240.81 97.2088 243.514 99.5972 244.145Z" fill="#7A5B3C"/>
<path d="M214.06 259.647C210.951 260.458 207.616 258.34 206.174 254.645L198.063 234.051C196.305 229.544 198.108 224.587 201.893 223.596L206.94 222.289C210.726 221.297 214.736 224.677 215.457 229.499L218.522 251.445C219.063 255.321 217.17 258.836 214.06 259.647Z" fill="#A67C52"/>
<path d="M84.7259 259.647C87.8354 260.458 91.1701 258.34 92.6122 254.645L100.724 234.051C102.481 229.544 100.679 224.587 96.8933 223.596L91.8461 222.289C88.0607 221.297 84.0499 224.677 83.3289 229.499L80.2645 251.445C79.7688 255.321 81.6165 258.836 84.7259 259.647Z" fill="#A67C52"/>
<path d="M223.884 177.811H77.2002C68.4126 177.811 61.2023 170.645 61.2023 161.813V101.111C61.2023 92.3237 68.3676 85.1134 77.2002 85.1134H223.884C232.672 85.1134 239.882 92.2786 239.882 101.111V161.813C239.882 170.645 232.672 177.811 223.884 177.811Z" fill="#0D3344"/>
<path d="M229.337 147.933C226.633 147.978 224.38 150.051 224.155 152.755C223.163 163.075 220.234 186.598 213.88 198.315C209.509 206.381 196.62 207.102 193.196 207.147H107.754C104.329 207.102 91.4855 206.381 87.0692 198.315C80.7152 186.598 77.7409 163.12 76.7946 152.755C76.5242 150.051 74.316 148.023 71.6122 147.933L44.4384 147.527C41.329 147.482 38.8504 150.096 39.0758 153.205C39.977 166.094 43.5371 197.774 57.2817 218.188C64.7624 229.229 76.389 232.654 79.3182 233.375C80.9856 233.916 221.226 233.6 222.352 233.33C226.093 232.293 236.683 228.508 243.668 218.233C257.457 197.864 261.017 166.139 261.874 153.251C262.099 150.141 259.62 147.527 256.511 147.572L229.337 147.933Z" fill="#0D3344"/>
<path d="M107.709 207.283H193.241C196.666 207.238 209.554 206.517 213.925 198.45C220.685 186.012 223.569 160.281 224.425 151.088C224.605 149.15 224.2 147.212 223.299 145.5L217.666 134.819C217.35 134.234 216.449 134.369 216.359 135C214.827 142.615 209.103 169.924 206.129 171.907C202.659 174.206 96.8032 172.223 92.7474 171.907C89.2774 171.682 85.6723 143.607 84.6809 135.315C84.5907 134.639 83.6444 134.459 83.3289 135.09L77.8762 145.409C76.9298 147.212 76.5242 149.24 76.7045 151.223C77.5156 160.371 80.3998 186.103 87.1594 198.45C91.4405 206.472 104.329 207.238 107.709 207.283Z" fill="#175F9D"/>
<path d="M201.578 207.148H97.2087C96.8933 207.148 96.6229 207.148 96.3525 207.102C85.8526 206.697 79.0929 196.648 82.9234 187.635L87.6551 176.504C88.0607 175.558 89.0071 173.079 89.0071 173.079C93.0629 164.021 99.507 161.768 108.475 161.768H190.357C199.324 161.768 207.526 166.409 210.005 173.53C210.005 173.53 210.771 175.558 211.176 176.504L215.908 187.635C219.739 196.648 212.979 206.697 202.479 207.102C202.163 207.148 201.848 207.148 201.578 207.148Z" fill="#49A0EB"/>
<path d="M76.7495 151.133C76.5692 149.105 76.9748 147.077 77.9211 145.319L83.3739 135C83.6894 134.414 84.5005 134.549 84.6808 135.135C84.6808 135.135 84.5456 133.242 80.625 132.972H65.213C62.5542 132.972 59.9405 133.738 57.6873 135.18L43.5821 144.328C40.6079 146.266 38.8504 149.645 39.0307 153.205C38.8053 150.096 41.2839 147.482 44.3933 147.527L71.5671 147.933C74.0907 147.978 76.2087 149.781 76.7044 152.214L76.7495 152.259C76.7945 151.899 76.7495 151.493 76.7495 151.133Z" fill="#49A0EB"/>
<path d="M224.425 151.133C224.606 149.105 224.02 147.122 223.073 145.319L217.621 135.045C217.305 134.459 216.494 134.594 216.314 135.18C216.314 135.18 216.449 133.287 220.37 133.017H235.736C238.395 133.017 241.054 133.783 243.262 135.225L257.367 144.373C260.387 146.311 262.099 149.735 261.919 153.251C262.144 150.141 259.62 147.527 256.556 147.572L229.382 147.978C226.814 148.023 224.831 149.826 224.38 152.259C224.335 152.304 224.38 151.493 224.425 151.133Z" fill="#49A0EB"/>
<path d="M219.919 171.817C219.919 171.817 224.335 172.312 227.535 175.602C230.734 178.892 229.653 184.39 227.535 186.102C223.839 189.031 216.719 189.031 211.357 189.031C205.994 189.031 202.434 187.815 202.434 187.815L209.284 170.825C209.284 170.825 213.565 170.059 219.919 171.817Z" fill="#5489B6"/>
<path d="M156.649 223.235C153.99 228.057 151.376 232.834 148.762 237.611C147.005 240.81 149.438 245.181 152.503 246.398C156.243 247.885 159.533 245.857 161.29 242.658C163.949 237.836 166.563 233.059 169.176 228.282C170.934 225.083 168.5 220.711 165.436 219.495C161.741 217.962 158.406 219.99 156.649 223.235Z" fill="#FCB58A"/>
<path d="M181.298 71.2333C181.298 71.2333 175.485 52.6218 173.502 44.7806C170.483 32.6583 162.191 25.3579 150.52 25.3579C138.668 25.3579 130.376 32.7935 127.086 44.8707C123.751 57.3085 119.38 70.287 119.38 70.287C118.884 71.9544 119.696 73.7119 121.273 74.3428C125.013 75.8299 132.899 78.4887 150.52 78.2634C166.247 78.0381 174.359 75.8299 178.459 75.4243C180.487 75.1539 181.839 73.2161 181.298 71.2333Z" fill="#0D3344"/>
<path d="M157.234 65.3751H143.805V88.5832C143.805 90.3407 145.202 91.7377 146.96 91.7377H154.08C155.837 91.7377 157.234 90.3407 157.234 88.5832V65.3751Z" fill="#FCB58A"/>
<path d="M150.339 23.5105C154.969 23.5105 158.721 19.7577 158.721 15.1285C158.721 10.4992 154.969 6.74651 150.339 6.74651C145.71 6.74651 141.958 10.4992 141.958 15.1285C141.958 19.7577 145.71 23.5105 150.339 23.5105Z" fill="#0D3344"/>
<path d="M261.378 51.4505H206.625C206.309 51.4505 206.039 51.1801 206.039 50.8646V12.5149C206.039 12.1995 206.309 11.9291 206.625 11.9291H261.378C261.693 11.9291 261.964 12.1995 261.964 12.5149V50.9097C261.964 51.1801 261.693 51.4505 261.378 51.4505Z" fill="#EBDBCD"/>
<path d="M254.077 45.6819H213.925C213.655 45.6819 213.474 45.4566 213.474 45.2313V18.1927C213.474 17.9224 213.7 17.7421 213.925 17.7421H254.077C254.348 17.7421 254.528 17.9674 254.528 18.1927V45.2313C254.528 45.4566 254.303 45.6819 254.077 45.6819Z" fill="#FCFAF8"/>
<path d="M79.6335 162.128C79.6335 151.538 89.9533 144.147 100.769 141.443C122.805 135.81 161.56 143.156 161.56 143.156L141.101 156.179C141.101 156.179 159.893 161.407 164.58 162.398C169.266 163.39 199.775 171.366 200.271 172.132C200.766 172.898 189.05 188.446 189.05 188.446C189.05 188.446 131.863 189.121 114.288 186.823C96.6679 184.48 79.6335 180.199 79.6335 162.128Z" fill="#73AAD8"/>
<path d="M138.488 156.27C147.771 158.433 161.605 162.444 167.824 164.381C174.178 166.364 176.612 168.302 176.612 168.302C176.612 168.302 165.03 178.441 159.938 198.54C157.054 209.851 151.556 224.948 150.61 228.282C150.475 228.778 150.565 229.319 150.925 229.724C152.052 230.941 154.621 233.555 157.369 235.042C160.749 236.89 166.878 238.963 167.509 238.061C167.509 238.061 194.412 211.744 204.867 196.647C215.367 181.551 225.011 169.293 220.865 158.748C217.485 150.141 209.959 145.049 197.477 142.39C178.369 138.379 156.153 139.956 156.153 139.956C156.153 139.956 154.846 143.246 149.799 149.104C145.653 154.016 138.307 156.27 138.488 156.27Z" fill="#9BC2E3"/>
<path d="M130.556 65.7807C128.393 65.7807 128.348 59.5168 128.348 58.7958C128.348 58.0747 128.393 51.8108 130.556 51.8108C132.719 51.8108 132.764 58.0747 132.764 58.7958C132.809 59.4717 132.719 65.7807 130.556 65.7807ZM130.556 52.9825C130.151 53.388 129.52 55.461 129.52 58.7958C129.52 62.0854 130.151 64.2035 130.556 64.6091C130.962 64.2035 131.593 62.1305 131.593 58.7958C131.593 55.4159 130.962 53.343 130.556 52.9825Z" fill="white"/>
<path d="M170.078 65.7807C167.914 65.7807 167.869 59.5168 167.869 58.7958C167.869 58.0747 167.914 51.8108 170.078 51.8108C172.241 51.8108 172.286 58.0747 172.286 58.7958C172.286 59.4717 172.241 65.7807 170.078 65.7807ZM170.078 52.9825C169.672 53.388 169.041 55.461 169.041 58.7958C169.041 62.0854 169.672 64.2035 170.078 64.6091C170.483 64.2035 171.114 62.1305 171.114 58.7958C171.114 55.4159 170.483 53.343 170.078 52.9825Z" fill="white"/>
<path d="M150.52 70.3773C162.815 70.3773 172.781 60.4104 172.781 48.1156C172.781 35.8208 162.815 25.8538 150.52 25.8538C138.225 25.8538 128.258 35.8208 128.258 48.1156C128.258 60.4104 138.225 70.3773 150.52 70.3773Z" fill="#FCB58A"/>
<path d="M127.807 49.738C127.852 50.0985 127.852 50.459 127.897 50.7745C127.897 50.8196 127.897 50.8646 127.942 50.9097C127.988 51.3152 128.033 51.6757 128.078 52.0363V52.0813C128.123 52.4869 128.213 52.8925 128.303 53.2981C129.79 47.1693 135.333 42.6178 141.912 42.6178C142.724 42.6178 143.535 42.6629 144.301 42.8431C144.887 42.9783 145.518 43.0685 146.103 43.0685C150.249 43.0685 153.674 39.9591 154.125 35.9033C154.125 35.9033 154.17 35.9032 154.17 35.8582C154.125 36.2638 154.035 36.7144 154.035 37.165C154.035 41.8968 157.865 45.7273 162.597 45.7273H162.642C167.284 46.6736 170.979 50.0985 172.331 54.5598C172.601 53.5684 172.827 52.532 173.007 51.5406C173.007 51.4955 173.007 51.4504 173.007 51.4053C173.052 50.9998 173.142 50.5492 173.142 50.0985C173.142 49.9633 173.187 49.8732 173.187 49.783C173.232 49.2873 173.232 48.7917 173.232 48.296C173.232 47.8904 173.232 47.4397 173.187 47.0792C173.187 46.944 173.142 46.8539 173.142 46.7187C173.097 46.4033 173.097 46.1329 173.097 45.8625C173.097 45.7273 173.052 45.5921 173.052 45.4569C173.007 45.1865 173.007 44.9161 172.917 44.6457C172.872 44.5105 172.872 44.3754 172.872 44.2402C172.827 43.9698 172.781 43.6994 172.736 43.429C172.691 43.2938 172.691 43.2036 172.646 43.0685C172.601 42.7981 172.511 42.4827 172.421 42.2123C172.376 42.1222 172.376 41.9869 172.331 41.8968C172.241 41.5813 172.151 41.311 172.06 40.9955C172.015 40.9054 172.015 40.8603 171.97 40.7702C171.835 40.4547 171.745 40.0942 171.61 39.8238C171.565 39.7788 171.565 39.7337 171.565 39.6886C171.43 39.3281 171.249 38.9677 171.069 38.6071C169.131 34.4162 165.887 30.9462 161.921 28.6479C160.659 27.9269 159.352 27.296 157.955 26.8003C157.91 26.7552 157.865 26.7552 157.82 26.7552C157.415 26.62 157.009 26.4848 156.603 26.3496C156.558 26.3046 156.468 26.3046 156.378 26.3046C155.477 26.0792 154.575 25.899 153.629 25.7187C153.494 25.6736 153.404 25.6737 153.269 25.6737C152.908 25.6286 152.593 25.5836 152.232 25.5385C152.097 25.5385 151.962 25.4934 151.827 25.4934C151.376 25.4483 150.88 25.4483 150.43 25.4483C137.857 25.4483 127.672 35.6329 127.672 48.2058C127.672 48.6114 127.672 49.062 127.717 49.4676C127.807 49.6028 127.807 49.6479 127.807 49.738Z" fill="#0D3344"/>
<path d="M145.517 240.54C145.022 241.126 140.966 246.759 140.605 249.733C140.335 251.806 139.118 255.591 138.262 260.638C137.406 265.686 134.792 276.366 142.633 279.25C149.258 281.683 150.835 277.583 152.232 275.645C153.629 273.707 157.55 258.52 157.865 256.898C158.451 253.608 162.101 243.108 162.101 243.108C162.507 242.252 162.732 241.892 161.786 241.621C160.028 241.126 157.369 240.179 155.432 239.278C153.314 238.286 151.196 236.349 149.979 235.357C149.573 234.997 149.303 234.771 149.032 235.222C149.032 235.267 145.562 240.54 145.517 240.54Z" fill="#5489B6"/>
<path d="M114.784 101.201C107.889 107.375 102.391 115.036 101.85 124.59C101.31 134.414 107.213 141.939 115.82 145.905C118.389 147.122 121.453 146.626 122.985 144.012C124.292 141.759 123.661 138.019 121.093 136.847C115.415 134.233 111.494 130.358 112.395 123.688C113.252 117.469 117.713 112.648 122.174 108.682C127.221 104.176 119.786 96.7399 114.784 101.201Z" fill="#FCB58A"/>
<path d="M176.116 108.592C178.415 111.611 180.397 114.811 182.065 118.19C183.462 121.075 185.354 124.454 184.994 127.789C184.228 134.684 176.657 138.424 171.249 141.354C165.346 144.553 170.573 153.656 176.522 150.411C184.724 145.95 193.511 140.137 195.133 130.178C195.99 125.04 194.503 120.399 192.385 115.757C190.402 111.341 188.103 107.15 185.129 103.274C183.372 101.066 180.623 99.8042 177.964 101.381C175.801 102.733 174.359 106.339 176.116 108.592Z" fill="#F0A173"/>
<path d="M172.196 85.0681C166.472 82.0488 160.073 80.5617 157.234 80.1111C156.378 83.8063 154.44 85.8342 150.294 85.8342C146.058 85.8342 144.616 83.7162 143.805 79.9308C142.949 79.9759 140.335 80.5617 139.704 80.6068C132.269 81.2827 127.131 84.302 123.301 86.9608C118.028 90.611 112.35 97.8213 110.052 100.886C109.376 101.742 109.421 102.959 110.097 103.815C111.359 105.302 113.477 107.645 115.64 109.087C119.47 111.656 125.87 111.656 125.87 111.656L126.816 102.823C126.816 102.823 125.194 112.422 124.878 118.821C124.473 125.761 124.878 131.98 124.878 131.98L173.457 132.971C173.457 132.971 175.215 126.077 174.178 116.568C173.908 114.09 171.249 103.544 171.249 103.544L173.502 110.529C173.502 110.529 176.882 110.665 182.696 108.096C184.453 107.33 186.932 105.437 188.374 104.265C189.05 103.77 189.14 102.778 188.644 102.147C186.12 98.5874 178.009 88.1325 172.196 85.0681Z" fill="white"/>
<path d="M150.52 70.3321C148.176 70.3321 145.923 69.9716 143.805 69.2956V73.4415C145.923 74.1175 148.266 74.1175 150.61 73.9372C153.764 73.6218 155.116 73.0359 157.234 72.1346V69.2956C155.161 69.9716 152.908 70.3321 150.52 70.3321Z" fill="#E3996D"/>
<path d="M235.646 6.92666C235.511 6.92666 235.331 6.8816 235.195 6.70134C234.97 6.47602 235.06 6.11553 235.285 5.93527L239.702 2.37518C239.927 2.19492 240.288 2.23997 240.468 2.46529C240.693 2.69061 240.603 3.05116 240.378 3.23141L235.961 6.79145C235.916 6.88158 235.781 6.92666 235.646 6.92666Z" fill="#D4BFA9"/>
<path d="M241.655 4.29988C242.309 3.84465 242.296 2.69758 241.628 1.7378C240.959 0.778017 239.887 0.368964 239.234 0.824201C238.581 1.27944 238.593 2.42655 239.261 3.38633C239.93 4.34611 241.002 4.75512 241.655 4.29988Z" fill="#D4BFA9"/>
<path d="M150.249 153.611C158 155.414 165.841 156.811 173.547 158.748C177.378 159.695 181.208 160.776 184.949 162.128C185.805 162.444 186.706 162.759 187.517 163.075C187.923 163.255 188.374 163.39 188.824 163.57C189.14 163.705 189.906 163.886 190.131 164.156C190.492 164.652 189.41 165.643 189.14 166.004C188.464 166.77 187.833 167.536 187.202 168.302C177.648 179.838 168.906 192.051 161.741 205.255C157.775 212.6 154.35 220.171 151.556 228.012C151.151 229.094 152.908 229.589 153.314 228.508C158.406 214.042 165.887 200.478 174.539 187.905C178.91 181.551 183.597 175.422 188.554 169.474C189.14 168.708 189.771 167.987 190.402 167.266C190.987 166.59 191.618 165.959 191.889 165.102C192.114 164.336 192.024 163.48 191.438 162.894C190.852 162.308 189.861 162.038 189.095 161.768C185.354 160.235 181.479 159.019 177.558 157.937C168.726 155.504 159.668 153.926 150.745 151.854C149.573 151.628 149.123 153.341 150.249 153.611Z" fill="white"/>
<path d="M122.084 111.431C122.084 111.431 125.013 108.322 126.05 106.204C127.086 104.04 128.348 100.03 128.348 100.03C128.348 100.03 127.447 105.933 126.906 108.502C126.14 112.062 125.284 113.774 125.284 113.774L122.49 113.639C122.49 113.639 122.355 113.143 122.309 112.603C122.219 112.062 122.084 111.431 122.084 111.431Z" fill="#E0E0E0"/>
<path d="M176.116 112.512C176.116 112.512 173.593 109.133 172.781 106.879C171.97 104.626 171.204 100.48 171.204 100.48C171.204 100.48 171.43 106.474 171.655 109.042C172.015 112.693 172.691 114.495 172.691 114.495L175.485 114.63C175.485 114.63 175.666 114.135 175.801 113.594C175.936 113.098 176.116 112.512 176.116 112.512Z" fill="#E0E0E0"/>
<path d="M178.685 152.034H120.101C118.164 152.034 116.451 150.637 116.046 148.699L109.106 113.729C108.61 111.161 110.548 108.817 113.161 108.817H187.878C190.582 108.817 192.565 111.386 191.889 114L182.651 148.969C182.2 150.772 180.533 152.034 178.685 152.034Z" fill="#C5C6E3"/>
<path d="M156.513 131.665C156.288 134.774 153.584 137.343 150.52 137.343C147.455 137.343 144.796 134.819 144.526 131.71C144.256 128.6 146.959 126.032 150.52 126.032C154.08 125.987 156.783 128.51 156.513 131.665Z" fill="#E8E9FF"/>
<path d="M225.507 28.1071C227.354 26.3496 230.869 25.5835 232.942 26.5749C235.015 27.5663 234.294 27.341 235.015 27.5663C235.736 27.7917 237.043 27.4762 238.305 28.4225C239.702 29.5491 242.361 32.5684 240.919 36.5341C239.702 39.9139 235.736 42.7981 231.005 41.9869C226.273 41.1757 223.929 38.3367 223.299 35.9483C222.578 33.1092 223.704 29.7745 225.507 28.1071Z" fill="#FF5856"/>
<path d="M235.466 28.6478C235.466 28.6478 235.331 23.9161 238.305 22.8346C241.279 21.753 246.101 20.2659 245.876 20.5813C245.65 20.8517 244.479 25.9891 242.496 27.341C239.431 29.459 235.466 28.6478 235.466 28.6478Z" fill="#1F6771"/>
<path d="M232.311 29.2787C232.311 29.2787 232.762 26.9805 232.852 25.6285C233.032 22.8345 232.987 21.4375 232.987 21.4375L235.376 21.8431C235.376 21.8431 235.06 25.1328 234.79 26.3045C234.294 28.4225 233.573 29.6843 233.573 29.6843C233.573 29.6843 233.122 30.0449 232.717 29.8195C232.311 29.6393 232.311 29.2787 232.311 29.2787Z" fill="#6B4D3A"/>
<path d="M235.393 21.8244C235.457 21.5071 234.974 21.143 234.315 21.0112C233.656 20.8793 233.07 21.0297 233.007 21.347C232.943 21.6642 233.426 22.0283 234.085 22.1602C234.744 22.292 235.33 22.1417 235.393 21.8244Z" fill="#8A634B"/>
</svg>
