<svg width="59" height="59" viewBox="0 0 59 59" fill="none" xmlns="http://www.w3.org/2000/svg">
<g clip-path="url(#clip0)">
<path d="M29.5576 8.10173L29.475 8.1015C29.4739 8.1015 29.473 8.1015 29.4718 8.1015C28.8431 8.1015 28.3325 8.61029 28.3308 9.23946C28.3308 9.24037 28.3308 9.24128 28.3308 9.2422C28.3306 9.87113 28.8395 10.3819 29.4688 10.3836L29.5515 10.3838C29.5525 10.3838 29.5535 10.3838 29.5546 10.3838C30.1833 10.3838 30.6939 9.87501 30.6956 9.24585C30.6956 9.24493 30.6956 9.24402 30.6956 9.24311C30.6958 8.61417 30.1869 8.10344 29.5576 8.10173Z" fill="#49A0EB"/>
<path d="M57.2689 15.1881C56.5197 12.3396 54.3096 10.0962 51.5018 9.33349C48.6065 8.54492 40.5342 8.25453 34.2722 8.14989C33.6458 8.14134 33.1227 8.64168 33.1122 9.27176C33.1017 9.90184 33.604 10.4212 34.2341 10.4317C42.9014 10.5766 48.8209 10.9686 50.9029 11.5356C52.926 12.0851 54.5197 13.7071 55.062 15.7693C56.1836 20.0234 56.1973 29.1191 56.1973 29.2103C56.1973 29.3017 56.1836 38.3974 55.0619 42.6522C54.5197 44.7137 52.926 46.3357 50.9022 46.8854C46.7206 48.0242 29.4429 48.0375 29.2689 48.0375C29.0949 48.0375 11.8172 48.0241 7.63483 46.8852C5.61177 46.3357 4.01809 44.7137 3.47575 42.6515C2.35411 38.3974 2.34042 29.3017 2.34042 29.2105C2.34042 29.1191 2.35411 20.0234 3.47587 15.7687C4.01809 13.7072 5.61177 12.0852 7.63551 11.5355C9.7632 10.956 15.8577 10.5614 24.7966 10.4239C25.4267 10.4143 25.9295 9.89556 25.9199 9.26548C25.9102 8.6354 25.3899 8.13666 24.7614 8.14213C18.3067 8.24129 9.99198 8.5286 7.03658 9.33338C4.22815 10.0962 2.01808 12.3397 1.2691 15.1876C0.0721562 19.7275 0.0583496 28.8254 0.0583496 29.2105C0.0583496 29.5956 0.0721562 38.6934 1.26887 43.2326C2.01808 46.0812 4.22815 48.3246 7.0359 49.0873C11.5097 50.3056 28.5459 50.3196 29.2689 50.3196C29.9918 50.3196 47.0281 50.3056 51.5012 49.0875C54.3096 48.3247 56.5197 46.0812 57.2686 43.2333C58.4656 38.6934 58.4794 29.5956 58.4794 29.2105C58.4794 28.8254 58.4656 19.7275 57.2689 15.1881Z" fill="#49A0EB"/>
<path d="M6.67631 26.1892C6.04612 26.1892 5.53528 26.7 5.53528 27.3302V36.6297C5.53528 37.2599 6.04612 37.7707 6.67631 37.7707C7.30651 37.7707 7.81735 37.2599 7.81735 36.6297V27.3302C7.81735 26.7 7.30651 26.1892 6.67631 26.1892Z" fill="#49A0EB"/>
<path d="M6.67631 20.9975C6.04612 20.9975 5.53528 21.5083 5.53528 22.1385V22.152C5.53528 22.7822 6.04612 23.293 6.67631 23.293C7.30651 23.293 7.81735 22.7822 7.81735 22.152V22.1385C7.81735 21.5083 7.30651 20.9975 6.67631 20.9975Z" fill="#49A0EB"/>
<path d="M38.5234 28.3973L24.3746 20.1818C24.0216 19.9768 23.586 19.976 23.2323 20.1797C22.8786 20.3833 22.6605 20.7604 22.6605 21.1686V37.5995C22.6605 38.0078 22.8786 38.3848 23.2323 38.5884C23.4085 38.6899 23.605 38.7405 23.8016 38.7405C23.9995 38.7405 24.1975 38.6892 24.3746 38.5863L38.5234 30.3708C38.8752 30.1666 39.0916 29.7907 39.0916 29.3841C39.0916 28.9774 38.8751 28.6015 38.5234 28.3973ZM24.9426 35.6175V23.1506L35.678 29.3841L24.9426 35.6175Z" fill="#49A0EB"/>
</g>
<defs>
<clipPath id="clip0">
<rect width="58.421" height="58.421" fill="white" transform="translate(0.0583496)"/>
</clipPath>
</defs>
</svg>
