<svg width="69" height="48" viewBox="0 0 69 48" fill="none" xmlns="http://www.w3.org/2000/svg">
<path d="M53.5756 48C62.0806 48 68.9863 41.0943 68.9863 32.5166C68.9863 24.4478 62.8075 17.9055 54.9568 17.1786C56.556 14.2709 59.4637 11.1452 64.4067 8.16481C65.7879 7.3652 66.6602 5.91136 66.6602 4.38483C66.6602 1.25908 63.4617 -0.92168 60.5541 0.386776C52.1218 4.16676 38.0922 13.3986 38.0922 32.5166C38.0922 41.0943 44.998 48 53.5756 48Z" fill="#D1E6FF"/>
<path d="M15.3384 48C23.916 48 30.8218 41.0943 30.8218 32.5166C30.8218 24.4478 24.643 17.9055 16.7922 17.1786C18.3915 14.2709 21.2991 11.1452 26.2422 8.16481C27.6233 7.3652 28.4956 5.91136 28.4956 4.38483C28.4956 1.25908 25.2972 -0.92168 22.3895 0.386776C14.0299 4.16676 0.000398636 13.3259 0.000398636 32.5166C-0.0722942 41.0943 6.83344 48 15.3384 48Z" fill="#D1E6FF"/>
</svg>
