<svg width="327" height="380" viewBox="0 0 327 380" fill="none" xmlns="http://www.w3.org/2000/svg">
<path d="M35.9277 94.7668L203.077 12.3613L242.483 161.661L52.637 154.817L35.9277 94.7668Z" fill="#EBDBCD"/>
<path d="M153.235 53.3074L146.79 101.382C146.733 102.009 147.018 102.637 147.589 102.865C149.471 103.663 153.862 105.374 158.766 105.659C162.758 105.887 169.773 104.804 173.822 103.549C174.563 103.321 175.076 102.466 174.791 101.724L155.972 52.9652C155.459 51.5966 153.463 51.8817 153.235 53.3074Z" fill="#155D7D"/>
<path d="M174.905 94.995C190.473 94.995 203.133 82.3347 203.133 66.7661C203.133 51.1974 190.473 38.5372 174.905 38.5372C159.336 38.5372 146.676 51.1974 146.676 66.7661C146.676 82.3918 159.279 94.995 174.905 94.995Z" fill="#FCB58A"/>
<path d="M132.59 284.043H93.9819V313.241H132.59V284.043Z" fill="#F8D7BC"/>
<path d="M90.2183 281.762V283.986H132.647V313.184H90.2183V315.408H253.489V281.762H90.2183Z" fill="#49A0EB"/>
<path d="M74.0227 264.482C74.9922 270.47 76.1327 276.401 77.5584 282.275C80.0676 292.654 96.0355 288.263 93.5263 277.884C92.1006 272.01 90.96 266.079 89.9905 260.091C89.3062 255.7 83.7745 253.248 79.7825 254.274C75.0492 255.643 73.2813 260.091 74.0227 264.482Z" fill="#E3996D"/>
<path d="M326.2 203.861L297.401 220.571L296.888 186.525L326.2 203.861Z" fill="#49A0EB"/>
<path d="M169.829 176.545C169.658 176.488 169.487 176.374 169.316 176.374C166.579 175.918 145.478 172.268 123.579 168.048C113.828 166.166 85.3706 158.125 70.4293 163.942C55.545 169.759 52.5795 178.484 51.2679 184.586C50.1273 190.118 52.1233 208.88 56.9707 227.927C61.3048 244.979 71.912 266.592 74.0791 270.926C74.3072 271.44 74.8775 271.782 75.4478 271.839C76.8164 271.896 79.5538 271.896 83.0325 270.812C86.1691 269.9 89.4766 268.132 90.9594 267.277C91.4726 266.991 91.7578 266.478 91.7578 265.908C91.8148 261.175 92.214 238.991 91.6437 223.422C91.0735 208.31 85.8839 203.291 85.8839 203.291C85.8839 203.291 103.791 223.194 122.097 228.612C136.582 232.889 166.921 242.412 179.467 242.07C194.009 241.671 204.559 235.512 209.236 228.098C217.961 214.412 212.543 194.11 211.174 189.661C211.003 189.091 210.547 188.692 209.977 188.578C205.186 187.437 182.432 182.02 176.558 179.567C171.825 177.514 170.285 176.773 169.829 176.545Z" fill="#155D7D"/>
<path d="M210.547 170.158C210.547 170.158 210.205 173.922 210.604 179.282C210.947 184.7 211.802 188.806 211.802 188.806C211.802 188.806 190.017 185.27 181.748 182.077C171.312 178.028 169.658 176.374 169.658 176.374C169.658 176.374 171.597 171.983 172.338 168.846C172.852 166.508 173.137 160.121 173.137 160.121C173.137 160.121 184.428 165.481 192.298 167.363C200.168 169.245 210.547 170.158 210.547 170.158Z" fill="#FCB58A"/>
<path d="M21.0433 48.9733C32.6771 48.9733 42.0867 39.5636 42.0867 27.9299C42.0867 16.2962 32.6771 6.88666 21.0433 6.88666C9.40964 6.88666 0 16.2962 0 27.9299C0 39.5636 9.40964 48.9733 21.0433 48.9733Z" fill="#49A0EB"/>
<path d="M185.626 365.536H56.4575V318.374H185.569C192.013 318.374 197.203 323.563 197.203 330.007V353.902C197.317 360.346 192.07 365.536 185.626 365.536Z" fill="#F8ECE2"/>
<path d="M262.158 315.408H50.8689C50.0706 315.408 49.3862 316.035 49.3862 316.891C49.3862 317.689 50.0135 318.374 50.8689 318.374H76.8167H173.65C186.71 318.374 197.26 328.924 197.26 341.983C197.26 355.043 186.71 365.593 173.65 365.593H54.0625H50.8689C50.0706 365.593 49.3862 366.22 49.3862 367.075C49.3862 367.931 50.0135 368.558 50.8689 368.558H262.158C275.217 368.558 285.767 358.008 285.767 344.949V339.075C285.767 325.958 275.217 315.408 262.158 315.408Z" fill="#0D3344"/>
<path d="M178.213 328.582H56.5151V326.928H178.213C178.669 326.928 179.011 327.27 179.011 327.726C179.011 328.239 178.669 328.582 178.213 328.582Z" fill="#EBD0BE"/>
<path d="M122.04 306.284H93.9819V304.63H122.04C122.496 304.63 122.838 304.972 122.838 305.428C122.838 305.884 122.496 306.284 122.04 306.284Z" fill="#E0C1A6"/>
<path d="M115.424 297.045H93.9819V295.391H115.367C115.824 295.391 116.166 295.733 116.166 296.19C116.223 296.703 115.881 297.045 115.424 297.045Z" fill="#E0C1A6"/>
<path d="M187.052 346.945H56.5151V345.291H187.052C187.508 345.291 187.851 345.633 187.851 346.089C187.851 346.546 187.508 346.945 187.052 346.945Z" fill="#EBD0BE"/>
<path d="M170.97 357.153H56.5151V355.499H170.97C171.427 355.499 171.769 355.841 171.769 356.297C171.769 356.753 171.427 357.153 170.97 357.153Z" fill="#EBD0BE"/>
<path d="M183.117 337.934H56.5151V336.28H183.117C183.574 336.28 183.916 336.623 183.916 337.079C183.916 337.535 183.574 337.934 183.117 337.934Z" fill="#EBD0BE"/>
<path d="M169.259 279.081H119.587V261.574H169.259C170.627 261.574 171.711 262.657 171.711 264.026V276.629C171.711 277.998 170.57 279.081 169.259 279.081Z" fill="#F8D0B3"/>
<path d="M258.736 258.893H160.077H116.793H115.481C114.74 258.893 114.113 259.521 114.113 260.262C114.113 261.003 114.74 261.631 115.481 261.631H119.587H166.807C169.487 261.631 171.711 263.855 171.711 266.535V274.177C171.711 276.857 169.487 279.081 166.807 279.081H156.028H115.824C115.082 279.081 114.455 279.709 114.455 280.45C114.455 281.191 115.082 281.819 115.824 281.819H116.85H160.42H258.736C261.416 281.819 263.64 279.595 263.64 276.914V263.855C263.64 261.06 261.416 258.893 258.736 258.893Z" fill="#0D3344"/>
<path d="M87.8236 151.738C102.48 145.18 119.417 153.962 134.016 156.471C148.33 158.923 164.013 156.984 173.936 145.294C176.16 142.613 176.559 138.735 173.936 136.112C171.598 133.774 167.035 133.432 164.754 136.112C155.402 147.118 140.86 145.122 128.313 141.929C112.574 137.88 96.9481 133.489 81.3224 140.503C78.1288 141.929 77.3304 146.605 78.9842 149.4C80.8661 152.707 84.63 153.163 87.8236 151.738Z" fill="#F0A173"/>
<path d="M92.4996 155.787C108.41 150.597 124.093 160.862 138.977 165.253C153.234 169.416 169.031 168.789 180.152 157.954C186.14 152.137 176.958 142.955 170.97 148.772C160.933 158.524 146.277 154.418 134.757 150.141C120.101 144.723 104.818 138.108 89.0209 143.298C81.2081 145.807 84.5727 158.41 92.4996 155.787Z" fill="#FCB58A"/>
<path d="M192.64 106.8C194.009 107.199 206.441 112.217 211.061 128.813C214.938 142.499 218.189 162.858 219.216 169.531C219.444 170.785 218.588 172.04 217.277 172.268C213.57 173.009 205.529 174.15 195.435 173.237C181.349 171.983 172.395 168.162 172.395 168.162L172.738 164.968L171.483 165.539C170.514 165.995 169.316 165.71 168.689 164.854L159.507 152.65C158.88 151.852 159.165 150.711 160.02 150.255L160.134 150.198L152.721 141.302C152.036 140.446 152.094 139.192 152.892 138.45C155.515 135.941 161.218 130.181 165.267 124.65C168.232 120.658 172.11 113.358 174.506 110.564C179.41 104.747 188.991 105.716 192.64 106.8Z" fill="white"/>
<path d="M193.097 111.989L184.086 88.7789L166.921 88.6648L175.931 111.875L193.097 111.989Z" fill="#FCB58A"/>
<path d="M177.357 117.065C179.923 117.692 183.402 115.24 186.31 113.928C189.447 112.56 193.04 111.989 193.04 111.989L175.874 111.875C175.874 111.875 174.62 116.437 177.357 117.065Z" fill="#FCB58A"/>
<path d="M171.312 135.827C171.312 135.827 169.602 140.446 167.891 143.012C166.18 145.579 160.249 150.141 160.249 150.141L158.025 147.461C158.025 147.461 162.131 145.351 165.039 142.556C167.206 140.56 171.312 135.827 171.312 135.827Z" fill="#E0E0E0"/>
<path d="M172.795 164.911C172.795 164.911 178.099 161.775 180.494 159.208C182.889 156.642 186.197 151.453 186.197 151.453C186.197 151.453 182.547 159.322 180.779 162.744C178.27 167.42 176.388 169.473 176.388 169.473L172.567 168.105C172.567 168.105 172.624 167.306 172.738 166.565C172.738 165.881 172.795 164.911 172.795 164.911Z" fill="#E0E0E0"/>
<path d="M75.1629 149.97C78.8698 147.632 82.7476 145.807 86.9677 144.495C90.4464 143.412 88.9637 137.88 85.428 138.907C80.8087 140.332 76.4176 142.328 72.3115 144.951C69.232 146.947 72.0264 151.909 75.1629 149.97Z" fill="#F0A173"/>
<path d="M204.559 46.35C210.433 46.35 215.167 41.6167 215.167 35.7428C215.167 29.8689 210.433 25.1356 204.559 25.1356C198.685 25.1356 193.952 29.8689 193.952 35.7428C193.895 41.6167 198.685 46.35 204.559 46.35Z" fill="#0D3344"/>
<path d="M174.22 75.2632C177.186 76.3467 178.497 76.3467 178.497 76.3467C178.155 74.4078 177.756 72.2977 177.756 72.1266C177.756 72.1266 172.852 70.4729 169.601 67.2223C164.697 62.3178 167.149 57.4134 163.043 53.3074C159.621 49.8857 155.344 48.403 153.918 48.0038C153.861 48.0609 153.861 48.0609 153.861 48.0609C153.918 48.1179 159.165 50.2279 162.587 54.8472C166.065 59.4665 162.929 64.0287 167.092 69.5604C169.544 72.9821 171.654 74.2937 174.22 75.2632Z" fill="#E3996D"/>
<path d="M185.626 92.8848C182.318 94.2535 178.669 94.9949 174.848 94.9949C172.909 94.9949 170.913 94.7668 169.088 94.3676L171.483 100.527C172.167 100.47 172.852 100.299 173.536 100.184C178.326 99.1009 182.546 96.7628 185.911 93.6262L185.626 92.8848Z" fill="#E3996D"/>
<path d="M181.634 97.1619C176.045 97.1619 171.426 92.5997 171.426 86.9539C171.426 81.3652 175.988 76.746 181.634 76.746C187.28 76.746 191.842 81.3081 191.842 86.9539C191.842 92.5997 187.223 97.1619 181.634 97.1619ZM181.634 78.4568C176.958 78.4568 173.137 82.2776 173.137 86.9539C173.137 91.6302 176.958 95.4511 181.634 95.4511C186.311 95.4511 190.131 91.6302 190.131 86.9539C190.131 82.2776 186.311 78.4568 181.634 78.4568Z" fill="white"/>
<path d="M214.54 102.751C215.68 102.352 216.365 101.097 215.909 99.9563L202.393 59.0102C198.971 46.9773 187.965 38.1379 174.848 38.1379C166.294 38.1379 158.652 41.9018 153.406 47.7757C153.463 47.7757 158.938 49.1443 162.986 53.2504C167.093 57.3564 164.64 62.2608 169.545 67.1652C172.795 70.4158 177.7 72.0696 177.7 72.0696C177.7 72.5829 180.095 84.9009 182.034 94.4816C182.433 96.5917 182.832 99.0438 183.174 100.926C183.345 101.838 183.973 102.58 184.828 102.922C189.79 104.918 195.492 105.944 201.594 105.659C205.986 105.488 211.574 103.777 214.54 102.751Z" fill="#0D3344"/>
<path d="M211.517 186.069C211.517 186.069 213.456 194.11 212.886 194.11C212.258 194.053 188.592 189.433 182.433 188.065C168.917 185.156 166.807 175.975 166.807 175.975C166.807 175.975 167.891 175.918 169.031 175.062C170.172 174.207 170.571 173.865 170.571 173.865C170.571 173.865 172.51 178.598 184.258 182.02C200.625 186.753 211.517 186.069 211.517 186.069Z" fill="#FFADB2"/>
<path d="M76.4745 277.713C76.4745 277.713 81.8922 277.656 84.6295 277.199C87.3668 276.686 92.6704 274.12 92.6704 274.12C92.6704 274.12 95.807 280.963 96.6624 282.788C97.5748 284.613 101.396 289.118 101.909 292.084C102.422 295.049 102.536 301.664 91.1307 302.691C85.8271 303.147 80.8657 313.868 75.1059 314.667C72.2544 315.066 58.6818 316.549 54.8609 314.439C51.04 312.329 52.2376 306.683 61.5332 303.66C70.8287 300.581 69.0608 297.501 71.2849 293.566C73.395 289.517 76.4745 277.713 76.4745 277.713Z" fill="#285C74"/>
<path d="M44.8813 267.162C44.083 273.835 43.2845 280.45 42.4861 287.122C41.9729 291.57 46.7063 295.448 50.8123 295.448C55.7167 295.448 58.5681 291.627 59.1383 287.122C59.9367 280.45 60.7351 273.835 61.5335 267.162C62.0467 262.714 57.3134 258.836 53.2074 258.836C48.246 258.893 45.3946 262.714 44.8813 267.162Z" fill="#FCB58A"/>
<path d="M175.589 241.842C187.565 243.04 198.629 239.675 207.069 231.52C215.452 223.365 214.939 209.678 214.483 204.146C214.14 199.755 212.658 192.684 212.087 189.889C211.916 189.205 211.403 188.635 210.719 188.521C206.442 187.722 191.443 185.042 186.995 183.673C183.345 182.533 180.152 181.278 178.555 180.651C177.928 180.423 177.243 180.537 176.73 180.993C175.361 182.248 172.111 184.472 166.807 183.959C159.622 183.217 127.971 173.465 115.482 169.587C102.993 165.767 82.0635 156.471 62.674 162.858C50.2989 166.964 41.0603 178.769 40.7752 203.576C40.6041 222.852 40.5471 247.488 40.8893 256.783C41.1174 264.083 40.8322 271.839 40.7182 274.804C40.6611 275.603 41.1174 276.23 41.8017 276.515C43.0563 277.028 45.3375 277.77 48.531 278.454C52.523 279.309 57.4844 278.967 59.7085 278.739C60.3929 278.682 60.9631 278.226 61.1912 277.542C62.3888 274.006 66.2667 262.315 69.8025 252.506C78.5848 227.927 79.3261 214.697 78.9269 208.766C78.8129 207.283 80.4667 206.371 81.6643 207.226C87.4812 211.218 99.9703 219.43 113.942 225.703C133.104 234.371 160.648 240.359 175.589 241.842Z" fill="#0D3344"/>
<path d="M192.413 185.955C192.47 194.566 189.789 203.405 183.516 209.564C180.722 212.358 177.243 214.526 173.422 215.723C168.86 217.092 164.013 216.864 159.336 216.122C141.886 213.328 125.861 205.287 110.121 197.759C102.194 193.938 94.2105 190.232 85.8844 187.266C83.7744 186.525 81.7213 185.783 79.6113 185.156C77.2732 184.472 74.878 183.787 72.4828 184.073C68.5479 184.472 65.5254 187.209 63.4724 190.346C61.3053 193.767 60.2218 197.816 59.3664 201.751C58.3969 206.085 57.7696 210.477 57.3704 214.925C56.7431 221.312 56.572 227.699 56.0017 234.086C54.8041 246.746 53.3784 259.521 51.1543 272.067C50.9832 273.093 50.8122 274.063 50.584 275.032C50.2989 276.401 52.4089 277.028 52.6941 275.603C53.7776 270.356 54.519 265.052 55.2033 259.749C56.1728 252.905 56.9712 245.948 57.7125 239.048C58.3399 233.231 58.7391 227.471 59.0812 221.654C59.5375 213.043 60.4498 204.146 63.3012 195.877C64.4988 192.342 66.5519 188.749 69.9736 186.981C74.0796 184.871 78.9839 187.038 82.9759 188.464C91.359 191.315 99.457 195.022 107.441 198.843C123.295 206.371 139.149 214.583 156.599 217.833C161.332 218.689 166.18 219.316 170.97 218.518C174.905 217.89 178.726 216.179 181.863 213.841C188.763 208.766 192.926 200.896 194.238 192.456C194.58 190.289 194.751 188.065 194.694 185.897C194.637 184.529 192.413 184.529 192.413 185.955Z" fill="white"/>
<path d="M74.1938 154.418C77.9006 150.882 82.6909 149.571 87.5953 148.658C91.074 147.974 89.8194 142.556 86.3407 143.241C80.5238 144.381 74.821 146.149 70.4299 150.369C67.9206 152.821 71.6275 156.927 74.1938 154.418Z" fill="#FCB58A"/>
<path d="M94.2672 156.072L82.3483 159.037C80.5804 159.494 78.8126 158.41 78.3564 156.642L76.4745 149.057C76.0182 147.29 77.1018 145.522 78.8696 145.065L90.7885 142.1C92.5564 141.644 94.3242 142.727 94.7804 144.495L96.6623 152.08C97.1186 153.848 96.0351 155.673 94.2672 156.072Z" fill="#FCB58A"/>
<path d="M193.496 257.696H113.144V240.873H193.496C195.777 240.873 197.602 242.697 197.602 244.979V253.476C197.602 255.814 195.777 257.696 193.496 257.696Z" fill="#F8E7D8"/>
<path d="M243.566 239.561H109.722C109.379 239.561 109.094 239.846 109.094 240.188C109.094 240.53 109.379 240.816 109.722 240.816H189.105C193.781 240.816 197.545 244.579 197.545 249.256C197.545 253.932 193.781 257.696 189.105 257.696H109.722C109.379 257.696 109.094 257.981 109.094 258.323C109.094 258.665 109.379 258.95 109.722 258.95H243.566C248.243 258.95 252.006 255.187 252.006 250.51V248.058C251.949 243.325 248.186 239.561 243.566 239.561Z" fill="#49A0EB"/>
<path d="M14.9416 326.415C16.9376 330.464 27.0315 332.288 37.4106 324.818C53.0933 313.583 62.503 317.005 62.503 307.595C62.503 303.375 61.6475 299.497 60.564 295.049C59.5375 291 59.5945 283.358 59.5945 283.358C59.5945 283.358 52.1238 284.157 48.303 283.472C45.3375 282.959 43.2275 281.819 43.2275 281.819C43.2275 281.819 42.1439 287.864 38.6652 294.251C36.213 298.756 34.3881 301.493 30.225 305.314C27.6018 307.652 11.5769 319.742 14.9416 326.415Z" fill="#285C74"/>
<path d="M174.221 253.932H113.144V253.134H174.221C174.449 253.134 174.62 253.305 174.62 253.533C174.62 253.761 174.506 253.932 174.221 253.932Z" fill="#DEBCA7"/>
<path d="M180.893 245.72H113.144V244.921H180.893C181.121 244.921 181.292 245.093 181.292 245.321C181.292 245.492 181.121 245.72 180.893 245.72Z" fill="#DEBCA7"/>
<path d="M188.364 249.655H113.144V248.856H188.364C188.592 248.856 188.763 249.028 188.763 249.256C188.763 249.484 188.535 249.655 188.364 249.655Z" fill="#DEBCA7"/>
<path d="M256.17 4.66255C261.758 10.4224 264.895 16.7525 268.374 23.881C269.343 25.8199 275.331 21.9421 274.875 20.0031C273.05 12.4184 268.031 5.74609 262.5 0.385454C260.618 -1.32539 254.687 3.1228 256.17 4.66255Z" fill="#F3E9E1"/>
<path d="M290.044 3.97821C289.873 10.9927 288.391 17.6079 287.079 24.4513C286.452 27.4738 292.268 23.9381 292.896 22.3413C295.462 15.612 296.203 7.97018 296.146 0.784652C296.032 -1.32538 290.101 1.86817 290.044 3.97821Z" fill="#F3E9E1"/>
<path d="M303.959 33.0625C308.293 30.9524 312.685 28.8425 317.133 26.9035C318.73 26.2192 320.84 24.3372 320.383 22.3413C319.927 20.4023 317.418 20.5164 315.992 21.1437C311.601 23.1397 307.21 25.1926 302.819 27.3027C301.279 28.1011 299.112 29.8119 299.568 31.8649C300.024 33.8039 302.534 33.7468 303.959 33.0625Z" fill="#F3E9E1"/>
<path d="M157.055 345.291H138.065C138.065 345.291 134.985 346.317 132.362 351.165C129.112 357.21 130.252 363.084 128.199 367.589C125.804 372.778 122.04 374.774 122.04 374.774C122.04 374.774 126.26 375.345 128.769 375.002C131.05 374.66 133.902 372.778 133.902 372.778C133.902 372.778 134.415 373.862 134.529 375.801C134.7 377.911 134.472 379.051 134.472 379.051C134.472 379.051 141.43 377.398 144.224 373.406C148.159 367.817 144.851 361.031 149.927 352.59C152.265 348.827 157.055 345.291 157.055 345.291Z" fill="#BFA990"/>
<path d="M274.647 73.2672C275.388 71.6704 272.594 68.7049 268.374 66.709C264.154 64.713 260.105 64.3708 259.363 66.0247C258.622 67.6214 261.416 70.5869 265.636 72.5829C269.856 74.5789 273.905 74.864 274.647 73.2672Z" fill="#D4BFA9"/>
<path d="M260.789 63.2873C262.215 60.493 263.469 57.5275 263.926 54.391C265.009 47.6617 263.013 39.9059 267.062 34.4882C270.028 30.5533 275.445 29.1846 280.293 29.7549C286.224 30.3822 292.04 33.7469 294.949 38.9364C297.857 44.183 297.344 51.3115 293.238 55.6456C289.759 59.2954 284.456 60.55 280.749 63.9717C278.696 65.9107 277.327 68.3629 275.787 70.8151L275.274 71.5564C263.811 70.701 260.789 63.2873 260.789 63.2873Z" fill="#EBDBCD"/>
<path d="M280.749 52.2809C280.236 50.5131 278.696 50.6841 277.327 51.3114C276.985 50.3419 276.415 49.0873 275.388 48.7451C274.248 48.3459 272.993 49.1444 272.138 49.8287C270.256 51.3684 268.83 53.6496 268.032 55.9307C267.233 58.2118 266.834 60.664 266.093 62.9451C265.808 63.8576 267.29 64.2568 267.576 63.2873C268.488 60.3218 268.83 57.1283 270.313 54.3909C271.168 52.8512 272.423 51.1403 274.02 50.342C274.533 50.1138 274.932 49.9998 275.274 50.5701C275.559 50.9693 275.788 51.4255 275.902 51.8817C275.902 51.9387 275.959 51.9388 275.959 51.9958C275.731 52.1098 275.616 52.2239 275.445 52.3379C273.906 53.5925 271.91 55.7596 271.967 57.8696C272.024 58.8391 272.651 59.6375 273.621 59.6946C274.704 59.7516 275.788 58.8391 276.415 58.0407C277.669 56.501 278.012 54.505 277.67 52.6231C278.012 52.395 278.354 52.2809 278.696 52.2809C279.608 52.2239 279.266 53.7636 279.152 54.2769C278.696 56.0448 277.784 57.5845 276.871 59.1243C276.187 60.2648 275.559 61.5195 274.704 62.546C273.792 63.6865 272.48 64.4849 271.282 65.3403C270.484 65.8536 271.282 67.1652 272.081 66.6519C273.507 65.6825 274.932 64.713 276.016 63.3444C277.099 61.8616 278.069 60.2078 278.981 58.668C279.951 56.9002 281.376 54.3339 280.749 52.2809ZM276.244 55.0182C276.073 55.8166 275.731 56.615 275.16 57.2423C274.818 57.5845 273.392 58.8962 273.507 57.7556C273.564 57.0713 274.077 56.3299 274.419 55.7596C274.932 55.0182 275.56 54.3339 276.244 53.7636C276.301 54.1628 276.301 54.619 276.244 55.0182Z" fill="#BFA990"/>
<path d="M265.636 72.5259C261.815 70.701 259.192 68.1917 259.249 66.5379L257.595 73.2672C256.968 74.5788 259.249 76.974 262.671 78.5708C266.092 80.1676 269.343 80.4528 269.97 79.1411C270.027 79.0841 270.027 79.027 270.027 78.913L274.361 73.6094C273.05 74.75 269.457 74.3508 265.636 72.5259Z" fill="#BFA990"/>
<path d="M51.4399 159.779C50.0712 160.121 48.7025 159.38 48.3033 158.011L30.4535 94.1395C30.1114 92.7708 30.8527 91.4022 32.2214 91.003C33.5901 90.6608 34.9587 91.4022 35.3579 92.7708L53.2077 156.642C53.6069 158.011 52.8085 159.437 51.4399 159.779Z" fill="#C5C6E3"/>
<path d="M48.1887 157.212C48.2457 155.844 49.4433 154.703 50.869 154.817L117.079 158.695C118.447 158.752 119.588 159.95 119.474 161.375C119.417 162.744 118.219 163.885 116.793 163.771L50.5839 159.893C49.2152 159.836 48.1316 158.638 48.1887 157.212Z" fill="#C5C6E3"/>
<path d="M308.065 200.383L305.157 199.584C304.986 199.527 304.871 199.356 304.928 199.185C304.985 199.014 305.157 198.9 305.328 198.957L307.552 199.584L308.179 197.36C308.236 197.189 308.407 197.075 308.578 197.132C308.749 197.189 308.863 197.36 308.806 197.531L308.065 200.383Z" fill="#EBDBCD"/>
<path d="M300.024 198.159C299.967 198.159 299.967 198.159 299.967 198.159L294.721 196.733C294.55 196.676 294.436 196.505 294.493 196.334C294.55 196.163 294.721 196.049 294.892 196.106L300.138 197.531C300.309 197.588 300.423 197.759 300.366 197.93C300.309 198.102 300.195 198.159 300.024 198.159ZM289.531 195.364C289.474 195.364 289.474 195.364 289.474 195.364L284.228 193.939C284.056 193.882 283.942 193.71 283.999 193.539C284.056 193.368 284.227 193.254 284.399 193.311L289.645 194.737C289.816 194.794 289.93 194.965 289.873 195.136C289.816 195.25 289.702 195.364 289.531 195.364ZM279.152 192.513C279.095 192.513 279.095 192.513 279.095 192.513L273.848 191.087C273.677 191.03 273.563 190.859 273.62 190.688C273.677 190.517 273.848 190.403 274.019 190.46L279.266 191.885C279.437 191.942 279.551 192.114 279.494 192.285C279.38 192.456 279.266 192.513 279.152 192.513Z" fill="#EBDBCD"/>
<path d="M268.659 189.718C268.602 189.718 268.602 189.718 268.602 189.718L265.694 188.92L266.492 186.012C266.549 185.841 266.72 185.726 266.891 185.783C267.062 185.841 267.177 186.012 267.12 186.183L266.492 188.407L268.716 189.034C268.887 189.091 269.001 189.262 268.944 189.433C268.887 189.604 268.773 189.718 268.659 189.718Z" fill="#EBDBCD"/>
<path d="M268.146 181.221C268.089 181.221 268.089 181.221 268.089 181.221C267.918 181.164 267.804 180.993 267.861 180.822L269.229 175.575C269.286 175.404 269.457 175.29 269.628 175.347C269.8 175.404 269.914 175.575 269.857 175.747L268.488 180.993C268.431 181.107 268.317 181.221 268.146 181.221ZM270.997 170.785C270.94 170.785 270.94 170.785 270.94 170.785C270.769 170.728 270.655 170.557 270.712 170.386L272.081 165.139C272.138 164.968 272.309 164.854 272.48 164.911C272.651 164.968 272.765 165.139 272.708 165.31L271.339 170.557C271.282 170.671 271.168 170.785 270.997 170.785Z" fill="#EBDBCD"/>
<path d="M273.791 160.292C273.734 160.292 273.734 160.292 273.734 160.292C273.563 160.235 273.449 160.064 273.506 159.893L274.304 156.984L277.213 157.783C277.384 157.84 277.498 158.011 277.441 158.182C277.384 158.353 277.213 158.467 277.042 158.41L274.818 157.783L274.19 160.007C274.076 160.235 273.962 160.292 273.791 160.292Z" fill="#EBDBCD"/>
<path d="M308.465 166.907C308.408 166.907 308.408 166.907 308.408 166.907L303.161 165.482C302.99 165.425 302.876 165.253 302.933 165.082C302.99 164.911 303.161 164.797 303.332 164.854L308.579 166.28C308.75 166.337 308.864 166.508 308.807 166.679C308.75 166.793 308.636 166.907 308.465 166.907ZM298.029 164.056C297.971 164.056 297.971 164.056 297.971 164.056L292.725 162.63C292.554 162.573 292.44 162.402 292.497 162.231C292.554 162.06 292.725 161.946 292.896 162.003L298.143 163.429C298.314 163.486 298.428 163.657 298.371 163.828C298.314 163.999 298.143 164.056 298.029 164.056ZM287.535 161.261C287.478 161.261 287.478 161.261 287.478 161.261L282.232 159.836C282.061 159.779 281.947 159.608 282.004 159.437C282.061 159.265 282.232 159.151 282.403 159.208L287.649 160.634C287.821 160.691 287.935 160.862 287.878 161.033C287.82 161.147 287.706 161.261 287.535 161.261Z" fill="#EBDBCD"/>
<path d="M315.593 171.583C315.536 171.583 315.536 171.583 315.536 171.583C315.365 171.526 315.251 171.355 315.308 171.184L315.935 168.96L313.711 168.333C313.54 168.276 313.426 168.105 313.483 167.934C313.54 167.763 313.711 167.649 313.882 167.706L316.791 168.504L315.992 171.412C315.878 171.527 315.707 171.583 315.593 171.583Z" fill="#EBDBCD"/>
<path d="M309.947 192.513C309.89 192.513 309.89 192.513 309.89 192.513C309.719 192.456 309.605 192.285 309.662 192.114L311.031 186.867C311.088 186.696 311.259 186.582 311.43 186.639C311.601 186.696 311.715 186.867 311.658 187.038L310.289 192.285C310.232 192.399 310.061 192.513 309.947 192.513ZM312.798 182.077C312.741 182.077 312.741 182.077 312.741 182.077C312.57 182.02 312.456 181.849 312.513 181.678L313.882 176.431C313.939 176.26 314.11 176.146 314.281 176.203C314.452 176.26 314.566 176.431 314.509 176.602L313.141 181.849C313.084 181.963 312.912 182.077 312.798 182.077Z" fill="#EBDBCD"/>
<path d="M195.435 173.18C187.223 172.439 180.779 170.842 176.787 169.645C182.546 173.066 189.447 175.461 197.032 176.26C201.651 176.773 206.213 176.659 210.433 176.032C210.376 174.948 210.376 173.979 210.376 173.123C206.441 173.58 201.252 173.751 195.435 173.18Z" fill="#F0A173"/>
<path d="M6.21579 77.8865C6.10173 77.8865 5.98768 77.8295 5.93065 77.7724C5.4174 77.0311 5.01824 76.2327 4.61905 75.3773C4.56202 75.2062 4.61901 75.0351 4.79009 74.921C4.96117 74.864 5.13229 74.9211 5.24634 75.0922C5.58851 75.8905 5.98768 76.6889 6.50093 77.3733C6.61499 77.5444 6.55797 77.7154 6.44392 77.8295C6.38689 77.8865 6.27282 77.8865 6.21579 77.8865Z" fill="#EBDBCD"/>
<path d="M3.8778 70.1877C3.70671 70.1877 3.53564 70.0166 3.53564 69.8455V69.6745C3.53564 67.8496 3.8208 66.0817 4.33405 64.2568C4.39108 64.0857 4.56213 63.9717 4.73322 64.0287C4.9043 64.0857 5.01837 64.2568 4.96134 64.4278C4.44809 66.1387 4.16294 67.9066 4.16294 69.6175V69.7315C4.21997 70.0166 4.04888 70.1877 3.8778 70.1877ZM7.07135 59.7516C7.01433 59.7516 6.95734 59.7516 6.90031 59.6946C6.72923 59.6375 6.67214 59.4094 6.84323 59.2383C7.8127 57.7556 8.95331 56.2729 10.379 54.9042C10.4931 54.7901 10.7211 54.7901 10.8352 54.9042C10.9492 55.0183 10.9492 55.2464 10.8352 55.3605C9.46652 56.7291 8.32596 58.1548 7.41351 59.5805C7.29945 59.6945 7.24244 59.7516 7.07135 59.7516ZM14.7701 51.8817C14.7131 51.8817 14.542 51.8247 14.542 51.7677C14.428 51.5966 14.485 51.4255 14.5991 51.3114C15.5115 50.6271 16.481 49.9428 17.5645 49.2014C18.0778 48.8592 18.6481 48.46 19.2183 48.1179C19.3894 48.0608 19.5605 48.0608 19.6745 48.1749C19.7316 48.346 19.7316 48.5171 19.6175 48.6311C19.1043 48.9733 18.534 49.3155 17.9637 49.7147C16.8802 50.399 15.9677 51.0833 15.0553 51.8247C14.8842 51.8247 14.8272 51.8817 14.7701 51.8817ZM23.9516 45.7227C23.8376 45.7227 23.7235 45.6656 23.6665 45.5516C23.6095 45.3805 23.6095 45.2095 23.7236 45.0954C25.5485 43.8978 26.9741 42.9283 28.1717 41.9018C28.2858 41.7877 28.5139 41.8448 28.628 41.9589C28.742 42.0729 28.685 42.301 28.571 42.4151C27.3163 43.4416 25.8906 44.4111 24.0087 45.6657C24.0657 45.7227 24.0087 45.7227 23.9516 45.7227ZM43.056 42.4151C42.8849 42.4151 42.7139 42.244 42.7139 42.0729C42.7139 41.9018 42.8279 41.7307 43.056 41.7307C44.8809 41.6737 46.6488 41.5026 48.4737 41.0464C48.6448 40.9893 48.8159 41.1034 48.8729 41.2745C48.9299 41.4456 48.8159 41.6167 48.6448 41.6737C46.7629 42.13 44.8809 42.358 43.056 42.4151ZM37.5813 41.9018C37.5243 41.9018 37.5243 41.9018 37.5243 41.9018C35.6994 41.5596 33.8745 40.9894 32.2207 40.248C32.0496 40.191 31.9926 39.9629 32.0496 39.7918C32.1067 39.6207 32.3347 39.5636 32.5058 39.6207C34.1596 40.362 35.9276 40.8753 37.6954 41.2745C37.8665 41.3315 37.9805 41.5026 37.9235 41.6737C37.8665 41.7878 37.7524 41.9018 37.5813 41.9018ZM53.7773 40.0199C53.6632 40.0199 53.5492 39.9629 53.4922 39.7918C53.4351 39.6207 53.4922 39.4496 53.6633 39.3355C55.2601 38.6512 56.8568 37.7958 58.5107 36.8263C58.6817 36.7693 58.8528 36.7693 58.9668 36.9404C59.0239 37.1115 59.0239 37.2826 58.8528 37.3966C57.142 38.4231 55.5451 39.2215 53.8913 39.9058C53.8343 39.9628 53.7773 40.0199 53.7773 40.0199ZM32.3918 38.7082C32.3348 38.7082 32.2207 38.6512 32.1637 38.6512C32.0496 38.5372 31.9926 38.309 32.1067 38.195C33.3613 36.7693 34.2737 35.2295 35.0151 33.6327C35.0721 33.4616 35.3002 33.4047 35.4713 33.4617C35.6424 33.5187 35.6994 33.7468 35.6424 33.9179C34.901 35.5717 33.8745 37.1685 32.6769 38.6512C32.5629 38.7082 32.5059 38.7082 32.3918 38.7082ZM27.6014 37.3966C27.5444 37.3966 27.4303 37.3395 27.3733 37.3395C25.8336 36.0849 24.579 34.7163 23.6095 33.1765C23.5524 33.0055 23.5525 32.8343 23.7236 32.7203C23.8947 32.6633 24.0657 32.6633 24.1798 32.8344C25.0922 34.3171 26.2898 35.6288 27.7725 36.8263C27.8866 36.9404 27.9436 37.1685 27.8296 37.2825C27.7725 37.3966 27.6585 37.3966 27.6014 37.3966ZM63.2439 34.3741C63.1299 34.3741 63.0158 34.3171 62.9588 34.2601C62.8447 34.089 62.9018 33.9179 63.0158 33.8038C64.3845 32.8344 65.6962 31.8649 66.8937 30.8384L67.407 30.4392C67.5781 30.3251 67.7491 30.3821 67.8632 30.4962C67.9202 30.6102 67.9202 30.8384 67.8062 30.9524L67.2929 31.3516C66.0383 32.3211 64.7837 33.2906 63.4151 34.3171C63.358 34.3741 63.301 34.3741 63.2439 34.3741ZM36.7259 28.7283C36.4978 28.7283 36.3838 28.5573 36.3838 28.3862C36.3838 28.1581 36.3838 27.987 36.3838 27.7589C36.3838 27.0175 36.3267 26.2761 36.1556 25.5348C35.9846 24.7364 35.7564 23.938 35.3572 23.1396C35.3002 22.9685 35.3573 22.7974 35.5283 22.6834C35.6994 22.6263 35.8705 22.6834 35.9846 22.8545C36.3838 23.6529 36.6689 24.5082 36.84 25.3637C37.0111 26.105 37.0681 26.9035 37.0681 27.7019C37.0681 27.93 37.0681 28.1581 37.0681 28.3862C37.011 28.6143 36.84 28.7283 36.7259 28.7283ZM22.0127 28.158C21.8416 28.158 21.6705 28.044 21.6705 27.8729C21.6135 27.5307 21.6135 27.0745 21.6135 26.7323C21.6135 25.1926 21.9556 23.6529 22.5259 22.3412C22.583 22.1701 22.8111 22.1131 22.9822 22.1701C23.1533 22.2271 23.2103 22.4553 23.1533 22.6264C22.583 23.881 22.2979 25.3066 22.2979 26.7894C22.2979 27.1315 22.2979 27.5307 22.3549 27.8729C22.4119 27.987 22.2408 28.158 22.0127 28.158C22.0698 28.158 22.0698 28.158 22.0127 28.158ZM31.9356 19.3757C31.8785 19.3757 31.8215 19.3757 31.7645 19.3187C30.3958 18.5203 28.9701 18.2922 27.6014 18.6344C27.3163 18.6914 27.0312 18.8055 26.746 18.8625C26.5749 18.9196 26.4039 18.8625 26.3468 18.6344C26.2898 18.4633 26.3469 18.2922 26.575 18.2352C26.8601 18.1211 27.2023 18.0071 27.4874 17.95C29.0272 17.6079 30.6239 17.893 32.1637 18.7484C32.3348 18.8055 32.3918 19.0336 32.2778 19.2047C32.1637 19.3187 32.0496 19.3757 31.9356 19.3757Z" fill="#EBDBCD"/>
<path d="M72.1405 27.8159C72.0265 27.8159 71.9124 27.7588 71.8554 27.6448C71.7984 27.4737 71.7984 27.3027 71.9695 27.1886C72.939 26.6183 73.7374 26.2191 74.4787 25.991C74.6498 25.934 74.8209 26.048 74.8779 26.2191C74.9349 26.3902 74.8209 26.5613 74.6498 26.6183C74.0225 26.8464 73.2241 27.1316 72.3116 27.7019C72.3116 27.8159 72.2546 27.8159 72.1405 27.8159Z" fill="#EBDBCD"/>
</svg>
