<svg width="280" height="280" viewBox="0 0 280 280" fill="none" xmlns="http://www.w3.org/2000/svg">
<path d="M280 214.144H0V214.284H280V214.144Z" fill="#EBEBEB"/>
<path d="M251.944 223.154H233.397V223.294H251.944V223.154Z" fill="#EBEBEB"/>
<path d="M185.483 224.678H180.617V224.818H185.483V224.678Z" fill="#EBEBEB"/>
<path d="M232.837 217.958H222.09V218.098H232.837V217.958Z" fill="#EBEBEB"/>
<path d="M53.5641 218.898H29.3777V219.038H53.5641V218.898Z" fill="#EBEBEB"/>
<path d="M62.0985 218.898H58.5537V219.038H62.0985V218.898Z" fill="#EBEBEB"/>
<path d="M126.084 221.262H73.6233V221.402H126.084V221.262Z" fill="#EBEBEB"/>
<path d="M132.72 189.168H24.5895C23.7424 189.167 22.9305 188.829 22.332 188.23C21.7336 187.63 21.3975 186.818 21.3975 185.97V33.9696C21.4048 33.1274 21.7442 32.3221 22.3419 31.7287C22.9395 31.1352 23.7472 30.8015 24.5895 30.8H132.72C133.568 30.8 134.381 31.1369 134.981 31.7366C135.581 32.3363 135.917 33.1496 135.917 33.9976V185.97C135.917 186.819 135.581 187.632 134.981 188.232C134.381 188.831 133.568 189.168 132.72 189.168ZM24.5895 30.912C23.7795 30.9135 23.0032 31.2363 22.431 31.8096C21.8588 32.3828 21.5375 33.1597 21.5375 33.9696V185.97C21.5375 186.78 21.8588 187.557 22.431 188.131C23.0032 188.704 23.7795 189.027 24.5895 189.028H132.72C133.53 189.027 134.307 188.704 134.88 188.131C135.453 187.558 135.776 186.781 135.777 185.97V33.9696C135.776 33.1592 135.453 32.3823 134.88 31.8092C134.307 31.2361 133.53 30.9135 132.72 30.912H24.5895Z" fill="#EBEBEB"/>
<path d="M253.854 189.168H145.718C144.87 189.167 144.058 188.829 143.458 188.23C142.859 187.631 142.522 186.818 142.52 185.97V33.9696C142.529 33.1269 142.869 32.3216 143.468 31.7283C144.067 31.135 144.875 30.8015 145.718 30.8H253.854C254.695 30.803 255.501 31.1373 256.098 31.7306C256.694 32.3239 257.033 33.1284 257.04 33.9696V185.97C257.04 186.817 256.705 187.628 256.107 188.228C255.51 188.827 254.7 189.165 253.854 189.168ZM145.718 30.912C144.907 30.9135 144.13 31.2361 143.557 31.8092C142.984 32.3823 142.661 33.1592 142.66 33.9696V185.97C142.661 186.781 142.984 187.558 143.557 188.131C144.13 188.704 144.907 189.027 145.718 189.028H253.854C254.664 189.027 255.441 188.704 256.014 188.131C256.587 187.558 256.91 186.781 256.911 185.97V33.9696C256.91 33.1592 256.587 32.3823 256.014 31.8092C255.441 31.2361 254.664 30.9135 253.854 30.912H145.718Z" fill="#EBEBEB"/>
<path d="M243.426 40.3032H70.532V119.963H243.426V40.3032Z" fill="#E6E6E6"/>
<path d="M248.248 40.3032H71.6519V119.963H248.248V40.3032Z" fill="#F0F0F0"/>
<path d="M243.426 119.963H70.532V122.119H245.678L243.426 119.963Z" fill="#E6E6E6"/>
<path d="M250.494 119.963H75.6335L76.6695 122.119H251.535L250.494 119.963Z" fill="#F0F0F0"/>
<path d="M244.826 116.357V43.921L75.0736 43.921V116.357L244.826 116.357Z" fill="#FAFAFA"/>
<path d="M100.817 116.351L124.925 43.9153H147.952L123.838 116.351H100.817Z" fill="white"/>
<path d="M128.789 116.351L152.897 43.9153H161.874L137.76 116.351H128.789Z" fill="white"/>
<path d="M244.826 116.357V43.921H243.914V116.357H244.826Z" fill="#E6E6E6"/>
<path d="M38.0801 214.144H47.4097L47.4097 156.363H38.0801L38.0801 214.144Z" fill="#F0F0F0"/>
<path d="M160.412 156.358H47.4097V214.138H160.412V156.358Z" fill="#F5F5F5"/>
<path d="M161.157 183.467H58.1223V207.838H161.157V183.467Z" fill="#FAFAFA"/>
<path d="M161.157 166.74H58.1223V179.391H161.157V166.74Z" fill="#FAFAFA"/>
<g style="mix-blend-mode:multiply" opacity="0.7">
<path d="M57.4839 207.833H58.1223V183.462H57.4839V207.833Z" fill="#E6E6E6"/>
</g>
<g style="mix-blend-mode:multiply" opacity="0.7">
<path d="M57.4839 179.39H58.1223V166.74H57.4839V179.39Z" fill="#E6E6E6"/>
</g>
<g style="mix-blend-mode:multiply" opacity="0.7">
<path d="M38.0743 161.011L160.619 161.011V159.387L38.0743 159.387V161.011Z" fill="#E6E6E6"/>
</g>
<path d="M36.9825 160.076H47.4041V155.378H36.9825V160.076Z" fill="#F0F0F0"/>
<path d="M161.504 155.378H47.4097V160.076H161.504V155.378Z" fill="#F5F5F5"/>
<path d="M217.448 199.623C216.657 197.82 216.042 195.945 215.611 194.023C215.153 192.091 214.807 190.133 214.575 188.16C214.111 184.221 213.997 180.248 214.234 176.288C214.718 168.359 216.295 160.534 218.921 153.037L219.929 150.237L221.021 147.482C221.39 146.569 221.799 145.667 222.208 144.771C222.617 143.875 223.003 142.963 223.446 142.083C224.358 140.331 225.187 138.544 226.195 136.853L227.657 134.288L229.23 131.796C233.408 125.155 238.445 119.096 244.21 113.775C243.426 115.584 242.592 117.337 241.735 119.067C240.878 120.798 240.055 122.545 239.238 124.275C237.602 127.742 235.945 131.158 234.41 134.613L233.246 137.2L232.126 139.793C231.364 141.512 230.67 143.259 229.947 144.984L228.911 147.594C228.564 148.467 228.217 149.33 227.914 150.215L226.923 152.835L226.01 155.479C223.555 162.523 221.574 169.724 220.08 177.033C219.335 180.695 218.702 184.397 218.26 188.154C217.764 191.958 217.493 195.788 217.448 199.623Z" fill="#E6E6E6"/>
<path d="M180.678 186.083C181.239 179.625 181.085 173.125 180.219 166.701C180.135 165.923 179.99 165.144 179.861 164.371C179.732 163.599 179.603 162.826 179.452 162.064C179.301 161.303 179.127 160.535 178.959 159.774L178.707 158.654L178.41 157.534C177.649 154.528 176.695 151.575 175.554 148.691C173.25 142.862 170.343 137.29 166.88 132.065L165.57 130.06C165.11 129.411 164.634 128.761 164.186 128.095L163.481 127.12C163.251 126.79 162.994 126.482 162.758 126.151L161.308 124.191C160.849 123.508 160.311 122.898 159.818 122.243C159.326 121.587 158.81 120.943 158.318 120.271C157.282 118.978 156.229 117.684 155.238 116.29C161.375 119.283 166.894 123.405 171.506 128.442C176.259 133.527 180.01 139.465 182.56 145.942C185.119 152.461 186.325 159.432 186.105 166.432C185.986 169.886 185.494 173.316 184.638 176.663C184.2 178.319 183.661 179.946 183.025 181.535C182.398 183.126 181.611 184.65 180.678 186.083Z" fill="#E6E6E6"/>
<path d="M182.364 186.082C182.47 182.106 182.482 178.214 182.392 174.322C182.302 170.43 182.151 166.617 181.832 162.809C181.284 155.255 180.217 147.749 178.64 140.342C178.22 138.51 177.834 136.662 177.318 134.854C176.893 133.022 176.31 131.236 175.801 129.416C174.681 125.832 173.454 122.259 172.038 118.742C169.238 111.675 165.704 104.888 161.874 97.8992C165.006 100.385 167.871 103.188 170.425 106.266C173.017 109.351 175.329 112.66 177.335 116.155L178.808 118.804C179.284 119.694 179.693 120.618 180.141 121.531L180.796 122.898C181.014 123.357 181.188 123.833 181.384 124.298L182.532 127.098C183.215 129.002 183.898 130.917 184.458 132.86C185.018 134.803 185.494 136.78 185.97 138.74C187.655 146.639 188.241 154.733 187.712 162.792C187.445 166.789 186.884 170.761 186.032 174.675C185.606 176.624 185.097 178.562 184.498 180.466C183.917 182.385 183.204 184.262 182.364 186.082Z" fill="#E6E6E6"/>
<path d="M215.438 190.859C214.441 188.58 213.528 186.262 212.694 183.932C212.268 182.762 211.87 181.591 211.462 180.421L210.342 176.887C208.846 172.161 207.542 167.367 206.366 162.585C204.041 152.958 202.259 143.208 201.029 133.381C199.803 123.536 199.213 113.622 199.265 103.701C199.325 101.222 199.41 98.7392 199.522 96.2528C199.578 93.7776 199.892 91.2968 200.11 88.8216C200.329 86.3464 200.598 83.8824 201.068 81.4296C201.538 78.9768 201.953 76.5352 202.479 74.1104C203.431 84.0279 204.159 93.7104 205.156 103.438C206.153 113.165 207.267 122.802 208.471 132.468L212.145 161.521C213.36 171.231 214.558 180.953 215.438 190.859Z" fill="#E6E6E6"/>
<path d="M213.802 189.28C212.626 187.102 211.529 184.878 210.504 182.633C209.983 181.513 209.49 180.393 208.986 179.273L207.547 175.84C205.666 171.282 203.963 166.662 202.367 161.997C199.218 152.658 196.575 143.156 194.449 133.532C192.312 123.883 190.773 114.111 189.84 104.272C189.646 101.808 189.476 99.3422 189.33 96.8745C189.146 94.4161 189.19 91.9297 189.146 89.4601C189.101 86.9905 189.112 84.5209 189.302 82.0401C189.493 79.5593 189.638 77.1009 189.896 74.6425C191.957 84.3473 193.693 93.8897 195.675 103.415C197.658 112.941 199.662 122.416 201.757 131.902L208.023 160.406C210.078 169.943 212.128 179.497 213.802 189.28Z" fill="#E6E6E6"/>
<path d="M220.203 201.555C218.781 199.778 217.433 197.954 216.16 196.084C215.516 195.154 214.889 194.208 214.267 193.284L212.453 190.4C211.249 188.479 210.123 186.525 208.992 184.57C208.432 183.596 207.9 182.599 207.357 181.608C206.813 180.617 206.276 179.626 205.755 178.623C201.601 170.601 197.957 162.325 194.846 153.843C191.714 145.352 189.199 136.645 187.32 127.792C186.883 125.552 186.467 123.325 186.071 121.111C185.679 118.871 185.449 116.631 185.164 114.391L184.8 111.031C184.693 109.911 184.654 108.763 184.604 107.632C184.492 105.366 184.441 103.1 184.453 100.834C187.493 109.407 190.053 117.886 193.009 126.269C195.966 134.652 198.8 142.968 201.891 151.273L211.12 176.238C214.217 184.593 217.341 192.942 220.203 201.555Z" fill="#E6E6E6"/>
<path d="M210.56 187.477C209.136 185.944 207.792 184.338 206.533 182.667C205.245 181.02 204.069 179.307 202.871 177.593C201.673 175.879 200.581 174.11 199.511 172.323C198.951 171.433 198.453 170.537 197.926 169.635C197.4 168.734 196.868 167.838 196.392 166.914C195.417 165.071 194.409 163.246 193.502 161.37C192.595 159.494 191.716 157.607 190.831 155.719C189.946 153.832 189.218 151.878 188.406 149.957L187.846 148.507L187.286 147.039L186.211 144.105C184.761 140.185 183.613 136.181 182.448 132.177C181.955 130.15 181.434 128.128 180.969 126.095C180.751 125.076 180.471 124.074 180.292 123.043L179.732 119.963C179.541 118.939 179.379 117.908 179.205 116.878C179.032 115.847 178.83 114.834 178.741 113.787C178.505 111.711 178.296 109.635 178.113 107.559C178.041 106.518 177.912 105.487 177.884 104.44C177.856 103.393 177.822 102.351 177.817 101.31C177.783 99.2228 177.807 97.1359 177.889 95.049C180.689 102.962 182.823 110.813 185.455 118.535C186.631 122.455 188.025 126.247 189.246 130.111L191.245 135.856C191.576 136.814 191.873 137.783 192.214 138.735L193.261 141.591C194.572 145.427 196.033 149.207 197.4 153.031C198.122 154.93 198.856 156.817 199.545 158.732L201.717 164.439L206.119 175.891C207.625 179.715 209.109 183.557 210.56 187.477Z" fill="#E6E6E6"/>
<path d="M218.266 196.482C217.14 194.948 216.178 193.303 215.393 191.57C214.585 189.841 213.887 188.062 213.304 186.245C212.154 182.597 211.361 178.846 210.935 175.045C210.506 171.24 210.384 167.406 210.571 163.582C210.633 161.666 210.851 159.768 211.036 157.864C211.221 155.96 211.557 154.078 211.921 152.208C213.355 144.74 215.719 137.482 218.96 130.603C222.097 123.739 226.153 117.334 231.017 111.563C230.513 113.389 229.964 115.179 229.37 116.934C228.838 118.72 228.25 120.467 227.69 122.214L226.044 127.456C225.546 129.214 224.924 130.928 224.47 132.675C222.4 139.551 220.675 146.526 219.302 153.574C218.615 157.076 218.066 160.591 217.655 164.119C217.245 167.647 216.965 171.194 216.815 174.759C216.681 178.326 216.703 181.916 216.922 185.528C217.107 189.207 217.557 192.867 218.266 196.482Z" fill="#E6E6E6"/>
<path d="M215.348 186.155C214.389 184.452 213.538 182.69 212.8 180.88C212.038 179.071 211.383 177.229 210.767 175.37C209.564 171.631 208.612 167.816 207.917 163.951C207.22 160.064 206.773 156.136 206.578 152.191C206.539 151.206 206.522 150.214 206.5 149.223C206.478 148.232 206.5 147.241 206.5 146.25C206.5 145.258 206.573 144.267 206.623 143.276C206.674 142.285 206.73 141.294 206.836 140.302C206.942 139.311 207.032 138.32 207.166 137.334L207.598 134.378C207.76 133.392 207.984 132.418 208.158 131.438C208.258 130.95 208.348 130.458 208.454 129.976C208.561 129.494 208.701 129.002 208.83 128.52C209.781 124.637 211.094 120.852 212.75 117.214C216.026 109.934 220.78 103.303 226.806 98.2969C226.391 99.1985 225.938 100.055 225.518 100.929L224.857 102.206L224.258 103.522L223.048 106.103L221.956 108.718C220.539 112.166 219.324 115.692 218.316 119.28L217.918 120.607L217.588 121.951C217.364 122.847 217.106 123.732 216.905 124.634C216.703 125.535 216.53 126.437 216.317 127.333C216.104 128.229 215.975 129.142 215.802 130.049C215.718 130.497 215.639 130.95 215.544 131.404C215.449 131.858 215.404 132.311 215.331 132.765C215.197 133.678 215.034 134.585 214.928 135.503L214.575 138.242C214.463 139.16 214.402 140.084 214.306 141.002C214.211 141.921 214.133 142.839 214.071 143.763C214.01 144.687 213.931 145.611 213.898 146.535C213.864 147.459 213.78 148.389 213.758 149.335C213.735 150.282 213.718 151.194 213.674 152.135C213.595 155.859 213.64 159.594 213.758 163.335C213.998 170.828 214.592 178.382 215.348 186.155Z" fill="#E6E6E6"/>
<path d="M207.659 178.506L183.053 129.965L184.038 177.565L207.659 178.506Z" fill="#E6E6E6"/>
<path d="M226.598 165.564H177.134L183.607 214.144H220.119L226.598 165.564Z" fill="#F5F5F5"/>
<path d="M195.698 165.564H177.134L183.607 214.144H193.357L195.698 165.564Z" fill="#EBEBEB"/>
<path d="M70.6216 148.215H54.5664V155.378H70.6216V148.215Z" fill="#E0E0E0"/>
<path d="M107.184 155.378L70.6216 155.378V148.215H107.184C107.438 148.215 107.682 148.316 107.861 148.496C108.041 148.675 108.142 148.919 108.142 149.173V154.426C108.14 154.679 108.039 154.921 107.859 155.099C107.68 155.278 107.437 155.378 107.184 155.378Z" fill="#F0F0F0"/>
<path d="M69.5464 149.145H54.5664V154.443H69.5464V149.145Z" fill="#F0F0F0"/>
<path d="M73.8528 142.985H57.7976V148.21H73.8528V142.985Z" fill="#E6E6E6"/>
<path d="M102.273 148.215H73.8529V142.99H102.273C102.527 142.99 102.77 143.091 102.95 143.271C103.13 143.45 103.23 143.694 103.23 143.948V147.28C103.225 147.53 103.121 147.768 102.942 147.943C102.763 148.117 102.523 148.215 102.273 148.215Z" fill="#FAFAFA"/>
<path d="M93.9959 142.985H81.8159V148.21H93.9959V142.985Z" fill="#F5F5F5"/>
<path d="M72.7776 143.92H57.7976V147.28H72.7776V143.92Z" fill="#F5F5F5"/>
<path d="M140 239.434C199.966 239.434 248.578 236.595 248.578 233.094C248.578 229.593 199.966 226.755 140 226.755C80.0338 226.755 31.4216 229.593 31.4216 233.094C31.4216 236.595 80.0338 239.434 140 239.434Z" fill="#F5F5F5"/>
<path d="M207.379 84.5041C208.762 80.0241 194.611 79.0049 191.201 87.0521C186.424 98.3249 193.39 104.664 193.39 104.664C197.45 102.486 205.391 102.161 209.731 103.6L207.379 84.5041Z" fill="#263238"/>
<path d="M208.471 228.469L204.103 228.637L204.081 223.916L208.443 223.748L208.471 228.469Z" fill="#B55B52"/>
<path d="M203.93 227.735H208.88C208.968 227.736 209.053 227.765 209.123 227.819C209.193 227.872 209.243 227.947 209.266 228.032L210.342 231.952C210.369 232.044 210.374 232.142 210.357 232.236C210.339 232.331 210.3 232.42 210.241 232.496C210.183 232.573 210.107 232.634 210.021 232.676C209.934 232.718 209.839 232.738 209.742 232.736C208.012 232.702 207.172 232.602 204.999 232.602C203.661 232.602 200.211 232.742 198.363 232.742C196.515 232.742 196.179 230.916 196.93 230.754C200.29 230.009 202.205 228.99 203.241 228.015C203.426 227.837 203.673 227.736 203.93 227.735Z" fill="#263238"/>
<path opacity="0.2" d="M204.081 223.922L204.092 226.352L208.46 226.375L208.449 223.748L204.081 223.922Z" fill="black"/>
<path d="M194.102 136.539C193.391 141.915 195.815 167.418 197.859 178.539C200.575 193.318 203.146 225.361 203.146 225.361L209.031 225.008C209.031 225.008 209.743 189.879 207.939 177.968C207.822 162.339 208.102 134.966 208.102 134.966L194.102 136.539Z" fill="#263238"/>
<path opacity="0.2" d="M207.967 152.001C207.967 148.036 205.033 144.906 204.299 152.477C203.835 157.298 205.711 165.385 207.911 170.985C207.906 164.886 207.934 158.054 207.967 152.001Z" fill="black"/>
<path d="M234.455 228.956L230.451 229.062L228.564 223.602L232.574 223.496L234.455 228.956Z" fill="#B55B52"/>
<path d="M234.36 227.735H229.421C229.382 227.732 229.343 227.738 229.306 227.753C229.27 227.767 229.237 227.789 229.21 227.817C229.184 227.846 229.163 227.88 229.151 227.917C229.139 227.954 229.136 227.993 229.141 228.032L229.505 231.952C229.543 232.164 229.651 232.357 229.813 232.5C229.975 232.642 230.18 232.726 230.395 232.736C232.109 232.703 232.915 232.602 235.088 232.602C236.427 232.602 238.185 232.742 240.033 232.742C241.881 232.742 241.545 230.916 240.739 230.754C237.115 230.009 236.55 228.99 235.139 228.015C234.913 227.846 234.642 227.748 234.36 227.735Z" fill="#263238"/>
<path opacity="0.2" d="M228.57 223.608L229.539 226.419L233.627 226.537L232.579 223.496L228.57 223.608Z" fill="black"/>
<path d="M200.822 135.783C200.822 135.783 209.899 169.019 214.458 178.825C217.42 193.973 228.021 225.719 228.021 225.719L234.181 225.294C234.181 225.294 227.461 193.172 223.328 178.254C221.088 164.394 219.627 141.294 213.248 134.383L200.822 135.783Z" fill="#263238"/>
<path d="M192.024 111.821C191.907 114.621 191.666 117.337 191.335 120.086C191.005 122.836 190.602 125.558 190.07 128.285L189.863 129.31L189.751 129.87C189.681 130.2 189.574 130.521 189.431 130.827C189.216 131.309 188.882 131.728 188.463 132.048C187.941 132.431 187.306 132.628 186.659 132.608C186.24 132.592 185.826 132.501 185.439 132.339C185.171 132.228 184.915 132.093 184.671 131.936C183.968 131.457 183.327 130.893 182.762 130.256C182.252 129.696 181.787 129.136 181.345 128.576C179.658 126.339 178.159 123.966 176.865 121.481C176.729 121.219 176.694 120.916 176.767 120.63C176.84 120.344 177.016 120.094 177.26 119.929C177.505 119.764 177.802 119.694 178.094 119.734C178.387 119.773 178.655 119.918 178.847 120.142C180.572 122.181 182.314 124.27 184.139 126.106C184.587 126.566 185.047 127.008 185.506 127.4C185.887 127.752 186.308 128.059 186.76 128.313C186.833 128.341 186.9 128.374 186.906 128.363C186.911 128.352 186.872 128.324 186.676 128.307C186.373 128.302 186.076 128.396 185.831 128.576C185.675 128.683 185.547 128.825 185.455 128.99C185.422 129.063 185.455 128.99 185.455 128.99L185.523 128.526L185.663 127.534C186.015 124.897 186.295 122.231 186.553 119.566C186.811 116.9 187.007 114.201 187.186 111.569V111.535C187.221 110.894 187.51 110.294 187.989 109.866C188.467 109.438 189.096 109.218 189.737 109.253C190.378 109.289 190.978 109.578 191.406 110.056C191.834 110.534 192.054 111.163 192.019 111.804L192.024 111.821Z" fill="#B55B52"/>
<path d="M189.969 108.08C185.814 110.113 186.463 115.5 186.463 115.5L193.111 120.182C193.111 120.182 195.541 114.33 195.037 111.524C194.516 108.64 193.049 106.596 189.969 108.08Z" fill="#EA377D"/>
<path opacity="0.2" d="M189.28 112.594C190.254 111.059 191.929 111.429 193.878 112.65C194.331 113.042 194.71 113.513 194.998 114.039C194.58 116.146 193.961 118.209 193.15 120.199L188.463 116.9C188.276 115.414 188.562 113.908 189.28 112.594Z" fill="black"/>
<path d="M179.161 120.904L178.17 117.113L174.81 120.137C174.81 120.137 176.025 122.164 177.979 122.438L179.161 120.904Z" fill="#B55B52"/>
<path d="M175.594 115.567L174.911 116.245C174.391 116.753 174.09 117.443 174.07 118.169C174.05 118.896 174.313 119.601 174.804 120.137L178.164 117.113L177.223 115.73C177.135 115.601 177.02 115.493 176.886 115.413C176.752 115.334 176.602 115.284 176.446 115.269C176.291 115.253 176.134 115.272 175.987 115.324C175.84 115.375 175.705 115.458 175.594 115.567Z" fill="#B55B52"/>
<path d="M177.296 115.825C176.448 114.686 175.679 113.491 174.995 112.246C174.782 111.821 174.093 112.414 174.435 113.036C174.776 113.658 175.409 115.685 176.081 116.424C176.753 117.163 177.296 115.825 177.296 115.825Z" fill="#B55B52"/>
<path d="M188.429 111.154C189.611 121.974 193.139 129.517 194.102 136.539L213.22 134.4C212.139 127.372 211.591 122.774 212.935 109.76C212.994 109.194 212.934 108.622 212.76 108.08C212.586 107.538 212.301 107.039 211.924 106.613C211.546 106.188 211.084 105.845 210.567 105.608C210.049 105.371 209.488 105.244 208.919 105.235C207.755 105.235 206.467 105.235 205.167 105.319C202.254 105.434 199.353 105.76 196.487 106.294C194.471 106.708 192.327 107.29 190.792 107.738C190.062 107.944 189.427 108.398 188.996 109.021C188.565 109.645 188.364 110.399 188.429 111.154Z" fill="#EA377D"/>
<path d="M196.487 106.282C196.487 106.282 193.418 109.603 197.994 114.122C199.697 110.681 202.148 107.664 205.167 105.291L196.487 106.282Z" fill="white"/>
<path d="M203.213 95.6258C202.978 98.4818 203.006 103.662 205.167 105.308C205.167 105.308 200.391 107.907 197.815 112.476C194.454 109.116 196.487 106.283 196.487 106.283C199.517 105.163 199.181 102.883 198.391 100.778L203.213 95.6258Z" fill="#B55B52"/>
<path opacity="0.2" d="M202.687 96.1914C202.832 97.8577 202.62 99.5359 202.065 101.114C201.679 102.2 200.346 102.822 198.935 103.085C198.867 102.292 198.678 101.514 198.375 100.778L202.687 96.1914Z" fill="black"/>
<path d="M207.267 91.6329C206.439 96.2585 206.181 98.2353 203.549 100.352C199.584 103.533 194.085 101.5 193.519 96.7177C193.01 92.4113 194.46 85.5681 199.237 84.2465C200.29 83.9508 201.4 83.9291 202.464 84.1836C203.527 84.438 204.507 84.9601 205.312 85.7003C206.117 86.4404 206.719 87.374 207.061 88.4124C207.403 89.4507 207.474 90.5593 207.267 91.6329Z" fill="#B55B52"/>
<path d="M203.7 87.9201C202.58 90.3953 203.56 94.5953 207.11 94.3377C204.238 97.6137 204.921 104.798 204.921 104.798C206.717 104.927 208.513 104.538 210.095 103.678C210.095 103.678 208.975 96.8857 210.157 92.1201C211.12 88.2449 210.98 80.7241 202.58 82.3593C201.6 82.5497 195.216 84.2241 194.572 87.5785C194.522 87.8809 201.387 89.8689 203.7 87.9201Z" fill="#263238"/>
<path d="M208.32 94.2592C208.221 94.6982 208.035 95.1131 207.775 95.4802C207.514 95.8474 207.184 96.1594 206.803 96.3984C205.778 97.0312 204.932 96.1968 204.938 95.0544C204.938 94.024 205.498 92.456 206.646 92.288C206.901 92.2546 207.16 92.2856 207.4 92.3782C207.64 92.4708 207.853 92.622 208.019 92.818C208.186 93.014 208.301 93.2486 208.353 93.5003C208.406 93.752 208.394 94.013 208.32 94.2592Z" fill="#B55B52"/>
<path opacity="0.2" d="M209.927 112.863C209.854 113.818 210.032 114.776 210.445 115.641C210.857 116.506 211.49 117.247 212.279 117.791C212.38 115.853 212.548 113.68 212.795 111.183C211.82 110.135 210.157 111.048 209.927 112.863Z" fill="black"/>
<path d="M213.36 133.241L214.413 134.854C214.497 134.982 214.357 135.134 214.133 135.156L194.085 137.396C193.911 137.396 193.76 137.346 193.738 137.239L193.368 135.559C193.368 135.442 193.486 135.324 193.671 135.302L213.035 133.129C213.095 133.118 213.156 133.122 213.213 133.142C213.27 133.162 213.32 133.196 213.36 133.241Z" fill="#263238"/>
<path d="M211.025 135.699L211.546 135.638C211.647 135.638 211.719 135.565 211.708 135.503L211.215 133.303C211.215 133.241 211.103 133.196 210.997 133.207L210.482 133.269C210.375 133.269 210.303 133.342 210.319 133.403L210.812 135.599C210.823 135.666 210.924 135.711 211.025 135.699Z" fill="#EA377D"/>
<path d="M195.586 137.43L196.101 137.374C196.207 137.374 196.28 137.295 196.263 137.234L195.77 135.039C195.77 134.971 195.658 134.932 195.558 134.943L195.037 134.999C194.936 134.999 194.863 135.072 194.874 135.139L195.367 137.335C195.384 137.396 195.479 137.441 195.586 137.43Z" fill="#EA377D"/>
<path d="M203.28 136.562L203.801 136.506C203.902 136.506 203.975 136.433 203.963 136.366L203.471 134.17C203.471 134.109 203.359 134.064 203.258 134.075L202.737 134.131C202.636 134.131 202.563 134.204 202.575 134.271L203.067 136.466C203.107 136.534 203.202 136.573 203.28 136.562Z" fill="#EA377D"/>
<path d="M199.36 92.1033C199.315 92.4841 199.08 92.7697 198.834 92.7417C198.587 92.7137 198.419 92.3777 198.464 92.0025C198.509 91.6273 198.744 91.3361 198.996 91.3641C199.248 91.3921 199.422 91.7281 199.36 92.1033Z" fill="#263238"/>
<path d="M195.087 91.5994C195.043 91.9802 194.807 92.2658 194.561 92.2378C194.315 92.2098 194.147 91.8738 194.191 91.4986C194.236 91.1234 194.471 90.8322 194.751 90.8602C195.031 90.8882 195.132 91.2242 195.087 91.5994Z" fill="#263238"/>
<path d="M194.83 90.8936L193.945 90.524C193.945 90.524 194.32 91.28 194.83 90.8936Z" fill="#263238"/>
<path d="M196.146 92.4001C195.705 93.2177 195.155 93.9713 194.51 94.6401C194.687 94.8011 194.897 94.9211 195.126 94.9917C195.354 95.0624 195.595 95.0819 195.832 95.0489L196.146 92.4001Z" fill="#A02724"/>
<path d="M196.896 96.3872C196.878 96.375 196.864 96.3581 196.855 96.3383C196.846 96.3185 196.843 96.2967 196.846 96.2752C196.848 96.2604 196.853 96.2462 196.86 96.2334C196.868 96.2206 196.878 96.2094 196.89 96.2005C196.902 96.1916 196.916 96.1853 196.93 96.1817C196.945 96.1782 196.96 96.1776 196.974 96.18C197.443 96.2618 197.924 96.232 198.378 96.0928C198.832 95.9537 199.248 95.7092 199.59 95.3792C199.6 95.3682 199.612 95.3592 199.625 95.3528C199.638 95.3464 199.653 95.3427 199.668 95.342C199.683 95.3412 199.697 95.3433 199.711 95.3483C199.725 95.3532 199.738 95.3609 199.749 95.3708C199.76 95.3807 199.769 95.3927 199.776 95.4061C199.782 95.4195 199.786 95.434 199.787 95.4489C199.787 95.4637 199.785 95.4785 199.78 95.4925C199.775 95.5065 199.768 95.5194 199.758 95.5304C199.394 95.8885 198.951 96.1546 198.464 96.3065C197.976 96.4585 197.46 96.4919 196.958 96.404L196.896 96.3872Z" fill="#263238"/>
<path d="M201.415 90.1098C201.382 90.0926 201.354 90.0652 201.337 90.0314C201.2 89.7844 201.008 89.5731 200.774 89.4145C200.541 89.2559 200.273 89.1545 199.993 89.1186C199.934 89.1186 199.877 89.095 199.835 89.053C199.793 89.011 199.769 88.954 199.769 88.8946C199.769 88.8352 199.793 88.7782 199.835 88.7362C199.877 88.6942 199.934 88.6706 199.993 88.6706C200.346 88.7085 200.685 88.8299 200.982 89.0246C201.279 89.2193 201.526 89.4819 201.701 89.7906C201.716 89.8159 201.726 89.844 201.731 89.8733C201.735 89.9025 201.733 89.9323 201.726 89.9609C201.719 89.9895 201.706 90.0164 201.688 90.0401C201.67 90.0637 201.648 90.0836 201.623 90.0986C201.591 90.1158 201.556 90.1257 201.52 90.1277C201.484 90.1296 201.449 90.1235 201.415 90.1098Z" fill="#263238"/>
<path d="M193.956 89.3704L193.923 89.3424C193.902 89.3221 193.885 89.2977 193.873 89.2708C193.862 89.2438 193.856 89.2149 193.856 89.1856C193.856 89.1564 193.862 89.1274 193.873 89.1005C193.885 89.0736 193.902 89.0492 193.923 89.0288C194.147 88.7523 194.435 88.5334 194.761 88.3902C195.087 88.247 195.443 88.1838 195.799 88.2056C195.858 88.2131 195.912 88.2438 195.949 88.291C195.986 88.3383 196.002 88.3982 195.995 88.4576C195.987 88.5171 195.956 88.5711 195.909 88.6078C195.862 88.6446 195.802 88.6611 195.743 88.6536C195.461 88.6379 195.179 88.6903 194.922 88.8062C194.665 88.9222 194.439 89.0985 194.264 89.32C194.229 89.3657 194.177 89.3963 194.12 89.4056C194.063 89.415 194.004 89.4024 193.956 89.3704Z" fill="#263238"/>
<path d="M212.716 108.187C214.363 109.867 215.925 111.547 217.448 113.322C218.21 114.207 218.977 115.097 219.688 116.038C220.463 117.006 221.179 118.02 221.833 119.073C222.041 119.401 222.228 119.741 222.393 120.092C222.512 120.363 222.606 120.644 222.673 120.932C222.698 121.049 222.717 121.166 222.729 121.285V121.503C222.734 121.6 222.734 121.698 222.729 121.795V121.946V122.013V122.069L222.701 122.181C222.555 122.786 222.449 123.396 222.259 123.99C221.923 125.2 221.483 126.379 220.943 127.512C220.388 128.663 219.702 129.745 218.899 130.738C218.486 131.241 218.033 131.709 217.543 132.138C217.297 132.356 217.045 132.563 216.771 132.765C216.636 132.86 216.491 132.955 216.345 133.045C216.199 133.135 216.065 133.213 215.83 133.336L214.615 131.27C214.615 131.242 214.738 131.141 214.799 131.063L215.035 130.799C215.191 130.615 215.343 130.419 215.488 130.239C215.776 129.826 216.04 129.396 216.278 128.951C216.755 128.055 217.152 127.118 217.465 126.151C217.605 125.647 217.762 125.16 217.868 124.639C217.975 124.119 218.092 123.62 218.176 123.105C218.26 122.59 218.322 122.058 218.4 121.537V121.436V121.391V121.492C218.4 121.554 218.4 121.638 218.4 121.677C218.397 121.712 218.397 121.748 218.4 121.783V121.923C218.4 122.035 218.4 122.002 218.4 121.957C218.4 121.912 218.221 121.666 218.092 121.481C217.532 120.714 216.827 119.846 216.11 119.023C215.393 118.199 214.643 117.343 213.87 116.519L209.25 111.558L212.716 108.187Z" fill="#B55B52"/>
<path d="M217.039 132.586L213.679 135.705L211.501 132.16C211.501 132.16 213.595 130.654 215.477 131.219L217.039 132.586Z" fill="#B55B52"/>
<path d="M211.12 136.36L210 135.19C209.787 134.965 209.672 134.666 209.678 134.357C209.684 134.048 209.812 133.753 210.034 133.538L211.467 132.132L213.64 135.705L212.705 136.472C212.474 136.654 212.184 136.743 211.891 136.722C211.598 136.702 211.323 136.572 211.12 136.36Z" fill="#B55B52"/>
<path d="M205.139 108.03C204.882 110.029 210.207 115.87 210.207 115.87L215.191 109.631C215.191 109.631 212.867 106.372 211.092 105.633C208.242 104.429 205.431 105.75 205.139 108.03Z" fill="#EA377D"/>
<path d="M199.119 91.3978L198.235 91.0282C198.235 91.0282 198.621 91.7954 199.119 91.3978Z" fill="#263238"/>
<path d="M72.0274 87.4777C69.961 89.7681 67.3906 96.6337 75.3538 95.2561C83.317 93.8785 72.0274 87.4777 72.0274 87.4777Z" fill="#263238"/>
<path d="M74.5641 81.1664C75.0513 78.12 69.4793 71.1257 67.2841 75.4432C64.5905 80.64 74.5641 81.1664 74.5641 81.1664Z" fill="#263238"/>
<path d="M74.581 83.0144C77.1066 81.2448 78.2378 72.3744 73.5954 73.7968C68.001 75.5048 74.581 83.0144 74.581 83.0144Z" fill="#263238"/>
<path d="M87.3601 110.186C87.3097 110.656 87.2649 111.244 87.2257 111.782C87.1865 112.319 87.1641 112.902 87.1473 113.462C87.1473 114.582 87.0801 115.702 87.1137 116.794C87.1607 119.006 87.3609 121.212 87.7129 123.396C87.7913 123.956 87.9145 124.471 88.0153 125.009L88.0489 125.194C88.0477 125.214 88.0477 125.235 88.0489 125.255C88.0489 125.255 88.0489 125.255 88.0489 125.306C88.0489 125.356 88.3177 125.49 88.6985 125.53C89.1431 125.582 89.5923 125.582 90.0369 125.53C92.1891 125.182 94.2937 124.586 96.3089 123.754L97.3953 125.686C96.8745 126.062 96.3761 126.375 95.8497 126.689C95.3233 127.002 94.8025 127.305 94.2481 127.574C93.1188 128.159 91.9305 128.623 90.7033 128.957C90.0084 129.142 89.2942 129.246 88.5753 129.265C87.6359 129.292 86.7081 129.053 85.8985 128.576C85.4115 128.274 84.9967 127.869 84.6833 127.389C84.5343 127.163 84.4085 126.923 84.3081 126.672C84.2569 126.555 84.212 126.435 84.1737 126.314L84.1177 126.135L84.0897 126.022C83.9385 125.429 83.7593 124.83 83.6305 124.23C83.0937 121.837 82.7733 119.401 82.6729 116.95C82.6113 115.735 82.5889 114.526 82.6337 113.31C82.6337 112.7 82.6841 112.095 82.7289 111.485C82.7737 110.874 82.8297 110.292 82.9193 109.609L87.3601 110.186Z" fill="#FFB573"/>
<path d="M86.8002 104.905C88.4802 105.666 88.4802 113.198 88.4802 113.198L80.8753 116.648C80.8753 116.648 79.5761 107.492 81.2841 105.773C82.9921 104.054 84.3418 103.796 86.8002 104.905Z" fill="#0D3344"/>
<path opacity="0.2" d="M86.3801 106.512L87.5225 113.652L83.3953 115.517L86.3801 106.512Z" fill="black"/>
<path d="M95.3345 124.695L98.5097 121.218L99.5065 125.048C99.5065 125.048 97.4737 126.991 95.7433 126.431L95.3345 124.695Z" fill="#FFB573"/>
<path d="M100.554 121.106L101.024 123.004C101.059 123.153 101.055 123.309 101.012 123.457C100.969 123.604 100.888 123.737 100.778 123.844L99.5066 125.048L98.5098 121.218L99.1258 120.658C99.2379 120.556 99.3746 120.486 99.5223 120.453C99.67 120.421 99.8236 120.428 99.9679 120.473C100.112 120.518 100.242 120.6 100.345 120.711C100.448 120.822 100.52 120.958 100.554 121.106Z" fill="#FFB573"/>
<path d="M87.7578 106.641C87.545 109.2 86.2626 115.438 81.0378 130.558L63.5098 127.529C64.9602 120.809 65.7218 116.519 65.0498 103.124C65.0336 102.822 65.0798 102.519 65.1855 102.236C65.2913 101.952 65.4543 101.693 65.6644 101.475C65.8745 101.257 66.1273 101.084 66.4069 100.968C66.6865 100.852 66.987 100.795 67.2898 100.8C69.0472 100.816 70.8025 100.926 72.5482 101.13C75.2291 101.392 77.8883 101.843 80.5058 102.48C82.645 103.04 84.9354 103.858 86.3186 104.362C86.7772 104.528 87.1674 104.842 87.4279 105.255C87.6884 105.668 87.8045 106.155 87.7578 106.641Z" fill="#0D3344"/>
<path opacity="0.2" d="M65.3801 106.87C66.8977 107.542 68.0681 109.525 67.3401 112.683C66.9919 114.116 66.2443 115.421 65.1841 116.446C65.3297 113.943 65.3521 111.014 65.2345 107.24L65.3801 106.87Z" fill="black"/>
<path d="M74.8777 92.3047C74.9393 94.9535 74.6313 99.7303 72.5425 101.13C72.5425 101.13 74.0601 103.029 78.2993 106.299C82.3425 104.059 80.5057 102.502 80.5057 102.502C77.7673 101.332 78.2041 99.2263 79.0441 97.3223L74.8777 92.3047Z" fill="#FFB573"/>
<path opacity="0.2" d="M76.5801 94.3544L79.0441 97.3168C78.8413 97.7588 78.6783 98.2179 78.5569 98.6888C77.4929 98.3416 75.9361 97.1152 75.9081 95.8888C75.8913 95.312 76.4401 94.6008 76.5801 94.3544Z" fill="black"/>
<path d="M72.8001 87.4272C73.0409 91.7672 73.0465 93.5872 75.2249 95.8272C78.5009 99.1872 83.7761 97.9552 84.8401 93.632C85.7977 89.712 85.2433 83.2944 81.0097 81.5416C80.0757 81.1498 79.0569 81.0038 78.0505 81.1174C77.0441 81.231 76.0836 81.6005 75.2604 82.1906C74.4373 82.7807 73.779 83.5718 73.3483 84.4885C72.9176 85.4051 72.7289 86.4168 72.8001 87.4272Z" fill="#FFB573"/>
<path d="M72.761 90.3336C74.6314 90.4288 76.7762 86.8224 75.9082 85.1928C76.8882 84.9744 81.0657 85.4448 81.0489 83.9048C82.9361 85.2208 87.0801 85.288 87.7689 83.5016C88.4577 81.7152 86.8898 80.052 84.8514 80.7016C83.3786 76.9048 76.2946 76.1208 73.6514 79.7272C70.3026 79.6432 63.0282 85.12 72.761 90.3336Z" fill="#263238"/>
<path d="M80.304 88.6256C80.304 88.9784 80.4832 89.264 80.7184 89.264C80.9536 89.264 81.1328 88.9841 81.1384 88.6313C81.144 88.2784 80.9536 87.9872 80.724 87.9872C80.4944 87.9872 80.304 88.2728 80.304 88.6256Z" fill="#263238"/>
<path d="M84.2913 88.6481C84.2913 89.0009 84.4761 89.2865 84.7057 89.2921C84.9353 89.2977 85.1257 89.0065 85.1313 88.6537C85.1369 88.3009 84.9465 88.0153 84.7169 88.0097C84.4873 88.0041 84.2969 88.2953 84.2913 88.6481Z" fill="#263238"/>
<path d="M84.6162 88.032L85.4618 87.7912C85.4618 87.7912 85.025 88.48 84.6162 88.032Z" fill="#263238"/>
<path d="M83.0593 89.2753C83.3686 90.0756 83.787 90.8294 84.3025 91.5153C84.1217 91.6428 83.9154 91.7293 83.6978 91.769C83.4802 91.8086 83.2566 91.8004 83.0425 91.7449L83.0593 89.2753Z" fill="#ED893E"/>
<path d="M80.9873 93.1391C81.1594 93.1669 81.3337 93.18 81.5081 93.1783C81.5218 93.1791 81.5355 93.177 81.5484 93.1723C81.5613 93.1676 81.573 93.1603 81.583 93.1508C81.593 93.1414 81.6009 93.13 81.6063 93.1174C81.6117 93.1048 81.6145 93.0912 81.6145 93.0775C81.6131 93.0497 81.6015 93.0235 81.5818 93.0038C81.5621 92.9841 81.5359 92.9725 81.5081 92.9711C81.0677 92.9764 80.6323 92.8777 80.2373 92.6831C79.8422 92.4885 79.4987 92.2034 79.2345 91.8511C79.2276 91.8388 79.2182 91.8281 79.207 91.8196C79.1957 91.8112 79.1828 91.8052 79.1691 91.802C79.1554 91.7989 79.1412 91.7986 79.1273 91.8013C79.1135 91.8039 79.1004 91.8095 79.0889 91.8175C79.0704 91.8372 79.0601 91.8633 79.0601 91.8903C79.0601 91.9174 79.0704 91.9434 79.0889 91.9631C79.3126 92.2742 79.5954 92.5382 79.9211 92.7399C80.2468 92.9417 80.6091 93.0774 80.9873 93.1391Z" fill="#263238"/>
<path d="M80.3993 93.7329C80.5479 93.8217 80.7033 93.8984 80.8641 93.9625C80.8766 93.968 80.89 93.9709 80.9036 93.971C80.9172 93.9711 80.9307 93.9685 80.9432 93.9632C80.9558 93.958 80.9672 93.9503 80.9767 93.9405C80.9862 93.9308 80.9936 93.9192 80.9985 93.9065C81.0039 93.8941 81.0068 93.8806 81.0069 93.867C81.007 93.8534 81.0044 93.8399 80.9992 93.8274C80.9939 93.8148 80.9862 93.8035 80.9765 93.794C80.9667 93.7845 80.9552 93.777 80.9425 93.7721C80.5354 93.6123 80.1714 93.3594 79.8797 93.0337C79.5879 92.7079 79.3766 92.3183 79.2625 91.8961C79.2599 91.8827 79.2545 91.87 79.2468 91.8587C79.2391 91.8474 79.2292 91.8378 79.2177 91.8305C79.2062 91.8232 79.1933 91.8183 79.1798 91.8161C79.1663 91.8139 79.1526 91.8144 79.1393 91.8177C79.1131 91.8232 79.0898 91.8383 79.0743 91.8601C79.0587 91.8819 79.0519 91.9087 79.0553 91.9353C79.1495 92.3088 79.3168 92.66 79.5475 92.9685C79.7782 93.2771 80.0677 93.5369 80.3993 93.7329Z" fill="#263238"/>
<path d="M71.473 90.8095C71.7143 91.6136 72.2611 92.2911 72.9962 92.6967C73.9762 93.2231 74.7098 92.3999 74.6426 91.3471C74.581 90.4007 73.993 88.9839 72.9066 88.8943C72.6696 88.879 72.4324 88.923 72.2167 89.0224C72.0009 89.1218 71.8134 89.2735 71.671 89.4636C71.5287 89.6538 71.436 89.8765 71.4014 90.1115C71.3669 90.3465 71.3915 90.5864 71.473 90.8095Z" fill="#FFB573"/>
<path d="M78.4897 86.6544C78.5294 86.6735 78.5741 86.6795 78.6174 86.6714C78.6607 86.6634 78.7003 86.6417 78.7305 86.6096C79.4081 85.932 80.6289 86.128 80.6401 86.128C80.6942 86.1363 80.7493 86.1235 80.7941 86.0922C80.839 86.0609 80.87 86.0136 80.8809 85.96C80.8857 85.9327 80.885 85.9048 80.8788 85.8778C80.8726 85.8509 80.8611 85.8254 80.8449 85.803C80.8287 85.7805 80.8082 85.7615 80.7846 85.7471C80.761 85.7328 80.7347 85.7233 80.7073 85.7192C80.6513 85.7192 79.2625 85.4896 78.4393 86.3184C78.4195 86.3377 78.4037 86.3608 78.393 86.3863C78.3822 86.4118 78.3767 86.4391 78.3767 86.4668C78.3767 86.4945 78.3822 86.5219 78.393 86.5473C78.4037 86.5728 78.4195 86.5959 78.4393 86.6152L78.4897 86.6544Z" fill="#263238"/>
<path d="M85.6408 86.7328C85.6761 86.7376 85.712 86.7334 85.7453 86.7207C85.7786 86.708 85.8081 86.6871 85.8312 86.66C85.866 86.6177 85.8826 86.5632 85.8774 86.5086C85.8721 86.4541 85.8455 86.4038 85.8032 86.3688C85.5553 86.1524 85.2593 85.9984 84.9398 85.9195C84.6203 85.8406 84.2866 85.8391 83.9664 85.9152C83.9147 85.932 83.8716 85.9683 83.8465 86.0165C83.8214 86.0647 83.8162 86.1208 83.832 86.1728C83.839 86.1994 83.8514 86.2242 83.8684 86.2458C83.8853 86.2674 83.9065 86.2853 83.9306 86.2984C83.9548 86.3115 83.9813 86.3195 84.0086 86.322C84.036 86.3245 84.0635 86.3214 84.0896 86.3128C84.3438 86.2548 84.6081 86.2586 84.8605 86.3239C85.1129 86.3892 85.3459 86.514 85.54 86.688C85.5689 86.7118 85.6038 86.7273 85.6408 86.7328Z" fill="#263238"/>
<path d="M79.3633 227.562H83.7425L83.4625 217.42H79.0833L79.3633 227.562Z" fill="#FFB573"/>
<path d="M84.0001 227.052H79.0777C78.994 227.049 78.9124 227.079 78.8506 227.135C78.7888 227.192 78.7517 227.271 78.7473 227.354L78.3833 231.246C78.3796 231.347 78.396 231.447 78.4317 231.541C78.4674 231.635 78.5216 231.721 78.591 231.793C78.6605 231.866 78.7438 231.924 78.8361 231.963C78.9284 232.003 79.0277 232.024 79.1281 232.025C80.8417 231.997 81.6593 231.896 83.8265 231.896C85.1537 231.896 87.9145 232.03 89.7513 232.03C91.5881 232.03 91.5993 230.216 90.8209 230.048C87.3545 229.309 85.9489 228.295 84.7449 227.321C84.5341 227.15 84.2716 227.055 84.0001 227.052Z" fill="#263238"/>
<g opacity="0.2">
<path opacity="0.2" d="M83.4625 217.42L83.6081 222.65H79.2288L79.0833 217.42H83.4625Z" fill="black"/>
</g>
<path d="M81.0489 130.558C81.0489 130.558 83.7817 157.903 84.6329 171.242C85.5177 185.114 84.3585 221.642 84.3585 221.642H78.4393C78.4393 221.642 74.7825 180.494 74.7825 172.284C72.4529 157.405 66.0297 141.994 68.2137 128.346L81.0489 130.558Z" fill="#49A0EB"/>
<path opacity="0.6" d="M81.0489 130.558C81.0489 130.558 83.7817 157.903 84.6329 171.242C85.5177 185.114 84.3585 221.642 84.3585 221.642H78.4393C78.4393 221.642 74.7825 180.494 74.7825 172.284C72.4529 157.405 66.0297 141.994 68.2137 128.346L81.0489 130.558Z" fill="white"/>
<path opacity="0.2" d="M71.7472 141.383C70.502 141.718 69.3921 142.432 68.572 143.427C69.4736 149.1 70.9968 154.918 72.3968 160.742C73.3992 154.414 72.8 143.752 71.7472 141.383Z" fill="#49A0EB"/>
<path d="M77.9242 221.85H84.8738L85.3834 219.632L77.5994 219.363L77.9242 221.85Z" fill="#263238"/>
<path d="M85.6801 227.819C86.0548 227.851 86.4295 227.757 86.7441 227.55C86.8146 227.489 86.8685 227.41 86.9008 227.322C86.9331 227.234 86.9427 227.139 86.9289 227.046C86.9259 226.989 86.9084 226.933 86.878 226.884C86.8477 226.835 86.8055 226.795 86.7553 226.766C86.1953 226.475 84.4705 227.366 84.2745 227.466C84.2554 227.476 84.24 227.492 84.2308 227.511C84.2217 227.53 84.2193 227.552 84.2241 227.573C84.2267 227.594 84.2356 227.614 84.2496 227.63C84.2635 227.646 84.282 227.657 84.3025 227.662C84.7559 227.757 85.217 227.809 85.6801 227.819ZM86.4641 226.912C86.5299 226.908 86.5956 226.921 86.6545 226.951C86.6761 226.961 86.6944 226.977 86.7074 226.997C86.7203 227.016 86.7272 227.04 86.7273 227.063C86.7359 227.124 86.7291 227.186 86.7076 227.244C86.6861 227.302 86.6505 227.353 86.6041 227.394C86.3409 227.634 85.6185 227.674 84.6497 227.517C85.2101 227.214 85.818 227.01 86.4473 226.912H86.4641Z" fill="#49A0EB"/>
<path d="M84.3081 227.662H84.3473C84.8737 227.427 85.9041 226.481 85.8257 225.982C85.8257 225.865 85.7193 225.719 85.4337 225.691C85.3332 225.683 85.2319 225.694 85.1357 225.725C85.0396 225.755 84.9505 225.805 84.8737 225.87C84.3137 226.33 84.2241 227.506 84.2185 227.55C84.2181 227.569 84.2219 227.587 84.2297 227.603C84.2375 227.62 84.249 227.634 84.2633 227.646C84.2769 227.654 84.2922 227.66 84.3081 227.662ZM85.3497 225.887H85.4113C85.6017 225.887 85.6129 225.982 85.6185 226.005C85.6689 226.307 84.9689 227.046 84.4369 227.371C84.4789 226.872 84.6746 226.399 84.9969 226.016C85.0962 225.934 85.2208 225.888 85.3497 225.887Z" fill="#49A0EB"/>
<path d="M43.0698 220.685L47.1186 222.354L51.257 213.091L47.2138 211.422L43.0698 220.685Z" fill="#FFB573"/>
<path d="M47.4377 222.32L43.1593 219.89C43.0867 219.847 43.0008 219.832 42.9181 219.849C42.8354 219.865 42.7617 219.912 42.7113 219.979L40.3201 223.065C40.2626 223.146 40.2228 223.238 40.2032 223.335C40.1836 223.432 40.1846 223.532 40.2063 223.629C40.2279 223.725 40.2697 223.816 40.3289 223.896C40.388 223.975 40.4633 224.041 40.5497 224.09C42.0561 224.907 42.8233 225.21 44.7049 226.296C45.8585 226.957 48.1881 228.435 49.7841 229.343C51.3801 230.25 52.3657 228.721 51.7833 228.223C49.1625 225.882 48.4905 224.331 47.9641 222.919C47.8681 222.662 47.6808 222.448 47.4377 222.32Z" fill="#263238"/>
<g opacity="0.2">
<path opacity="0.2" d="M51.2569 213.097L49.1233 217.868L45.0745 216.199L47.2081 211.422L51.2569 213.097Z" fill="black"/>
</g>
<path d="M76.1265 129.707C76.1265 129.707 68.9697 161.134 67.7601 174.44C64.7193 186.799 50.4001 217.28 50.4001 217.28L44.9233 215.04C44.9233 215.04 53.5081 182.476 58.2233 173.505C58.6713 158.631 58.5929 140.711 63.3193 127.501L76.1265 129.707Z" fill="#49A0EB"/>
<path opacity="0.6" d="M76.1265 129.707C76.1265 129.707 68.9697 161.134 67.7601 174.44C64.7193 186.799 50.4001 217.28 50.4001 217.28L44.9233 215.04C44.9233 215.04 53.5081 182.476 58.2233 173.505C58.6713 158.631 58.5929 140.711 63.3193 127.501L76.1265 129.707Z" fill="white"/>
<path d="M44.3408 215.029L50.764 217.678L52.08 215.824L44.9904 212.604L44.3408 215.029Z" fill="#263238"/>
<path d="M48.4905 223.776C48.8007 223.989 49.1734 224.091 49.5489 224.067C49.6406 224.048 49.7261 224.006 49.7975 223.946C49.8689 223.885 49.924 223.808 49.9577 223.72C49.9851 223.67 49.9995 223.615 49.9995 223.558C49.9995 223.501 49.9851 223.445 49.9577 223.395C49.6385 222.869 47.6785 222.785 47.4601 222.779C47.4388 222.777 47.4172 222.781 47.399 222.793C47.3807 222.804 47.3667 222.821 47.3593 222.841C47.347 222.858 47.3403 222.879 47.3403 222.9C47.3403 222.921 47.347 222.941 47.3593 222.959C47.7106 223.265 48.0892 223.539 48.4905 223.776ZM49.6105 223.373C49.67 223.404 49.7217 223.448 49.7617 223.502C49.774 223.522 49.7806 223.545 49.7806 223.569C49.7806 223.593 49.774 223.616 49.7617 223.636C49.7393 223.693 49.7037 223.743 49.6579 223.783C49.6121 223.823 49.5575 223.851 49.4985 223.866C49.1457 223.939 48.5017 223.619 47.7345 223.003C48.3781 223.019 49.0143 223.144 49.6161 223.373H49.6105Z" fill="#49A0EB"/>
<path d="M47.3872 222.97C47.3872 222.97 47.3872 222.97 47.4264 222.97C47.9864 223.02 49.364 222.706 49.5376 222.236C49.5768 222.124 49.5768 221.956 49.3416 221.788C49.261 221.731 49.1701 221.691 49.074 221.67C48.9778 221.649 48.8785 221.647 48.7816 221.665C48.076 221.788 47.4096 222.785 47.3816 222.785C47.3722 222.8 47.3672 222.817 47.3672 222.835C47.3672 222.853 47.3722 222.87 47.3816 222.886C47.3756 222.899 47.373 222.914 47.3739 222.928C47.3749 222.943 47.3795 222.957 47.3872 222.97ZM49.168 221.945C49.1889 221.952 49.208 221.963 49.224 221.978C49.3752 222.085 49.3528 222.157 49.3416 222.18C49.2352 222.465 48.2608 222.74 47.6616 222.785C47.9427 222.371 48.3461 222.056 48.8152 221.883C48.9364 221.864 49.0603 221.886 49.168 221.945Z" fill="#49A0EB"/>
<path d="M80.6401 88.0039L81.4857 87.7687C81.4857 87.7687 81.0321 88.4239 80.6401 88.0039Z" fill="#263238"/>
<path d="M63.4369 126.459L62.7201 127.949C62.6361 128.061 62.7593 128.206 62.9609 128.246L80.9985 131.359C81.1553 131.387 81.3009 131.359 81.3289 131.23L81.7601 129.69C81.7881 129.584 81.6649 129.466 81.4913 129.438L63.7449 126.375C63.6907 126.361 63.6338 126.362 63.5799 126.377C63.5259 126.391 63.4766 126.42 63.4369 126.459Z" fill="#263238"/>
<path d="M65.5201 128.862L65.0441 128.783C64.9489 128.783 64.8873 128.705 64.9041 128.643L65.4641 126.644C65.4641 126.588 65.5705 126.554 65.6657 126.571L66.1417 126.65C66.2369 126.65 66.2985 126.728 66.2817 126.79L65.7217 128.789C65.7217 128.845 65.6321 128.878 65.5201 128.862Z" fill="#49A0EB"/>
<g opacity="0.6">
<path opacity="0.6" d="M65.5201 128.862L65.0441 128.783C64.9489 128.783 64.8873 128.705 64.9041 128.643L65.4641 126.644C65.4641 126.588 65.5705 126.554 65.6657 126.571L66.1417 126.65C66.2369 126.65 66.2985 126.728 66.2817 126.79L65.7217 128.789C65.7217 128.845 65.6321 128.878 65.5201 128.862Z" fill="white"/>
</g>
<path d="M79.632 131.298L79.1616 131.214C79.0664 131.214 78.9992 131.135 79.016 131.079L79.576 129.08C79.576 129.018 79.6824 128.985 79.7776 129.002L80.2536 129.086C80.3488 129.086 80.4104 129.164 80.3936 129.22L79.8336 131.219C79.8224 131.281 79.7272 131.314 79.632 131.298Z" fill="#49A0EB"/>
<g opacity="0.6">
<path opacity="0.6" d="M79.632 131.298L79.1616 131.214C79.0664 131.214 78.9992 131.135 79.016 131.079L79.576 129.08C79.576 129.018 79.6824 128.985 79.7776 129.002L80.2536 129.086C80.3488 129.086 80.4104 129.164 80.3936 129.22L79.8336 131.219C79.8224 131.281 79.7272 131.314 79.632 131.298Z" fill="white"/>
</g>
<path d="M72.6153 130.088L72.1393 130.004C72.0441 130.004 71.9825 129.926 71.9993 129.87L72.5593 127.865C72.5593 127.809 72.6657 127.775 72.7609 127.792L73.2369 127.87C73.3265 127.87 73.3937 127.949 73.3769 128.01L72.8169 130.01C72.8001 130.066 72.7105 130.099 72.6153 130.088Z" fill="#49A0EB"/>
<g opacity="0.6">
<path opacity="0.6" d="M72.6153 130.088L72.1393 130.004C72.0441 130.004 71.9825 129.926 71.9993 129.87L72.5593 127.865C72.5593 127.809 72.6657 127.775 72.7609 127.792L73.2369 127.87C73.3265 127.87 73.3937 127.949 73.3769 128.01L72.8169 130.01C72.8001 130.066 72.7105 130.099 72.6153 130.088Z" fill="white"/>
</g>
<path d="M61.5217 129.875L64.8033 133.28L60.3625 133.577C60.3625 133.577 58.8449 131.208 59.7297 129.618L61.5217 129.875Z" fill="#FFB573"/>
<path d="M66.2257 106.725C64.9601 108.741 63.6497 110.745 62.3393 112.733C61.0289 114.721 59.6905 116.737 58.4921 118.664L58.3017 118.966C58.3017 118.966 58.3017 119 58.2569 119.039C58.2109 119.167 58.1826 119.301 58.1729 119.437C58.1374 119.88 58.1581 120.326 58.2345 120.764C58.4223 121.834 58.6995 122.887 59.0633 123.911C59.4217 124.986 59.8417 126.067 60.3065 127.137C60.7713 128.206 61.2529 129.293 61.7401 130.34L59.8585 131.516C58.3557 129.542 57.0432 127.431 55.9385 125.21C55.3502 124.03 54.8812 122.793 54.5385 121.52C54.345 120.789 54.2434 120.036 54.2361 119.28C54.2378 118.817 54.2961 118.356 54.4097 117.908C54.4824 117.647 54.576 117.392 54.6897 117.146L54.8241 116.877L54.9361 116.659C55.5297 115.539 56.1233 114.497 56.7393 113.445C57.3553 112.392 57.9713 111.373 58.5985 110.348C59.8529 108.293 61.1297 106.271 62.4681 104.272L66.2257 106.725Z" fill="#FFB573"/>
<path d="M67.4129 100.901C63.1121 100.162 59.8809 106.798 59.8809 106.798L64.9209 113.002C64.9209 113.002 68.1521 109.39 68.8689 107.078C69.6305 104.67 69.5072 101.265 67.4129 100.901Z" fill="#0D3344"/>
<path d="M65.1841 136.942L61.4489 136.987L60.3625 133.577L64.8033 133.28L65.1841 136.942Z" fill="#FFB573"/>
<path d="M212.867 56.9351C214.287 56.9366 215.693 57.2178 217.004 57.7626C218.315 58.3075 219.506 59.1054 220.508 60.1106C221.511 61.1158 222.306 62.3088 222.847 63.6213C223.389 64.9338 223.666 66.3401 223.664 67.7599V149.99C223.661 152.853 222.523 155.597 220.498 157.622C218.474 159.646 215.73 160.784 212.867 160.787H185.483C183.255 160.787 181.119 161.672 179.544 163.247C177.968 164.823 177.083 166.959 177.083 169.187V177.15L160.334 162.803C158.811 161.501 156.872 160.786 154.868 160.787H67.1328C64.2703 160.784 61.5258 159.646 59.5016 157.622C57.4775 155.597 56.339 152.853 56.336 149.99V67.7599C56.339 64.8973 57.4775 62.1528 59.5016 60.1287C61.5258 58.1045 64.2703 56.9661 67.1328 56.9631H212.867V56.9351ZM212.867 48.5631H67.1328C62.0461 48.5779 57.1719 50.6051 53.575 54.202C49.9781 57.7989 47.9508 62.6731 47.936 67.7599V149.99C47.9508 155.077 49.9781 159.951 53.575 163.548C57.1719 167.145 62.0461 169.172 67.1328 169.187H154.868L185.483 195.406V169.187H212.867C217.954 169.172 222.828 167.145 226.425 163.548C230.022 159.951 232.049 155.077 232.064 149.99V67.7599C232.049 62.6731 230.022 57.7989 226.425 54.202C222.828 50.6051 217.954 48.5779 212.867 48.5631Z" fill="#49A0EB"/>
<path d="M133.762 229.23C134.277 229.23 134.764 229.163 134.921 228.933C134.964 228.873 134.987 228.8 134.987 228.726C134.987 228.652 134.964 228.58 134.921 228.519C134.887 228.464 134.842 228.416 134.789 228.379C134.736 228.341 134.676 228.315 134.613 228.301C133.946 228.121 132.586 228.911 132.524 228.945C132.507 228.955 132.495 228.97 132.488 228.988C132.48 229.007 132.48 229.027 132.485 229.045C132.488 229.064 132.498 229.082 132.512 229.095C132.526 229.108 132.544 229.116 132.563 229.118C132.958 229.193 133.36 229.23 133.762 229.23ZM134.366 228.463C134.428 228.457 134.49 228.457 134.551 228.463C134.628 228.483 134.694 228.531 134.736 228.597C134.809 228.715 134.786 228.771 134.764 228.805C134.59 229.062 133.582 229.068 132.838 228.967C133.31 228.706 133.83 228.541 134.366 228.48V228.463Z" fill="#49A0EB"/>
<path d="M132.558 229.124H132.597C133.067 228.911 133.986 228.049 133.896 227.601C133.896 227.494 133.795 227.36 133.538 227.338C133.445 227.326 133.351 227.334 133.261 227.361C133.171 227.388 133.088 227.434 133.017 227.494C132.53 227.914 132.457 228.984 132.457 229.029C132.457 229.046 132.462 229.063 132.469 229.079C132.477 229.094 132.488 229.108 132.502 229.118C132.52 229.126 132.539 229.128 132.558 229.124ZM133.465 227.511H133.527C133.695 227.511 133.706 227.595 133.711 227.618C133.767 227.886 133.151 228.564 132.664 228.861C132.689 228.411 132.858 227.981 133.146 227.634C133.233 227.554 133.347 227.51 133.465 227.511Z" fill="#49A0EB"/>
<path d="M128.173 229.029H132.154L132.205 219.811H128.223L128.173 229.029Z" fill="#CE7A63"/>
<path d="M132.115 228.569H127.764C127.687 228.568 127.612 228.595 127.552 228.644C127.493 228.693 127.453 228.762 127.439 228.838L126.784 232.4C126.768 232.487 126.772 232.577 126.795 232.663C126.818 232.748 126.86 232.828 126.917 232.896C126.974 232.964 127.046 233.018 127.126 233.055C127.207 233.093 127.295 233.112 127.383 233.111C128.951 233.083 131.214 232.988 133.185 232.988C135.486 232.988 135.772 233.117 138.477 233.117C140.112 233.117 140.498 231.465 139.81 231.313C136.674 230.63 135.839 230.557 133.09 228.9C132.801 228.703 132.464 228.589 132.115 228.569Z" fill="#263238"/>
<path opacity="0.2" d="M132.205 219.811L132.183 224.565H128.195L128.223 219.811H132.205Z" fill="black"/>
<path d="M101.819 227.858C101.85 227.436 101.72 227.018 101.455 226.688C101.395 226.644 101.323 226.621 101.248 226.621C101.174 226.621 101.101 226.644 101.041 226.688C100.988 226.72 100.942 226.763 100.907 226.814C100.873 226.865 100.849 226.924 100.839 226.985C100.694 227.646 101.562 229.04 101.601 229.102C101.612 229.118 101.627 229.131 101.645 229.139C101.663 229.147 101.683 229.15 101.702 229.146C101.72 229.144 101.738 229.136 101.751 229.122C101.764 229.109 101.772 229.092 101.775 229.074C101.822 228.67 101.837 228.264 101.819 227.858ZM101.013 227.22C101.005 227.161 101.005 227.1 101.013 227.041C101.018 227.003 101.031 226.967 101.051 226.935C101.072 226.903 101.099 226.876 101.131 226.856C101.248 226.789 101.304 226.817 101.338 226.856C101.607 227.041 101.668 228.049 101.607 228.788C101.31 228.308 101.108 227.776 101.013 227.22Z" fill="#49A0EB"/>
<path d="M101.774 229.04C101.778 229.027 101.778 229.013 101.774 229.001C101.534 228.519 100.621 227.561 100.173 227.629C100.066 227.629 99.9376 227.718 99.9264 227.981C99.9205 228.173 99.9886 228.36 100.117 228.502C100.565 228.864 101.111 229.083 101.685 229.129C101.701 229.132 101.718 229.129 101.733 229.122C101.748 229.115 101.76 229.104 101.769 229.09C101.776 229.075 101.778 229.057 101.774 229.04ZM100.094 228.054V227.998C100.094 227.83 100.167 227.819 100.19 227.819C100.458 227.774 101.17 228.424 101.494 228.939C101.031 228.892 100.592 228.707 100.234 228.407C100.157 228.314 100.112 228.198 100.106 228.077L100.094 228.054Z" fill="#49A0EB"/>
<path d="M101.713 229.085L105.616 229.359L107.223 220.069L103.326 219.794L101.713 229.085Z" fill="#CE7A63"/>
<path d="M101.674 228.194L105.98 227.814C106.06 227.806 106.141 227.826 106.209 227.87C106.277 227.913 106.328 227.978 106.355 228.054L107.666 231.51C107.696 231.589 107.708 231.675 107.7 231.76C107.692 231.845 107.665 231.927 107.621 232C107.577 232.073 107.516 232.135 107.445 232.181C107.373 232.227 107.291 232.256 107.207 232.266C105.65 232.378 103.387 232.484 101.433 232.658C99.1537 232.859 100.638 232.854 97.9609 233.094C96.3425 233.24 95.6481 231.633 96.2809 231.414C99.2601 230.462 99.7697 229.807 100.761 228.581C100.879 228.459 101.021 228.361 101.178 228.295C101.335 228.229 101.503 228.194 101.674 228.194Z" fill="#263238"/>
<path opacity="0.2" d="M107.223 220.074L106.394 224.862L102.491 224.588L103.32 219.794L107.223 220.074Z" fill="black"/>
<path d="M133.638 127.764C133.638 127.764 126.358 158.345 123.603 169.697C120.562 182.123 108.64 223.361 108.64 223.361L101.528 221.821C101.528 221.821 109.256 186.39 112.297 169.053C114.632 155.741 119.907 127.764 119.907 127.764H133.638Z" fill="#263238"/>
<path d="M109.76 221.2L109.234 223.938L100.738 223.031L100.621 220.522L109.76 221.2Z" fill="#0D3344"/>
<path opacity="0.3" d="M129.444 141.938C124.404 142.604 123.491 160.266 123.374 170.626L123.603 169.691C125.115 163.498 127.966 151.553 130.251 141.994C129.989 141.915 129.714 141.896 129.444 141.938Z" fill="black"/>
<path d="M141.193 127.764C141.193 127.764 139.25 157.545 138.393 169.669C137.491 182.28 133.913 223.641 133.913 223.641H127.12C127.12 223.641 126.409 183.036 126.213 170.632C125.995 157.113 127.187 127.764 127.187 127.764H141.193Z" fill="#263238"/>
<path d="M134.826 220.959C134.854 220.959 134.551 223.759 134.551 223.759H126.347L126.028 221.256L134.826 220.959Z" fill="#0D3344"/>
<path d="M122.36 99.1201C121.274 101.321 120.171 103.634 119.151 105.907C118.132 108.181 117.13 110.482 116.351 112.778L116.049 113.635L115.78 114.486L115.657 114.873C115.667 114.782 115.667 114.69 115.657 114.598C115.619 114.221 115.439 113.873 115.153 113.624C114.935 113.478 114.929 113.54 115.013 113.585C115.169 113.657 115.332 113.711 115.5 113.747C116.002 113.853 116.511 113.922 117.023 113.954C119.475 114.03 121.928 113.957 124.371 113.736H124.438C124.799 113.709 125.158 113.813 125.449 114.029C125.74 114.245 125.944 114.559 126.022 114.913C126.1 115.267 126.048 115.637 125.876 115.956C125.703 116.275 125.421 116.52 125.082 116.648C122.539 117.674 119.873 118.363 117.152 118.698C116.371 118.778 115.583 118.785 114.8 118.72C114.327 118.682 113.858 118.599 113.4 118.474C112.727 118.299 112.103 117.973 111.575 117.522C111.192 117.194 110.878 116.795 110.651 116.346C110.421 115.88 110.285 115.374 110.247 114.856C110.224 114.443 110.256 114.029 110.343 113.624L110.466 113.064L110.701 112.05L110.97 111.059C111.705 108.483 112.594 105.953 113.63 103.482C114.66 101.03 115.752 98.6721 117.023 96.2865C117.397 95.5884 118.029 95.065 118.785 94.8289C119.54 94.5928 120.358 94.663 121.063 95.0243C121.767 95.3857 122.301 96.0092 122.55 96.7607C122.799 97.5121 122.743 98.3313 122.394 99.0417L122.36 99.1201Z" fill="#CF7A64"/>
<path d="M124.483 113.887L126.958 112.913L126.835 117.516C125.835 117.446 124.871 117.12 124.035 116.569C123.829 116.421 123.675 116.213 123.592 115.973C123.509 115.734 123.501 115.475 123.57 115.231L123.71 114.727C123.763 114.536 123.86 114.36 123.995 114.214C124.129 114.067 124.296 113.956 124.483 113.887Z" fill="#CE7A63"/>
<path d="M131.034 112.392L130.144 116.379L126.834 117.51L126.958 112.913L131.034 112.392Z" fill="#CE7A63"/>
<path d="M135.643 78.5232C135.711 78.8368 135.929 79.0552 136.131 79.016C136.332 78.9768 136.455 78.6856 136.388 78.372C136.321 78.0584 136.108 77.812 135.901 77.8736C135.694 77.9352 135.582 78.204 135.643 78.5232Z" fill="#263238"/>
<path d="M135.895 79.0607C136.466 79.9474 137.158 80.7504 137.95 81.4463C137.766 81.6438 137.541 81.7988 137.29 81.9003C137.04 82.0019 136.77 82.0476 136.5 82.0343L135.895 79.0607Z" fill="#BA4D3C"/>
<path d="M134.137 77.0056C134.089 77.005 134.044 76.9871 134.008 76.9552C133.991 76.938 133.977 76.9175 133.967 76.8949C133.958 76.8723 133.953 76.8481 133.953 76.8236C133.953 76.7991 133.958 76.7748 133.967 76.7523C133.977 76.7297 133.991 76.7092 134.008 76.692C134.207 76.4668 134.456 76.2924 134.736 76.1833C135.015 76.0742 135.317 76.0336 135.615 76.0648C135.664 76.0743 135.707 76.1025 135.735 76.1432C135.764 76.184 135.775 76.2342 135.767 76.2832C135.763 76.3076 135.755 76.331 135.742 76.3522C135.73 76.3733 135.713 76.3918 135.693 76.4064C135.673 76.421 135.651 76.4315 135.627 76.4372C135.603 76.443 135.578 76.4439 135.554 76.44C135.317 76.417 135.079 76.4513 134.859 76.5401C134.638 76.6288 134.443 76.7692 134.288 76.9496C134.268 76.9691 134.245 76.9842 134.219 76.9938C134.193 77.0035 134.165 77.0075 134.137 77.0056Z" fill="#263238"/>
<path d="M126.907 84.2465C127.467 87.1585 127.82 91.1961 125.787 93.1393C125.787 93.1393 126.588 96.0905 131.998 96.0905C137.945 96.0905 134.859 93.4977 134.859 93.4977C132.384 92.7305 132.407 89.9137 132.972 87.6513L126.907 84.2465Z" fill="#CE7A63"/>
<path d="M118.658 93.1504C114.923 94.0072 112.465 104.076 112.465 104.076L118.72 108.758C121.035 107.095 122.677 104.657 123.346 101.886C124.6 96.88 122.472 92.2768 118.658 93.1504Z" fill="#49A0EB"/>
<path opacity="0.2" d="M121.856 100.156C119.724 102.425 118.483 105.388 118.362 108.5L118.692 108.757C121.006 107.094 122.647 104.656 123.318 101.886C123.391 101.589 123.458 101.287 123.514 100.996L121.856 100.156Z" fill="black"/>
<path d="M142.24 97.1432C143.047 101.405 144.262 111.518 141.988 128.71C141.967 128.851 141.901 128.982 141.8 129.083C141.7 129.183 141.569 129.249 141.428 129.27C139.477 129.501 137.504 129.474 135.559 129.192C131.639 128.632 128.386 128.873 124.583 129.192C122.907 129.322 121.223 129.347 119.543 129.265C119.453 129.26 119.365 129.237 119.284 129.196C119.203 129.156 119.132 129.099 119.074 129.03C119.016 128.96 118.973 128.88 118.948 128.793C118.923 128.706 118.916 128.615 118.927 128.526C119.515 124.102 121.649 107.654 118.687 93.1672C121.039 92.7161 123.419 92.4169 125.81 92.2712C128.826 92.0947 131.849 92.0947 134.865 92.2712C135.862 92.3608 136.842 92.5064 137.715 92.6576C138.834 92.8627 139.864 93.4006 140.671 94.201C141.478 95.0013 142.025 96.0268 142.24 97.1432Z" fill="#49A0EB"/>
<path d="M125.014 79.9848C126.034 83.804 126.442 86.0888 128.794 87.6736C132.339 90.0648 136.746 87.3208 136.886 83.2776C137.01 79.6376 135.318 74.0096 131.225 73.2368C130.322 73.062 129.39 73.121 128.517 73.4082C127.644 73.6954 126.859 74.2012 126.236 74.8775C125.614 75.5539 125.175 76.3783 124.961 77.2722C124.747 78.1662 124.765 79.1 125.014 79.9848Z" fill="#CE7A63"/>
<path d="M133.947 81.1551C135.139 83.7871 134.764 86.1951 133.28 87.3151C131.6 88.5919 126.891 88.7879 125.104 86.9791C125.782 86.3015 126.157 85.4559 125.289 84.2519C124.421 83.0479 121.235 81.1775 121.173 78.6071C121.111 76.0367 122.814 75.7455 122.713 75.7455C121.207 75.0735 121.302 72.6543 122.959 71.3215C124.718 69.9047 127.574 69.5127 130.973 70.2015C133.118 70.6271 135.223 70.5879 134.854 69.2327C137.379 70.6831 136.125 76.0535 133.683 76.7591C134.07 77.7279 135.761 79.2679 135.761 79.2679C135.761 79.2679 135.347 80.8695 133.947 81.1551Z" fill="#263238"/>
<path d="M122.959 75.2246C122.959 75.2246 122.041 75.7846 119.627 75.079C120.277 76.2831 122.691 76.3278 123.273 76.0534C123.855 75.779 122.959 75.2246 122.959 75.2246Z" fill="#263238"/>
<path d="M132.412 80.1921C132.632 81.0921 133.144 81.8937 133.868 82.4713C134.826 83.2273 135.548 82.5329 135.548 81.4241C135.509 80.4273 134.988 78.8369 133.902 78.5121C132.815 78.1873 132.16 79.1057 132.412 80.1921Z" fill="#CE7A63"/>
<path d="M142.391 96.5607C142.89 97.7199 143.36 98.8903 143.842 100.055C144.323 101.22 144.794 102.39 145.259 103.561L148.025 110.555C148.49 111.709 148.955 112.857 149.425 113.96L149.783 114.755L149.873 114.951V114.996C149.873 114.996 149.873 114.996 149.839 114.94C149.76 114.8 149.668 114.667 149.565 114.542C149.356 114.313 149.108 114.123 148.831 113.982C148.629 113.869 148.409 113.788 148.182 113.742C148.042 113.71 147.899 113.691 147.756 113.686C147.669 113.68 147.581 113.68 147.493 113.686C147.406 113.691 147.319 113.706 147.235 113.73C147.188 113.739 147.143 113.756 147.101 113.781C147.269 113.749 147.431 113.692 147.583 113.613C147.807 113.512 148.059 113.389 148.305 113.254C149.324 112.694 150.399 112.084 151.469 111.462C152.539 110.841 153.647 110.214 154.756 109.62H154.79C155.101 109.452 155.46 109.398 155.807 109.467C156.153 109.536 156.464 109.724 156.687 109.998C156.91 110.272 157.031 110.615 157.028 110.968C157.025 111.321 156.899 111.663 156.671 111.933C154.996 113.965 153.12 115.822 151.071 117.477C150.797 117.69 150.511 117.902 150.192 118.121C149.812 118.387 149.407 118.616 148.983 118.804C148.801 118.881 148.614 118.945 148.423 118.994C148.263 119.036 148.1 119.064 147.935 119.078C147.807 119.087 147.678 119.087 147.549 119.078C147.36 119.075 147.173 119.053 146.989 119.011C146.725 118.953 146.471 118.858 146.233 118.731C145.919 118.563 145.639 118.337 145.41 118.065C145.293 117.926 145.189 117.778 145.096 117.622L145.046 117.527L145.012 117.471L144.889 117.242C144.715 116.934 144.57 116.642 144.407 116.34C143.797 115.164 143.243 114.005 142.727 112.84C141.647 110.516 140.633 108.198 139.642 105.868C139.149 104.703 138.664 103.535 138.186 102.362C137.71 101.192 137.234 100.022 136.78 98.8455C136.478 98.1029 136.483 97.2707 136.794 96.5319C137.106 95.7931 137.698 95.2082 138.441 94.906C139.183 94.6037 140.015 94.6088 140.754 94.9202C141.493 95.2316 142.078 95.8237 142.38 96.5663L142.391 96.5607Z" fill="#CF7A64"/>
<path d="M157.007 107.301C156.292 107.711 155.665 108.258 155.161 108.91C154.658 109.563 154.288 110.308 154.073 111.104L155.456 112.879L158.48 111.944C158.72 111.868 158.927 111.714 159.068 111.507L160.619 109.217C160.74 108.994 160.795 108.741 160.777 108.488C160.759 108.235 160.669 107.992 160.519 107.789L158.878 105.582L157.007 107.301Z" fill="#CE7A63"/>
<path d="M134.17 99.355C134.518 103.796 139.407 109.597 139.407 109.597L146.3 104.429C146.3 104.429 145.253 98.1846 141.68 94.7966C137.262 90.6134 133.84 95.1998 134.17 99.355Z" fill="#49A0EB"/>
<path d="M135.845 92.2544C135.207 90.384 127.865 90.0592 123.441 90.5072C119.017 90.9552 121.246 94.3992 121.991 94.8808C119.986 95.6256 121.055 99.1648 124.791 100.901C128.526 102.637 136.64 94.5112 135.845 92.2544Z" fill="#0D3344"/>
</svg>
