<svg width="314" height="267" viewBox="0 0 314 267" fill="none" xmlns="http://www.w3.org/2000/svg">
<path d="M288.104 62.5854C283.551 60.1014 281.474 62.1788 279.821 60.1014C278.168 58.024 284.373 52.6493 271.944 47.2569C271.944 47.2569 271.122 35.6588 254.132 35.2433C237.141 34.8278 241.703 46.8591 237.168 49.7497C232.633 52.6404 231.36 48.0878 226.807 50.9873C222.255 53.8869 224.323 59.6859 220.619 60.5169C216.915 61.3478 211.921 56.7864 207.359 59.6859C202.798 62.5854 202.807 65.0783 200.729 65.0783C198.652 65.0783 194.541 63.4164 192.031 65.0783C189.52 66.7402 186.647 68.8 186.647 68.8H291.419C291.419 68.8 292.665 65.0783 288.104 62.5854Z" fill="#49A0EB" fill-opacity="0.5"/>
<g opacity="0.5">
<path opacity="0.5" d="M288.104 62.5854C283.551 60.1014 281.474 62.1788 279.821 60.1014C278.168 58.024 284.373 52.6493 271.944 47.2569C271.944 47.2569 271.122 35.6588 254.132 35.2433C237.141 34.8278 241.703 46.8591 237.168 49.7497C232.633 52.6404 231.36 48.0878 226.807 50.9873C222.255 53.8869 224.323 59.6859 220.619 60.5169C216.915 61.3478 211.921 56.7864 207.359 59.6859C202.798 62.5854 202.807 65.0783 200.729 65.0783C198.652 65.0783 194.541 63.4164 192.031 65.0783C189.52 66.7402 186.647 68.8 186.647 68.8H291.419C291.419 68.8 292.665 65.0783 288.104 62.5854Z" fill="#FCFCFC"/>
</g>
<path d="M219.833 187.238C212.469 183.216 209.119 186.566 206.449 183.216C203.779 179.866 213.804 171.167 193.728 162.469C193.728 162.469 192.385 143.728 164.945 143.021C137.506 142.313 144.861 161.761 137.497 166.447C130.133 171.132 128.127 163.795 120.772 168.462C113.417 173.13 116.749 182.553 110.756 183.879C104.762 185.205 96.7004 177.859 89.3366 182.544C81.9729 187.229 81.9729 191.243 78.6226 191.243C75.2722 191.243 68.5803 188.591 64.567 191.243C60.5536 193.895 55.8684 197.272 55.8684 197.272H225.19C225.19 197.272 227.196 191.252 219.833 187.238Z" fill="#49A0EB" fill-opacity="0.5"/>
<g opacity="0.5">
<path opacity="0.5" d="M219.833 187.238C212.469 183.216 209.119 186.566 206.449 183.216C203.779 179.866 213.804 171.167 193.728 162.469C193.728 162.469 192.385 143.728 164.945 143.021C137.506 142.313 144.861 161.761 137.497 166.447C130.133 171.132 128.127 163.795 120.772 168.462C113.417 173.13 116.749 182.553 110.756 183.879C104.762 185.205 96.7004 177.859 89.3366 182.544C81.9729 187.229 81.9729 191.243 78.6226 191.243C75.2722 191.243 68.5803 188.591 64.567 191.243C60.5536 193.895 55.8684 197.272 55.8684 197.272H225.19C225.19 197.272 227.196 191.252 219.833 187.238Z" fill="#FCFCFC"/>
</g>
<path d="M56.6463 109.314C54.1269 107.935 52.9777 109.084 52.0583 107.935C51.139 106.785 54.5777 103.806 47.7002 100.863C47.7002 100.863 47.2405 94.4359 37.8348 94.2061C28.429 93.9763 30.9572 100.633 28.4378 102.233C25.9184 103.833 25.2201 101.349 22.7007 102.922C20.1813 104.496 21.3216 107.74 19.2619 108.226C17.2022 108.713 14.4441 106.167 11.9247 107.767C9.40531 109.367 9.39648 110.684 8.21192 110.684C7.02736 110.684 4.77316 109.8 3.40296 110.684C2.03276 111.568 0.415039 112.752 0.415039 112.752H58.4496C58.4496 112.752 59.1657 110.684 56.6463 109.314Z" fill="#49A0EB" fill-opacity="0.5"/>
<g opacity="0.5">
<path opacity="0.5" d="M56.6463 109.314C54.1269 107.935 52.9777 109.084 52.0583 107.935C51.139 106.785 54.5777 103.806 47.7002 100.863C47.7002 100.863 47.2405 94.4359 37.8348 94.2061C28.429 93.9763 30.9572 100.633 28.4378 102.233C25.9184 103.833 25.2201 101.349 22.7007 102.922C20.1813 104.496 21.3216 107.74 19.2619 108.226C17.2022 108.713 14.4441 106.167 11.9247 107.767C9.40531 109.367 9.39648 110.684 8.21192 110.684C7.02736 110.684 4.77316 109.8 3.40296 110.684C2.03276 111.568 0.415039 112.752 0.415039 112.752H58.4496C58.4496 112.752 59.1657 110.684 56.6463 109.314Z" fill="#FCFCFC"/>
</g>
<path d="M9.59985 266.259C9.59985 266.259 151.827 189.767 313.183 266.259" stroke="black" stroke-linecap="round" stroke-linejoin="round"/>
<path d="M211.364 239.792C211.364 243.284 191.456 246.121 166.899 246.121C142.341 246.121 122.442 243.284 122.442 239.792C122.442 236.3 142.35 233.463 166.899 233.463C191.447 233.463 211.364 236.3 211.364 239.792Z" fill="#49A0EB"/>
<path opacity="0.5" d="M211.364 239.792C211.364 243.284 191.456 246.121 166.899 246.121C142.341 246.121 122.442 243.284 122.442 239.792C122.442 236.3 142.35 233.463 166.899 233.463C191.447 233.463 211.364 236.3 211.364 239.792Z" fill="#FCFCFC"/>
<path d="M175.995 40.9009C180.654 39.9108 184.057 38.408 183.598 34.1383C183.138 29.8686 177.949 27.0221 177.41 24.8386C176.87 22.6551 180.451 19.3755 179.673 15.203C178.895 11.0305 174.74 6.36301 170.567 7.10557C170.567 7.10557 169.878 8.48461 169.197 5.52321C168.517 2.56181 166.289 -1.10679 162.187 0.316452C157.882 1.81041 157.882 4.31213 156.618 4.73645C153.118 6.22059 149.698 7.88776 146.372 9.73105C143.057 11.5609 142.518 17.2981 142.023 19.3048C141.528 21.3115 139.946 21.7888 137.603 21.391C135.26 20.9932 132.812 20.5601 132.299 22.8585C131.786 25.1569 131.521 27.3669 129.895 27.2343C128.268 27.1017 126.447 24.6883 125.192 26.7215C123.936 28.7547 121.479 32.662 118.845 31.4598C116.21 30.2575 113.16 25.3867 108.926 27.3492C104.692 29.3116 103.887 34.8632 105.532 35.7383C107.176 36.6135 107.989 37.966 107.591 39.3893C107.193 40.8125 102.19 39.5042 100.617 42.5275C99.043 45.5507 102.765 48.2823 102.782 49.9265C102.8 51.5708 101.898 53.0736 98.9458 53.9045C95.9932 54.7355 93.9158 57.0781 95.8871 58.6163C97.8584 60.1544 97.5933 58.3069 98.0795 57.2019C98.5657 56.0969 100.104 55.9024 101.889 56.8041C103.675 57.7057 104.754 55.8051 104.754 55.8051C104.754 55.8051 104.497 58.1566 106.522 58.8019C108.546 59.4472 108.873 61.6042 106.522 62.2407C104.17 62.8771 102.544 66.1921 104.303 68.1458C106.062 70.0994 108.847 71.3193 113.549 70.0375C118.252 68.7557 128.392 61.1975 134.916 65.0518C141.44 68.906 153.117 68.7999 158.854 66.8198C164.592 64.8396 166.077 58.7842 170.594 57.7765C175.111 56.7687 173.909 54.1609 173.149 51.5885C172.388 49.016 171.337 41.891 175.995 40.9009ZM179.275 36.6754C179.927 35.9973 180.339 35.1252 180.451 34.1913C180.685 34.3262 180.89 34.5068 181.053 34.7225C181.216 34.9382 181.335 35.1846 181.401 35.4469C181.467 35.7092 181.479 35.9821 181.437 36.2493C181.396 36.5166 181.301 36.7727 181.158 37.0025C180.23 38.9384 177.807 38.2224 177.807 38.2224L179.275 36.6754ZM112.612 32.7858C111.596 32.609 109.465 36.3218 108.908 35.1372C108.352 33.9527 109.624 29.2763 111.905 29.073C114.186 28.8697 116.582 33.1747 116.582 33.1747C116.281 34.9162 113.629 32.9626 112.612 32.7858ZM161.727 4.67457C161.34 4.56596 160.934 4.54133 160.536 4.60231C160.138 4.66328 159.757 4.80847 159.42 5.02817C159.441 4.64527 159.541 4.27085 159.714 3.92852C159.887 3.5862 160.129 3.28339 160.424 3.03921C160.72 2.79502 161.063 2.61475 161.432 2.50977C161.801 2.40478 162.187 2.37735 162.567 2.42921C164.45 2.75629 164.875 5.52321 164.875 5.52321C163.85 5.15565 162.798 4.87184 161.727 4.67457Z" fill="black"/>
<path d="M61.8796 129.557L75.0512 123.21C75.452 124.954 75.4701 126.763 75.1043 128.514C74.5385 131.811 73.6368 135.427 70.6843 135.365C67.7317 135.303 61.8796 129.557 61.8796 129.557Z" fill="black" stroke="black" stroke-linecap="round" stroke-linejoin="round"/>
<path d="M106.495 152.603C106.495 152.603 111.366 140.828 112.391 139.034C113.417 137.239 120.869 136.735 119.587 142.826C118.305 148.917 114.106 152.126 111.446 152.55C109.808 152.82 108.138 152.838 106.495 152.603Z" fill="black" stroke="black" stroke-linecap="round" stroke-linejoin="round"/>
<path d="M44.6504 79.9737C43.0125 81.491 41.6567 83.2869 40.6459 85.2777C39.426 88.0623 37.9939 91.4657 37.9939 91.4657C37.9939 91.4657 52.3059 78.8775 60.0939 78.3737C67.8819 77.8698 69.8179 77.9228 69.8179 77.9228C69.8179 77.9228 60.1646 73.4233 55.0109 74.8023C51.4783 75.8828 48.1502 77.5438 45.1631 79.7173L44.6504 79.9737Z" fill="black" stroke="black" stroke-linecap="round" stroke-linejoin="round"/>
<path d="M147.071 59.1378C147.071 59.1378 128.401 63.7611 109.757 67.4916C91.1134 71.2221 73.2213 67.0231 62.8431 69.7458C52.465 72.4685 44.6504 79.9737 44.6504 79.9737C44.6504 79.9737 54.507 73.9979 60.5624 79.0897C66.6178 84.1815 65.9813 87.4523 61.7293 93.5519C57.4772 99.6515 53.7733 108.713 60.1646 112.116C66.5559 115.519 72.8058 127.409 72.7528 130.061C72.6997 132.713 71.8157 132.713 71.8157 132.713L61.853 129.557C61.853 129.557 67.493 142.057 80.1253 143.799C92.7577 145.54 99.0518 140.66 106.999 141.147C114.946 141.633 114.504 148.669 114.504 148.669C114.504 148.669 106.796 150.87 106.469 152.63C106.141 154.389 108.458 155.909 117.651 153.452C126.845 150.994 131.415 143.728 135.738 148.236C140.061 152.745 142.624 156.926 147.345 157.023C152.065 157.12 155.115 151.587 161.011 137.858C166.908 124.13 188.203 106.034 189.123 90.4137C190.042 74.7935 181.317 55.1686 181.317 55.1686L147.071 59.1378Z" fill="#49A0EB" stroke="black" stroke-linecap="round" stroke-linejoin="round"/>
<path d="M141.033 65.7943C141.033 65.7943 127.11 69.0386 116.06 75.8808C105.01 82.7229 83.7496 84.6324 77.8003 87.1606C74.7654 88.3605 71.8672 89.8808 69.1548 91.6955" stroke="black" stroke-linecap="round" stroke-linejoin="round"/>
<path d="M71.8599 132.713C76.3645 128.253 80.0614 123.046 82.7861 117.323C87.9626 106.457 96.2762 97.3926 106.654 91.2977C117.996 84.7561 123.6 84.5793 134.058 77.7283" stroke="black" stroke-linecap="round" stroke-linejoin="round"/>
<path d="M114.531 148.643C114.531 148.643 122.487 122.282 128.834 113.283" stroke="black" stroke-linecap="round" stroke-linejoin="round"/>
<path d="M136.825 209.824C135.809 215.173 133.909 220.315 131.203 225.038C126.606 233.189 125.377 235.522 124.184 236.38C122.99 237.237 120.595 238.669 122.946 239.306C125.298 239.942 131.786 240.075 134.147 239.244C136.507 238.413 136.259 236.636 137.214 233.418C137.404 232.548 137.848 231.754 138.49 231.137C139.133 230.52 139.944 230.108 140.821 229.953L140.617 239.677H142.385L143.146 231.438C143.146 231.438 144.392 228.229 144.145 226.134C143.897 224.039 141.572 222.245 141.572 222.245L144.481 210.222L136.825 209.824Z" fill="#FCFCFC" stroke="black" stroke-linecap="round" stroke-linejoin="round"/>
<path d="M142.385 239.713L143.146 231.474C143.146 231.474 144.392 228.265 144.145 226.17C143.95 224.561 142.518 223.111 141.882 222.545C139.963 224.932 137.621 231.191 134.253 233.913C133.049 234.834 131.645 235.458 130.156 235.735C128.666 236.011 127.132 235.932 125.678 235.505L125.192 235.293C124.911 235.694 124.571 236.052 124.184 236.353C122.99 237.237 120.595 238.643 122.946 239.279C125.298 239.916 131.786 240.048 134.147 239.217C136.507 238.387 136.259 236.61 137.214 233.392C137.404 232.522 137.848 231.728 138.49 231.111C139.133 230.494 139.944 230.081 140.821 229.927L140.617 239.651L142.385 239.713Z" fill="black" stroke="black" stroke-linecap="round" stroke-linejoin="round"/>
<path d="M202.736 211.212C203.525 216.599 205.21 221.816 207.722 226.647C211.965 234.983 213.097 237.37 214.255 238.28C215.413 239.191 217.738 240.711 215.369 241.251C212.999 241.79 206.529 241.648 204.186 240.72C201.843 239.792 202.179 238.024 201.357 234.762C201.203 233.886 200.792 233.076 200.177 232.434C199.561 231.792 198.769 231.347 197.901 231.155L197.697 240.879L195.929 240.835L195.514 232.579C195.514 232.579 194.4 229.317 194.736 227.275C195.072 225.233 197.468 223.5 197.468 223.5L195.072 211.363L202.736 211.212Z" fill="#FCFCFC" stroke="black" stroke-linecap="round" stroke-linejoin="round"/>
<path d="M195.929 240.835L195.514 232.579C195.514 232.579 194.4 229.317 194.736 227.275C195.001 225.683 196.504 224.296 197.158 223.739C198.97 226.214 201.048 232.579 204.292 235.425C205.457 236.395 206.834 237.077 208.311 237.415C209.789 237.753 211.326 237.738 212.796 237.37L213.291 237.184C213.555 237.599 213.88 237.972 214.255 238.289C215.413 239.173 217.738 240.72 215.369 241.26C212.999 241.799 206.529 241.657 204.186 240.729C201.843 239.801 202.179 238.033 201.357 234.771C201.203 233.895 200.792 233.085 200.177 232.443C199.561 231.801 198.769 231.356 197.901 231.164L197.697 240.888L195.929 240.835Z" fill="black" stroke="black" stroke-linecap="round" stroke-linejoin="round"/>
<path d="M155.522 97.3001C155.522 97.3001 143.314 125.376 141.616 136.249C139.919 147.122 134.421 212.167 134.421 212.167L146.196 212.715L163.69 137.911L166.925 124.121L194.17 215.765L204.212 215.093C204.212 215.093 193.604 145.902 189.512 129.345C186.667 118.285 183.043 107.441 178.665 96.8935L155.522 97.3001Z" fill="black" stroke="black" stroke-linecap="round" stroke-linejoin="round"/>
<path d="M160.755 36.8875C160.755 36.8875 160.799 49.8823 160.755 51.4647C160.711 53.0471 146.116 57.3345 146.116 57.3345L155.566 97.3001C155.566 97.3001 167.942 98.3521 178.709 96.8404L185.781 54.214L172.521 51.5619L173.051 41.1219C173.051 41.1219 164.68 40.9363 160.755 36.8875Z" fill="#FCFCFC" stroke="black" stroke-linecap="round" stroke-linejoin="round"/>
<path d="M177.056 52.4725C176.092 56.088 172.945 65.1667 165.705 64.2473C159.447 63.4517 155.628 57.2814 154.284 54.6825C150.341 56.088 146.054 57.3345 146.054 57.3345L155.504 97.3001C155.504 97.3001 167.88 98.3521 178.647 96.8404L185.719 54.214L177.056 52.4725Z" fill="#FCFCFC" stroke="black" stroke-linecap="round" stroke-linejoin="round"/>
<path d="M156.936 52.6581C156.936 52.6581 160.472 71.9028 161.356 82.7141C162.24 93.5254 162.24 100.951 162.046 102.374C161.851 103.797 152.189 141.615 152.189 141.615L135.393 134.287L152.339 96.7785C152.339 96.7785 142.615 60.2958 142.677 59.0229C142.739 57.7499 156.936 52.6581 156.936 52.6581Z" fill="#EA377D" stroke="black" stroke-linecap="round" stroke-linejoin="round"/>
<path d="M153.745 54.0106L152.171 68.5524L155.707 71.3282L153.055 76.0222L161.895 99.0062C161.895 99.0062 161.816 87.7529 161.179 80.2919C160.543 72.831 156.848 52.6404 156.848 52.6404L153.745 54.0106Z" stroke="black" stroke-linecap="round" stroke-linejoin="round"/>
<path d="M174.545 51.7564C174.545 51.7564 172.106 100.191 172.088 100.659C172.07 101.128 185.348 141.5 185.348 141.5L198.431 137.336L181.096 95.3111C181.096 95.3111 189.37 55.867 189.229 55.0803C189.087 54.2935 174.545 51.7564 174.545 51.7564Z" fill="#EA377D" stroke="black" stroke-linecap="round" stroke-linejoin="round"/>
<path d="M178.338 52.7907L180.088 69.4806L175.686 71.9381L179.814 75.483L172.088 100.659L174.545 51.7564L178.338 52.7907Z" fill="#EA377D" stroke="black" stroke-linecap="round" stroke-linejoin="round"/>
<path d="M174.563 19.2518C174.53 19.0839 174.486 18.9185 174.43 18.7567C174.121 17.802 173.202 15.8837 170.894 16.9887C167.915 18.4031 166.227 21.612 164.008 22.0098C163.081 22.2033 162.142 22.3304 161.197 22.39C161.197 22.39 157.793 29.8421 156.14 31.1327C154.988 31.9647 153.671 32.5404 152.277 32.8212C152.277 32.8212 152.755 37.9926 154.213 38.7616C154.686 38.9709 155.203 39.0594 155.719 39.0193C156.234 38.9792 156.731 38.8117 157.166 38.5318C157.166 38.5318 161.338 43.6325 164.114 45.0115C166.89 46.3906 169.975 46.7795 171.61 45.8955C173.246 45.0115 177.94 39.7075 178.002 36.7373C178.064 33.767 176.746 26.3856 176.508 23.4773C176.501 22.6754 176.324 21.8842 175.989 21.1557C175.654 20.4273 175.168 19.7784 174.563 19.2518Z" fill="#FCFCFC" stroke="black" stroke-linecap="round" stroke-linejoin="round"/>
<path d="M165.025 16.8031C165.025 16.8031 165.458 17.1036 164.848 18.1291C164.339 18.8838 163.73 19.5649 163.036 20.1534C163.036 20.1534 165.988 19.9236 167.217 17.7313C168.446 15.5389 166.828 15.2561 165.025 16.8031Z" fill="#FCFCFC"/>
<path d="M165.82 27.2431C165.953 28.0033 165.705 28.684 165.263 28.7636C164.821 28.8431 164.379 28.2862 164.229 27.526C164.079 26.7657 164.344 26.0851 164.786 26.0055C165.228 25.9259 165.688 26.5271 165.82 27.2431Z" fill="black"/>
<path d="M173.37 26.2265C173.502 26.9867 173.246 27.6674 172.804 27.747C172.362 27.8265 171.92 27.2608 171.77 26.5005C171.619 25.7403 171.885 25.0596 172.327 24.9801C172.769 24.9005 173.228 25.4574 173.37 26.2265Z" fill="black"/>
<path d="M162.496 24.9005L166.793 23.9546" stroke="black" stroke-linecap="round" stroke-linejoin="round"/>
<path d="M170.505 22.7082C170.505 22.7082 171.884 20.3744 173.785 21.0021" stroke="black" stroke-linecap="round" stroke-linejoin="round"/>
<path d="M170.382 35.535C170.382 35.535 165.493 36.4632 164.194 33.6344" stroke="black" stroke-linecap="round" stroke-linejoin="round"/>
<path d="M171.133 28.8697C171.133 28.8697 171.92 31.6101 169.436 31.8753" stroke="black" stroke-linecap="round" stroke-linejoin="round"/>
<path d="M191.836 103.612C191.836 103.612 184.429 109.163 184.402 110.587C184.375 112.01 185.754 114.123 186.214 114.582C186.674 115.042 188.079 116.35 188.079 116.35C188.079 116.35 191.898 115.466 191.775 113.893C191.651 112.319 191.2 112.275 191.2 112.275L194.32 106.971L191.836 103.612Z" fill="#FCFCFC" stroke="black" stroke-linecap="round" stroke-linejoin="round"/>
<path d="M191.173 112.31L189.396 114.017" stroke="black" stroke-linecap="round" stroke-linejoin="round"/>
<path d="M185.136 67.9867L203.293 86.2678L190.731 103.117L194.754 107.793C194.754 107.793 214.838 86.9838 214.873 85.2423C214.909 83.5009 192.499 56.8925 191.094 55.9112C189.688 54.93 186.532 54.3819 186.532 54.3819" fill="#EA377D"/>
<path d="M185.136 67.9867L203.293 86.2678L190.731 103.117L194.754 107.793C194.754 107.793 214.838 86.9838 214.873 85.2423C214.909 83.5009 192.499 56.8925 191.094 55.9112C189.688 54.93 186.532 54.3819 186.532 54.3819" stroke="black" stroke-linecap="round" stroke-linejoin="round"/>
<path d="M142.907 102.772C142.907 102.772 150.81 107.581 150.978 108.96C151.146 110.339 149.979 112.593 149.564 113.115C149.148 113.636 147.884 115.104 147.884 115.104C147.884 115.104 144.003 114.609 143.968 113.018C143.933 111.426 144.41 111.373 144.41 111.373L140.812 106.379L142.907 102.772Z" fill="#FCFCFC" stroke="black" stroke-linecap="round" stroke-linejoin="round"/>
<path d="M144.401 111.373L146.337 112.894" stroke="black" stroke-linecap="round" stroke-linejoin="round"/>
<path d="M148.821 69.5955L130.566 86.3208L143.95 102.171L140.414 107.219C140.414 107.219 119.145 88.1595 118.942 86.4269C118.738 84.6943 141.926 58.2008 143.384 57.2549C144.843 56.309 148.008 55.9289 148.008 55.9289" fill="#EA377D"/>
<path d="M148.821 69.5955L130.566 86.3208L143.95 102.171L140.414 107.219C140.414 107.219 119.145 88.1595 118.942 86.4269C118.738 84.6943 141.926 58.2008 143.384 57.2549C144.843 56.309 148.008 55.9289 148.008 55.9289" stroke="black" stroke-linecap="round" stroke-linejoin="round"/>
<path d="M158.289 60.897C158.289 60.897 160.87 54.4261 160.508 52.3752C160.145 50.3243 156.662 50.8636 154.602 51.6415C152.543 52.4194 149.625 55.4162 149.625 55.4162C149.625 55.4162 155.142 55.1156 155.964 54.7266C156.786 54.3377 158.103 60.1191 158.289 60.897Z" fill="#49A0EB" stroke="black" stroke-linecap="round" stroke-linejoin="round"/>
<path d="M172.495 51.5531L173.971 62.0462C173.971 62.0462 175.491 57.6262 177.374 55.3808C178.229 54.264 179.288 53.3192 180.495 52.5962C180.495 52.5962 176.11 50.7663 172.495 51.5531Z" fill="#49A0EB" stroke="black" stroke-linecap="round" stroke-linejoin="round"/>
</svg>
