<svg width="59" height="59" viewBox="0 0 59 59" fill="none" xmlns="http://www.w3.org/2000/svg">
<g clip-path="url(#clip0)">
<path d="M58.421 12.1711C58.421 10.1545 56.7863 8.51977 54.7697 8.51977H49.9013V10.9539H54.7697C55.4419 10.9539 55.9869 11.4989 55.9869 12.1711V44.6544L49.9208 38.5884C52.8365 33.3864 52.0826 26.6818 47.6582 22.2573C47.5952 22.1943 47.5312 22.1324 47.4671 22.0708V1.21714C47.4671 0.544959 46.9221 0 46.25 0H20.6907C20.6257 0 20.5615 0.00661801 20.498 0.0167732C20.4841 0.0189412 20.4701 0.0203104 20.4563 0.0230489C20.4379 0.0267002 20.4199 0.031949 20.4016 0.0363991C20.3811 0.0414196 20.3603 0.0457555 20.34 0.0519171C20.3269 0.0559108 20.3141 0.0611595 20.3011 0.0654955C20.2763 0.073825 20.2516 0.0819264 20.2273 0.0919675C20.2174 0.0960752 20.208 0.101096 20.1983 0.105432C20.1717 0.117184 20.1451 0.129051 20.1193 0.142744C20.1102 0.147536 20.1017 0.153355 20.0927 0.15849C20.0672 0.172867 20.0417 0.187358 20.0171 0.203789C20.0037 0.212689 19.9913 0.222844 19.9784 0.232201C19.9591 0.246236 19.9395 0.259586 19.9208 0.274876C19.8894 0.300549 19.8592 0.32782 19.8303 0.356688L11.3105 8.87635C11.0822 9.10456 10.9539 9.41412 10.9539 9.7368V34.0789H8.51977V36.5132H12.1711H13.3882H25.1361C27.0241 41.7942 32.0706 45.5734 38.0006 45.5733C40.3605 45.5732 42.6571 44.9621 44.6797 43.8281L48.3147 47.4671H3.65132C2.97913 47.4671 2.43417 46.9221 2.43417 46.25V12.1711C2.43417 11.4989 2.97913 10.9539 3.65132 10.9539H8.51977V8.51977H3.65132C1.63476 8.51977 0 10.1545 0 12.1711V46.2501C0 48.2666 1.63476 49.9014 3.65132 49.9014H21.2399C20.6478 55.7521 15.7931 55.9812 15.2138 55.9869C14.5416 55.9869 13.9966 56.5318 13.9966 57.204C13.9966 57.8762 14.5416 58.4212 15.2138 58.4212H43.2072C43.8793 58.4212 44.4243 57.8762 44.4243 57.204C44.4243 56.5318 43.8793 55.9869 43.2072 55.9869C42.9783 55.9869 37.7996 55.9129 37.1821 49.9014H50.7461L52.0956 51.2524C52.7899 51.9481 53.7331 52.338 54.716 52.3356C55.6993 52.3338 56.6414 51.9395 57.3327 51.2402C58.0387 50.5325 58.3986 49.6108 58.4144 48.6842H58.421V12.1711ZM37.3517 55.9869H21.0693C22.6605 54.3294 23.5973 52.1686 23.7358 49.9014H34.6853C34.8237 52.1686 35.7605 54.3294 37.3517 55.9869ZM13.3881 34.079V10.2407L19.4736 4.1552V8.51977H17.0394V10.9539H20.6907C21.3629 10.9539 21.9079 10.409 21.9079 9.7368V2.43417H45.0329V20.2066C42.9262 18.9413 40.4983 18.2565 37.9998 18.2566C35.9874 18.2566 34.0767 18.6921 32.3566 19.4737H17.0394V21.9079H28.7057C27.58 22.954 26.6311 24.1876 25.9086 25.5592H17.0394V27.9934H24.9141C24.5423 29.2357 24.3416 30.5519 24.3417 31.9152C24.3417 32.6515 24.4008 33.3741 24.513 34.0789H13.3881V34.079ZM26.7777 31.9163C26.7769 25.7174 31.8016 20.6915 38.0005 20.6907C40.9788 20.6821 43.8368 21.8653 45.9372 23.9769C48.0426 26.0817 49.2256 28.9366 49.226 31.9135C49.2264 34.9878 47.9903 37.7731 45.9884 39.8005L45.8854 39.9034C43.8588 41.9034 41.0755 43.1386 38.0032 43.139C31.8042 43.1398 26.7784 38.1152 26.7777 31.9163ZM48.5564 40.6793L50.3508 42.4736L48.5531 44.2713L46.7587 42.477L48.5564 40.6793ZM53.818 49.5361L50.2744 45.9925L52.0721 44.1948L55.6157 47.7384C55.8618 47.9854 55.9854 48.308 55.9869 48.6313V48.6433C55.9854 48.9665 55.8618 49.2892 55.6157 49.5361C55.1188 50.0315 54.3148 50.0315 53.818 49.5361Z" fill="#49A0EB"/>
<path d="M31.8615 25.7759L33.5825 27.4969C36.0243 25.0611 39.9768 25.0611 42.4187 27.4969L44.1397 25.7759C40.7467 22.3911 35.2544 22.3911 31.8615 25.7759Z" fill="#49A0EB"/>
<path d="M4.86841 38.9473V43.8158C4.86841 44.488 5.41337 45.0329 6.08555 45.0329H10.9539V42.5988H7.30258V38.9474H4.86841V38.9473Z" fill="#49A0EB"/>
<path d="M15.8222 42.5986H13.3881V45.0328H15.8222V42.5986Z" fill="#49A0EB"/>
<path d="M41.3815 13.3881H17.0394V15.8223H41.3815V13.3881Z" fill="#49A0EB"/>
</g>
<defs>
<clipPath id="clip0">
<rect width="58.421" height="58.421" fill="white"/>
</clipPath>
</defs>
</svg>
