<svg width="280" height="280" viewBox="0 0 280 280" fill="none" xmlns="http://www.w3.org/2000/svg">
<path d="M280 214.144H0V214.284H280V214.144Z" fill="#E0E0E0"/>
<path d="M67.004 220.074H48.1096V220.214H67.004V220.074Z" fill="#E0E0E0"/>
<path d="M43.9993 220.142H32.7881V220.282H43.9993V220.142Z" fill="#E0E0E0"/>
<path d="M169.747 217.14H116.665V217.28H169.747V217.14Z" fill="#E0E0E0"/>
<path d="M93.9569 224.045H77.0337V224.185H93.9569V224.045Z" fill="#E0E0E0"/>
<path d="M231.655 219.067H187.6V219.207H231.655V219.067Z" fill="#E0E0E0"/>
<path d="M132.72 189.168H24.5895C23.7424 189.167 22.9305 188.829 22.332 188.23C21.7336 187.63 21.3975 186.818 21.3975 185.97V33.9697C21.4048 33.1274 21.7442 32.3221 22.3419 31.7287C22.9395 31.1352 23.7472 30.8015 24.5895 30.8001H132.72C133.568 30.8001 134.381 31.137 134.981 31.7366C135.581 32.3363 135.917 33.1496 135.917 33.9977V185.97C135.917 186.819 135.581 187.632 134.981 188.232C134.381 188.831 133.568 189.168 132.72 189.168ZM24.5895 30.9121C23.7795 30.9135 23.0032 31.2363 22.431 31.8096C21.8588 32.3828 21.5375 33.1597 21.5375 33.9697V185.97C21.5375 186.78 21.8588 187.557 22.431 188.131C23.0032 188.704 23.7795 189.027 24.5895 189.028H132.72C133.53 189.027 134.307 188.704 134.88 188.131C135.453 187.558 135.776 186.781 135.777 185.97V33.9697C135.776 33.1592 135.453 32.3823 134.88 31.8092C134.307 31.2362 133.53 30.9135 132.72 30.9121H24.5895Z" fill="#E0E0E0"/>
<path d="M253.854 189.168H145.718C144.87 189.167 144.058 188.829 143.458 188.23C142.859 187.631 142.522 186.818 142.52 185.97V33.9697C142.529 33.1269 142.869 32.3216 143.468 31.7283C144.067 31.135 144.875 30.8015 145.718 30.8001H253.854C254.695 30.803 255.501 31.1373 256.098 31.7306C256.694 32.3239 257.033 33.1284 257.04 33.9697V185.97C257.04 186.817 256.705 187.628 256.107 188.228C255.51 188.827 254.7 189.165 253.854 189.168ZM145.718 30.9121C144.907 30.9135 144.13 31.2362 143.557 31.8092C142.984 32.3823 142.661 33.1592 142.66 33.9697V185.97C142.661 186.781 142.984 187.558 143.557 188.131C144.13 188.704 144.907 189.027 145.718 189.028H253.854C254.664 189.027 255.441 188.704 256.014 188.131C256.587 187.558 256.91 186.781 256.911 185.97V33.9697C256.91 33.1592 256.587 32.3823 256.014 31.8092C255.441 31.2362 254.664 30.9135 253.854 30.9121H145.718Z" fill="#E0E0E0"/>
<path d="M235.883 148.837H221.615V214.144H235.883V148.837Z" fill="#E0E0E0"/>
<path d="M233.173 214.144H235.883V206.433H230.333L233.173 214.144Z" fill="#F0F0F0"/>
<path d="M182.56 148.837H168.291V214.144H182.56V148.837Z" fill="#E0E0E0"/>
<path d="M235.883 148.837H180.191V209.412H235.883V148.837Z" fill="#F0F0F0"/>
<path d="M208.947 179.749V199.774H233.783V179.749H208.947Z" fill="#E0E0E0"/>
<path d="M182.297 179.749V199.774H207.133V179.749H182.297Z" fill="#E0E0E0"/>
<path d="M197.171 181.91H192.254C191.198 181.91 190.153 181.694 189.184 181.277C188.214 180.859 187.34 180.247 186.615 179.48H202.81C202.084 180.247 201.21 180.859 200.241 181.277C199.271 181.694 198.226 181.91 197.171 181.91Z" fill="#F0F0F0"/>
<path d="M224.073 181.91H219.162C218.105 181.91 217.059 181.695 216.089 181.277C215.118 180.859 214.243 180.248 213.517 179.48H229.718C228.991 180.247 228.116 180.858 227.145 181.276C226.175 181.694 225.129 181.91 224.073 181.91Z" fill="#F0F0F0"/>
<path d="M208.947 153.395V173.421H233.783V153.395H208.947Z" fill="#E0E0E0"/>
<path d="M182.291 153.401V173.426H207.127V153.401H182.291Z" fill="#E0E0E0"/>
<path d="M197.171 155.557H192.254C191.198 155.556 190.154 155.341 189.185 154.924C188.215 154.507 187.341 153.898 186.615 153.132H202.81C202.083 153.898 201.209 154.507 200.239 154.924C199.27 155.341 198.226 155.556 197.171 155.557Z" fill="#F0F0F0"/>
<path d="M224.073 155.557H219.162C218.105 155.557 217.06 155.341 216.09 154.925C215.12 154.508 214.244 153.898 213.517 153.132H229.718C228.99 153.897 228.114 154.507 227.144 154.924C226.174 155.34 225.129 155.556 224.073 155.557Z" fill="#F0F0F0"/>
<path d="M182.902 214.144H180.191V206.433H185.746L182.902 214.144Z" fill="#F0F0F0"/>
<path d="M193.967 138.606C193.967 141.103 195.703 142.839 193.206 142.839C190.708 142.839 184.929 141.103 184.929 138.606C184.929 137.407 185.405 136.258 186.252 135.41C187.1 134.562 188.249 134.086 189.448 134.086C190.646 134.086 191.796 134.562 192.643 135.41C193.491 136.258 193.967 137.407 193.967 138.606Z" fill="#E0E0E0"/>
<path d="M201.701 140.762C201.701 143.254 203.437 144.995 200.939 144.995C198.442 144.995 192.64 143.254 192.64 140.762C192.64 139.563 193.116 138.414 193.964 137.566C194.811 136.719 195.961 136.242 197.159 136.242C198.358 136.242 199.507 136.719 200.355 137.566C201.202 138.414 201.678 139.563 201.678 140.762H201.701Z" fill="#E0E0E0"/>
<path d="M209.11 139.44C209.11 141.932 210.846 143.674 208.348 143.674C205.85 143.674 200.071 141.932 200.071 139.44C200.071 138.242 200.547 137.092 201.395 136.245C202.242 135.397 203.392 134.921 204.59 134.921C205.789 134.921 206.939 135.397 207.786 136.245C208.634 137.092 209.11 138.242 209.11 139.44Z" fill="#E0E0E0"/>
<path d="M182.162 140C182.162 140 182.532 148.814 196.694 148.814C210.857 148.814 211.221 140 211.221 140H182.162Z" fill="#E6E6E6"/>
<path d="M236.477 41.4344H164.668V120.898H236.477V41.4344Z" fill="#E0E0E0"/>
<path d="M244.16 38.9816H160.02C159.926 38.9809 159.833 38.9987 159.746 39.0342C159.659 39.0696 159.58 39.1218 159.513 39.188C159.447 39.2541 159.394 39.3327 159.358 39.4194C159.322 39.506 159.303 39.599 159.303 39.6928C159.303 39.8829 159.379 40.0653 159.513 40.1997C159.648 40.3341 159.83 40.4096 160.02 40.4096H244.16C244.254 40.4096 244.347 40.3911 244.433 40.355C244.52 40.3189 244.599 40.266 244.665 40.1994C244.731 40.1327 244.783 40.0537 244.819 39.9667C244.854 39.8798 244.872 39.7867 244.871 39.6928C244.871 39.5042 244.796 39.3233 244.663 39.1899C244.53 39.0566 244.349 38.9816 244.16 38.9816Z" fill="#E0E0E0"/>
<path d="M239.523 41.4344H166.09V120.898H239.523V41.4344Z" fill="#E6E6E6"/>
<path d="M236.477 120.898H164.668V126.56H236.477V120.898Z" fill="#E0E0E0"/>
<path d="M244.597 120.898H171.164V126.56H244.597V120.898Z" fill="#E6E6E6"/>
<path d="M235.256 116.626V45.6961L170.358 45.6961V116.626H235.256Z" fill="#F5F5F5"/>
<path d="M185.091 116.631L210.129 45.7017H221.945L196.907 116.631H185.091Z" fill="#FAFAFA"/>
<path d="M199.444 116.631L224.482 45.7017H229.09L204.053 116.631H199.444Z" fill="#FAFAFA"/>
<path d="M235.256 116.631V45.7017H234.713V116.631H235.256Z" fill="#E0E0E0"/>
<path d="M170.408 37.7049H163.066V106.148H170.408V37.7049Z" fill="#EBEBEB"/>
<path d="M173.264 37.7049H167.546V106.148H173.264V37.7049Z" fill="#E0E0E0"/>
<path d="M177.75 37.7049H170.408V106.148H177.75V37.7049Z" fill="#EBEBEB"/>
<path d="M180.606 37.7049H174.888V106.148H180.606V37.7049Z" fill="#E0E0E0"/>
<path d="M185.091 37.7049H177.75V106.148H185.091V37.7049Z" fill="#EBEBEB"/>
<path d="M232.523 37.7049H228.295V106.148H232.523V37.7049Z" fill="#EBEBEB"/>
<path d="M234.175 37.7049H230.877V106.148H234.175V37.7049Z" fill="#E0E0E0"/>
<path d="M236.751 37.7049H232.523V106.148H236.751V37.7049Z" fill="#EBEBEB"/>
<path d="M238.403 37.7049H235.105V106.148H238.403V37.7049Z" fill="#E0E0E0"/>
<path d="M240.985 37.7049H236.757V106.148H240.985V37.7049Z" fill="#EBEBEB"/>
<path d="M61.8073 59.1583H54.1577V80.0296H61.8073V59.1583Z" fill="#E6E6E6"/>
<path d="M43.7024 84.8064L41.272 91.4368H43.7024L58.576 84.8064H43.7024Z" fill="#F0F0F0"/>
<path d="M41.272 84.8064V91.4368L56.1512 84.8064H41.272Z" fill="#E0E0E0"/>
<path d="M102.032 84.8064L99.6072 91.4368H102.032L116.911 84.8064H102.032Z" fill="#F0F0F0"/>
<path d="M99.6072 84.8064V91.4368L114.481 84.8064H99.6072Z" fill="#E0E0E0"/>
<path d="M30.3575 85.12H46.5359V80.0744H30.3575V85.12Z" fill="#E0E0E0"/>
<path d="M126.963 80.0744H46.5303V85.12H126.963V80.0744Z" fill="#F0F0F0"/>
<path d="M74.5471 80.0296H55.9271L53.6255 54.7345H72.2455L74.5471 80.0296Z" fill="#E0E0E0"/>
<path d="M75.5104 80.0296H56.8961L54.5889 54.7345H73.2088L75.5104 80.0296Z" fill="#F0F0F0"/>
<path d="M59.4382 77.2297L57.6462 57.5345H70.6662L72.4582 77.2297H59.4382Z" fill="#FAFAFA"/>
<path d="M83.0256 71.8145C83.0256 71.8145 83.3672 80.0297 96.5664 80.0297C109.766 80.0297 110.107 71.8145 110.107 71.8145H83.0256Z" fill="#E6E6E6"/>
<path d="M69.3055 212.33H48.9047C48.4428 212.339 47.9902 212.2 47.6135 211.932C47.2367 211.665 46.9558 211.284 46.8122 210.844C46.6685 210.405 46.6697 209.932 46.8156 209.493C46.9614 209.055 47.2443 208.675 47.6223 208.41L47.9527 208.858C47.684 209.059 47.4852 209.339 47.3844 209.659C47.2837 209.98 47.2861 210.323 47.3913 210.642C47.4965 210.961 47.6992 211.239 47.9708 211.436C48.2424 211.633 48.5691 211.74 48.9047 211.742H69.3055C70.5556 211.74 71.7541 211.243 72.6381 210.359C73.522 209.475 74.0193 208.277 74.0207 207.026V146.653C74.0222 145.292 74.563 143.988 75.5245 143.025C76.486 142.063 77.7898 141.521 79.1503 141.518H85.2543V142.078H79.1503C77.9383 142.081 76.7769 142.564 75.9204 143.421C75.064 144.279 74.5822 145.441 74.5807 146.653V207.054C74.5778 208.453 74.0211 209.793 73.0324 210.781C72.0438 211.77 70.7037 212.327 69.3055 212.33Z" fill="#E0E0E0"/>
<path d="M137.452 142.671H100.71V214.144H137.452V142.671Z" fill="#E0E0E0"/>
<path d="M138.835 142.671H135.806V214.144H138.835V142.671Z" fill="#EBEBEB"/>
<path d="M66.7129 148.03H139.771V142.671H66.7129V148.03Z" fill="#EBEBEB"/>
<path d="M66.276 142.671H29.5344V214.144H66.276V142.671Z" fill="#E0E0E0"/>
<path d="M67.6536 142.671H64.624V214.144H67.6536V142.671Z" fill="#EBEBEB"/>
<path d="M54.897 121.335H89.1354L94.097 141.551H59.8586L54.897 121.335Z" fill="#E0E0E0"/>
<path d="M59.8584 141.551L59.9984 142.671H94.2368L94.1024 141.551H59.8584Z" fill="#E0E0E0"/>
<path d="M55.9551 121.335H90.1935L95.1551 141.551H60.9167L55.9551 121.335Z" fill="#F0F0F0"/>
<path d="M61.6391 140.627L57.1311 122.259H89.4655L93.9735 140.627H61.6391Z" fill="#FAFAFA"/>
<path d="M69.8376 141.551L69.972 142.671H107.677L107.537 141.551H69.8376Z" fill="#F0F0F0"/>
<path d="M43.1594 137.575C43.1594 137.575 38.1194 128.89 45.1138 121.974C45.1138 121.974 46.9338 123.166 46.9058 124.774C46.8778 126.381 44.957 126.778 45.3658 128.134C45.7746 129.489 47.6058 130.777 46.4074 131.88C45.209 132.983 46.5978 133.963 46.5194 135.318C46.441 136.674 43.1594 137.575 43.1594 137.575Z" fill="#F0F0F0"/>
<path d="M43.5401 138.371C43.5401 138.371 45.5841 128.537 36.7697 124.18C36.7697 124.18 35.4145 125.888 35.9465 127.395C36.4785 128.901 38.4329 128.677 38.4609 130.077C38.4889 131.477 37.1729 133.286 38.6569 133.958C40.1409 134.63 39.1273 135.996 39.6313 137.251C40.1353 138.505 43.5401 138.371 43.5401 138.371Z" fill="#F0F0F0"/>
<path d="M35.8401 136.192C35.8401 136.192 36.0081 142.671 42.4313 142.671C48.8545 142.671 49.0057 136.192 49.0057 136.192H35.8401Z" fill="#E0E0E0"/>
<path d="M126.414 214.144H125.137L121.481 196.135L120.842 192.982L116.855 173.382H101.573L93.2902 214.144H92.0134L100.453 172.603C100.48 172.462 100.556 172.335 100.668 172.244C100.779 172.153 100.919 172.104 101.063 172.105H117.365C117.509 172.104 117.648 172.153 117.76 172.244C117.871 172.335 117.948 172.462 117.975 172.603L121.475 189.84L122.119 192.993L126.414 214.144Z" fill="#EBEBEB"/>
<path d="M150.948 214.144H149.666L141.383 173.359H126.107L122.119 192.993L121.481 196.135L117.824 214.144H116.547L120.843 192.982L121.475 189.84L124.981 172.603C125.008 172.462 125.085 172.335 125.196 172.244C125.308 172.153 125.447 172.104 125.591 172.105H141.893C142.037 172.104 142.177 172.154 142.29 172.245C142.402 172.335 142.479 172.462 142.509 172.603L150.948 214.144Z" fill="#EBEBEB"/>
<path d="M113.282 172.732H141.361C143.937 172.73 146.409 171.718 148.249 169.915C150.088 168.111 151.147 165.659 151.2 163.083L152.247 120.411C152.262 119.46 152.088 118.515 151.734 117.632C151.381 116.749 150.855 115.945 150.188 115.266C149.522 114.588 148.726 114.049 147.849 113.68C146.972 113.312 146.031 113.122 145.079 113.12H127.478C125.717 113.121 124.017 113.77 122.702 114.943C121.388 116.116 120.55 117.731 120.35 119.482L113.282 172.732Z" fill="#E6E6E6"/>
<path d="M128.593 172.732H98.672C98.3007 172.732 97.9446 172.585 97.682 172.322C97.4195 172.059 97.272 171.703 97.272 171.332V171.198C97.272 170.177 97.6773 169.199 98.3988 168.477C99.1203 167.756 100.099 167.35 101.119 167.35H128.593V172.732Z" fill="#E6E6E6"/>
<path d="M140 239.434C199.966 239.434 248.578 236.595 248.578 233.094C248.578 229.593 199.966 226.755 140 226.755C80.0338 226.755 31.4216 229.593 31.4216 233.094C31.4216 236.595 80.0338 239.434 140 239.434Z" fill="#F5F5F5"/>
<path d="M154.806 95.6593L155.17 95.9673C155.305 96.0849 155.456 96.1969 155.602 96.3089C155.893 96.5385 156.162 96.7681 156.498 96.9865C157.102 97.4289 157.746 97.8321 158.39 98.2353C159.689 99.036 161.051 99.7308 162.462 100.313C163.866 100.911 165.313 101.406 166.79 101.791C167.16 101.892 167.541 101.959 167.91 102.043L168.47 102.167C168.588 102.167 168.47 102.167 168.47 102.195C168.394 102.212 168.322 102.245 168.258 102.29C168.207 102.34 168.207 102.34 168.23 102.329C168.34 102.165 168.427 101.986 168.487 101.797C168.686 101.151 168.808 100.484 168.851 99.8089C168.918 99.0753 168.941 98.3025 168.935 97.5241C168.935 95.9617 168.812 94.3657 168.689 92.7641C168.566 91.1625 168.37 89.5553 168.162 87.9425C167.955 86.3297 167.726 84.7169 167.485 83.1265L169.59 82.6449C170.518 85.8411 171.266 89.0867 171.83 92.3665C172.124 94.0344 172.327 95.7168 172.441 97.4065C172.507 98.2785 172.527 99.1532 172.502 100.027C172.495 100.992 172.372 101.953 172.138 102.889C171.98 103.488 171.723 104.055 171.377 104.569C171.135 104.919 170.833 105.224 170.486 105.471C170.088 105.755 169.63 105.947 169.148 106.031C168.733 106.1 168.309 106.1 167.894 106.031L167.25 105.924C166.818 105.851 166.382 105.795 165.956 105.7C164.239 105.359 162.553 104.876 160.916 104.255C159.279 103.627 157.697 102.867 156.184 101.982C155.428 101.528 154.689 101.052 153.972 100.531C153.614 100.274 153.261 99.9713 152.908 99.7249C152.734 99.5793 152.561 99.4393 152.387 99.2825C152.214 99.1257 152.051 98.9969 151.827 98.7841L154.806 95.6593Z" fill="#E4897B"/>
<path d="M148.719 93.1111C154.879 92.2767 159.83 97.2439 159.83 97.2439L154.196 105.935C154.196 105.935 148.159 102.071 147.095 99.4391C145.998 96.7007 145.567 93.5199 148.719 93.1111Z" fill="#EA377D"/>
<path opacity="0.6" d="M148.719 93.1111C154.879 92.2767 159.83 97.2439 159.83 97.2439L154.196 105.935C154.196 105.935 148.159 102.071 147.095 99.4391C145.998 96.7007 145.567 93.5199 148.719 93.1111Z" fill="#FAFAFA"/>
<path d="M167.535 83.8824L165.491 79.7832L170.85 79.7384C170.85 79.7384 170.957 82.6 169.602 84.2184L167.535 83.8824Z" fill="#E4897B"/>
<path d="M166.443 75.3759L170.43 76.0871L170.85 79.7383L165.491 79.7831L166.443 75.3759Z" fill="#E4897B"/>
<path d="M126.935 228.407L131.953 228.889L135.425 217.106L130.407 216.619L126.935 228.407Z" fill="#E4897B"/>
<path d="M95.032 210.98L98.7504 214.474L106.781 205.649L103.062 202.154L95.032 210.98Z" fill="#E4897B"/>
<path d="M100.47 212.8L97.6695 207.76C97.622 207.673 97.5448 207.607 97.4521 207.573C97.3595 207.539 97.2577 207.54 97.1655 207.575L92.8591 209.21C92.7525 209.256 92.6567 209.324 92.5778 209.409C92.499 209.494 92.4388 209.594 92.4014 209.704C92.3639 209.814 92.3499 209.931 92.3602 210.046C92.3706 210.162 92.4051 210.274 92.4615 210.375C93.4639 212.111 94.0407 212.901 95.2615 215.113C96.0175 216.479 97.5015 219.593 98.5375 221.486C99.5735 223.378 101.494 222.432 101.231 221.558C100.033 217.638 100.262 215.438 100.598 213.718C100.666 213.407 100.62 213.081 100.47 212.8Z" fill="#263238"/>
<path d="M132.541 227.36H126.459C126.35 227.361 126.245 227.398 126.159 227.465C126.073 227.531 126.011 227.625 125.983 227.73L124.656 232.54C124.625 232.654 124.62 232.774 124.643 232.889C124.666 233.005 124.716 233.114 124.788 233.208C124.86 233.301 124.953 233.376 125.06 233.428C125.166 233.479 125.283 233.505 125.401 233.503C127.546 233.503 128.559 233.503 131.236 233.503H139.406C141.646 233.503 142.094 231.263 141.176 231.05C137.054 230.143 134.674 228.883 133.403 227.69C133.168 227.476 132.86 227.358 132.541 227.36Z" fill="#263238"/>
<path d="M135.425 217.107L133.633 223.182H128.47L130.402 216.625L135.425 217.107Z" fill="#CE6F64"/>
<path d="M103.057 202.16L106.781 205.649L102.637 210.196L98.9185 206.707L103.057 202.16Z" fill="#CE6F64"/>
<path d="M154.79 89.6336C154.751 85.5624 151.066 84.14 151.066 84.14C151.066 84.14 155.675 75.4152 153.306 69.6248C150.937 63.8344 143.131 62.8152 140.655 65.52C136.304 65.3352 134.921 71.5848 134.921 71.5848C134.921 71.5848 131.281 72.1952 130.301 74.844C129.321 77.4928 132.306 80.4776 132.306 80.4776C132.306 80.4776 128.151 81.0376 126.622 84.2352C125.093 87.4328 126.034 91.6776 130.626 95.34C137.301 100.66 149.571 93.9848 149.571 93.9848C149.571 93.9848 154.835 94.3152 154.79 89.6336Z" fill="#263238"/>
<path d="M154 93.6824C154 93.6824 156.24 94.6624 148.758 124.214L128.038 122.416C129.114 114.016 129.578 108.797 127.042 91.1232C129.998 90.7736 132.976 90.6407 135.951 90.7256C139.106 90.7731 142.254 91.0445 145.37 91.5376C148.281 92.108 151.161 92.8238 154 93.6824Z" fill="#EA377D"/>
<path opacity="0.6" d="M154 93.6824C154 93.6824 156.24 94.6624 148.758 124.214L128.038 122.416C129.114 114.016 129.578 108.797 127.042 91.1232C129.998 90.7736 132.976 90.6407 135.951 90.7256C139.106 90.7731 142.254 91.0445 145.37 91.5376C148.281 92.108 151.161 92.8238 154 93.6824Z" fill="#FAFAFA"/>
<path d="M148.63 92.2376C147.554 91.98 146.39 91.7336 145.326 91.5376C142.209 91.0426 139.062 90.7694 135.906 90.72C134.826 90.6808 133.745 90.6808 132.731 90.72L133.426 92.0416C133.549 92.2768 136.506 97.7928 142.122 100.923L143.668 101.786L145.107 100.761C148.736 98.168 149.274 94.7968 148.63 92.2376Z" fill="#FAFAFA"/>
<path d="M137.76 80.1975C138.091 83.2831 138.203 88.8887 135.912 90.7255C135.912 90.7255 138.533 95.7039 143.494 98.4647C147.885 95.3399 145.331 91.5375 145.331 91.5375C142.022 90.4175 142.324 87.9423 143.091 85.6351L137.76 80.1975Z" fill="#E4897B"/>
<path d="M139.938 82.4153L143.108 85.6353C142.915 86.1704 142.769 86.7212 142.671 87.2817C141.4 86.9849 139.552 85.6577 139.53 84.2913C139.555 83.6468 139.693 83.0119 139.938 82.4153Z" fill="#CE6F64"/>
<path d="M137.626 73.1976C137.015 78.2376 136.651 80.3711 138.706 83.4007C141.798 87.948 148.137 87.5896 150.237 82.8407C152.13 78.5511 152.807 71.0136 148.277 68.1296C147.284 67.4902 146.143 67.1151 144.965 67.0396C143.786 66.9642 142.607 67.191 141.541 67.6986C140.474 68.2061 139.554 68.9776 138.869 69.9399C138.184 70.9022 137.756 72.0235 137.626 73.1976Z" fill="#E4897B"/>
<path d="M141.535 66.9872C145.427 67.9952 141.579 79.8337 135.375 76.4009C135.375 76.4009 135.655 71.4 137.379 69.2776C138.422 68.0132 139.908 67.1941 141.535 66.9872Z" fill="#263238"/>
<path d="M141.12 67.6424C142.8 70.3752 155.26 75.5552 151.071 69.6752C146.883 63.7952 141.12 67.6424 141.12 67.6424Z" fill="#263238"/>
<path d="M136.024 77.5599C135.954 78.5418 136.274 79.5116 136.914 80.2591C137.777 81.2392 138.914 80.6455 139.272 79.4583C139.591 78.3943 139.53 76.6023 138.382 76.0535C138.128 75.9418 137.851 75.8944 137.575 75.9156C137.299 75.9368 137.033 76.0259 136.799 76.175C136.566 76.3241 136.373 76.5286 136.238 76.7702C136.103 77.0118 136.029 77.2831 136.024 77.5599Z" fill="#E4897B"/>
<path d="M148.736 124.214C148.736 124.214 155.753 155.26 151.071 177.145C147.935 191.806 136.618 221.419 136.618 221.419L127.77 221.195C127.77 221.195 136.332 190.115 138.107 177.895C141.137 156.985 133.549 122.898 133.549 122.898L148.736 124.214Z" fill="#263238"/>
<path d="M140.644 130.48L136.22 137.458C137.553 145.732 138.399 154.077 138.751 162.45C144.973 151.312 142.027 136.377 140.644 130.48Z" fill="#263238"/>
<path d="M137.346 221.878L126.414 221.598L127.047 218.243L138.981 218.809L137.346 221.878Z" fill="#49A0EB"/>
<path opacity="0.6" d="M137.346 221.878L126.414 221.598L127.047 218.243L138.981 218.809L137.346 221.878Z" fill="#FAFAFA"/>
<path d="M144.2 123.878C144.2 123.878 140.084 156.806 131.158 174.782C123.95 189.28 104.72 210 104.72 210L99.8032 204.932C99.8032 204.932 112.795 182.471 118.154 172.822C131.292 149.173 120.551 131.13 127.999 122.422L144.2 123.878Z" fill="#263238"/>
<path d="M105.213 210.65L98.8623 204.462L100.974 201.594L107.89 208.746L105.213 210.65Z" fill="#49A0EB"/>
<path opacity="0.6" d="M105.213 210.65L98.8623 204.462L100.974 201.594L107.89 208.746L105.213 210.65Z" fill="#FAFAFA"/>
<path d="M127.786 121.173L126.694 122.948C126.605 123.088 126.767 123.25 127.002 123.267L148.758 125.149C148.949 125.149 149.111 125.087 149.134 124.969L149.481 123.133C149.481 123.004 149.352 122.881 149.145 122.864L128.139 121.044C128.074 121.033 128.008 121.039 127.946 121.062C127.884 121.084 127.829 121.123 127.786 121.173Z" fill="#EA377D"/>
<path opacity="0.3" d="M127.786 121.173L126.694 122.948C126.605 123.088 126.767 123.25 127.002 123.267L148.758 125.149C148.949 125.149 149.111 125.087 149.134 124.969L149.481 123.133C149.481 123.004 149.352 122.881 149.145 122.864L128.139 121.044C128.074 121.033 128.008 121.039 127.946 121.062C127.884 121.084 127.829 121.123 127.786 121.173Z" fill="black"/>
<path d="M130.407 123.76L129.847 123.71C129.735 123.71 129.657 123.637 129.668 123.564L130.144 121.178C130.144 121.106 130.262 121.055 130.374 121.066L130.934 121.117C131.046 121.117 131.124 121.19 131.113 121.262L130.642 123.648C130.62 123.726 130.519 123.76 130.407 123.76Z" fill="#263238"/>
<path d="M147.162 125.216L146.602 125.166C146.49 125.166 146.412 125.093 146.423 125.02L146.899 122.629C146.899 122.562 147.017 122.511 147.129 122.522L147.689 122.573C147.801 122.573 147.879 122.646 147.868 122.713L147.398 125.104C147.375 125.177 147.28 125.222 147.162 125.216Z" fill="#263238"/>
<path d="M138.785 124.488L138.225 124.443C138.113 124.443 138.035 124.365 138.046 124.298L138.522 121.906C138.522 121.839 138.639 121.789 138.751 121.8L139.311 121.845C139.423 121.845 139.502 121.923 139.491 121.99L139.02 124.382C138.998 124.449 138.88 124.499 138.785 124.488Z" fill="#263238"/>
<path d="M144.945 75.9808C144.872 76.384 145.029 76.7536 145.292 76.804C145.555 76.8544 145.852 76.5632 145.908 76.1544C145.964 75.7456 145.83 75.376 145.561 75.3312C145.292 75.2864 145.04 75.6 144.945 75.9808Z" fill="#263238"/>
<path d="M149.52 76.8208C149.447 77.224 149.604 77.5936 149.867 77.644C150.13 77.6944 150.427 77.4032 150.483 76.9944C150.539 76.5856 150.405 76.216 150.136 76.1712C149.867 76.1264 149.621 76.412 149.52 76.8208Z" fill="#263238"/>
<path d="M150.041 76.16L151.066 76.0592C151.066 76.0592 150.427 76.72 150.041 76.16Z" fill="#263238"/>
<path d="M148.198 77.28C148.394 78.2738 148.724 79.2364 149.178 80.1416C148.943 80.2512 148.687 80.308 148.428 80.308C148.169 80.308 147.912 80.2512 147.677 80.1416L148.198 77.28Z" fill="#DE5753"/>
<path d="M145.975 81.4855C145.429 81.4008 144.911 81.1862 144.464 80.8598C144.018 80.5334 143.657 80.1046 143.411 79.6095C143.401 79.5849 143.402 79.5578 143.412 79.5337C143.423 79.5097 143.442 79.4906 143.467 79.4807C143.478 79.4751 143.491 79.4721 143.504 79.4716C143.517 79.4712 143.53 79.4734 143.542 79.4781C143.554 79.4829 143.565 79.49 143.574 79.4991C143.583 79.5082 143.59 79.5191 143.595 79.5311C143.831 79.9926 144.173 80.3919 144.592 80.6964C145.012 81.001 145.497 81.2023 146.009 81.2839C146.036 81.2839 146.061 81.2945 146.08 81.3134C146.099 81.3323 146.11 81.3579 146.11 81.3847C146.11 81.4114 146.099 81.437 146.08 81.4559C146.061 81.4748 146.036 81.4855 146.009 81.4855H145.975Z" fill="#263238"/>
<path d="M143.853 72.8C143.81 72.8008 143.768 72.7879 143.733 72.7633C143.698 72.7387 143.672 72.7036 143.658 72.663C143.644 72.6225 143.644 72.5786 143.657 72.5378C143.67 72.497 143.695 72.4613 143.73 72.436C144.025 72.1983 144.373 72.0351 144.744 71.9601C145.115 71.885 145.499 71.9004 145.863 72.0048C145.888 72.0135 145.911 72.0272 145.931 72.0449C145.951 72.0626 145.967 72.0841 145.978 72.108C145.99 72.1319 145.996 72.1579 145.998 72.1844C145.999 72.2108 145.995 72.2373 145.986 72.2623C145.978 72.2874 145.964 72.3104 145.946 72.3302C145.929 72.3499 145.907 72.366 145.883 72.3774C145.859 72.3889 145.833 72.3955 145.807 72.3969C145.78 72.3983 145.754 72.3944 145.729 72.3855C145.428 72.303 145.113 72.2934 144.808 72.3577C144.503 72.422 144.218 72.5583 143.976 72.7552C143.94 72.782 143.897 72.7976 143.853 72.8Z" fill="#263238"/>
<path d="M152.141 75.2752C152.111 75.275 152.082 75.2684 152.055 75.2559C152.028 75.2433 152.003 75.2251 151.984 75.2023C151.793 74.9557 151.546 74.7576 151.264 74.6243C150.982 74.491 150.672 74.4262 150.36 74.4351C150.307 74.4399 150.254 74.424 150.212 74.3906C150.17 74.3572 150.143 74.3089 150.136 74.2559C150.133 74.2298 150.135 74.2032 150.143 74.1779C150.15 74.1526 150.163 74.129 150.179 74.1086C150.196 74.0882 150.217 74.0714 150.24 74.0592C150.263 74.047 150.289 74.0396 150.315 74.0375C150.694 74.018 151.073 74.0903 151.418 74.2482C151.763 74.4062 152.065 74.6451 152.298 74.9448C152.334 74.9833 152.355 75.0344 152.355 75.0876C152.355 75.1407 152.334 75.1918 152.298 75.2303C152.253 75.2645 152.197 75.2804 152.141 75.2752Z" fill="#263238"/>
<path d="M128.57 98.5601C127.728 100.231 126.793 101.854 125.77 103.421C124.762 104.966 123.698 106.478 122.55 107.934C121.39 109.396 120.147 110.789 118.826 112.106C118.143 112.75 117.477 113.406 116.743 114.01L116.183 114.47L116.049 114.582L115.87 114.722C115.751 114.818 115.628 114.908 115.5 114.99C114.991 115.339 114.437 115.618 113.854 115.819C112.755 116.178 111.594 116.305 110.443 116.194C109.413 116.091 108.398 115.868 107.419 115.528C105.607 114.896 103.878 114.044 102.273 112.991C99.1837 110.987 96.3385 108.631 93.7944 105.969L95.284 104.406C96.6224 105.482 98.0336 106.551 99.4784 107.52C100.894 108.511 102.367 109.416 103.891 110.23C105.342 111.028 106.874 111.668 108.461 112.14C109.973 112.56 111.49 112.633 112.538 112.196C113.129 111.939 113.658 111.557 114.089 111.076C114.71 110.516 115.287 109.894 115.875 109.29C117.023 108.041 118.087 106.702 119.134 105.37C120.182 104.037 121.128 102.57 122.046 101.114C122.511 100.386 122.954 99.6465 123.39 98.9073C123.827 98.1681 124.247 97.3897 124.611 96.6953L128.57 98.5601Z" fill="#E4897B"/>
<path d="M96.7009 105.073L94.7073 100.951L91.3921 105.162C91.3921 105.162 93.5873 106.993 95.7209 106.926L96.7009 105.073Z" fill="#E4897B"/>
<path d="M92.5288 99.7472L90.6528 103.337L91.392 105.162L94.7072 100.951L92.5288 99.7472Z" fill="#E4897B"/>
<path d="M126.997 91.1231C124.454 91.5711 120.887 98.8679 120.887 98.8679L127.87 105.179C127.87 105.179 132.395 99.1031 132.126 95.7879C131.897 92.9599 130.234 90.5519 126.997 91.1231Z" fill="#EA377D"/>
<path opacity="0.6" d="M126.997 91.1231C124.454 91.5711 120.887 98.8679 120.887 98.8679L127.87 105.179C127.87 105.179 132.395 99.1031 132.126 95.7879C131.897 92.9599 130.234 90.5519 126.997 91.1231Z" fill="#FAFAFA"/>
<path d="M101.45 215.505C101.383 215.505 101.316 215.494 101.254 215.471C100.643 215.27 100.246 214.144 100.061 213.489C100.055 213.47 100.056 213.45 100.062 213.431C100.068 213.412 100.079 213.395 100.094 213.382C100.111 213.373 100.131 213.367 100.15 213.367C100.17 213.367 100.189 213.373 100.206 213.382C100.391 213.478 102.015 214.351 102.066 214.99C102.073 215.06 102.061 215.13 102.03 215.194C102 215.257 101.952 215.311 101.892 215.348C101.766 215.448 101.61 215.503 101.45 215.505ZM100.33 213.668C100.61 214.57 100.974 215.163 101.321 215.281C101.4 215.305 101.484 215.307 101.565 215.289C101.645 215.27 101.719 215.231 101.78 215.174C101.811 215.156 101.835 215.13 101.851 215.098C101.867 215.066 101.874 215.031 101.87 214.995C101.836 214.603 100.884 213.982 100.324 213.668H100.33Z" fill="#EA377D"/>
<path d="M101.702 213.92C101.148 213.918 100.602 213.79 100.106 213.545C100.09 213.537 100.077 213.525 100.068 213.51C100.059 213.495 100.055 213.478 100.055 213.461C100.055 213.442 100.061 213.424 100.071 213.408C100.08 213.392 100.095 213.38 100.111 213.371C100.162 213.371 101.45 212.638 102.144 212.884C102.229 212.912 102.308 212.958 102.372 213.021C102.437 213.083 102.488 213.158 102.519 213.242C102.564 213.323 102.579 213.417 102.562 213.507C102.546 213.598 102.499 213.681 102.43 213.741C102.213 213.878 101.957 213.941 101.702 213.92ZM100.38 213.461C100.94 213.696 101.998 213.842 102.301 213.584C102.351 213.545 102.396 213.472 102.334 213.315C102.312 213.258 102.278 213.207 102.233 213.166C102.188 213.124 102.135 213.093 102.077 213.074C101.601 212.906 100.744 213.282 100.38 213.461Z" fill="#EA377D"/>
<path d="M135.24 228.346C134.674 228.333 134.111 228.261 133.56 228.133C133.539 228.128 133.52 228.117 133.506 228.101C133.492 228.085 133.484 228.065 133.482 228.043C133.479 228.023 133.483 228.002 133.493 227.983C133.503 227.965 133.519 227.951 133.538 227.942C133.79 227.825 135.99 226.822 136.55 227.181C136.6 227.215 136.64 227.263 136.666 227.318C136.691 227.373 136.702 227.434 136.696 227.494C136.689 227.604 136.659 227.711 136.607 227.808C136.554 227.905 136.482 227.989 136.394 228.054C136.047 228.265 135.645 228.367 135.24 228.346ZM133.93 227.998C134.585 228.122 135.794 228.278 136.293 227.903C136.359 227.854 136.413 227.791 136.452 227.718C136.49 227.646 136.513 227.565 136.517 227.483C136.52 227.458 136.517 227.432 136.507 227.409C136.497 227.385 136.481 227.364 136.461 227.349C136.147 227.136 134.842 227.595 133.93 227.998Z" fill="#EA377D"/>
<path d="M133.605 228.133C133.583 228.141 133.559 228.141 133.538 228.133C133.524 228.12 133.513 228.104 133.507 228.087C133.502 228.069 133.5 228.05 133.504 228.032C133.504 227.942 134.03 225.764 135.223 225.904C135.526 225.937 135.604 226.089 135.621 226.206C135.699 226.766 134.305 227.886 133.644 228.149L133.605 228.133ZM135.117 226.077C134.35 226.077 133.907 227.343 133.756 227.853C134.478 227.472 135.47 226.565 135.436 226.212C135.436 226.184 135.436 226.105 135.218 226.083L135.117 226.077Z" fill="#EA377D"/>
<path d="M145.443 75.3311L146.468 75.2247C146.468 75.2247 145.83 75.8967 145.443 75.3311Z" fill="#263238"/>
<path opacity="0.6" d="M103.314 43.4168L86.9009 149.52L179.256 163.789L195.67 57.68L103.314 43.4168ZM141.26 103.768C137.021 103.112 133.072 101.213 129.912 98.3122C126.752 95.4112 124.524 91.6381 123.509 87.4703C122.494 83.3026 122.738 78.9274 124.21 74.8984C125.682 70.8694 128.316 67.3675 131.779 64.8359C135.242 62.3042 139.378 60.8565 143.664 60.676C147.949 60.4954 152.192 61.59 155.856 63.8214C159.519 66.0528 162.439 69.3207 164.245 73.2116C166.05 77.1026 166.662 81.4417 166.001 85.68C165.116 91.358 162.013 96.4524 157.374 99.844C152.735 103.236 146.939 104.647 141.26 103.768Z" fill="#49A0EB"/>
<g style="mix-blend-mode:multiply" opacity="0.3">
<path d="M176.467 159.762H176.327L83.832 145.432V145.292L100.29 39.0656H100.425L192.92 53.396V53.536L176.467 159.762ZM84.1512 145.202L176.232 159.443L192.601 53.6032L100.52 39.3848L84.1512 145.202Z" fill="#EA377D"/>
</g>
<path d="M144.587 104.866C143.43 104.864 142.275 104.774 141.131 104.597C135.386 103.701 130.212 100.614 126.693 95.9849C123.175 91.3558 121.586 85.5438 122.26 79.7686C122.934 73.9933 125.819 68.7035 130.309 65.0092C134.799 61.3149 140.545 59.5032 146.342 59.9542C152.139 60.4052 157.536 63.0838 161.401 67.4281C165.266 71.7723 167.298 77.4446 167.07 83.2546C166.843 89.0647 164.375 94.5609 160.183 98.5902C155.991 102.62 150.401 104.869 144.587 104.866ZM141.389 102.939C145.462 103.568 149.629 102.976 153.365 101.237C157.101 99.4974 160.237 96.6895 162.378 93.1679C164.518 89.6463 165.566 85.5692 165.389 81.452C165.212 77.3349 163.819 73.3626 161.384 70.0374C158.95 66.7123 155.585 64.1835 151.713 62.7709C147.842 61.3583 143.639 61.1252 139.635 62.1012C135.632 63.0772 132.007 65.2184 129.22 68.2541C126.434 71.2898 124.609 75.0837 123.979 79.156C123.14 84.6177 124.502 90.189 127.766 94.6476C131.03 99.1063 135.929 102.088 141.389 102.939Z" fill="#FAFAFA"/>
<path d="M123.42 110.332L103.076 107.187L102.37 111.758L122.713 114.904L123.42 110.332Z" fill="#49A0EB"/>
<path opacity="0.6" d="M123.42 110.332L103.076 107.187L102.37 111.758L122.713 114.904L123.42 110.332Z" fill="#FAFAFA"/>
<path d="M139.864 112.876L126.1 110.748L125.393 115.319L139.157 117.447L139.864 112.876Z" fill="#49A0EB"/>
<path opacity="0.6" d="M139.864 112.876L126.1 110.748L125.393 115.319L139.157 117.447L139.864 112.876Z" fill="#FAFAFA"/>
<path d="M175.207 127.825L101.641 116.45L100.934 121.021L174.5 132.397L175.207 127.825Z" fill="#FAFAFA"/>
<path d="M137.319 131.667L100.674 126.114L99.9797 130.693L136.626 136.246L137.319 131.667Z" fill="#FAFAFA"/>
<path d="M167.454 136.579L142.981 132.794L142.274 137.366L166.747 141.15L167.454 136.579Z" fill="#FAFAFA"/>
<path d="M157.45 144.987L98.6375 135.893L97.9306 140.464L156.743 149.558L157.45 144.987Z" fill="#FAFAFA"/>
<path d="M196.655 163.789H196.095C196.097 162.399 195.926 161.014 195.586 159.667L196.146 159.533C196.492 160.925 196.663 162.354 196.655 163.789ZM194.46 156.553C193.228 153.975 191.365 151.748 189.045 150.08L189.37 149.626C191.766 151.347 193.692 153.642 194.97 156.301L194.46 156.553Z" fill="#EA377D"/>
<path opacity="0.6" d="M196.655 163.789H196.095C196.097 162.399 195.926 161.014 195.586 159.667L196.146 159.533C196.492 160.925 196.663 162.354 196.655 163.789ZM194.46 156.553C193.228 153.975 191.365 151.748 189.045 150.08L189.37 149.626C191.766 151.347 193.692 153.642 194.97 156.301L194.46 156.553Z" fill="#FAFAFA"/>
<path d="M179.256 148.349C176.203 148.349 173.217 149.255 170.679 150.951C168.14 152.648 166.161 155.059 164.992 157.88C163.824 160.701 163.518 163.806 164.114 166.801C164.709 169.796 166.18 172.547 168.339 174.706C170.498 176.865 173.249 178.335 176.244 178.931C179.239 179.527 182.343 179.221 185.164 178.053C187.986 176.884 190.397 174.905 192.093 172.366C193.79 169.827 194.695 166.842 194.695 163.789C194.695 159.694 193.069 155.767 190.173 152.872C187.278 149.976 183.351 148.349 179.256 148.349ZM179.256 177.229C176.598 177.229 173.999 176.44 171.789 174.964C169.579 173.487 167.856 171.388 166.839 168.932C165.822 166.476 165.556 163.774 166.074 161.167C166.593 158.56 167.873 156.165 169.753 154.285C171.632 152.406 174.027 151.126 176.634 150.607C179.241 150.088 181.944 150.354 184.399 151.372C186.855 152.389 188.954 154.112 190.431 156.322C191.908 158.532 192.696 161.131 192.696 163.789C192.696 167.353 191.28 170.772 188.76 173.292C186.239 175.813 182.821 177.229 179.256 177.229Z" fill="#50FF9B"/>
<path opacity="0.6" d="M179.256 148.349C176.203 148.349 173.217 149.255 170.679 150.951C168.14 152.648 166.161 155.059 164.992 157.88C163.824 160.701 163.518 163.806 164.114 166.801C164.709 169.796 166.18 172.547 168.339 174.706C170.498 176.865 173.249 178.335 176.244 178.931C179.239 179.527 182.343 179.221 185.164 178.053C187.986 176.884 190.397 174.905 192.093 172.366C193.79 169.827 194.695 166.842 194.695 163.789C194.695 159.694 193.069 155.767 190.173 152.872C187.278 149.976 183.351 148.349 179.256 148.349ZM179.256 177.229C176.598 177.229 173.999 176.44 171.789 174.964C169.579 173.487 167.856 171.388 166.839 168.932C165.822 166.476 165.556 163.774 166.074 161.167C166.593 158.56 167.873 156.165 169.753 154.285C171.632 152.406 174.027 151.126 176.634 150.607C179.241 150.088 181.944 150.354 184.399 151.372C186.855 152.389 188.954 154.112 190.431 156.322C191.908 158.532 192.696 161.131 192.696 163.789C192.696 167.353 191.28 170.772 188.76 173.292C186.239 175.813 182.821 177.229 179.256 177.229Z" fill="#FAFAFA"/>
<path d="M179.256 177.223C186.676 177.223 192.69 171.208 192.69 163.789C192.69 156.369 186.676 150.354 179.256 150.354C171.836 150.354 165.822 156.369 165.822 163.789C165.822 171.208 171.836 177.223 179.256 177.223Z" fill="#25FF81"/>
<path opacity="0.2" d="M179.256 177.223C186.676 177.223 192.69 171.208 192.69 163.789C192.69 156.369 186.676 150.354 179.256 150.354C171.836 150.354 165.822 156.369 165.822 163.789C165.822 171.208 171.836 177.223 179.256 177.223Z" fill="black"/>
<path d="M177.167 172.29L169.282 164.405L171.265 162.428L177.167 168.33L187.253 158.245L189.23 160.227L177.167 172.29Z" fill="#FAFAFA"/>
</svg>
