<svg width="59" height="59" viewBox="0 0 59 59" fill="none" xmlns="http://www.w3.org/2000/svg">
<g clip-path="url(#clip0)">
<path d="M54.7156 8.15842H51.7192C51.2464 8.15842 50.8634 8.54146 50.8634 9.01419C50.8634 9.48692 51.2464 9.86997 51.7192 9.86997H54.7156C56.1312 9.86997 57.283 11.0217 57.283 12.4373V16.3739H2.28504V12.4373C2.28504 11.0217 3.43669 9.86997 4.85237 9.86997H47.9617C48.4345 9.86997 48.8175 9.48692 48.8175 9.01419C48.8175 8.54146 48.4345 8.15842 47.9617 8.15842H4.85237C2.49294 8.15842 0.573486 10.0779 0.573486 12.4373V21.8715C0.573486 22.3442 0.956646 22.7273 1.42926 22.7273C1.90188 22.7273 2.28504 22.3442 2.28504 21.8715V18.0854H57.283V40.1492C57.283 40.6219 57.666 41.005 58.1388 41.005C58.6115 41.005 58.9945 40.6219 58.9945 40.1492V12.4373C58.9945 10.0779 57.0751 8.15842 54.7156 8.15842Z" fill="#49A0EB"/>
<path d="M58.1388 42.9023C57.666 42.9023 57.283 43.2853 57.283 43.7581V45.9838C57.283 47.3993 56.1312 48.5511 54.7156 48.5511H4.85237C3.43669 48.5511 2.28504 47.3993 2.28504 45.9838V25.544C2.28504 25.0713 1.90188 24.6883 1.42926 24.6883C0.956646 24.6883 0.573486 25.0713 0.573486 25.544V45.9838C0.573486 48.3432 2.49294 50.2626 4.85237 50.2626H54.7156C57.0751 50.2626 58.9945 48.3432 58.9945 45.9838V43.7581C58.9945 43.2854 58.6115 42.9023 58.1388 42.9023Z" fill="#49A0EB"/>
<path d="M12.9518 26.7524C12.6176 26.4183 12.0757 26.4183 11.7416 26.7524L6.59895 31.895C6.43841 32.0556 6.34827 32.2732 6.34827 32.5003C6.34827 32.7273 6.43841 32.9448 6.59895 33.1055L11.6736 38.1801C11.8406 38.3471 12.0597 38.4307 12.2787 38.4307C12.4977 38.4307 12.7167 38.3471 12.8838 38.1801C13.218 37.8458 13.218 37.304 12.8838 36.9698L8.41423 32.5004L12.9518 27.9628C13.2861 27.6285 13.2861 27.0867 12.9518 26.7524Z" fill="#49A0EB"/>
<path d="M24.4604 38.18C24.6274 38.347 24.8465 38.4305 25.0655 38.4305C25.2844 38.4305 25.5035 38.347 25.6706 38.18L30.7453 33.1053C30.9057 32.9448 30.9959 32.7272 30.9959 32.5001C30.9959 32.2731 30.9057 32.0556 30.7453 31.8949L25.6026 26.7523C25.2684 26.4182 24.7265 26.4182 24.3924 26.7523C24.0582 27.0866 24.0582 27.6284 24.3924 27.9626L28.93 32.5001L24.4605 36.9696C24.1262 37.304 24.1262 37.8458 24.4604 38.18Z" fill="#49A0EB"/>
<path d="M15.6341 41.3322C15.9793 41.3322 16.3046 41.1218 16.4343 40.7798L22.5154 24.7599C22.6831 24.318 22.4608 23.8238 22.019 23.6561C21.5772 23.4882 21.0829 23.7106 20.9153 24.1524L14.8343 40.1726C14.6665 40.6144 14.8888 41.1086 15.3306 41.2763C15.4306 41.3143 15.5331 41.3322 15.6341 41.3322Z" fill="#49A0EB"/>
<path d="M4.33972 13.1643C4.33972 14.5798 5.49137 15.7316 6.90705 15.7316C8.32273 15.7316 9.47438 14.5798 9.47438 13.1643C9.47438 11.7487 8.32273 10.5969 6.90705 10.5969C5.49137 10.5969 4.33972 11.7487 4.33972 13.1643ZM7.76283 13.1643C7.76283 13.6362 7.37898 14.02 6.90705 14.02C6.43512 14.02 6.05127 13.6362 6.05127 13.1643C6.05127 12.6923 6.43512 12.3085 6.90705 12.3085C7.37898 12.3085 7.76283 12.6923 7.76283 13.1643Z" fill="#49A0EB"/>
<path d="M10.9758 13.1643C10.9758 14.5798 12.1275 15.7316 13.5432 15.7316C14.9588 15.7316 16.1105 14.5798 16.1105 13.1643C16.1105 11.7487 14.9588 10.5969 13.5432 10.5969C12.1275 10.5969 10.9758 11.7487 10.9758 13.1643ZM14.3989 13.1643C14.3989 13.6362 14.0151 14.02 13.5432 14.02C13.0712 14.02 12.6874 13.6362 12.6874 13.1643C12.6874 12.6923 13.0712 12.3085 13.5432 12.3085C14.0151 12.3085 14.3989 12.6923 14.3989 13.1643Z" fill="#49A0EB"/>
<path d="M17.6118 13.1643C17.6118 14.5798 18.7635 15.7316 20.1791 15.7316C21.5948 15.7316 22.7465 14.5798 22.7465 13.1643C22.7465 11.7487 21.5948 10.5969 20.1791 10.5969C18.7635 10.5969 17.6118 11.7487 17.6118 13.1643ZM21.0349 13.1643C21.0349 13.6362 20.6511 14.02 20.1791 14.02C19.7072 14.02 19.3234 13.6362 19.3234 13.1643C19.3234 12.6923 19.7072 12.3085 20.1791 12.3085C20.6511 12.3085 21.0349 12.6923 21.0349 13.1643Z" fill="#49A0EB"/>
<path d="M38.8553 27.6551H44.2182C45.6337 27.6551 46.7855 26.5033 46.7855 25.0877C46.7855 23.6722 45.6337 22.5204 44.2182 22.5204H38.8553C37.4397 22.5204 36.288 23.6722 36.288 25.0877C36.288 26.5033 37.4397 27.6551 38.8553 27.6551ZM38.8553 24.232H44.2182C44.6901 24.232 45.0739 24.6158 45.0739 25.0877C45.0739 25.5597 44.6901 25.9435 44.2182 25.9435H38.8553C38.3834 25.9435 37.9995 25.5597 37.9995 25.0877C37.9995 24.6158 38.3834 24.232 38.8553 24.232Z" fill="#49A0EB"/>
<path d="M38.8553 34.5013H53.0041C54.4197 34.5013 55.5715 33.3495 55.5715 31.934C55.5715 30.5184 54.4197 29.3666 53.0041 29.3666H38.8553C37.4397 29.3666 36.288 30.5184 36.288 31.934C36.288 33.3495 37.4397 34.5013 38.8553 34.5013ZM38.8553 31.0782H53.0041C53.4761 31.0782 53.8599 31.462 53.8599 31.934C53.8599 32.4059 53.4761 32.7898 53.0041 32.7898H38.8553C38.3834 32.7898 37.9995 32.4059 37.9995 31.934C37.9995 31.462 38.3834 31.0782 38.8553 31.0782Z" fill="#49A0EB"/>
<path d="M38.8553 41.3475H48.8011C50.2167 41.3475 51.3685 40.1957 51.3685 38.7802C51.3685 37.3646 50.2167 36.2128 48.8011 36.2128H38.8553C37.4397 36.2128 36.288 37.3646 36.288 38.7802C36.288 40.1957 37.4397 41.3475 38.8553 41.3475ZM38.8553 37.9244H48.8011C49.2731 37.9244 49.6569 38.3082 49.6569 38.7802C49.6569 39.2521 49.2731 39.6359 48.8011 39.6359H38.8553C38.3834 39.6359 37.9995 39.2521 37.9995 38.7802C37.9995 38.3082 38.3834 37.9244 38.8553 37.9244Z" fill="#49A0EB"/>
</g>
<defs>
<clipPath id="clip0">
<rect width="58.421" height="58.421" fill="white" transform="translate(0.573486)"/>
</clipPath>
</defs>
</svg>
