<svg width="24" height="24" viewBox="0 0 24 24" fill="none" xmlns="http://www.w3.org/2000/svg">
<path d="M21.75 0H2.25C1.0125 0 0 1.0125 0 2.25V21.75C0 22.9875 1.0125 24 2.25 24H21.75C22.9875 24 24 22.9875 24 21.75V2.25C24 1.0125 22.9875 0 21.75 0ZM9 19.5H6V9H9V19.5ZM7.5 7.5C7.10218 7.5 6.72064 7.34196 6.43934 7.06066C6.15804 6.77936 6 6.39782 6 6C6 5.60218 6.15804 5.22064 6.43934 4.93934C6.72064 4.65804 7.10218 4.5 7.5 4.5C7.89782 4.5 8.27936 4.65804 8.56066 4.93934C8.84196 5.22064 9 5.60218 9 6C9 6.39782 8.84196 6.77936 8.56066 7.06066C8.27936 7.34196 7.89782 7.5 7.5 7.5ZM19.5 19.5H16.5V13.5C16.5 13.1022 16.342 12.7206 16.0607 12.4393C15.7794 12.158 15.3978 12 15 12C14.6022 12 14.2206 12.158 13.9393 12.4393C13.658 12.7206 13.5 13.1022 13.5 13.5V19.5H10.5V9H13.5V10.8615C14.118 10.0125 15.066 9 16.125 9C17.991 9 19.5 10.6785 19.5 12.75V19.5Z" fill="#FCFCFC"/>
</svg>
