<svg width="42" height="39" viewBox="0 0 42 39" fill="none" xmlns="http://www.w3.org/2000/svg">
<path d="M7.78342 37.6645C7.48429 37.9246 7.11717 38.094 6.72515 38.1527C6.33314 38.2115 5.9325 38.1572 5.57027 37.9962C5.20804 37.8352 4.89925 37.5742 4.68017 37.2438C4.46108 36.9135 4.34079 36.5275 4.33342 36.1312V31.4583C3.22835 31.4583 2.16854 31.0193 1.38714 30.2379C0.605735 29.4565 0.166748 28.3967 0.166748 27.2916V12.7083C0.166748 11.6032 0.605735 10.5434 1.38714 9.76197C2.16854 8.98057 3.22835 8.54158 4.33342 8.54158H27.2501C28.3552 8.54158 29.415 8.98057 30.1964 9.76197C30.9778 10.5434 31.4167 11.6032 31.4167 12.7083V27.2916C31.4167 28.3967 30.9778 29.4565 30.1964 30.2379C29.415 31.0193 28.3552 31.4583 27.2501 31.4583H16.8397L7.78342 37.6645ZM9.54175 31.2208C9.73159 31.2197 9.91802 31.1702 10.0834 31.077L14.9897 27.6645C15.3388 27.4217 15.754 27.2916 16.1792 27.2916H25.1667C25.7193 27.2916 26.2492 27.0721 26.6399 26.6814C27.0306 26.2907 27.2501 25.7608 27.2501 25.2083V14.7916C27.2501 14.239 27.0306 13.7091 26.6399 13.3184C26.2492 12.9277 25.7193 12.7083 25.1667 12.7083H6.41675C5.86421 12.7083 5.33431 12.9277 4.94361 13.3184C4.55291 13.7091 4.33342 14.239 4.33342 14.7916V25.2083C4.33342 26.3333 5.22717 27.2541 6.41675 27.2916C7.27092 27.3249 7.88967 27.4645 8.17508 27.7624C8.44175 28.0416 8.45633 28.5124 8.50008 29.4083C8.50633 29.5395 8.50633 29.777 8.50008 30.1791C8.50008 30.4554 8.60983 30.7203 8.80518 30.9157C9.00053 31.111 9.26548 31.2208 9.54175 31.2208ZM33.5001 21.0749C33.4934 21.3318 33.4934 21.5889 33.5001 21.8458V21.0749C33.5418 20.1791 33.5584 19.7083 33.8251 19.4291C34.1105 19.1312 34.7293 18.9916 35.5834 18.9583C36.773 18.9208 37.6668 17.9999 37.6668 16.8749V6.45825C37.6668 5.90572 37.4473 5.37581 37.0566 4.98511C36.6659 4.59441 36.136 4.37492 35.5834 4.37492H16.8334C16.2809 4.37492 15.751 4.59441 15.3603 4.98511C14.9696 5.37581 14.7501 5.90572 14.7501 6.45825H10.5834V4.37492C10.5834 3.26985 11.0224 2.21004 11.8038 1.42864C12.5852 0.647239 13.645 0.208252 14.7501 0.208252H37.6668C38.7718 0.208252 39.8316 0.647239 40.613 1.42864C41.3944 2.21004 41.8334 3.26985 41.8334 4.37492V18.9583C41.8334 20.0633 41.3944 21.1231 40.613 21.9045C39.8316 22.6859 38.7718 23.1249 37.6668 23.1249V27.7978C37.6594 28.1942 37.5391 28.5802 37.32 28.9105C37.1009 29.2409 36.7921 29.5018 36.4299 29.6628C36.0677 29.8238 35.667 29.8781 35.275 29.8194C34.883 29.7606 34.5159 29.5913 34.2168 29.3312L33.5001 28.8395V21.077V21.0749Z" fill="#49A0EB"/>
</svg>
