<svg width="50" height="50" viewBox="0 0 50 50" fill="none" xmlns="http://www.w3.org/2000/svg">
<g clip-path="url(#clip0)">
<path d="M47.9167 4.16675H2.08333C1.5308 4.16675 1.0009 4.38624 0.610194 4.77694C0.219493 5.16764 0 5.69755 0 6.25008L0 43.7501C0 44.3026 0.219493 44.8325 0.610194 45.2232C1.0009 45.6139 1.5308 45.8334 2.08333 45.8334H47.9167C48.4692 45.8334 48.9991 45.6139 49.3898 45.2232C49.7805 44.8325 50 44.3026 50 43.7501V6.25008C50 5.69755 49.7805 5.16764 49.3898 4.77694C48.9991 4.38624 48.4692 4.16675 47.9167 4.16675ZM45.8333 41.6668H41.6667V39.5834H31.25V41.6668H4.16667V8.33342H45.8333V41.6668ZM21.4375 20.2292C21.4375 19.2844 21.8128 18.3783 22.4809 17.7102C23.149 17.0421 24.0552 16.6667 25 16.6667C26.9792 16.6667 28.5625 18.2709 28.5625 20.2292C28.5625 22.2084 26.9792 23.8126 25 23.8126C23.0208 23.8126 21.4375 22.2084 21.4375 20.2292ZM11.8958 23.5209C11.8958 22.0417 13.1042 20.8334 14.5833 20.8334C15.2961 20.8334 15.9797 21.1166 16.4837 21.6206C16.9877 22.1246 17.2708 22.8081 17.2708 23.5209C17.2708 25.0001 16.0625 26.1876 14.5833 26.1876C13.1042 26.1876 11.8958 25.0001 11.8958 23.5209ZM32.7292 23.5209C32.7292 22.8081 33.0123 22.1246 33.5163 21.6206C34.0203 21.1166 34.7039 20.8334 35.4167 20.8334C36.1294 20.8334 36.813 21.1166 37.317 21.6206C37.821 22.1246 38.1042 22.8081 38.1042 23.5209C38.1042 25.0001 36.8958 26.1876 35.4167 26.1876C33.9375 26.1876 32.7292 25.0001 32.7292 23.5209ZM41.6667 31.5417V33.3334H8.33333V31.5417C8.33333 29.5834 11.5625 27.9792 14.5833 27.9792C15.7292 27.9792 16.8958 28.2084 17.9167 28.6042C19.4792 27.1667 22.2917 26.1876 25 26.1876C27.7083 26.1876 30.5208 27.1667 32.0833 28.6042C33.1042 28.2084 34.2708 27.9792 35.4167 27.9792C38.4375 27.9792 41.6667 29.5834 41.6667 31.5417Z" fill="#49A0EB"/>
</g>
<defs>
<clipPath id="clip0">
<rect width="50" height="50" fill="white"/>
</clipPath>
</defs>
</svg>
