<svg width="41" height="38" viewBox="0 0 41 38" fill="none" xmlns="http://www.w3.org/2000/svg">
<path d="M20.55 19C21.1094 19 21.6437 19.0969 22.1437 19.2781C21.5063 19.5083 20.9263 19.874 20.4438 20.35L18.6438 22.125H4.9375C4.5231 22.125 4.12567 22.2896 3.83265 22.5826C3.53962 22.8757 3.375 23.2731 3.375 23.6875V26.1094C3.375 29.6875 6.275 31.5 12.9375 31.5H12.975C13.2063 32.1469 13.5813 32.7563 14.1031 33.2719L15.3813 34.5313C14.6094 34.5938 13.7937 34.625 12.9375 34.625C4.76875 34.625 0.25 31.8031 0.25 26.1094V23.6875C0.25 22.4443 0.74386 21.252 1.62294 20.3729C2.50201 19.4939 3.6943 19 4.9375 19H20.55Z" fill="#49A0EB"/>
<path d="M12.75 0.25C14.822 0.25 16.8091 1.0731 18.2743 2.53823C19.7394 4.00336 20.5625 5.9905 20.5625 8.0625C20.5625 10.1345 19.7394 12.1216 18.2743 13.5868C16.8091 15.0519 14.822 15.875 12.75 15.875C10.678 15.875 8.69086 15.0519 7.22573 13.5868C5.7606 12.1216 4.9375 10.1345 4.9375 8.0625C4.9375 5.9905 5.7606 4.00336 7.22573 2.53823C8.69086 1.0731 10.678 0.25 12.75 0.25ZM12.75 3.375C11.5068 3.375 10.3145 3.86886 9.43544 4.74794C8.55636 5.62701 8.0625 6.8193 8.0625 8.0625C8.0625 9.3057 8.55636 10.498 9.43544 11.3771C10.3145 12.2561 11.5068 12.75 12.75 12.75C13.9932 12.75 15.1855 12.2561 16.0646 11.3771C16.9436 10.498 17.4375 9.3057 17.4375 8.0625C17.4375 6.8193 16.9436 5.62701 16.0646 4.74794C15.1855 3.86886 13.9932 3.375 12.75 3.375Z" fill="#49A0EB"/>
<path d="M28.375 3.375C30.0326 3.375 31.6223 4.03348 32.7944 5.20558C33.9665 6.37768 34.625 7.9674 34.625 9.625C34.625 11.2826 33.9665 12.8723 32.7944 14.0444C31.6223 15.2165 30.0326 15.875 28.375 15.875C26.7174 15.875 25.1277 15.2165 23.9556 14.0444C22.7835 12.8723 22.125 11.2826 22.125 9.625C22.125 7.9674 22.7835 6.37768 23.9556 5.20558C25.1277 4.03348 26.7174 3.375 28.375 3.375ZM28.375 6.5C27.5462 6.5 26.7513 6.82924 26.1653 7.41529C25.5792 8.00134 25.25 8.7962 25.25 9.625C25.25 10.4538 25.5792 11.2487 26.1653 11.8347C26.7513 12.4208 27.5462 12.75 28.375 12.75C29.2038 12.75 29.9987 12.4208 30.5847 11.8347C31.1708 11.2487 31.5 10.4538 31.5 9.625C31.5 8.7962 31.1708 8.00134 30.5847 7.41529C29.9987 6.82924 29.2038 6.5 28.375 6.5Z" fill="#49A0EB"/>
<path d="M15.875 29.9473C15.875 30.1529 15.9156 30.3564 15.9945 30.5462C16.0733 30.736 16.1888 30.9084 16.3344 31.0536L22.5937 37.2942C22.8888 37.5784 23.2838 37.7354 23.6935 37.7312C24.1031 37.7271 24.4948 37.5622 24.7841 37.2721C25.0734 36.982 25.2372 36.5898 25.2402 36.1801C25.2431 35.7704 25.0851 35.376 24.8 35.0817L21.2188 31.5067H35.5437L31.9625 35.0817C31.8131 35.2256 31.6938 35.3979 31.6117 35.5884C31.5295 35.7789 31.4861 35.9838 31.484 36.1913C31.482 36.3988 31.5212 36.6046 31.5995 36.7967C31.6778 36.9888 31.7936 37.1634 31.94 37.3103C32.0865 37.4572 32.2608 37.5735 32.4527 37.6523C32.6446 37.7312 32.8503 37.771 33.0578 37.7695C33.2652 37.768 33.4703 37.7252 33.6611 37.6436C33.8518 37.562 34.0244 37.4432 34.1688 37.2942L40.4188 31.0567C40.5643 30.9115 40.6797 30.7391 40.7585 30.5493C40.8372 30.3595 40.8778 30.156 40.8778 29.9504C40.8778 29.7449 40.8372 29.5414 40.7585 29.3516C40.6797 29.1617 40.5643 28.9893 40.4188 28.8442L34.1688 22.5973C33.8741 22.3127 33.4794 22.1552 33.0697 22.1588C32.66 22.1623 32.2681 22.3266 31.9784 22.6163C31.6887 22.906 31.5244 23.2979 31.5208 23.7076C31.5173 24.1173 31.6748 24.512 31.9594 24.8067L35.5375 28.3817H21.2188L24.8 24.8129C25.0851 24.5186 25.2431 24.1242 25.2402 23.7145C25.2372 23.3048 25.0734 22.9126 24.7841 22.6225C24.4948 22.3324 24.1031 22.1675 23.6935 22.1634C23.2838 22.1592 22.8888 22.3162 22.5937 22.6004L16.3344 28.8442C16.1888 28.9893 16.0733 29.1617 15.9945 29.3515C15.9156 29.5414 15.875 29.7449 15.875 29.9504V29.9473Z" fill="#49A0EB"/>
</svg>
