<svg width="29" height="29" viewBox="0 0 29 29" fill="none" xmlns="http://www.w3.org/2000/svg">
<path d="M19.9688 0.31543L19.2512 1.10184C17.6445 2.87043 16.32 3.66121 15.2175 4.17855C14.115 4.6948 13.1886 4.84902 12.2786 5.54574C11.3084 6.28949 9.89859 7.71574 9.30469 10.262C8.03156 10.5398 7.09969 11.0276 6.36469 11.6631C5.63844 12.2909 5.09156 13.0051 4.41781 13.7828C4.41234 13.7915 4.42109 13.8079 4.41781 13.8167C3.45094 14.9279 2.60547 16.1245 0.964844 16.7567L0.28125 17.0301V28.719H21.1314C22.3269 28.6545 23.1559 27.8265 23.6602 27.0095C24.1633 26.1936 24.4422 25.3098 24.5833 24.5836C24.9464 22.7329 25.6081 17.4053 25.6081 17.4053L25.6431 17.3036V17.2007C25.6081 16.4614 25.3041 15.8336 24.9245 15.2517L26.155 11.5953L28.1041 8.65527L28.6509 7.86887L27.9323 7.22027L20.7552 0.999023L19.9688 0.31543ZM20.0377 3.32324L25.7448 8.28012L24.2409 10.5004L24.1392 10.6043L24.1042 10.775L23.1133 13.7139C22.5959 13.5006 22.0633 13.3507 21.4727 13.3726H21.4037L14.5 13.4065H13.4062V17.6448C13.2531 18.837 12.5903 19.2986 11.7656 19.6278C11.4922 19.7382 11.4583 19.6781 11.2188 19.7295V13.3737C11.0394 9.31918 12.4831 8.15215 13.6119 7.28918C13.9236 7.04965 14.8369 6.77293 16.1406 6.16152C17.23 5.64855 18.5841 4.7298 20.0377 3.32434V3.32324ZM9.10016 12.7229C9.09578 12.9712 9.01812 13.1462 9.03125 13.4065V22.1565H10.125C10.125 22.1565 11.2953 22.1434 12.552 21.6436C13.8077 21.1437 15.3247 19.9734 15.5938 17.9182V15.594L21.4727 15.5601H21.5066C21.9867 15.5338 22.4577 15.6988 22.8164 16.019C23.1752 16.3392 23.3924 16.7885 23.4206 17.2686C23.4163 17.2861 23.3659 17.6918 23.3528 17.7815H18.875V19.969H23.0794C22.9634 20.8145 22.8573 21.345 22.737 22.1565H18.875V24.344H22.3958C22.2665 24.8732 22.059 25.3801 21.78 25.8479C21.4814 26.3346 21.2244 26.5184 20.9947 26.5315H2.46875V18.3623C4.24172 17.4217 5.34422 16.0687 6.05734 15.2528C6.79672 14.4062 7.30422 13.7653 7.80078 13.3387C8.12563 13.0609 8.63422 12.9023 9.10016 12.7229Z" fill="#49A0EB"/>
</svg>
