<svg width="42" height="42" viewBox="0 0 42 42" fill="none" xmlns="http://www.w3.org/2000/svg">
<path d="M20.9959 0.162598C23.5043 0.162598 25.9084 0.606347 28.1355 1.41676L25.6459 3.90426C21.8783 2.87976 17.8777 3.12889 14.2662 4.6129C10.6547 6.09692 7.6348 8.73265 5.67602 12.1103C3.71724 15.4879 2.92939 19.418 3.43496 23.2896C3.94053 27.1613 5.71119 30.7573 8.47162 33.5187C11.232 36.28 14.8275 38.0519 18.699 38.5588C22.5704 39.0656 26.5008 38.2791 29.8791 36.3214C33.2574 34.3638 35.8941 31.3448 37.3793 27.7338C38.8646 24.1228 39.115 20.1223 38.0918 16.3543L40.5793 13.8668C41.4113 16.1529 41.8358 18.5673 41.8334 21.0001C41.8334 32.5084 32.5043 41.8376 20.9959 41.8376C9.48761 41.8376 0.158447 32.5084 0.158447 21.0001C0.158447 9.49176 9.48761 0.162598 20.9959 0.162598ZM20.9959 8.5001C22.0515 8.49961 23.1029 8.63261 24.1251 8.89593V12.1605C22.1204 11.4513 19.9342 11.4446 17.9252 12.1417C15.9162 12.8387 14.2039 14.198 13.0693 15.9965C11.9347 17.795 11.4452 19.9257 11.6812 22.0391C11.9172 24.1524 12.8646 26.1227 14.3679 27.6266C15.8713 29.1305 17.8413 30.0787 19.9545 30.3154C22.0678 30.5522 24.1987 30.0635 25.9976 28.9295C27.7965 27.7956 29.1564 26.0837 29.8542 24.075C30.552 22.0663 30.5461 19.8801 29.8376 17.8751H33.1022C33.7539 20.3993 33.6002 23.0641 32.6624 25.4965C31.7246 27.929 30.0498 30.0074 27.8723 31.4409C25.6948 32.8743 23.1236 33.5911 20.5186 33.4909C17.9135 33.3906 15.405 32.4784 13.3441 30.8819C11.2831 29.2854 9.77296 27.0845 9.02485 24.5871C8.27675 22.0898 8.32817 19.4211 9.17193 16.9544C10.0157 14.4878 11.6095 12.3467 13.7304 10.8307C15.8513 9.31478 18.3931 8.49989 21.0001 8.5001H20.9959ZM25.1626 21.0001C25.1623 21.8956 24.8735 22.7673 24.339 23.4858C23.8044 24.2043 23.0526 24.7315 22.195 24.9892C21.3373 25.2469 20.4194 25.2214 19.5774 24.9165C18.7353 24.6116 18.0139 24.0435 17.5201 23.2965C17.0262 22.5494 16.7862 21.6631 16.8356 20.7689C16.885 19.8748 17.2212 19.0203 17.7943 18.3322C18.3675 17.644 19.147 17.1589 20.0175 16.9486C20.888 16.7383 21.8031 16.8141 22.6272 17.1647L26.2105 13.5813L26.2084 6.9376C26.2088 6.52334 26.3737 6.12617 26.6668 5.83343L31.8751 0.625098C32.0936 0.406855 32.3719 0.258262 32.6748 0.198087C32.9777 0.137911 33.2917 0.168851 33.577 0.287C33.8624 0.405148 34.1063 0.605206 34.278 0.861905C34.4497 1.1186 34.5415 1.42043 34.5418 1.72926V7.45843H40.2709C40.5798 7.4587 40.8816 7.55049 41.1383 7.7222C41.395 7.89391 41.5951 8.13783 41.7132 8.42317C41.8314 8.70851 41.8623 9.02247 41.8021 9.32538C41.7419 9.62829 41.5934 9.90658 41.3751 10.1251L36.1668 15.3334C35.874 15.6265 35.4769 15.7914 35.0626 15.7918H28.4168L24.8334 19.3751C25.0459 19.8751 25.1626 20.423 25.1626 21.0001ZM34.4147 12.6668L36.498 10.5834H32.9772C32.5628 10.5834 32.1654 10.4188 31.8723 10.1258C31.5793 9.83276 31.4147 9.43533 31.4147 9.02093V5.5001L29.3334 7.58343V12.5438C29.3775 12.5823 29.4193 12.6233 29.4584 12.6668H34.4168H34.4147Z" fill="#49A0EB"/>
</svg>
