<svg width="25" height="31" viewBox="0 0 25 31" fill="none" xmlns="http://www.w3.org/2000/svg">
<path d="M20.8768 0.910645C21.7082 0.910542 22.5087 1.22608 23.1164 1.79347C23.7242 2.36087 24.0938 3.13783 24.1508 3.96731L24.158 4.19189V26.7931C24.1586 27.6244 23.8436 28.4248 23.2768 29.0328C22.71 29.6407 21.9335 30.0109 21.1043 30.0686L20.8783 30.0759H4.10742C3.27575 30.0759 2.47508 29.7602 1.86731 29.1925C1.25954 28.6248 0.890017 27.8475 0.833464 27.0177L0.826172 26.7931V4.19189C0.826044 3.36069 1.14137 2.56042 1.70847 1.95272C2.27556 1.34503 3.05216 0.975196 3.88138 0.917936L4.10596 0.910645H20.8768ZM20.8768 3.09814H4.10596C3.84166 3.09816 3.5863 3.19387 3.38711 3.3676C3.18792 3.54132 3.05837 3.7813 3.02242 4.04314L3.01367 4.19189V26.7931C3.01367 27.3473 3.42492 27.8052 3.95867 27.8767L4.10742 27.8869H20.8783C21.1426 27.8869 21.3979 27.7912 21.5971 27.6174C21.7963 27.4437 21.9259 27.2037 21.9618 26.9419L21.9705 26.7931V4.19189C21.9705 3.92759 21.8748 3.67223 21.7011 3.47304C21.5274 3.27385 21.2874 3.1443 21.0255 3.10835L20.8768 3.09814Z" fill="#49A0EB"/>
<path d="M11.0694 27.0237C10.9275 27.0013 10.7913 26.9512 10.6688 26.8762C10.5462 26.8012 10.4397 26.7028 10.3551 26.5866C10.2706 26.4704 10.2099 26.3387 10.1763 26.199C10.1427 26.0593 10.1369 25.9143 10.1594 25.7724L10.3125 24.8085H8.15271L7.94562 26.1137C7.90037 26.4003 7.74312 26.6572 7.50847 26.8278C7.27381 26.9985 6.98097 27.0689 6.69437 27.0237C6.40778 26.9784 6.15089 26.8212 5.98023 26.5865C5.80957 26.3519 5.73912 26.059 5.78437 25.7724L5.9375 24.8085H4.84375C4.55367 24.8085 4.27547 24.6932 4.07035 24.4881C3.86523 24.283 3.75 24.0048 3.75 23.7147C3.75 23.4246 3.86523 23.1464 4.07035 22.9413C4.27547 22.7362 4.55367 22.621 4.84375 22.621H6.28312L6.63021 20.4335H5.57292C5.28284 20.4335 5.00464 20.3182 4.79952 20.1131C4.5944 19.908 4.47917 19.6298 4.47917 19.3397C4.47917 19.0496 4.5944 18.7714 4.79952 18.5663C5.00464 18.3612 5.28284 18.246 5.57292 18.246H6.97583L7.2675 16.4085C7.28675 16.2638 7.33476 16.1244 7.40869 15.9986C7.48263 15.8728 7.581 15.763 7.69801 15.6758C7.81502 15.5886 7.9483 15.5257 8.09 15.4908C8.23171 15.4558 8.37896 15.4496 8.5231 15.4725C8.66724 15.4954 8.80534 15.5469 8.92927 15.6239C9.05321 15.701 9.16046 15.8021 9.24472 15.9212C9.32899 16.0404 9.38855 16.1752 9.4199 16.3177C9.45126 16.4603 9.45377 16.6076 9.42729 16.7512L9.19104 18.246H11.3508L11.6425 16.4085C11.6617 16.2638 11.7098 16.1244 11.7837 15.9986C11.8576 15.8728 11.956 15.763 12.073 15.6758C12.19 15.5886 12.3233 15.5257 12.465 15.4908C12.6067 15.4558 12.754 15.4496 12.8981 15.4725C13.0422 15.4954 13.1803 15.5469 13.3043 15.6239C13.4282 15.701 13.5355 15.8021 13.6197 15.9212C13.704 16.0404 13.7635 16.1752 13.7949 16.3177C13.8263 16.4603 13.8288 16.6076 13.8023 16.7512L13.566 18.246H14.3229C14.613 18.246 14.8912 18.3612 15.0963 18.5663C15.3014 18.7714 15.4167 19.0496 15.4167 19.3397C15.4167 19.6298 15.3014 19.908 15.0963 20.1131C14.8912 20.3182 14.613 20.4335 14.3229 20.4335H13.2204L12.8733 22.621H13.5937C13.8838 22.621 14.162 22.7362 14.3671 22.9413C14.5723 23.1464 14.6875 23.4246 14.6875 23.7147C14.6875 24.0048 14.5723 24.283 14.3671 24.4881C14.162 24.6932 13.8838 24.8085 13.5937 24.8085H12.5277L12.3206 26.1137C12.2983 26.2556 12.2481 26.3917 12.1731 26.5143C12.0981 26.6368 11.9997 26.7434 11.8835 26.8279C11.7673 26.9124 11.6356 26.9732 11.4959 27.0068C11.3562 27.0404 11.2113 27.0461 11.0694 27.0237ZM8.84542 20.432L8.49833 22.6195H10.6581L11.0052 20.432H8.84542Z" fill="#49A0EB"/>
</svg>
