<svg width="43" height="44" viewBox="0 0 43 44" fill="none" xmlns="http://www.w3.org/2000/svg">
<path d="M6.68091 1.375C6.68091 1.01033 6.82288 0.660591 7.0756 0.402728C7.32831 0.144866 7.67107 0 8.02846 0L34.9796 0C35.337 0 35.6798 0.144866 35.9325 0.402728C36.1852 0.660591 36.3272 1.01033 36.3272 1.375C36.3272 2.8545 36.2948 4.2625 36.2355 5.599C37.3005 5.77893 38.3193 6.17463 39.232 6.76275C40.1446 7.35086 40.9326 8.1195 41.5495 9.02332C42.1664 9.92715 42.5997 10.9479 42.8238 12.0253C43.0479 13.1027 43.0583 14.215 42.8544 15.2966C42.6505 16.3781 42.2365 17.4071 41.6366 18.3228C41.0367 19.2385 40.2633 20.0223 39.3618 20.6281C38.4603 21.2339 37.4491 21.6494 36.3877 21.8501C35.3263 22.0508 34.2363 22.0325 33.182 21.7965C31.0528 26.9253 28.1205 29.4333 25.5467 30.0768V36.0525L29.3872 37.0315C29.9101 37.1635 30.4033 37.4027 30.8345 37.7327L35.7881 41.525C36.0144 41.6982 36.1815 41.9396 36.2659 42.215C36.3502 42.4905 36.3475 42.786 36.258 43.0598C36.1686 43.3336 35.997 43.5717 35.7675 43.7405C35.5381 43.9092 35.2624 44 34.9796 44H8.02846C7.74564 44 7.46998 43.9092 7.24053 43.7405C7.01109 43.5717 6.8395 43.3336 6.75006 43.0598C6.66062 42.786 6.65787 42.4905 6.7422 42.215C6.82653 41.9396 6.99367 41.6982 7.21993 41.525L12.1736 37.7327C12.6048 37.4027 13.098 37.1635 13.6208 37.0315L17.4614 36.0525V30.0768C14.8875 29.4333 11.9552 26.9253 9.82611 21.7938C8.7712 22.0311 7.68039 22.0503 6.61809 21.8502C5.55579 21.6502 4.54354 21.235 3.64112 20.6292C2.73871 20.0233 1.96442 19.2391 1.364 18.3228C0.763578 17.4065 0.349191 16.3767 0.145311 15.2943C-0.0585687 14.2119 -0.0478065 13.0987 0.176962 12.0206C0.401731 10.9425 0.835948 9.92129 1.45397 9.01726C2.07199 8.11324 2.86129 7.34475 3.77524 6.75717C4.68919 6.1696 5.70927 5.77485 6.77524 5.59625C6.71179 4.1901 6.68033 2.78264 6.68091 1.375ZM6.94772 8.36C5.54138 8.62256 4.29485 9.44442 3.48237 10.6448C2.66989 11.8451 2.358 13.3256 2.61533 14.7606C2.87265 16.1956 3.6781 17.4675 4.8545 18.2966C6.03089 19.1256 7.48186 19.4438 8.88821 19.1812C7.99073 16.2938 7.30348 12.7297 6.94772 8.36ZM34.1226 19.1812C35.5289 19.4438 36.9799 19.1256 38.1563 18.2966C39.3327 17.4675 40.1381 16.1956 40.3954 14.7606C40.6528 13.3256 40.3409 11.8451 39.5284 10.6448C38.7159 9.44442 37.4694 8.62256 36.063 8.36C35.7046 12.7325 35.0173 16.2938 34.1226 19.1812ZM9.3868 2.75C9.40567 4.17175 9.45687 5.5165 9.53773 6.78975C9.88809 12.3668 10.7694 16.5413 11.8825 19.624C14.2111 26.07 17.4182 27.5 18.8089 27.5C19.1663 27.5 19.5091 27.6449 19.7618 27.9027C20.0145 28.1606 20.1565 28.5103 20.1565 28.875V36.0525C20.1565 36.6656 19.9557 37.261 19.586 37.7443C19.2164 38.2276 18.6991 38.571 18.1163 38.72L14.273 39.699C14.0986 39.7433 13.9345 39.8228 13.7906 39.9328L12.0711 41.25H30.9369L29.2175 39.9328C29.0727 39.8225 28.9077 39.743 28.7323 39.699L24.8918 38.72C24.309 38.571 23.7917 38.2276 23.422 37.7443C23.0524 37.261 22.8516 36.6656 22.8516 36.0525V28.875C22.8516 28.5103 22.9936 28.1606 23.2463 27.9027C23.499 27.6449 23.8418 27.5 24.1992 27.5C25.5898 27.5 28.797 26.07 31.1256 19.624C32.2387 16.544 33.12 12.364 33.4703 6.78975C33.5512 5.5165 33.6024 4.17175 33.6213 2.75H9.3868Z" fill="#49A0EB"/>
</svg>
