<svg width="27" height="27" viewBox="0 0 27 27" fill="none" xmlns="http://www.w3.org/2000/svg">
<path d="M11.3125 15.4253C11.6751 15.4253 12.0229 15.5693 12.2793 15.8257C12.5357 16.0821 12.6797 16.4299 12.6797 16.7925C12.6797 17.1551 12.5357 17.5028 12.2793 17.7592C12.0229 18.0156 11.6751 18.1596 11.3125 18.1596C10.9499 18.1596 10.6022 18.0156 10.3458 17.7592C10.0894 17.5028 9.94532 17.1551 9.94532 16.7925C9.94532 16.4299 10.0894 16.0821 10.3458 15.8257C10.6022 15.5693 10.9499 15.4253 11.3125 15.4253ZM11.3125 4.75683C13.5678 4.75683 15.3659 6.60746 15.3659 9.02246C15.3659 10.3043 14.8978 11.0087 13.7756 11.9056L13.1697 12.3759C12.6316 12.8003 12.45 13.0321 12.4128 13.3559L12.3888 13.6971C12.3401 13.9661 12.1924 14.2071 11.975 14.3726C11.7575 14.5381 11.4859 14.6163 11.2137 14.5916C10.9415 14.5669 10.6884 14.4411 10.5042 14.2392C10.3201 14.0372 10.2183 13.7736 10.2188 13.5003C10.2188 12.2534 10.6781 11.5665 11.785 10.6828L12.3931 10.2125C13.0231 9.70934 13.1806 9.46434 13.1806 9.02246C13.1806 7.80184 12.345 6.94433 11.3125 6.94433C10.2319 6.94433 9.43345 7.74496 9.44657 9.01152C9.44947 9.3016 9.33702 9.58096 9.13395 9.78812C9.03341 9.8907 8.91364 9.97247 8.78149 10.0288C8.64934 10.0851 8.50739 10.1148 8.36376 10.1162C8.07368 10.1191 7.79433 10.0067 7.58716 9.80359C7.37999 9.60053 7.26197 9.32348 7.25907 9.0334C7.23501 6.54402 9.02001 4.75683 11.3125 4.75683ZM0.37501 11.3128C0.375902 8.94597 1.1445 6.64332 2.56542 4.75051C3.98634 2.8577 5.98291 1.47688 8.25537 0.815332C10.5278 0.153789 12.9536 0.247229 15.1684 1.08162C17.3833 1.91602 19.2677 3.44634 20.5388 5.44284C21.8099 7.43935 22.3991 9.7943 22.2179 12.1542C22.0367 14.514 21.095 16.7514 19.534 18.5305C17.973 20.3096 15.8771 21.5343 13.5608 22.0208C11.2446 22.5073 8.83298 22.2294 6.68813 21.2287L1.68314 22.2284C1.5067 22.2635 1.32432 22.2546 1.15217 22.2024C0.980014 22.1502 0.823394 22.0563 0.696187 21.9291C0.568981 21.8019 0.475115 21.6453 0.422907 21.4731C0.370699 21.301 0.361761 21.1186 0.396885 20.9421L1.39657 15.935C0.721574 14.4877 0.372831 12.9097 0.37501 11.3128ZM11.3125 2.56277C9.81478 2.56239 8.34202 2.94647 7.03522 3.67823C5.72842 4.40999 4.63132 5.46495 3.84896 6.7421C3.0666 8.01925 2.62517 9.47585 2.56691 10.9724C2.50866 12.469 2.83554 13.9555 3.51626 15.2896C3.6286 15.5094 3.66329 15.7608 3.6147 16.0028L2.8622 19.7631L6.62251 19.0106C6.86451 18.962 7.11584 18.9967 7.33563 19.109C8.51409 19.7095 9.81335 20.035 11.1357 20.0611C12.4581 20.0871 13.7692 19.8131 14.9704 19.2595C16.1716 18.7059 17.2317 17.8873 18.0709 16.865C18.9102 15.8428 19.5068 14.6436 19.8159 13.3576C20.125 12.0716 20.1385 10.7323 19.8555 9.44027C19.5724 8.14828 19.0002 6.93727 18.1817 5.89828C17.3633 4.8593 16.32 4.01937 15.1302 3.44164C13.9404 2.86392 12.6351 2.56343 11.3125 2.56277ZM8.81876 24.2015C10.7624 25.7736 13.1876 26.6294 15.6875 26.6253C17.3369 26.6253 18.9031 26.26 20.3097 25.6037L25.3169 26.6034C25.4933 26.6385 25.6757 26.6296 25.8478 26.5774C26.02 26.5252 26.1766 26.4313 26.3038 26.3041C26.431 26.1769 26.5249 26.0203 26.5771 25.8481C26.6293 25.676 26.6383 25.4936 26.6031 25.3171L25.6034 20.3121C26.2597 18.9056 26.625 17.3371 26.625 15.6878C26.625 13.0868 25.7172 10.7003 24.2013 8.82121C24.513 10.4407 24.5182 12.1042 24.2166 13.7256C24.6752 15.73 24.4159 17.8318 23.4838 19.6646C23.3714 19.8844 23.3367 20.1358 23.3853 20.3778L24.1378 24.1381L20.3753 23.3856C20.134 23.3375 19.8835 23.3722 19.6644 23.484C17.8312 24.4176 15.7282 24.677 13.7231 24.2168C12.1018 24.5183 10.4382 24.5131 8.81876 24.2015Z" fill="#49A0EB"/>
</svg>
