<svg width="42" height="42" viewBox="0 0 42 42" fill="none" xmlns="http://www.w3.org/2000/svg">
<path d="M21.0001 0.166748C9.51258 0.166748 0.166748 7.64383 0.166748 16.8334C0.166748 22.8918 4.12091 28.323 10.5834 31.2793V41.8334L21.7084 33.4897C32.8688 33.1918 41.8334 25.8334 41.8334 16.8334C41.8334 7.64383 32.4876 0.166748 21.0001 0.166748ZM21.0001 29.3334H20.3063L14.7501 33.5001V28.4647L13.4147 27.9501C7.81258 25.7938 4.33342 21.5334 4.33342 16.8334C4.33342 9.93967 11.8105 4.33342 21.0001 4.33342C30.1897 4.33342 37.6668 9.93967 37.6668 16.8334C37.6668 23.7272 30.1897 29.3334 21.0001 29.3334Z" fill="#49A0EB"/>
<path d="M10.5833 10.5833H31.4166V14.7499H10.5833V10.5833ZM10.5833 18.9166H25.1666V23.0833H10.5833V18.9166Z" fill="#49A0EB"/>
</svg>
