<svg width="42" height="42" viewBox="0 0 42 42" fill="none" xmlns="http://www.w3.org/2000/svg">
<path d="M37.6668 0.166748H4.33342C2.04175 0.166748 0.187581 2.04175 0.187581 4.33342L0.166748 41.8334L8.50008 33.5001H37.6668C39.9584 33.5001 41.8334 31.6251 41.8334 29.3334V4.33342C41.8334 2.04175 39.9584 0.166748 37.6668 0.166748ZM37.6668 29.3334H6.77092L5.54175 30.5626L4.33342 31.7709V4.33342H37.6668V29.3334ZM17.8751 25.1667H33.5001V21.0001H22.0417L17.8751 25.1667ZM25.9167 12.9376C26.3334 12.5209 26.3334 11.8751 25.9167 11.4584L22.2292 7.77092C21.8126 7.35425 21.1667 7.35425 20.7501 7.77092L8.50008 20.0209V25.1667H13.6459L25.9167 12.9376Z" fill="#49A0EB"/>
</svg>
